<svg id="Ñëîé_1" data-name="Ñëîé 1" xmlns="http://www.w3.org/2000/svg" viewBox="0 0 976.29 579.25"><defs><style>.cls-1{fill:#93c01f;}.cls-2{fill:#79ab2b;}.cls-3{fill:#7eae2a;}.cls-4{fill:#80b129;}.cls-5{fill:#84b427;}.cls-6{fill:#89b825;}.cls-7{fill:#8cba23;}.cls-8{fill:#90be21;}.cls-9{fill:#a9b21b;}.cls-10{fill:#b99e19;}.cls-11{fill:#c78617;}.cls-12{fill:#d16a17;}.cls-13{fill:#da4515;}.cls-14{fill:#e20613;}.cls-15{fill:#ca2f0d;}.cls-16{fill:#e64410;}</style></defs><path class="cls-1" d="M616,179.68c-.17.78-.37,1.55-.61,2.3l23.78-18.06a27.51,27.51,0,0,1,1.29-2.81Z"/><path class="cls-1" d="M10.39,369.46c.35.31.69.63,1,1l39.75-30.94c-.39-.28-.76-.57-1.13-.87Z"/><path class="cls-1" d="M18.79,323.88c-.18.76-.39,1.5-.63,2.24l24-18.69a26,26,0,0,1,1.36-2.81Z"/><path class="cls-1" d="M700.35,125.41c-7.45,0-16.86,2.93-22.93,7.59l-19,14.43a26.17,26.17,0,0,1,3.07-.49l12.12-9.21a46.82,46.82,0,0,1,26.76-8.88,27.56,27.56,0,0,1,8.78,1.32l10.42,3.59v-3.08l-12.48-4.29A20.83,20.83,0,0,0,700.35,125.41Z"/><path class="cls-1" d="M73.09,291.38c.57.13,1.13.28,1.69.44l43.08-33.53c-.22-.42-.42-.84-.62-1.27Z"/><path class="cls-1" d="M60.26,291.6a27.54,27.54,0,0,1,3-.61l51.92-40.4c-.09-.52-.17-1-.23-1.57Z"/><path class="cls-1" d="M594.47,208l1.06.42.54.22a16.34,16.34,0,0,0,1.57-1.51,11.48,11.48,0,0,0-1-.76Z"/><path class="cls-1" d="M91.59,306.27c.2.43.39.86.57,1.31l45.21-35.19c-.6-.1-1.2-.22-1.79-.36Z"/><path class="cls-1" d="M243.87,229.8a33.5,33.5,0,0,1-4,2.56c.31.54.61,1.09.88,1.65l44.71-33.8c-.62-.14-1.23-.29-1.83-.46Z"/><path class="cls-1" d="M559.38,253.59c-6,4.4-14.09,6.9-22.18,7.48a27.87,27.87,0,0,1-2.93,3.56c7.81-.07,16.18-2.48,21.34-6.35l7.84-5.82c-.14-.54-.26-1.08-.36-1.63Z"/><path class="cls-1" d="M344.87,191l-15.09-5.85a31,31,0,0,0-11.11-1.85c-.78,0-1.58,0-2.37.07a26.75,26.75,0,0,1-1.65,3.56q2-.18,4-.18A37.05,37.05,0,0,1,332.06,189l18.59,7.2A27.15,27.15,0,0,1,344.87,191Z"/><path class="cls-1" d="M640.26,114.24c-.23-.44-.44-.89-.65-1.34l-45.2,34.33c.63.11,1.26.24,1.88.4Z"/><path class="cls-1" d="M707.08,87.34a20.9,20.9,0,0,0-6.73-1,39.59,39.59,0,0,0-12.58,2.25,27,27,0,0,1,1.36,2.75,45.16,45.16,0,0,1,11.22-1.55,27.3,27.3,0,0,1,8.79,1.32l4.36,1.5a25.42,25.42,0,0,1,1.15-2.68Z"/><path class="cls-1" d="M369.5,200.52a26.7,26.7,0,0,1-3.81.27,27.52,27.52,0,0,1-4-.29l62,24a25.41,25.41,0,0,1,2.78-1.92Z"/><path class="cls-1" d="M683.86,83.3A46.7,46.7,0,0,1,700.35,80a27.3,27.3,0,0,1,8.79,1.32l9.07,3.12c.43-.51.88-1,1.35-1.49V81.86l-12.48-4.29a20.92,20.92,0,0,0-6.73-1,41.54,41.54,0,0,0-18.5,4.79A26,26,0,0,1,683.86,83.3Z"/><path class="cls-1" d="M466.18,238a27.42,27.42,0,0,1,.76,3.28l21.29,8.25a28.82,28.82,0,0,1-.25-3.09Z"/><path class="cls-1" d="M579.08,208.63c-.26-.09-.5-.2-.74-.31a16.1,16.1,0,0,0-1.49,1.49c.27.24.57.48.89.72l2.1-1.59Z"/><path class="cls-1" d="M707.08,97.1a20.92,20.92,0,0,0-6.73-1,37.54,37.54,0,0,0-9.47,1.3,28,28,0,0,1,.33,3.19,44.83,44.83,0,0,1,9.14-1,27.58,27.58,0,0,1,8.79,1.32l2.74,1a25.12,25.12,0,0,1,.18-3Z"/><path class="cls-1" d="M707.08,106.86a20.87,20.87,0,0,0-6.73-1,37.74,37.74,0,0,0-9.65,1.35,25.56,25.56,0,0,1-1,3.48,44.42,44.42,0,0,1,10.61-1.38,27.3,27.3,0,0,1,8.79,1.31l4.85,1.67a27.43,27.43,0,0,1-1.19-3.48Z"/><path class="cls-1" d="M609.36,155.4c.33.36.66.72,1,1.09l40.85-31q-.69-.39-1.35-.81Z"/><path class="cls-1" d="M613.79,161.8q.33.66.63,1.35L660,128.51c-.64-.1-1.28-.23-1.91-.38Z"/><path class="cls-1" d="M700.35,115.65a40.94,40.94,0,0,0-15.15,3.2,27,27,0,0,1-13.94,9.06l-55,41.75c.08.56.15,1.12.2,1.68L673.6,128a46.72,46.72,0,0,1,26.75-8.88,27.58,27.58,0,0,1,8.79,1.32L719.56,124v-3.09l-12.48-4.29A20.85,20.85,0,0,0,700.35,115.65Z"/><path class="cls-1" d="M603.08,150.4c.45.26.9.54,1.33.82l40.38-30.66c-.33-.36-.66-.72-1-1.09Z"/><polygon class="cls-1" points="585.92 214.32 587.58 214.99 590.18 213.06 588.51 212.4 585.92 214.32"/><path class="cls-1" d="M570.51,264.84l-11.13,8.27c-6.83,5-16.43,7.58-25.6,7.61a38.06,38.06,0,0,1-13.54-2.3L464.88,257a26.67,26.67,0,0,1-1.3,2.49l58.94,22.82a31.5,31.5,0,0,0,11.26,1.87c8,0,16.56-2.4,21.83-6.35l16-11.91C571.25,265.55,570.87,265.2,570.51,264.84Z"/><path class="cls-1" d="M19.21,313.78c.08.54.14,1.07.18,1.62L76.2,271.19a28.1,28.1,0,0,1-3.54,1Z"/><path class="cls-1" d="M594.47,217.73l1.06.42.54.23a17.65,17.65,0,0,0,1.57-1.51c-.3-.26-.63-.52-1-.77Z"/><path class="cls-1" d="M383.49,225.47a27.18,27.18,0,0,1,4.17,4.6l26.23,10.16c.2-.92.44-1.83.72-2.71Z"/><path class="cls-1" d="M194.14,261l-12.28-4.51a30.85,30.85,0,0,0-10.5-1.67,37.7,37.7,0,0,0-4.23.22,27.2,27.2,0,0,1-1.64,3.6,48.44,48.44,0,0,1,5.87-.37,37,37,0,0,1,12.69,2.06l13.91,5.1A26.9,26.9,0,0,1,194.14,261Z"/><path class="cls-1" d="M568.52,227.26l-9.14,6.8a41.25,41.25,0,0,1-17.83,7,27.2,27.2,0,0,1,.38,3.28,34,34,0,0,0,13.68-5.57L568,229.52c.26-.36.54-.7.83-1.05A9.88,9.88,0,0,1,568.52,227.26Z"/><path class="cls-1" d="M3.53,365c.47.22.94.44,1.39.68L45.63,334c-.28-.37-.55-.74-.81-1.12Z"/><path class="cls-1" d="M81.32,294.74c.41.26.82.52,1.22.8l39.84-31c-.32-.33-.63-.67-.94-1Z"/><path class="cls-1" d="M388.44,188.33a27.68,27.68,0,0,1-1.68,2.34l105.31,40.78a26,26,0,0,1,1.65-2.35Z"/><path class="cls-1" d="M243.87,210.27c-7,5.21-16.84,7.88-26.23,7.91a38.11,38.11,0,0,1-12.9-2.08l-22.88-8.41a30.85,30.85,0,0,0-10.5-1.67c-8.15,0-17.09,2.61-22.43,6.81l-7.63,5.94h.47c.58,0,1.16,0,1.73.06l1.55-1.21c6.94-5.35,16.88-8.11,26.31-8.14a37,37,0,0,1,12.69,2.06l22.87,8.4.8.26a27.11,27.11,0,0,1,18.76.51A34.36,34.36,0,0,0,240.06,215l30.8-23.29c-.33-.36-.64-.74-.95-1.12Z"/><path class="cls-1" d="M181.86,246.75a30.6,30.6,0,0,0-10.5-1.68c-.86,0-1.73,0-2.6.09,0,.2,0,.4,0,.6a27.11,27.11,0,0,1-.15,2.86c.92-.06,1.83-.09,2.74-.1a37,37,0,0,1,12.69,2.06l6.33,2.33a25.6,25.6,0,0,1-.69-3.29Z"/><path class="cls-1" d="M366.19,218.77l-36.41-14.1a31,31,0,0,0-11.11-1.85c-8,0-16.6,2.45-21.85,6.46l-14.4,10.89a28.42,28.42,0,0,1,3.71-1L293,214c6.82-5.12,16.46-7.72,25.66-7.75a37.06,37.06,0,0,1,13.39,2.29L360,219.36a27.25,27.25,0,0,1,5.69-.6Z"/><path class="cls-1" d="M87.34,299.81c.31.35.6.7.89,1.06l40.47-31.49c-.43-.24-.86-.5-1.28-.76Z"/><path class="cls-1" d="M329.78,165.62a31,31,0,0,0-11.11-1.85c-.83,0-1.68,0-2.52.07a25.94,25.94,0,0,1,1.1,3.4c.47,0,.95,0,1.42,0a37.27,37.27,0,0,1,13.39,2.28l6.69,2.59a26.91,26.91,0,0,1,.34-2.86Z"/><path class="cls-1" d="M91.4,257.61a28.58,28.58,0,0,1-1.84,3.18l25.67-20c.14-.72.3-1.43.49-2.13Z"/><path class="cls-1" d="M181.86,237a30.85,30.85,0,0,0-10.5-1.67,41.61,41.61,0,0,0-4.58.25,28.89,28.89,0,0,1,1.11,3.33c1.16-.08,2.32-.13,3.47-.13a37,37,0,0,1,12.69,2.06l5.52,2A24.88,24.88,0,0,1,190,240Z"/><path class="cls-1" d="M243.87,249.33c-.25.19-.51.36-.77.54-.12.75-.27,1.49-.44,2.21l24.18-18.29a26.12,26.12,0,0,1,2-3.31Z"/><path class="cls-1" d="M243.87,259.09a34.68,34.68,0,0,1-6.62,3.83,27.19,27.19,0,0,1-5.78,5.24,30.49,30.49,0,0,0,8.59-4.35l24-18.14c0-.64,0-1.27.08-1.9Z"/><path class="cls-1" d="M329.78,175.38a31,31,0,0,0-11.11-1.85h-.62v.26a28,28,0,0,1-.19,3.19l.81,0a37.27,37.27,0,0,1,13.39,2.28l8,3.11a28.1,28.1,0,0,1-.89-3.33Z"/><path class="cls-1" d="M391.66,238.39a27.59,27.59,0,0,1,.72,3.27l21.26,8.24a29,29,0,0,1-.29-3.11Z"/><path class="cls-1" d="M329.78,214.43a31.44,31.44,0,0,0-11.11-1.85c-8,0-16.6,2.45-21.85,6.47l-.34.25a27.69,27.69,0,0,1,2.88.76,47.82,47.82,0,0,1,19.31-4,37.05,37.05,0,0,1,13.39,2.28l16.66,6.45a27.38,27.38,0,0,1,2.72-1.94Z"/><path class="cls-1" d="M243.87,220a37.14,37.14,0,0,1-10,5.16c.74.64,1.45,1.31,2.13,2a24.62,24.62,0,0,0,4-2.47L277,196.84c-.44-.27-.88-.56-1.3-.86Z"/><path class="cls-1" d="M577.82,220.35c.31.22.63.44,1,.66.49-.22,1-.42,1.48-.6l1.34-1-1.66-.66Z"/><path class="cls-1" d="M181.86,217.45a30.85,30.85,0,0,0-10.5-1.67,40.87,40.87,0,0,0-19.56,4.91,25.41,25.41,0,0,1,3,1.43,49.61,49.61,0,0,1,16.53-2.89,37,37,0,0,1,12.69,2.06l13.65,5a28,28,0,0,1,2.48-2.12Z"/><path class="cls-1" d="M467.21,248.12a26.23,26.23,0,0,1-.39,2.84l25.84,10a26.38,26.38,0,0,1-2.18-3.84Z"/><path class="cls-1" d="M457.28,224.75a26.8,26.8,0,0,1,4.62,4.78l26.71,10.34a26.92,26.92,0,0,1,.76-2.7Z"/><path class="cls-1" d="M559.38,243.82a41.26,41.26,0,0,1-17.89,7,27.56,27.56,0,0,1-.92,3.52c5.75-.93,11.26-3,15-5.81l7.12-5.29c.06-.71.16-1.41.28-2.11Z"/><path class="cls-1" d="M329.78,194.91a31,31,0,0,0-11.11-1.85,42,42,0,0,0-10,1.2,26.78,26.78,0,0,1-13,6.13l-51.8,39.18c-.33.24-.67.48-1,.71.12.55.21,1.11.29,1.68L293,204.24c6.82-5.11,16.46-7.71,25.66-7.74a37.27,37.27,0,0,1,13.39,2.28l85.17,33a27.36,27.36,0,0,1,1.62-2.36Z"/><path class="cls-1" d="M559.38,282.87c-6.83,5-16.43,7.58-25.6,7.61a37.62,37.62,0,0,1-13.54-2.3l-60.67-23.49a27,27,0,0,1-2.32,2.09l63.33,24.53a26.07,26.07,0,0,1,5.54,1.82,35.43,35.43,0,0,0,7.66.8c8,0,16.56-2.41,21.83-6.36l23-17.13c-.52-.24-1-.49-1.55-.75Z"/><path class="cls-1" d="M559.38,263.35c-6.83,5-16.43,7.58-25.6,7.61a43.65,43.65,0,0,1-7.56-.66,26.93,26.93,0,0,1-5,1.72l1.31.51a31.5,31.5,0,0,0,11.26,1.87c8,0,16.56-2.4,21.83-6.36l11-8.16c-.27-.43-.53-.88-.77-1.33Z"/><path class="cls-1" d="M441.93,218.81,381.74,195.5a27.42,27.42,0,0,1-2.89,1.87l56.45,21.86a26.86,26.86,0,0,1,5-.47C440.86,218.76,441.4,218.78,441.93,218.81Z"/><path class="cls-1" d="M181.86,227.22a30.85,30.85,0,0,0-10.5-1.67A42.25,42.25,0,0,0,161,226.84a26.07,26.07,0,0,1,2.42,2.82,50.35,50.35,0,0,1,7.91-.66,37,37,0,0,1,12.69,2.06l8,2.95a25.71,25.71,0,0,1,1.4-2.52Z"/><path class="cls-1" d="M41.38,325.82,0,358v1.75L41.86,327.2C41.69,326.74,41.53,326.29,41.38,325.82Z"/><polygon class="cls-1" points="586.7 201.91 584.14 203.85 585.71 204.48 588.27 202.53 586.7 201.91"/><path class="cls-1" d="M962.8,560.59a27,27,0,1,1,13.49-50.38V485a27,27,0,1,1,0-46.77V413.06a27,27,0,1,1,0-46.77V341.1a27,27,0,1,1,0-46.77V269.14a27,27,0,1,1,0-46.77V197.18a27,27,0,1,1,0-46.77V125.22a27,27,0,1,1,0-46.77V53.26a27,27,0,0,1-40.48-23.38V29.5a49.79,49.79,0,0,0-21.42,6.8,27,27,0,0,1-26.23,20.58c-.63,0-1.25,0-1.87-.07l-4.22,3.11s-22,19.31-54.4,7.28c.1-.1-31.48-12.06-64.94-24.66a27,27,0,0,1-50.85-12.66,26.63,26.63,0,0,1,.72-6.16c-13.53-5-23.62-8.8-26.62-9.85a27,27,0,1,1-48.71,17.05l-95.4,73.16a27,27,0,0,1-31.72,24.32l-6.77,5.19s-22,19.31-54.38,7.28c.1-.1-30.19-11.62-61.29-23.42a27,27,0,0,1-49-15.61,27.53,27.53,0,0,1,.16-2.89l-17.63-6.67a32.2,32.2,0,0,0-5.56-1.54,27,27,0,1,1-50.37,19.19l-42.86,32.41a35.79,35.79,0,0,1-8.34,4.56c.77-.06,1.54-.1,2.33-.1a27,27,0,1,1-12,2.8c-7.7,1.36-15.78,1-22.13-1.29L156.89,139C145,134.6,127,137.4,117,145.21l-24.54,19.1A27,27,0,0,1,51.74,196L11.89,227a26.94,26.94,0,0,1,7.61,18.78A27,27,0,0,1,0,271.69v20.09A27.09,27.09,0,0,1,17.38,307.2l44.84-34.9a27,27,0,1,1,31.91-26.54c0,.59,0,1.17-.06,1.76l51-39.68c6.94-5.34,16.88-8.11,26.31-8.13a37,37,0,0,1,12.69,2l22.87,8.4a31.56,31.56,0,0,0,10.72,1.71c8.14,0,17.05-2.54,22.42-6.64l26.51-20a27,27,0,0,1,46.24-27.37,52.38,52.38,0,0,1,5.86-.37,37.06,37.06,0,0,1,13.39,2.29l8.82,3.41a27,27,0,0,1,50.32,19.49l32.89,12.73a27,27,0,1,1,16.24,5.43q-1.27,0-2.52-.12l60.85,23.57a27,27,0,0,1,41,10.7c6.06-.85,11.94-3,15.91-5.95L569,219.05a11.46,11.46,0,0,1-.76-4.09,12.81,12.81,0,0,1,1.06-5,11.56,11.56,0,0,1-1.06-4.8,12.77,12.77,0,0,1,1.06-5,11.57,11.57,0,0,1-1.06-4.81,12.48,12.48,0,0,1,.77-4.21,27,27,0,0,1,14.67-43.76l54-41A27,27,0,0,1,676,77.52a47.26,47.26,0,0,1,24.38-7.24,27,27,0,0,1,8.79,1.32l10.42,3.58V66l5.1-3.1,7.11,12.91a27.29,27.29,0,0,1,7.11-1,27,27,0,0,1,3.48,53.77l-17.11,21.88a27,27,0,1,1-5.69,4.45v-14.5l-12.48-4.29a20.81,20.81,0,0,0-6.72-1c-7.46,0-16.87,2.93-22.94,7.59L671,147.65a27,27,0,1,1-33.75,26.15c0-.18,0-.36,0-.53L605.4,197.46a11.37,11.37,0,0,1,.93,4.48,12.39,12.39,0,0,1-1.07,5,11.42,11.42,0,0,1,1.07,4.81,12.47,12.47,0,0,1-1.07,5,11.34,11.34,0,0,1,1.07,4.8,11.59,11.59,0,0,1-.35,2.82,27,27,0,0,1-16.37,48.46,28.41,28.41,0,0,1-3.22-.19l-27,20.07c-6.4,4.72-15.23,7.25-23.87,7.58a27,27,0,1,1-29.77-7.88l-55.47-21.48a27,27,0,0,1-34.21-13.24l-23.51-9.11A27,27,0,1,1,344,229.69l-14.21-5.5a31.22,31.22,0,0,0-11.11-1.84A42.53,42.53,0,0,0,307,224a27,27,0,1,1-42,28.89l-21.13,16c-7,5.18-16.85,7.87-26.24,7.89a37.6,37.6,0,0,1-12.89-2.08l-22.88-8.4a30.85,30.85,0,0,0-10.5-1.67,42.78,42.78,0,0,0-12.19,1.8,26.91,26.91,0,0,1-11,5.58L93.91,314.23a28.54,28.54,0,0,1,.23,3.49,27,27,0,0,1-37,25.09l-41.8,32.53a26.88,26.88,0,0,1,4.12,14.34A27,27,0,0,1,0,415.61V435.7a27,27,0,0,1,19.5,25.93A27,27,0,0,1,0,487.57v20.09a27,27,0,0,1,19.5,25.93A27,27,0,0,1,0,559.53v19.72H976.29V557A26.9,26.9,0,0,1,962.8,560.59Zm-821-359.8a27,27,0,1,1,27-27A27,27,0,0,1,141.78,200.79Zm373.19,0a27,27,0,1,1,27-27A27,27,0,0,1,515,200.79Zm74.64-71.95a27,27,0,1,1,27-27A27,27,0,0,1,589.61,128.84ZM67.14,560.59a27,27,0,1,1,27-27A27,27,0,0,1,67.14,560.59Zm0-72a27,27,0,1,1,27-27A27,27,0,0,1,67.14,488.63Zm0-72a27,27,0,1,1,27-27A27,27,0,0,1,67.14,416.67Zm74.64,143.92a27,27,0,1,1,27-27A27,27,0,0,1,141.78,560.59Zm0-72a27,27,0,1,1,27-27A27,27,0,0,1,141.78,488.63Zm0-72a27,27,0,1,1,27-27A27,27,0,0,1,141.78,416.67Zm0-72a27,27,0,1,1,27-27A27,27,0,0,1,141.78,344.71Zm74.64,215.88a27,27,0,1,1,27-27A27,27,0,0,1,216.42,560.59Zm0-72a27,27,0,1,1,27-27A27,27,0,0,1,216.42,488.63Zm0-72a27,27,0,1,1,27-27A27,27,0,0,1,216.42,416.67Zm0-72a27,27,0,1,1,27-27A27,27,0,0,1,216.42,344.71Zm74.63,215.88a27,27,0,1,1,27-27A27,27,0,0,1,291.05,560.59Zm0-72a27,27,0,1,1,27-27A27,27,0,0,1,291.05,488.63Zm0-72a27,27,0,1,1,27-27A27,27,0,0,1,291.05,416.67Zm0-72a27,27,0,1,1,27-27A27,27,0,0,1,291.05,344.71Zm74.64,215.88a27,27,0,1,1,27-27A27,27,0,0,1,365.69,560.59Zm0-72a27,27,0,1,1,27-27A27,27,0,0,1,365.69,488.63Zm0-72a27,27,0,1,1,27-27A27,27,0,0,1,365.69,416.67Zm0-72a27,27,0,1,1,27-27A27,27,0,0,1,365.69,344.71Zm74.64,215.88a27,27,0,1,1,27-27A27,27,0,0,1,440.33,560.59Zm0-72a27,27,0,1,1,27-27A27,27,0,0,1,440.33,488.63Zm0-72a27,27,0,1,1,27-27A27,27,0,0,1,440.33,416.67Zm0-72a27,27,0,1,1,27-27A27,27,0,0,1,440.33,344.71ZM515,560.59a27,27,0,1,1,27-27A27,27,0,0,1,515,560.59Zm0-72a27,27,0,1,1,27-27A27,27,0,0,1,515,488.63Zm0-72a27,27,0,1,1,27-27A27,27,0,0,1,515,416.67Zm74.64,143.92a27,27,0,1,1,27-27A27,27,0,0,1,589.61,560.59Zm0-72a27,27,0,1,1,27-27A27,27,0,0,1,589.61,488.63Zm0-72a27,27,0,1,1,27-27A27,27,0,0,1,589.61,416.67Zm0-72a27,27,0,1,1,27-27A27,27,0,0,1,589.61,344.71Zm74.63,215.88a27,27,0,1,1,27-27A27,27,0,0,1,664.24,560.59Zm0-72a27,27,0,1,1,27-27A27,27,0,0,1,664.24,488.63Zm0-72a27,27,0,1,1,27-27A27,27,0,0,1,664.24,416.67Zm0-72a27,27,0,1,1,27-27A27,27,0,0,1,664.24,344.71Zm0-72a27,27,0,1,1,27-27A27,27,0,0,1,664.24,272.75Zm74.64,287.84a27,27,0,1,1,27-27A27,27,0,0,1,738.88,560.59Zm0-72a27,27,0,1,1,27-27A27,27,0,0,1,738.88,488.63Zm0-72a27,27,0,1,1,27-27A27,27,0,0,1,738.88,416.67Zm0-72a27,27,0,1,1,27-27A27,27,0,0,1,738.88,344.71Zm0-72a27,27,0,1,1,27-27A27,27,0,0,1,738.88,272.75Zm74.64,287.84a27,27,0,1,1,27-27A27,27,0,0,1,813.52,560.59Zm0-72a27,27,0,1,1,27-27A27,27,0,0,1,813.52,488.63Zm0-72a27,27,0,1,1,27-27A27,27,0,0,1,813.52,416.67Zm0-72a27,27,0,1,1,27-27A27,27,0,0,1,813.52,344.71Zm0-72a27,27,0,1,1,27-27A27,27,0,0,1,813.52,272.75Zm0-72a27,27,0,1,1,27-27A27,27,0,0,1,813.52,200.79Zm0-71.95a27,27,0,1,1,27-27A27,27,0,0,1,813.52,128.84Zm74.64,431.75a27,27,0,1,1,27-27A27,27,0,0,1,888.16,560.59Zm0-72a27,27,0,1,1,27-27A27,27,0,0,1,888.16,488.63Zm0-72a27,27,0,1,1,27-27A27,27,0,0,1,888.16,416.67Zm0-72a27,27,0,1,1,27-27A27,27,0,0,1,888.16,344.71Zm0-72a27,27,0,1,1,27-27A27,27,0,0,1,888.16,272.75Zm0-72a27,27,0,1,1,27-27A27,27,0,0,1,888.16,200.79Zm0-71.95a27,27,0,1,1,27-27A27,27,0,0,1,888.16,128.84Z"/><path class="cls-1" d="M579.08,198.87l-.74-.31a16,16,0,0,0-1.49,1.48,11.2,11.2,0,0,0,.89.73l2.1-1.6Z"/><path class="cls-1" d="M40.14,317.72c0-.24,0-.48,0-.71L0,348.26V350l40.17-31.26C40.15,318.41,40.14,318.06,40.14,317.72Z"/><path class="cls-2" d="M935.81,29.5v.38a27,27,0,0,0,40.48,23.38V41.36c-16.51-6.14-27.25-10.12-29-10.71A29.51,29.51,0,0,0,935.81,29.5Z"/><path class="cls-2" d="M649.41,21.6l-12.14,9.32A27,27,0,1,0,686,13.87l-.36-.12C675.83,10.38,659.54,13.92,649.41,21.6Z"/><path class="cls-2" d="M886.29,56.81c.62,0,1.24.07,1.87.07A27,27,0,0,0,914.39,36.3a37,37,0,0,0-3.29,2.21Z"/><path class="cls-2" d="M711.88,29.88a27,27,0,0,0,50.85,12.66c-17.65-6.65-35.81-13.46-50.13-18.82A26.63,26.63,0,0,0,711.88,29.88Z"/><path class="cls-3" d="M888.16,74.84a27,27,0,1,0,27,27A27,27,0,0,0,888.16,74.84Z"/><path class="cls-3" d="M281.23,97.88l-15.94,12.05a27,27,0,1,0,50.37-19.19C304.26,88.56,289.89,91.34,281.23,97.88Z"/><path class="cls-3" d="M813.52,74.84a27,27,0,1,0,27,27A27,27,0,0,0,813.52,74.84Z"/><path class="cls-3" d="M589.61,74.84a27,27,0,1,0,27,27A27,27,0,0,0,589.61,74.84Z"/><path class="cls-3" d="M742.36,128.61a27,27,0,0,0-3.48-53.77,27.29,27.29,0,0,0-7.11,1l21.43,39Z"/><path class="cls-3" d="M515,128.84a27,27,0,0,0,26.9-24.76L510.15,128.4A27.26,27.26,0,0,0,515,128.84Z"/><path class="cls-3" d="M676,77.52a27,27,0,0,0-38.32,28.94l36-27.31C674.36,78.58,675.16,78,676,77.52Z"/><path class="cls-3" d="M338.69,101.84a27,27,0,0,0,49,15.61L338.85,99A27.53,27.53,0,0,0,338.69,101.84Z"/><path class="cls-3" d="M935.81,101.84a27,27,0,0,0,40.48,23.38V78.45a27,27,0,0,0-40.48,23.39Z"/><path class="cls-3" d="M677.42,113.47l-19.3,14.66c.63.15,1.27.28,1.91.38L673.6,118.2a45.48,45.48,0,0,1,16.14-7.49,25.56,25.56,0,0,0,1-3.48A39,39,0,0,0,677.42,113.47Z"/><path class="cls-3" d="M685.2,118.85a34.76,34.76,0,0,0-7.78,4.38l-6.16,4.68A27,27,0,0,0,685.2,118.85Z"/><path class="cls-3" d="M719.56,84.94V83c-.47.48-.92,1-1.35,1.49Z"/><path class="cls-3" d="M677.42,103.71l-27.59,21q.66.42,1.35.81l22.42-17a45.77,45.77,0,0,1,17.61-7.83,28,28,0,0,0-.33-3.19A38.76,38.76,0,0,0,677.42,103.71Z"/><path class="cls-3" d="M677.42,93.94l-33.61,25.53c.32.37.65.73,1,1.09L673.6,98.68a45.08,45.08,0,0,1,15.53-7.33,27,27,0,0,0-1.36-2.75A37.08,37.08,0,0,0,677.42,93.94Z"/><path class="cls-3" d="M711.88,101.83l7.68,2.64v-3.08l-7.5-2.58A25.12,25.12,0,0,0,711.88,101.83Z"/><path class="cls-3" d="M713.5,92.62l6.06,2.09V91.62l-4.91-1.68A25.42,25.42,0,0,0,713.5,92.62Z"/><path class="cls-3" d="M714,112.31l5.57,1.92v-3.08l-6.76-2.32A27.43,27.43,0,0,0,714,112.31Z"/><path class="cls-3" d="M673.6,88.91a42.94,42.94,0,0,1,10.26-5.61,26,26,0,0,0-2-1.92,30.93,30.93,0,0,0-4.43,2.8L639.61,112.9c.21.45.42.9.65,1.34Z"/><path class="cls-4" d="M296.82,189.76l-13.21,10c.6.17,1.21.32,1.83.46l7.57-5.73c5.83-4.37,13.72-6.9,21.64-7.56a26.75,26.75,0,0,0,1.65-3.56C309,183.77,301.56,186.14,296.82,189.76Z"/><path class="cls-4" d="M369.5,200.52,344.87,191a27.15,27.15,0,0,0,5.78,5.23l11.06,4.28a27.52,27.52,0,0,0,4,.29A26.7,26.7,0,0,0,369.5,200.52Z"/><path class="cls-4" d="M935.81,173.8a27,27,0,0,0,40.48,23.38V150.41a27,27,0,0,0-40.48,23.39Z"/><path class="cls-4" d="M67.14,200.79a27,27,0,0,0,25.28-36.48L51.74,196A26.85,26.85,0,0,0,67.14,200.79Z"/><path class="cls-4" d="M189.42,173.8a27,27,0,1,0,27-27c-.79,0-1.56,0-2.33.1a49,49,0,0,1-9.66,2.7A27,27,0,0,0,189.42,173.8Z"/><path class="cls-4" d="M392.69,173.8a27,27,0,0,0-51.81-10.66l50.32,19.49A26.92,26.92,0,0,0,392.69,173.8Z"/><path class="cls-4" d="M440.33,200.79a27,27,0,1,0-16.24-5.43l13.72,5.31Q439.05,200.79,440.33,200.79Z"/><path class="cls-4" d="M637.24,173.8A27,27,0,1,0,671,147.65l-33.73,25.62C637.25,173.44,637.24,173.62,637.24,173.8Z"/><path class="cls-4" d="M296.82,199.52l-1.15.87a26.78,26.78,0,0,0,13-6.13A32.48,32.48,0,0,0,296.82,199.52Z"/><path class="cls-4" d="M609.36,155.4l-25.22,19.16,1.58.63,24.61-18.7C610,156.12,609.69,155.76,609.36,155.4Z"/><path class="cls-4" d="M515,146.8a27,27,0,1,0,27,27A27,27,0,0,0,515,146.8Z"/><path class="cls-4" d="M594.15,188.31l2.23-1.7a15.3,15.3,0,0,0-1.36-.79l-2.45,1.86Z"/><path class="cls-4" d="M141.78,146.8a27,27,0,1,0,27,27A27,27,0,0,0,141.78,146.8Z"/><path class="cls-4" d="M813.52,146.8a27,27,0,1,0,27,27A27,27,0,0,0,813.52,146.8Z"/><path class="cls-4" d="M318.05,173.54c-7.8.09-16.11,2.55-21.23,6.46l-21.14,16c.42.3.86.59,1.3.86l16-12.12c6.62-5,15.89-7.56,24.85-7.73a28,28,0,0,0,.19-3.19Z"/><polygon class="cls-4" points="585.71 194.71 588.27 192.77 586.69 192.14 584.14 194.08 585.71 194.71"/><path class="cls-4" d="M339.2,179a28.1,28.1,0,0,0,.89,3.33l38.76,15a27.42,27.42,0,0,0,2.89-1.87Z"/><path class="cls-4" d="M576.85,190.28c.27.24.57.48.89.72l2.1-1.59-.76-.3-.74-.31A16,16,0,0,0,576.85,190.28Z"/><polygon class="cls-4" points="585.71 184.95 588.27 183.01 586.7 182.38 584.14 184.32 585.71 184.95"/><path class="cls-4" d="M296.82,170.23l-26.91,20.35c.31.38.62.76.95,1.12L293,175c6.48-4.85,15.48-7.45,24.25-7.72a25.94,25.94,0,0,0-1.1-3.4C308.93,164.28,301.52,166.64,296.82,170.23Z"/><path class="cls-4" d="M616.29,169.66l-15.88,12.06c.41.3.81.61,1.18.93l14.9-11.31C616.44,170.78,616.37,170.22,616.29,169.66Z"/><path class="cls-4" d="M339.09,169.22a26.91,26.91,0,0,0-.34,2.86l48,18.59a27.68,27.68,0,0,0,1.68-2.34Z"/><path class="cls-4" d="M312.81,157.81a27,27,0,0,0-46.24,27.37l26.43-20C298.38,161.16,305.52,158.69,312.81,157.81Z"/><path class="cls-4" d="M576.85,180.51a11.2,11.2,0,0,0,.89.73l2.1-1.59-.76-.3c-.26-.1-.5-.21-.75-.32A17.2,17.2,0,0,0,576.85,180.51Z"/><path class="cls-4" d="M568.22,185.67a12.64,12.64,0,0,1,1.07-5,11.41,11.41,0,0,1-1.07-4.8,12.6,12.6,0,0,1,1.07-5,11.42,11.42,0,0,1-1.07-4.81c0-4.66,2.76-9.06,7.35-12.54l8.09-6.14A27,27,0,0,0,569,191.22c.09-.25.19-.5.29-.75A11.49,11.49,0,0,1,568.22,185.67Z"/><path class="cls-4" d="M888.16,146.8a27,27,0,1,0,27,27A27,27,0,0,0,888.16,146.8Z"/><path class="cls-4" d="M640.41,161.11a27.51,27.51,0,0,0-1.29,2.81l22.36-17a26.17,26.17,0,0,0-3.07.49Z"/><path class="cls-4" d="M596.29,147.63c-.62-.16-1.25-.29-1.88-.4l-15,11.4a12.92,12.92,0,0,0-4.33,5.14c.17-.13.33-.27.51-.4Z"/><path class="cls-4" d="M603.08,150.4l-23.69,18a17.35,17.35,0,0,0-2.54,2.35,11.2,11.2,0,0,0,.89.73l26.67-20.26C604,150.94,603.53,150.66,603.08,150.4Z"/><path class="cls-4" d="M719.56,156.14v-1.2a27,27,0,1,0,5.69-4.45l-.59.75Z"/><path class="cls-4" d="M616,179.68l-10.55,8a10.59,10.59,0,0,1,.51,1.43l9.43-7.15C615.58,181.23,615.78,180.46,616,179.68Z"/><path class="cls-4" d="M613.79,161.8l-21.22,16.12,1.58.62,20.27-15.39Q614.12,162.46,613.79,161.8Z"/><path class="cls-4" d="M594.14,198.07l2.23-1.69a15.06,15.06,0,0,0-1.35-.8l-2.45,1.86Z"/><path class="cls-5" d="M426.47,222.58a25.41,25.41,0,0,0-2.78,1.92l43.25,16.74a27.42,27.42,0,0,0-.76-3.28Z"/><path class="cls-5" d="M148.93,242.12l-27.49,21.39c.31.35.62.69.94,1l22.67-17.64c6.09-4.69,14.5-7.39,22.84-8a28.89,28.89,0,0,0-1.11-3.33C160,236.32,153.28,238.7,148.93,242.12Z"/><path class="cls-5" d="M577.82,230.11a12.63,12.63,0,0,0,1.38.87l2.43-1.8-1.66-.67Z"/><path class="cls-5" d="M533.78,251.43a38.06,38.06,0,0,1-13.54-2.3l-30.87-12a26.92,26.92,0,0,0-.76,2.7L522.52,253a31.5,31.5,0,0,0,11.26,1.87,42.18,42.18,0,0,0,6.79-.54,27.56,27.56,0,0,0,.92-3.52A51.37,51.37,0,0,1,533.78,251.43Z"/><path class="cls-5" d="M563,241.12c-.12.7-.22,1.4-.28,2.11L573.79,235c-.42-.32-.82-.66-1.19-1Z"/><path class="cls-5" d="M217.64,247.47a37.62,37.62,0,0,1-12.9-2.09L190,240a24.88,24.88,0,0,0-.47,2.87l17.35,6.37a31.49,31.49,0,0,0,10.72,1.69c8.14,0,17.05-2.53,22.42-6.63l3.08-2.32c-.08-.57-.17-1.13-.29-1.68C236,245,226.58,247.44,217.64,247.47Z"/><polygon class="cls-5" points="585.92 224.09 587.58 224.75 590.18 222.82 588.51 222.16 585.92 224.09"/><path class="cls-5" d="M563.09,250.83c.1.55.22,1.09.36,1.63l18.18-13.52-1.66-.66Z"/><path class="cls-5" d="M570.51,264.84c.36.36.74.71,1.12,1.06l23.49-17.46a18,18,0,0,0,2.52-2.28c-.3-.26-.63-.51-1-.76Z"/><path class="cls-5" d="M606.33,231.23a12.48,12.48,0,0,1-1.07,5,11.34,11.34,0,0,1,1.07,4.8,12.43,12.43,0,0,1-1.07,5,11.34,11.34,0,0,1,1.07,4.8c0,4.69-2.8,9.06-7.45,12.51l-12.49,9.29a28.41,28.41,0,0,0,3.22.19A27,27,0,0,0,606,224.29a13.8,13.8,0,0,1-.72,2.14A11.41,11.41,0,0,1,606.33,231.23Z"/><path class="cls-5" d="M565.83,258.55c.24.45.5.9.77,1.33l23.58-17.53-1.66-.67Z"/><path class="cls-5" d="M418.85,229.4a27.36,27.36,0,0,0-1.62,2.36L466.82,251a26.23,26.23,0,0,0,.39-2.84Z"/><path class="cls-5" d="M594.47,237.26l1.06.42.54.22a15.21,15.21,0,0,0,1.57-1.51c-.3-.25-.63-.51-1-.76Z"/><path class="cls-5" d="M233.91,225.2a50.15,50.15,0,0,1-16.27,2.74,37.86,37.86,0,0,1-12.9-2.08l-4.56-1.68a28,28,0,0,0-2.48,2.12l9.22,3.39a31.52,31.52,0,0,0,10.72,1.7,42.48,42.48,0,0,0,18.4-4.17C235.36,226.51,234.65,225.84,233.91,225.2Z"/><path class="cls-5" d="M664.24,218.76a27,27,0,1,0,27,27A27,27,0,0,0,664.24,218.76Z"/><path class="cls-5" d="M148.93,232.36,117.24,257c.2.43.4.85.62,1.27l27.19-21.16a41.29,41.29,0,0,1,18.4-7.47,26.07,26.07,0,0,0-2.42-2.82A32.8,32.8,0,0,0,148.93,232.36Z"/><path class="cls-5" d="M217.64,237.7a37.86,37.86,0,0,1-12.9-2.08l-11.25-4.13a25.71,25.71,0,0,0-1.4,2.52l14.83,5.44a31.48,31.48,0,0,0,10.72,1.7c8.14,0,17.05-2.53,22.42-6.63l.67-.51c-.27-.56-.57-1.11-.88-1.65A48,48,0,0,1,217.64,237.7Z"/><path class="cls-5" d="M520.24,268.66l-29.76-11.53a26.38,26.38,0,0,0,2.18,3.84l28.55,11a26.93,26.93,0,0,0,5-1.72A33.12,33.12,0,0,1,520.24,268.66Z"/><path class="cls-5" d="M594.47,227.49l1.06.43.54.22a16.34,16.34,0,0,0,1.57-1.51,11.48,11.48,0,0,0-1-.76Z"/><path class="cls-5" d="M457.28,224.75l-15.35-5.94c-.53,0-1.07-.05-1.61-.05a26.86,26.86,0,0,0-5,.47l26.6,10.3A26.8,26.8,0,0,0,457.28,224.75Z"/><polygon class="cls-5" points="585.92 233.85 587.58 234.51 590.18 232.59 588.51 231.92 585.92 233.85"/><path class="cls-5" d="M148.93,222.59,115,249c.06.53.14,1,.23,1.57l29.84-23.22a36.67,36.67,0,0,1,9.78-5.25,25.41,25.41,0,0,0-3-1.43A23.4,23.4,0,0,0,148.93,222.59Z"/><path class="cls-5" d="M148.93,261.64,135.58,272c.59.14,1.19.26,1.79.36l7.68-6c5.51-4.25,12.91-6.85,20.44-7.76a27.2,27.2,0,0,0,1.64-3.6C160.26,255.76,153.36,258.16,148.93,261.64Z"/><path class="cls-5" d="M237.25,262.92A49.22,49.22,0,0,1,217.64,267a37.86,37.86,0,0,1-12.9-2.08L194.14,261a26.9,26.9,0,0,0,3.82,4.43l9,3.29a31.47,31.47,0,0,0,10.71,1.69,43.45,43.45,0,0,0,13.84-2.27A27.19,27.19,0,0,0,237.25,262.92Z"/><path class="cls-5" d="M888.16,218.76a27,27,0,1,0,27,27A27,27,0,0,0,888.16,218.76Z"/><path class="cls-5" d="M264.13,243.77c-.05.63-.08,1.26-.08,1.9l29-21.9a34,34,0,0,1,6.35-3.71,27.69,27.69,0,0,0-2.88-.76Z"/><path class="cls-5" d="M533.78,261.19a37.62,37.62,0,0,1-13.54-2.3L488,246.4a28.82,28.82,0,0,0,.25,3.09l34.29,13.28a31.72,31.72,0,0,0,11.26,1.87h.49a27.87,27.87,0,0,0,2.93-3.56Q535.49,261.19,533.78,261.19Z"/><path class="cls-5" d="M579.2,221.22l1.09-.81c-.5.18-1,.38-1.48.6Z"/><path class="cls-5" d="M813.52,218.76a27,27,0,1,0,27,27A27,27,0,0,0,813.52,218.76Z"/><path class="cls-5" d="M94.13,245.76A27,27,0,1,0,62.22,272.3l31.85-24.78C94.11,246.93,94.13,246.35,94.13,245.76Z"/><path class="cls-5" d="M265,252.87A27,27,0,1,0,307,224a31,31,0,0,0-10.19,4.83Z"/><path class="cls-5" d="M351.44,222.82a27.38,27.38,0,0,0-2.72,1.94l43.66,16.9a27.59,27.59,0,0,0-.72-3.27Z"/><path class="cls-5" d="M19.5,245.76A26.94,26.94,0,0,0,11.89,227L0,236.23v35.46A27,27,0,0,0,19.5,245.76Z"/><path class="cls-5" d="M533.78,235.35a43.74,43.74,0,0,0,5.92-.41,27,27,0,0,0-41-10.7l23.86,9.24A31.72,31.72,0,0,0,533.78,235.35Z"/><path class="cls-5" d="M935.81,245.76a27,27,0,0,0,40.48,23.38V222.37a27,27,0,0,0-40.48,23.39Z"/><path class="cls-5" d="M148.2,272a26.91,26.91,0,0,0,11-5.58,31.18,31.18,0,0,0-10.24,5Z"/><path class="cls-5" d="M338.69,245.76a27,27,0,0,0,53.86,2.74L344,229.69A26.88,26.88,0,0,0,338.69,245.76Z"/><path class="cls-5" d="M440.32,272.75a26.74,26.74,0,0,0,9.95-1.9l-34.21-13.24A27,27,0,0,0,440.32,272.75Z"/><path class="cls-5" d="M268.79,230.48a26.12,26.12,0,0,0-2,3.31l19.29-14.58a28.42,28.42,0,0,0-3.71,1Z"/><path class="cls-5" d="M72.66,272.19a28.1,28.1,0,0,0,3.54-1l13.36-10.4a28.58,28.58,0,0,0,1.84-3.18Z"/><path class="cls-5" d="M141.3,218.77l-25.58,19.91c-.19.7-.35,1.41-.49,2.13l28.27-22c-.57,0-1.15-.06-1.73-.06Z"/><path class="cls-5" d="M414.61,237.52c-.28.88-.52,1.79-.72,2.71l49.69,19.24a26.67,26.67,0,0,0,1.3-2.49Z"/><path class="cls-5" d="M459.57,264.69l-46.22-17.9a29,29,0,0,0,.29,3.11l43.61,16.88A27,27,0,0,0,459.57,264.69Z"/><path class="cls-5" d="M217.64,257.23a37.62,37.62,0,0,1-12.9-2.09l-15.05-5.52a25.6,25.6,0,0,0,.69,3.29L206.92,259a31.49,31.49,0,0,0,10.72,1.69c8.14,0,17.05-2.53,22.42-6.62l2.6-2c.17-.72.32-1.46.44-2.21C236.2,254.7,226.69,257.2,217.64,257.23Z"/><path class="cls-5" d="M383.49,225.47l-17.3-6.7h-.5a27.25,27.25,0,0,0-5.69.6l27.66,10.71A27.18,27.18,0,0,0,383.49,225.47Z"/><path class="cls-5" d="M207.72,220.19a32.37,32.37,0,0,0,9.92,1.44,42.76,42.76,0,0,0,8.84-.93,27.11,27.11,0,0,0-18.76-.51Z"/><path class="cls-5" d="M568,229.52l.94-.7c0-.12-.08-.23-.11-.35C568.58,228.82,568.3,229.16,568,229.52Z"/><circle class="cls-5" cx="738.88" cy="245.76" r="27" transform="translate(-17.75 61.78) rotate(-4.73)"/><path class="cls-5" d="M577.11,269.69c.51.26,1,.51,1.55.75l16.46-12.24a12.83,12.83,0,0,0,4.43-5.21c-.22.17-.44.35-.67.51Z"/><path class="cls-5" d="M533.78,241.67a38.06,38.06,0,0,1-13.54-2.3L493.72,229.1a26,26,0,0,0-1.65,2.35l30.45,11.79a31.5,31.5,0,0,0,11.26,1.87,42.46,42.46,0,0,0,8.15-.79,27.2,27.2,0,0,0-.38-3.28A52.18,52.18,0,0,1,533.78,241.67Z"/><path class="cls-5" d="M168.76,245.16c-7.4.47-15,3-19.83,6.72l-21.51,16.74c.42.26.85.52,1.28.76l16.35-12.72c6.27-4.84,15-7.54,23.57-8a27.11,27.11,0,0,0,.15-2.86C168.77,245.56,168.76,245.36,168.76,245.16Z"/><path class="cls-6" d="M41.38,325.82c.15.47.31.92.48,1.38l40.68-31.66c-.4-.28-.81-.54-1.22-.8Z"/><path class="cls-6" d="M19.21,313.78,0,328.73v1.76L19.39,315.4C19.35,314.85,19.29,314.32,19.21,313.78Z"/><path class="cls-6" d="M50,338.61c.37.3.74.59,1.13.87l41-31.9c-.18-.45-.37-.88-.57-1.31Z"/><path class="cls-6" d="M40.16,317c0,.23,0,.47,0,.71s0,.69,0,1l34.61-26.93c-.56-.16-1.12-.31-1.69-.44Z"/><path class="cls-6" d="M43.53,304.62a26,26,0,0,0-1.36,2.81L63.29,291a27.54,27.54,0,0,0-3,.61Z"/><path class="cls-6" d="M44.82,332.91c.26.38.53.75.81,1.12l42.6-33.16c-.29-.36-.58-.71-.89-1.06Z"/><path class="cls-6" d="M0,291.78v28.94L17.38,307.2A27.09,27.09,0,0,0,0,291.78Z"/><path class="cls-6" d="M67.14,344.71a27,27,0,0,0,27-27,28.54,28.54,0,0,0-.23-3.49L57.18,342.81A27,27,0,0,0,67.14,344.71Z"/><path class="cls-6" d="M935.81,317.72a27,27,0,0,0,40.48,23.38V294.33a27,27,0,0,0-40.48,23.39Z"/><path class="cls-6" d="M522.52,292.06a25.23,25.23,0,0,0,3.6,1.07,26.07,26.07,0,0,0-5.54-1.82Z"/><path class="cls-6" d="M520.24,298l-14.5-5.62a27,27,0,1,0,29.77,7.88c-.57,0-1.15,0-1.73,0A38.06,38.06,0,0,1,520.24,298Z"/><path class="cls-6" d="M18.79,323.88,0,338.5v1.75l18.16-14.13C18.4,325.38,18.61,324.64,18.79,323.88Z"/><path class="cls-6" d="M589.61,290.72a27,27,0,1,0,27,27A27,27,0,0,0,589.61,290.72Z"/><path class="cls-6" d="M440.33,290.72a27,27,0,1,0,27,27A27,27,0,0,0,440.33,290.72Z"/><path class="cls-6" d="M813.52,290.72a27,27,0,1,0,27,27A27,27,0,0,0,813.52,290.72Z"/><path class="cls-6" d="M888.16,290.72a27,27,0,1,0,27,27A27,27,0,0,0,888.16,290.72Z"/><circle class="cls-6" cx="738.88" cy="317.72" r="27" transform="translate(-41.35 122.46) rotate(-9.22)"/><path class="cls-6" d="M141.78,290.72a27,27,0,1,0,27,27A27,27,0,0,0,141.78,290.72Z"/><path class="cls-6" d="M216.42,290.72a27,27,0,1,0,27,27A27,27,0,0,0,216.42,290.72Z"/><circle class="cls-6" cx="291.05" cy="317.72" r="27"/><circle class="cls-6" cx="365.69" cy="317.72" r="27"/><path class="cls-6" d="M664.24,290.72a27,27,0,1,0,27,27A27,27,0,0,0,664.24,290.72Z"/><path class="cls-7" d="M935.81,389.68a27,27,0,0,0,40.48,23.38V366.29a27,27,0,0,0-40.48,23.39Z"/><path class="cls-7" d="M664.24,362.68a27,27,0,1,0,27,27A27,27,0,0,0,664.24,362.68Z"/><circle class="cls-7" cx="738.88" cy="389.68" r="27" transform="translate(235.88 1056.6) rotate(-80.78)"/><path class="cls-7" d="M440.33,362.68a27,27,0,1,0,27,27A27,27,0,0,0,440.33,362.68Z"/><path class="cls-7" d="M141.78,362.68a27,27,0,1,0,27,27A27,27,0,0,0,141.78,362.68Z"/><circle class="cls-7" cx="365.69" cy="389.68" r="27"/><path class="cls-7" d="M813.52,362.68a27,27,0,1,0,27,27A27,27,0,0,0,813.52,362.68Z"/><path class="cls-7" d="M515,362.68a27,27,0,1,0,27,27A27,27,0,0,0,515,362.68Z"/><path class="cls-7" d="M589.61,362.68a27,27,0,1,0,27,27A27,27,0,0,0,589.61,362.68Z"/><path class="cls-7" d="M10.39,369.46,0,377.55v1.75l11.42-8.88C11.08,370.09,10.74,369.77,10.39,369.46Z"/><path class="cls-7" d="M3.53,365,0,367.78v1.76l4.92-3.83C4.47,365.47,4,365.25,3.53,365Z"/><path class="cls-7" d="M216.42,362.68a27,27,0,1,0,27,27A27,27,0,0,0,216.42,362.68Z"/><path class="cls-7" d="M888.16,362.68a27,27,0,1,0,27,27A27,27,0,0,0,888.16,362.68Z"/><path class="cls-7" d="M19.5,389.68a26.88,26.88,0,0,0-4.12-14.34L0,387.31v28.3A27,27,0,0,0,19.5,389.68Z"/><path class="cls-7" d="M67.14,362.68a27,27,0,1,0,27,27A27,27,0,0,0,67.14,362.68Z"/><circle class="cls-7" cx="291.05" cy="389.68" r="27"/><path class="cls-8" d="M216.42,434.63a27,27,0,1,0,27,27A27,27,0,0,0,216.42,434.63Z"/><path class="cls-8" d="M813.52,434.63a27,27,0,1,0,27,27A27,27,0,0,0,813.52,434.63Z"/><path class="cls-8" d="M440.33,434.63a27,27,0,1,0,27,27A27,27,0,0,0,440.33,434.63Z"/><circle class="cls-8" cx="365.69" cy="461.63" r="27"/><path class="cls-8" d="M19.5,461.63A27,27,0,0,0,0,435.7v51.87A27,27,0,0,0,19.5,461.63Z"/><circle class="cls-8" cx="291.05" cy="461.63" r="27"/><path class="cls-8" d="M664.24,434.63a27,27,0,1,0,27,27A27,27,0,0,0,664.24,434.63Z"/><path class="cls-8" d="M67.14,434.63a27,27,0,1,0,27,27A27,27,0,0,0,67.14,434.63Z"/><circle class="cls-8" cx="738.88" cy="461.63" r="27" transform="translate(-50.87 93.74) rotate(-7.02)"/><path class="cls-8" d="M141.78,434.63a27,27,0,1,0,27,27A27,27,0,0,0,141.78,434.63Z"/><path class="cls-8" d="M589.61,434.63a27,27,0,1,0,27,27A27,27,0,0,0,589.61,434.63Z"/><path class="cls-8" d="M515,434.63a27,27,0,1,0,27,27A27,27,0,0,0,515,434.63Z"/><path class="cls-8" d="M888.16,434.63a27,27,0,1,0,27,27A27,27,0,0,0,888.16,434.63Z"/><path class="cls-8" d="M935.81,461.63A27,27,0,0,0,976.29,485V438.25a27,27,0,0,0-40.48,23.38Z"/><path class="cls-1" d="M141.78,506.59a27,27,0,1,0,27,27A27,27,0,0,0,141.78,506.59Z"/><path class="cls-1" d="M888.16,506.59a27,27,0,1,0,27,27A27,27,0,0,0,888.16,506.59Z"/><path class="cls-1" d="M738.88,506.59a27,27,0,1,0,27,27A27,27,0,0,0,738.88,506.59Z"/><path class="cls-1" d="M664.24,506.59a27,27,0,1,0,27,27A27,27,0,0,0,664.24,506.59Z"/><path class="cls-1" d="M440.33,506.59a27,27,0,1,0,27,27A27,27,0,0,0,440.33,506.59Z"/><path class="cls-1" d="M291.05,506.59a27,27,0,1,0,27,27A27,27,0,0,0,291.05,506.59Z"/><path class="cls-1" d="M365.69,506.59a27,27,0,1,0,27,27A27,27,0,0,0,365.69,506.59Z"/><path class="cls-1" d="M935.81,533.59A27,27,0,0,0,976.29,557V510.21a27,27,0,0,0-40.48,23.38Z"/><path class="cls-1" d="M813.52,506.59a27,27,0,1,0,27,27A27,27,0,0,0,813.52,506.59Z"/><path class="cls-1" d="M216.42,506.59a27,27,0,1,0,27,27A27,27,0,0,0,216.42,506.59Z"/><path class="cls-1" d="M67.14,506.59a27,27,0,1,0,27,27A27,27,0,0,0,67.14,506.59Z"/><path class="cls-1" d="M589.61,506.59a27,27,0,1,0,27,27A27,27,0,0,0,589.61,506.59Z"/><path class="cls-1" d="M515,506.59a27,27,0,1,0,27,27A27,27,0,0,0,515,506.59Z"/><path class="cls-1" d="M19.5,533.59A27,27,0,0,0,0,507.66v51.87A27,27,0,0,0,19.5,533.59Z"/><path class="cls-1" d="M57.18,342.81l36.73-28.58L148.2,272l.73-.57a31.18,31.18,0,0,1,10.24-5,42.78,42.78,0,0,1,12.19-1.8,30.85,30.85,0,0,1,10.5,1.67l22.88,8.4a37.6,37.6,0,0,0,12.89,2.08c9.39,0,19.29-2.71,26.24-7.89l21.13-16,31.82-24.06A31,31,0,0,1,307,224a42.53,42.53,0,0,1,11.66-1.63,31.22,31.22,0,0,1,11.11,1.84l14.21,5.5,48.56,18.81,23.51,9.11,34.21,13.24,55.47,21.48,14.5,5.62a38.06,38.06,0,0,0,13.54,2.3c.58,0,1.16,0,1.73,0,8.64-.33,17.47-2.86,23.87-7.58l27-20.07,12.49-9.29c4.65-3.45,7.44-7.82,7.45-12.51a11.34,11.34,0,0,0-1.07-4.8,18.72,18.72,0,0,1-5.71,7,12.83,12.83,0,0,1-4.43,5.21l-16.46,12.24-23,17.13c-5.27,3.95-13.88,6.38-21.83,6.36a35.43,35.43,0,0,1-7.66-.8,25.23,25.23,0,0,1-3.6-1.07l-1.94-.75-63.33-24.53L413.64,249.9l-21.26-8.24-43.66-16.9-16.66-6.45A37.05,37.05,0,0,0,318.67,216a47.82,47.82,0,0,0-19.31,4,34,34,0,0,0-6.35,3.71l-29,21.9-24,18.14a30.49,30.49,0,0,1-8.59,4.35,43.45,43.45,0,0,1-13.84,2.27,31.47,31.47,0,0,1-10.71-1.69l-9-3.29-13.91-5.1a37,37,0,0,0-12.69-2.06,48.44,48.44,0,0,0-5.87.37c-7.53.91-14.93,3.51-20.44,7.76l-7.68,6L92.16,307.58l-41,31.9L11.42,370.42,0,379.3v8l15.38-12Z"/><path class="cls-1" d="M577.74,210.53a13.15,13.15,0,0,0,1.46.93l2.43-1.81-1.79-.71Z"/><path class="cls-1" d="M572.6,224.23l-4.08,3a9.88,9.88,0,0,0,.35,1.21c0,.12.07.23.11.35l4.81-3.58A14.71,14.71,0,0,1,572.6,224.23Z"/><polygon class="cls-1" points="585.71 204.48 587.58 205.22 590.18 203.29 588.27 202.53 585.71 204.48"/><path class="cls-1" d="M709.14,130.17a27.56,27.56,0,0,0-8.78-1.32,46.82,46.82,0,0,0-26.76,8.88l-12.12,9.21-22.36,17L615.34,182l-9.43,7.15a11.06,11.06,0,0,1,.42,3.05,12.43,12.43,0,0,1-1.07,5l.14.32,31.86-24.19L671,147.65l6.43-4.89c6.07-4.66,15.48-7.62,22.94-7.59a20.81,20.81,0,0,1,6.72,1l12.48,4.29v-6.68Z"/><path class="cls-1" d="M594.14,198.07l1.39.55.54.23a16.34,16.34,0,0,0,1.57-1.51,10.27,10.27,0,0,0-1.27-1Z"/><polygon class="cls-1" points="579.97 238.28 581.63 238.94 587.58 234.51 585.92 233.85 579.97 238.28"/><path class="cls-1" d="M572.6,234c.37.34.77.68,1.19,1l5.41-4a12.63,12.63,0,0,1-1.38-.87Z"/><path class="cls-1" d="M594.47,237.26l-6,4.42,1.66.67,4.94-3.68c.34-.25.65-.51,1-.77l-.54-.22Z"/><path class="cls-1" d="M596.66,245.4c.35.25.68.5,1,.76a10.26,10.26,0,0,0,1.91-2.93l-.67.51Z"/><path class="cls-9" d="M579.84,199.17l-2.1,1.6a17.52,17.52,0,0,0,3.68,2l2.72,1.08,2.56-1.94Z"/><path class="cls-9" d="M578.34,208.32a20.88,20.88,0,0,1-3.66-2,6.76,6.76,0,0,0,2.17,3.46A16.1,16.1,0,0,1,578.34,208.32Z"/><path class="cls-9" d="M577.82,220.35l-5.22,3.88a14.71,14.71,0,0,0,1.19,1l5.41-4-.39-.21C578.45,220.79,578.13,220.57,577.82,220.35Z"/><path class="cls-9" d="M640.41,161.11l18-13.68,19-14.43c6.07-4.66,15.48-7.62,22.93-7.59a20.83,20.83,0,0,1,6.73,1l12.48,4.29V124l-10.42-3.59a27.58,27.58,0,0,0-8.79-1.32A46.72,46.72,0,0,0,673.6,128l-57.11,43.37-14.9,11.31a13.8,13.8,0,0,1,3.81,5l10.55-8Z"/><path class="cls-9" d="M50,338.61l41.55-32.34,44-34.24,13.35-10.39c4.43-3.48,11.33-5.88,18.2-6.58a37.7,37.7,0,0,1,4.23-.22,30.85,30.85,0,0,1,10.5,1.67L194.14,261l10.6,3.89a37.86,37.86,0,0,0,12.9,2.08,49.22,49.22,0,0,0,19.61-4.07,34.68,34.68,0,0,0,6.62-3.83l20.26-15.32,32.35-24.47.34-.25c5.25-4,13.88-6.5,21.85-6.47a31.44,31.44,0,0,1,11.11,1.85l21.66,8.39,40.22,15.57,21.69,8.4,46.22,17.9,60.67,23.49a37.62,37.62,0,0,0,13.54,2.3c9.17,0,18.77-2.58,25.6-7.61l17.73-13.18,21.77-16.19c.23-.16.45-.34.67-.51a18.72,18.72,0,0,0,5.71-7,12.43,12.43,0,0,0,1.07-5,11.34,11.34,0,0,0-1.07-4.8,18.8,18.8,0,0,1-5.71,7,10.26,10.26,0,0,1-1.91,2.93,18,18,0,0,1-2.52,2.28L571.63,265.9l-16,11.91c-5.27,3.95-13.88,6.38-21.83,6.35a31.5,31.5,0,0,1-11.26-1.87l-58.94-22.82-49.69-19.24-26.23-10.16L360,219.36l-27.94-10.81a37.06,37.06,0,0,0-13.39-2.29c-9.2,0-18.84,2.63-25.66,7.75l-6.88,5.2-19.29,14.58-24.18,18.29-2.6,2c-5.37,4.09-14.28,6.65-22.42,6.62A31.49,31.49,0,0,1,206.92,259l-16.54-6.07-6.33-2.33a37,37,0,0,0-12.69-2.06c-.91,0-1.82,0-2.74.1-8.58.5-17.3,3.2-23.57,8L128.7,269.38,88.23,300.87,45.63,334,4.92,365.71,0,369.54v8l10.39-8.09Z"/><path class="cls-9" d="M592.57,197.44l2.45-1.86c-.55-.29-1.16-.57-1.82-.85l-4.93-2-2.56,1.94Z"/><path class="cls-9" d="M595.53,188.86a22.48,22.48,0,0,1,4.37,2.26,7.5,7.5,0,0,0-3.52-4.51l-2.23,1.7Z"/><polygon class="cls-9" points="579.97 228.51 581.63 229.18 587.58 224.75 585.92 224.09 579.97 228.51"/><path class="cls-9" d="M596.66,235.63c.35.25.68.51,1,.76a10.23,10.23,0,0,0,1.91-2.92l-.67.51Z"/><path class="cls-9" d="M594.47,227.49l-6,4.43,1.67.66,4.94-3.67c.34-.26.65-.51,1-.77l-.54-.22Z"/><path class="cls-9" d="M573.79,215.47a14.62,14.62,0,0,1-4.51-5.47,12.81,12.81,0,0,0-1.06,5,11.46,11.46,0,0,0,.76,4.09Z"/><polygon class="cls-10" points="579.97 218.75 581.63 219.41 587.58 214.99 585.92 214.32 579.97 218.75"/><path class="cls-10" d="M44.82,332.91l42.52-33.1,40.08-31.19,21.51-16.74c4.78-3.76,12.43-6.25,19.83-6.72.87-.06,1.74-.09,2.6-.09a30.6,30.6,0,0,1,10.5,1.68l7.83,2.87,15.05,5.52a37.62,37.62,0,0,0,12.9,2.09c9.05,0,18.56-2.53,25.46-7.36.26-.18.52-.35.77-.54l24.92-18.85,13.63-10.31,14.4-10.89c5.25-4,13.88-6.49,21.85-6.46a31,31,0,0,1,11.11,1.85l36.41,14.1,17.3,6.7,31.12,12.05L464.88,257l55.36,21.44a38.06,38.06,0,0,0,13.54,2.3c9.17,0,18.77-2.58,25.6-7.61l11.13-8.27,26.15-19.44,2.22-1.66.67-.51a18.8,18.8,0,0,0,5.71-7,12.48,12.48,0,0,0,1.07-5,11.41,11.41,0,0,0-1.07-4.8,18.82,18.82,0,0,1-5.71,7,10.23,10.23,0,0,1-1.91,2.92,15.21,15.21,0,0,1-1.57,1.51c-.3.26-.61.52-1,.77l-4.94,3.68L566.6,259.88l-11,8.16c-5.27,4-13.88,6.39-21.83,6.36a31.5,31.5,0,0,1-11.26-1.87l-1.31-.51-28.55-11-25.84-10-49.59-19.2-85.17-33a37.27,37.27,0,0,0-13.39-2.28c-9.2,0-18.84,2.63-25.66,7.74L243.14,242l-3.08,2.32c-5.37,4.1-14.28,6.66-22.42,6.63a31.49,31.49,0,0,1-10.72-1.69l-17.35-6.37-5.52-2a37,37,0,0,0-12.69-2.06c-1.15,0-2.31.05-3.47.13-8.34.61-16.75,3.31-22.84,8l-22.67,17.64-39.84,31L41.86,327.2,0,359.77v8L3.53,365Z"/><path class="cls-10" d="M594.47,217.73l-6,4.43,1.67.66,4.94-3.67c.34-.26.64-.52,1-.77l-.54-.23Z"/><path class="cls-10" d="M671.26,127.91l6.16-4.68a34.76,34.76,0,0,1,7.78-4.38,40.94,40.94,0,0,1,15.15-3.2,20.85,20.85,0,0,1,6.73,1l12.48,4.29v-6.68L714,112.31l-4.85-1.67a27.3,27.3,0,0,0-8.79-1.31,44.42,44.42,0,0,0-10.61,1.38,45.48,45.48,0,0,0-16.14,7.49L660,128.51l-45.61,34.64-20.27,15.39,1.38.56a21.38,21.38,0,0,1,4.88,2.62l15.88-12.06Z"/><path class="cls-10" d="M578.34,198.56a21.57,21.57,0,0,1-3.66-2,6.73,6.73,0,0,0,2.17,3.45A16,16,0,0,1,578.34,198.56Z"/><path class="cls-10" d="M581.42,193l2.72,1.08,2.55-1.94-6.85-2.73-2.1,1.59A17.32,17.32,0,0,0,581.42,193Z"/><path class="cls-10" d="M592.57,187.68l2.45-1.86c-.55-.29-1.16-.58-1.82-.85l-4.93-2L585.71,185Z"/><path class="cls-10" d="M596.66,225.87a11.48,11.48,0,0,1,1,.76,10.26,10.26,0,0,0,1.91-2.93l-.67.51Z"/><path class="cls-10" d="M573.79,215.47l5.41-4a13.15,13.15,0,0,1-1.46-.93c-.32-.24-.62-.48-.89-.72a6.76,6.76,0,0,1-2.17-3.46,15,15,0,0,1-5.4-6.11,12.77,12.77,0,0,0-1.06,5,11.56,11.56,0,0,0,1.06,4.8A14.62,14.62,0,0,0,573.79,215.47Z"/><path class="cls-11" d="M596.66,216.1c.35.25.68.51,1,.77a10.4,10.4,0,0,0,1.91-2.93l-.67.51Z"/><path class="cls-11" d="M658.12,128.13l19.3-14.66a39,39,0,0,1,13.28-6.24,37.74,37.74,0,0,1,9.65-1.35,20.87,20.87,0,0,1,6.73,1l5.72,2,6.76,2.32v-6.68l-7.68-2.64-2.74-1a27.58,27.58,0,0,0-8.79-1.32,44.83,44.83,0,0,0-9.14,1,45.77,45.77,0,0,0-17.61,7.83l-22.42,17-40.85,31-24.61,18.7,6.85,2.73,21.22-16.12Z"/><path class="cls-11" d="M594.47,208l-6,4.43,1.67.66,4.94-3.68c.34-.25.64-.51,1-.77l-.54-.22Z"/><path class="cls-11" d="M576.85,190.28a16,16,0,0,1,1.49-1.48,22.3,22.3,0,0,1-3.66-2A6.73,6.73,0,0,0,576.85,190.28Z"/><path class="cls-11" d="M581.42,183.24l2.72,1.08,2.55-1.94-6.85-2.73-2.1,1.59A17.77,17.77,0,0,0,581.42,183.24Z"/><path class="cls-11" d="M81.32,294.74l40.12-31.23,27.49-21.39c4.35-3.42,11.09-5.8,17.85-6.56a41.61,41.61,0,0,1,4.58-.25,30.85,30.85,0,0,1,10.5,1.67l8.18,3,14.7,5.4a37.62,37.62,0,0,0,12.9,2.09c8.94,0,18.33-2.47,25.21-7.19.35-.23.69-.47,1-.71l51.8-39.18,1.15-.87a32.48,32.48,0,0,1,11.83-5.26,42,42,0,0,1,10-1.2,31,31,0,0,1,11.11,1.85l89.07,34.49,48.36,18.72,23.27,9,29.76,11.53a33.12,33.12,0,0,0,6,1.64,43.65,43.65,0,0,0,7.56.66c9.17,0,18.77-2.59,25.6-7.61l6.45-4.8,22.69-16.87,6-4.42,2.19-1.63,2.22-1.65.67-.51a18.82,18.82,0,0,0,5.71-7,13.8,13.8,0,0,0,.72-2.14,11.59,11.59,0,0,0,.35-2.82,11.34,11.34,0,0,0-1.07-4.8,18.8,18.8,0,0,1-5.71,7,10.26,10.26,0,0,1-1.91,2.93,16.34,16.34,0,0,1-1.57,1.51c-.3.26-.61.51-1,.77l-4.94,3.67-2.6,1.93-6,4.43-18.18,13.52-7.84,5.82c-5.16,3.87-13.53,6.28-21.34,6.35h-.49a31.72,31.72,0,0,1-11.26-1.87l-34.29-13.28-21.29-8.25L423.69,224.5l-62-24-11.06-4.28L332.06,189a37.05,37.05,0,0,0-13.39-2.28q-2,0-4,.18c-7.92.66-15.81,3.19-21.64,7.56l-7.57,5.73L240.73,234l-.67.51c-5.37,4.1-14.28,6.66-22.42,6.63a31.48,31.48,0,0,1-10.72-1.7L192.09,234l-8-2.95A37,37,0,0,0,171.36,229a50.35,50.35,0,0,0-7.91.66,41.29,41.29,0,0,0-18.4,7.47l-27.19,21.16L74.78,291.82,40.17,318.75,0,350v8l41.38-32.2Z"/><path class="cls-11" d="M574.68,206.35a20.88,20.88,0,0,0,3.66,2c.24.11.48.22.74.31l.76.31,1.79.71,6-4.43-1.87-.74-1.57-.63-2.72-1.08a17.52,17.52,0,0,1-3.68-2,11.2,11.2,0,0,1-.89-.73,6.73,6.73,0,0,1-2.17-3.45,15,15,0,0,1-5.4-6.12c-.1.25-.2.5-.29.75a12.48,12.48,0,0,0-.77,4.21,11.57,11.57,0,0,0,1.06,4.81A15,15,0,0,0,574.68,206.35Z"/><path class="cls-12" d="M596.66,206.34a11.48,11.48,0,0,1,1,.76,10.26,10.26,0,0,0,1.91-2.93c-.22.17-.44.35-.67.51Z"/><path class="cls-12" d="M649.83,124.66l27.59-21a38.76,38.76,0,0,1,13.46-6.29,37.54,37.54,0,0,1,9.47-1.3,20.92,20.92,0,0,1,6.73,1l5,1.71,7.5,2.58V94.71l-6.06-2.09-4.36-1.5a27.3,27.3,0,0,0-8.79-1.32,47.12,47.12,0,0,0-26.75,8.88l-28.81,21.88-40.38,30.66-26.67,20.26a17.32,17.32,0,0,0,3.68,2l2.72,1.09,25.22-19.16Z"/><path class="cls-12" d="M576.85,180.51a17.2,17.2,0,0,1,1.48-1.48,21.15,21.15,0,0,1-3.65-2A6.69,6.69,0,0,0,576.85,180.51Z"/><path class="cls-12" d="M73.09,291.38,117.24,257l31.69-24.66a32.8,32.8,0,0,1,12.1-5.52,42.25,42.25,0,0,1,10.33-1.29,30.85,30.85,0,0,1,10.5,1.67l11.63,4.27,11.25,4.13a37.86,37.86,0,0,0,12.9,2.08,48,48,0,0,0,22.21-5.34,33.5,33.5,0,0,0,4-2.56l39.74-30.05,13.21-10c4.74-3.62,12.22-6,19.48-6.4.79,0,1.59-.07,2.37-.07a31,31,0,0,1,11.11,1.85L344.87,191l24.63,9.53,57,22.06L466.18,238,488,246.4l32.26,12.49a37.62,37.62,0,0,0,13.54,2.3q1.71,0,3.42-.12c8.09-.58,16.19-3.08,22.18-7.48l3.71-2.76L580,238.28l5.95-4.43,2.59-1.93,6-4.43,2.19-1.62,2.22-1.66.67-.51a18.8,18.8,0,0,0,5.71-7,12.47,12.47,0,0,0,1.07-5,11.42,11.42,0,0,0-1.07-4.81,18.82,18.82,0,0,1-5.71,7,10.4,10.4,0,0,1-1.91,2.93,17.65,17.65,0,0,1-1.57,1.51c-.31.25-.61.51-1,.77l-4.94,3.67-2.6,1.93-6,4.43L579.2,231l-5.41,4-11.06,8.23-7.12,5.29c-3.78,2.84-9.29,4.88-15,5.81a42.18,42.18,0,0,1-6.79.54A31.5,31.5,0,0,1,522.52,253l-33.91-13.13L461.9,229.53l-26.6-10.3-56.45-21.86-38.76-15-8-3.11A37.27,37.27,0,0,0,318.67,177l-.81,0c-9,.17-18.23,2.76-24.85,7.73l-16,12.12-36.92,27.91a24.62,24.62,0,0,1-4,2.47,42.48,42.48,0,0,1-18.4,4.17,31.52,31.52,0,0,1-10.72-1.7l-9.22-3.39-13.65-5a37,37,0,0,0-12.69-2.06,49.61,49.61,0,0,0-16.53,2.89,36.67,36.67,0,0,0-9.78,5.25l-29.84,23.22L63.29,291,42.17,307.43l-24,18.69L0,340.25v8L40.16,317Z"/><path class="cls-12" d="M594.14,198.07l-1.57-.63-6.86-2.73-1.57-.63L581.42,193a17.32,17.32,0,0,1-3.68-2c-.32-.24-.62-.48-.89-.72a6.73,6.73,0,0,1-2.17-3.45,15.06,15.06,0,0,1-5.39-6.12,12.64,12.64,0,0,0-1.07,5,11.49,11.49,0,0,0,1.06,4.8,15,15,0,0,0,5.4,6.12,21.57,21.57,0,0,0,3.66,2l.74.31.76.3,6.86,2.74,1.57.62,1.91.76,4.94-3.67c.34-.26.65-.52,1-.77l-.54-.23Z"/><path class="cls-13" d="M43.53,304.62l16.73-13L115,249l34-26.43a23.4,23.4,0,0,1,2.87-1.9,40.87,40.87,0,0,1,19.56-4.91,30.85,30.85,0,0,1,10.5,1.67l18.32,6.73,4.56,1.68a37.86,37.86,0,0,0,12.9,2.08,50.15,50.15,0,0,0,16.27-2.74,37.14,37.14,0,0,0,10-5.16L275.68,196l21.14-16c5.12-3.91,13.43-6.37,21.23-6.46h.62a31,31,0,0,1,11.11,1.85L339.2,179l42.54,16.47,60.19,23.31,15.35,5.94,32.09,12.42,30.87,12a38.06,38.06,0,0,0,13.54,2.3,51.37,51.37,0,0,0,7.71-.62,41.26,41.26,0,0,0,17.89-7l3.63-2.7L572.6,234l5.22-3.89,2.15-1.6,5.95-4.42,2.59-1.93,6-4.43,2.19-1.63,2.22-1.65.67-.51a18.82,18.82,0,0,0,5.71-7,12.39,12.39,0,0,0,1.07-5,11.37,11.37,0,0,0-.93-4.48l-.14-.32a18.72,18.72,0,0,1-5.71,7,10.26,10.26,0,0,1-1.91,2.93,16.34,16.34,0,0,1-1.57,1.51c-.31.26-.61.52-1,.77l-4.94,3.68-2.6,1.93-6,4.42-1.34,1-1.09.81-5.41,4L569,228.82l-.94.7-12.43,9.23a34,34,0,0,1-13.68,5.57,42.46,42.46,0,0,1-8.15.79,31.5,31.5,0,0,1-11.26-1.87l-30.45-11.79L386.76,190.67l-48-18.59-6.69-2.59a37.27,37.27,0,0,0-13.39-2.28c-.47,0-.95,0-1.42,0-8.77.27-17.77,2.87-24.25,7.72L270.86,191.7,240.06,215a34.36,34.36,0,0,1-13.58,5.71,42.76,42.76,0,0,1-8.84.93,32.37,32.37,0,0,1-9.92-1.44l-.8-.26-22.87-8.4a37,37,0,0,0-12.69-2.06c-9.43,0-19.37,2.79-26.31,8.14l-1.55,1.21-28.27,22-25.67,20L76.2,271.19,19.39,315.4,0,330.49v8l18.79-14.62Z"/><path class="cls-13" d="M579.39,168.4l23.69-18,40.73-30.93,33.61-25.53a37.08,37.08,0,0,1,10.35-5.34,39.59,39.59,0,0,1,12.58-2.25,20.9,20.9,0,0,1,6.73,1l7.57,2.6,4.91,1.68V84.94l-1.35-.46-9.07-3.12A27.3,27.3,0,0,0,700.35,80a46.7,46.7,0,0,0-16.49,3.26,42.94,42.94,0,0,0-10.26,5.61l-33.34,25.33-44,33.39-20.72,15.74c-.18.13-.34.27-.51.4a6,6,0,0,0-.51,2.37,6.13,6.13,0,0,0,2.3,4.61A17.35,17.35,0,0,1,579.39,168.4Z"/><path class="cls-13" d="M569.29,180.71a15.06,15.06,0,0,0,5.39,6.12,22.3,22.3,0,0,0,3.66,2l.74.31.76.3,6.85,2.73,1.58.63,4.93,2c.66.28,1.27.56,1.82.85a15.06,15.06,0,0,1,1.35.8,10.27,10.27,0,0,1,1.27,1,7.92,7.92,0,0,0,2.38-5.16,4.92,4.92,0,0,0-.12-1.06,22.48,22.48,0,0,0-4.37-2.26l-1.38-.55-1.58-.63L585.71,185l-1.57-.63-2.72-1.08a17.77,17.77,0,0,1-3.68-2,11.2,11.2,0,0,1-.89-.73,6.69,6.69,0,0,1-2.17-3.45,15,15,0,0,1-5.39-6.11,12.6,12.6,0,0,0-1.07,5A11.41,11.41,0,0,0,569.29,180.71Z"/><path class="cls-14" d="M72.66,272.19,91.4,257.61l24.32-18.93,25.58-19.91,7.63-5.94c5.34-4.2,14.28-6.84,22.43-6.81a30.85,30.85,0,0,1,10.5,1.67l22.88,8.41a38.11,38.11,0,0,0,12.9,2.08c9.39,0,19.28-2.7,26.23-7.91l26-19.69,26.91-20.35c4.7-3.59,12.11-5.95,19.33-6.39.84-.05,1.69-.08,2.52-.07a31,31,0,0,1,11.11,1.85l9.31,3.6,49.35,19.11L493.72,229.1l26.52,10.27a38.06,38.06,0,0,0,13.54,2.3,52.18,52.18,0,0,0,7.77-.63,41.25,41.25,0,0,0,17.83-7l9.14-6.8,4.08-3,5.22-3.88,2.15-1.6,5.95-4.43,2.59-1.92,6-4.43,2.19-1.63,2.22-1.66c.23-.16.45-.34.67-.51a18.72,18.72,0,0,0,5.71-7,12.43,12.43,0,0,0,1.07-5,11.06,11.06,0,0,0-.42-3.05,10.59,10.59,0,0,0-.51-1.43,13.8,13.8,0,0,0-3.81-5c-.37-.32-.77-.63-1.18-.93a21.38,21.38,0,0,0-4.88-2.62l-1.38-.56-1.58-.62-6.85-2.73-1.58-.63-2.72-1.09a17.32,17.32,0,0,1-3.68-2,11.2,11.2,0,0,1-.89-.73,6.13,6.13,0,0,1-2.3-4.61,6,6,0,0,1,.51-2.37,12.92,12.92,0,0,1,4.33-5.14l15-11.4,45.2-34.33,37.81-28.72a30.93,30.93,0,0,1,4.43-2.8,41.54,41.54,0,0,1,18.5-4.79,20.92,20.92,0,0,1,6.73,1l12.48,4.29V75.18L709.14,71.6a27,27,0,0,0-8.79-1.32A47.26,47.26,0,0,0,676,77.52c-.81.52-1.61,1.06-2.37,1.63l-36,27.31-54,41-8.09,6.14c-4.59,3.48-7.33,7.88-7.35,12.54a11.42,11.42,0,0,0,1.07,4.81,15,15,0,0,0,5.39,6.11,21.15,21.15,0,0,0,3.65,2c.25.11.49.22.75.32l.76.3,6.85,2.73,1.58.63,4.93,2c.66.27,1.27.56,1.82.85a15.3,15.3,0,0,1,1.36.79,7.5,7.5,0,0,1,3.52,4.51,4.92,4.92,0,0,1,.12,1.06,7.92,7.92,0,0,1-2.38,5.16,16.34,16.34,0,0,1-1.57,1.51c-.3.25-.61.51-1,.77l-4.94,3.67-2.6,1.93-6,4.43-2.43,1.81-5.41,4L569,219.05,555.61,229c-4,3-9.85,5.1-15.91,5.95a43.74,43.74,0,0,1-5.92.41,31.72,31.72,0,0,1-11.26-1.87l-23.86-9.24-60.85-23.57-13.72-5.31L391.2,182.63l-50.32-19.49-8.82-3.41a37.06,37.06,0,0,0-13.39-2.29,52.38,52.38,0,0,0-5.86.37c-7.29.88-14.43,3.35-19.81,7.39l-26.43,20-26.51,20c-5.37,4.1-14.28,6.66-22.42,6.64a31.56,31.56,0,0,1-10.72-1.71l-22.87-8.4a37,37,0,0,0-12.69-2c-9.43,0-19.37,2.79-26.31,8.13l-51,39.68L62.22,272.3,17.38,307.2,0,320.72v8l19.21-15Z"/><polygon class="cls-15" points="748.1 118.46 719.56 156.14 724.66 151.24 725.25 150.49 742.36 128.61 753.2 114.75 731.77 75.8 724.66 62.88 719.56 65.98 748.1 118.46"/><polygon class="cls-16" points="719.56 82.99 719.56 84.94 719.56 91.62 719.56 94.71 719.56 101.39 719.56 104.47 719.56 111.15 719.56 114.23 719.56 120.91 719.56 124 719.56 130.68 719.56 133.76 719.56 140.44 719.56 154.94 719.56 156.14 748.1 118.46 719.56 65.98 719.56 75.18 719.56 81.86 719.56 82.99"/></svg>