<svg id="Ñëîé_1" data-name="Ñëîé 1" xmlns="http://www.w3.org/2000/svg" xmlns:xlink="http://www.w3.org/1999/xlink" viewBox="0 0 1080 1080"><defs><style>.cls-1{fill:none;}.cls-2{clip-path:url(#clip-path);}.cls-3{fill:#93c01f;}.cls-4{fill:#79ab2b;}.cls-5{fill:#7eae2a;}.cls-6{fill:#80b129;}.cls-7{fill:#84b427;}.cls-8{fill:#89b825;}.cls-9{fill:#8cba23;}.cls-10{fill:#90be21;}.cls-11{fill:#68ac51;}.cls-12{fill:#4b9830;}.cls-13{fill:#fefefe;}.cls-14{fill:#8f9b8f;}.cls-15{fill:#68ac52;}.cls-16{fill:#1d7a00;}</style><clipPath id="clip-path"><rect class="cls-1" x="-2329.25" y="253.45" width="976.29" height="573.1"/></clipPath></defs><g class="cls-2"><path class="cls-3" d="M702.17,229.36H-3580V826.55H702.17Z"/><path class="cls-4" d="M-3531,250.18a27,27,0,0,0-27,27,27,27,0,0,0,27,27,27,27,0,0,0,27-27A27,27,0,0,0-3531,250.18Zm74.64,0a27,27,0,0,0-27,27,27,27,0,0,0,27,27,27,27,0,0,0,27-27A27,27,0,0,0-3456.32,250.18Zm74.64,0a27,27,0,0,0-27,27,27,27,0,0,0,27,27,27,27,0,0,0,27-27A27,27,0,0,0-3381.68,250.18Zm74.64,0a27,27,0,0,0-27,27,27,27,0,0,0,27,27,27,27,0,0,0,27-27A27,27,0,0,0-3307,250.18Zm74.64,0a27,27,0,0,0-27,27,27,27,0,0,0,27,27,27,27,0,0,0,27-27A27,27,0,0,0-3232.4,250.18Zm74.63,0a27,27,0,0,0-27,27,27,27,0,0,0,27,27,27,27,0,0,0,27-27A27,27,0,0,0-3157.77,250.18Zm74.64,0a27,27,0,0,0-27,27,27,27,0,0,0,27,27,27,27,0,0,0,27-27A27,27,0,0,0-3083.13,250.18Zm74.64,0a27,27,0,0,0-27,27,27,27,0,0,0,27,27,27,27,0,0,0,27-27A27,27,0,0,0-3008.49,250.18Zm74.64,0a27,27,0,0,0-27,27,27,27,0,0,0,27,27,27,27,0,0,0,27-27A27,27,0,0,0-2933.85,250.18Zm74.64,0a27,27,0,0,0-27,27,27,27,0,0,0,27,27,27,27,0,0,0,27-27A27,27,0,0,0-2859.21,250.18Zm74.63,0a27,27,0,0,0-27,27,27,27,0,0,0,27,27,27,27,0,0,0,27-27A27,27,0,0,0-2784.58,250.18Zm74.64,0a27,27,0,0,0-27,27,27,27,0,0,0,27,27,27,27,0,0,0,27-27A27,27,0,0,0-2709.94,250.18Zm74.64,0a27,27,0,0,0-27,27,27,27,0,0,0,27,27,27,27,0,0,0,27-27A27,27,0,0,0-2635.3,250.18Zm74.64,0a27,27,0,0,0-27,27,27,27,0,0,0,27,27,27,27,0,0,0,27-27A27,27,0,0,0-2560.66,250.18Zm74.64,0a27,27,0,0,0-27,27,27,27,0,0,0,27,27,27,27,0,0,0,27-27A27,27,0,0,0-2486,250.18Zm74.63,0a27,27,0,0,0-27,27,27,27,0,0,0,27,27,27,27,0,0,0,27-27A27,27,0,0,0-2411.39,250.18Zm74.64,0a27,27,0,0,0-27,27,27,27,0,0,0,27,27,27,27,0,0,0,27-27A27,27,0,0,0-2336.75,250.18Zm74.64,0a27,27,0,0,0-27,27,27,27,0,0,0,27,27,27,27,0,0,0,27-27A27,27,0,0,0-2262.11,250.18Zm74.64,0a27,27,0,0,0-27,27,27,27,0,0,0,27,27,27,27,0,0,0,27-27A27,27,0,0,0-2187.47,250.18Zm74.64,0a27,27,0,0,0-27,27,27,27,0,0,0,27,27,27,27,0,0,0,27-27A27,27,0,0,0-2112.83,250.18Zm74.63,0a27,27,0,0,0-27,27,27,27,0,0,0,27,27,27,27,0,0,0,27-27A27,27,0,0,0-2038.2,250.18Zm74.64,0a27,27,0,0,0-27,27,27,27,0,0,0,27,27,27,27,0,0,0,27-27A27,27,0,0,0-1963.56,250.18Zm74.64,0a27,27,0,0,0-27,27,27,27,0,0,0,27,27,27,27,0,0,0,27-27A27,27,0,0,0-1888.92,250.18Zm74.64,0a27,27,0,0,0-27,27,27,27,0,0,0,27,27,27,27,0,0,0,27-27A27,27,0,0,0-1814.28,250.18Zm74.64,0a27,27,0,0,0-27,27,27,27,0,0,0,27,27,27,27,0,0,0,27-27A27,27,0,0,0-1739.64,250.18Zm74.63,0a27,27,0,0,0-27,27,27,27,0,0,0,27,27,27,27,0,0,0,27-27A27,27,0,0,0-1665,250.18Zm74.64,0a27,27,0,0,0-27,27,27,27,0,0,0,27,27,27,27,0,0,0,27-27A27,27,0,0,0-1590.37,250.18Zm74.64,0a27,27,0,0,0-27,27,27,27,0,0,0,27,27,27,27,0,0,0,27-27A27,27,0,0,0-1515.73,250.18Zm74.64,0a27,27,0,0,0-27,27,27,27,0,0,0,27,27,27,27,0,0,0,27-27A27,27,0,0,0-1441.09,250.18Zm74.65,0a27,27,0,0,0-27,27,27,27,0,0,0,27,27,27,27,0,0,0,27-27A27,27,0,0,0-1366.44,250.18Zm74.63,0a27,27,0,0,0-27,27,27,27,0,0,0,27,27,27,27,0,0,0,27-27A27,27,0,0,0-1291.81,250.18Zm74.64,0a27,27,0,0,0-27,27,27,27,0,0,0,27,27,27,27,0,0,0,27-27A27,27,0,0,0-1217.17,250.18Zm74.64,0a27,27,0,0,0-27,27,27,27,0,0,0,27,27,27,27,0,0,0,27-27A27,27,0,0,0-1142.53,250.18Zm74.64,0a27,27,0,0,0-27,27,27,27,0,0,0,27,27,27,27,0,0,0,27-27A27,27,0,0,0-1067.89,250.18Zm74.64,0a27,27,0,0,0-27,27,27,27,0,0,0,27,27,27,27,0,0,0,27-27A27,27,0,0,0-993.25,250.18Zm74.63,0a27,27,0,0,0-27,27,27,27,0,0,0,27,27,27,27,0,0,0,27-27A27,27,0,0,0-918.62,250.18Zm74.64,0a27,27,0,0,0-27,27,27,27,0,0,0,27,27,27,27,0,0,0,27-27A27,27,0,0,0-844,250.18Zm74.64,0a27,27,0,0,0-27,27,27,27,0,0,0,27,27,27,27,0,0,0,27-27A27,27,0,0,0-769.34,250.18Zm74.64,0a27,27,0,0,0-27,27,27,27,0,0,0,27,27,27,27,0,0,0,27-27A27,27,0,0,0-694.7,250.18Zm74.64,0a27,27,0,0,0-27,27,27,27,0,0,0,27,27,27,27,0,0,0,27-27A27,27,0,0,0-620.06,250.18Zm74.63,0a27,27,0,0,0-27,27,27,27,0,0,0,27,27,27,27,0,0,0,27-27A27,27,0,0,0-545.43,250.18Zm74.64,0a27,27,0,0,0-27,27,27,27,0,0,0,27,27,27,27,0,0,0,27-27A27,27,0,0,0-470.79,250.18Zm74.64,0a27,27,0,0,0-27,27,27,27,0,0,0,27,27,27,27,0,0,0,27-27A27,27,0,0,0-396.15,250.18Zm74.64,0a27,27,0,0,0-27,27,27,27,0,0,0,27,27,27,27,0,0,0,27-27A27,27,0,0,0-321.51,250.18Zm74.64,0a27,27,0,0,0-27,27,27,27,0,0,0,27,27,27,27,0,0,0,27-27A27,27,0,0,0-246.87,250.18Zm74.63,0a27,27,0,0,0-27,27,27,27,0,0,0,27,27,27,27,0,0,0,27-27A27,27,0,0,0-172.24,250.18Zm74.64,0a27,27,0,0,0-27,27,27,27,0,0,0,27,27,27,27,0,0,0,27-27A27,27,0,0,0-97.6,250.18Zm74.64,0a27,27,0,0,0-27,27,27,27,0,0,0,27,27,27,27,0,0,0,27-27A27,27,0,0,0-23,250.18Zm74.64,0a27,27,0,1,0,27,27A27,27,0,0,0,51.68,250.18Zm74.64,0a27,27,0,1,0,27,27A27,27,0,0,0,126.32,250.18Zm74.63,0a27,27,0,1,0,27,27A27,27,0,0,0,201,250.18Zm74.64,0a27,27,0,1,0,27,27A27,27,0,0,0,275.59,250.18Zm74.64,0a27,27,0,1,0,27,27A27,27,0,0,0,350.23,250.18Zm74.64,0a27,27,0,1,0,27,27A27,27,0,0,0,424.87,250.18Zm74.64,0a27,27,0,1,0,27,27A27,27,0,0,0,499.51,250.18Zm149.27,0a27,27,0,1,0,27,27A27,27,0,0,0,648.78,250.18Zm-74.64,0a27,27,0,1,0,27,27A27,27,0,0,0,574.14,250.18Z"/><path class="cls-5" d="M-3531,322.14a27,27,0,0,0-27,27,27,27,0,0,0,27,27,27,27,0,0,0,27-27A27,27,0,0,0-3531,322.14Zm74.64,0a27,27,0,0,0-27,27,27,27,0,0,0,27,27,27,27,0,0,0,27-27A27,27,0,0,0-3456.32,322.14Zm74.64,0a27,27,0,0,0-27,27,27,27,0,0,0,27,27,27,27,0,0,0,27-27A27,27,0,0,0-3381.68,322.14Zm74.64,0a27,27,0,0,0-27,27,27,27,0,0,0,27,27,27,27,0,0,0,27-27A27,27,0,0,0-3307,322.14Zm74.64,0a27,27,0,0,0-27,27,27,27,0,0,0,27,27,27,27,0,0,0,27-27A27,27,0,0,0-3232.4,322.14Zm74.63,0a27,27,0,0,0-27,27,27,27,0,0,0,27,27,27,27,0,0,0,27-27A27,27,0,0,0-3157.77,322.14Zm74.64,0a27,27,0,0,0-27,27,27,27,0,0,0,27,27,27,27,0,0,0,27-27A27,27,0,0,0-3083.13,322.14Zm74.64,0a27,27,0,0,0-27,27,27,27,0,0,0,27,27,27,27,0,0,0,27-27A27,27,0,0,0-3008.49,322.14Zm74.64,0a27,27,0,0,0-27,27,27,27,0,0,0,27,27,27,27,0,0,0,27-27A27,27,0,0,0-2933.85,322.14Zm74.64,0a27,27,0,0,0-27,27,27,27,0,0,0,27,27,27,27,0,0,0,27-27A27,27,0,0,0-2859.21,322.14Zm74.63,0a27,27,0,0,0-27,27,27,27,0,0,0,27,27,27,27,0,0,0,27-27A27,27,0,0,0-2784.58,322.14Zm74.64,0a27,27,0,0,0-27,27,27,27,0,0,0,27,27,27,27,0,0,0,27-27A27,27,0,0,0-2709.94,322.14Zm74.64,0a27,27,0,0,0-27,27,27,27,0,0,0,27,27,27,27,0,0,0,27-27A27,27,0,0,0-2635.3,322.14Zm74.64,0a27,27,0,0,0-27,27,27,27,0,0,0,27,27,27,27,0,0,0,27-27A27,27,0,0,0-2560.66,322.14Zm74.64,0a27,27,0,0,0-27,27,27,27,0,0,0,27,27,27,27,0,0,0,27-27A27,27,0,0,0-2486,322.14Zm74.63,0a27,27,0,0,0-27,27,27,27,0,0,0,27,27,27,27,0,0,0,27-27A27,27,0,0,0-2411.39,322.14Zm74.64,0a27,27,0,0,0-27,27,27,27,0,0,0,27,27,27,27,0,0,0,27-27A27,27,0,0,0-2336.75,322.14Zm74.64,0a27,27,0,0,0-27,27,27,27,0,0,0,27,27,27,27,0,0,0,27-27A27,27,0,0,0-2262.11,322.14Zm74.64,0a27,27,0,0,0-27,27,27,27,0,0,0,27,27,27,27,0,0,0,27-27A27,27,0,0,0-2187.47,322.14Zm74.64,0a27,27,0,0,0-27,27,27,27,0,0,0,27,27,27,27,0,0,0,27-27A27,27,0,0,0-2112.83,322.14Zm74.63,0a27,27,0,0,0-27,27,27,27,0,0,0,27,27,27,27,0,0,0,27-27A27,27,0,0,0-2038.2,322.14Zm74.64,0a27,27,0,0,0-27,27,27,27,0,0,0,27,27,27,27,0,0,0,27-27A27,27,0,0,0-1963.56,322.14Zm74.64,0a27,27,0,0,0-27,27,27,27,0,0,0,27,27,27,27,0,0,0,27-27A27,27,0,0,0-1888.92,322.14Zm74.64,0a27,27,0,0,0-27,27,27,27,0,0,0,27,27,27,27,0,0,0,27-27A27,27,0,0,0-1814.28,322.14Zm74.64,0a27,27,0,0,0-27,27,27,27,0,0,0,27,27,27,27,0,0,0,27-27A27,27,0,0,0-1739.64,322.14Zm74.63,0a27,27,0,0,0-27,27,27,27,0,0,0,27,27,27,27,0,0,0,27-27A27,27,0,0,0-1665,322.14Zm74.64,0a27,27,0,0,0-27,27,27,27,0,0,0,27,27,27,27,0,0,0,27-27A27,27,0,0,0-1590.37,322.14Zm74.64,0a27,27,0,0,0-27,27,27,27,0,0,0,27,27,27,27,0,0,0,27-27A27,27,0,0,0-1515.73,322.14Zm74.64,0a27,27,0,0,0-27,27,27,27,0,0,0,27,27,27,27,0,0,0,27-27A27,27,0,0,0-1441.09,322.14Zm74.65,0a27,27,0,0,0-27,27,27,27,0,0,0,27,27,27,27,0,0,0,27-27A27,27,0,0,0-1366.44,322.14Zm74.63,0a27,27,0,0,0-27,27,27,27,0,0,0,27,27,27,27,0,0,0,27-27A27,27,0,0,0-1291.81,322.14Zm74.64,0a27,27,0,0,0-27,27,27,27,0,0,0,27,27,27,27,0,0,0,27-27A27,27,0,0,0-1217.17,322.14Zm74.64,0a27,27,0,0,0-27,27,27,27,0,0,0,27,27,27,27,0,0,0,27-27A27,27,0,0,0-1142.53,322.14Zm74.64,0a27,27,0,0,0-27,27,27,27,0,0,0,27,27,27,27,0,0,0,27-27A27,27,0,0,0-1067.89,322.14Zm74.64,0a27,27,0,0,0-27,27,27,27,0,0,0,27,27,27,27,0,0,0,27-27A27,27,0,0,0-993.25,322.14Zm74.63,0a27,27,0,0,0-27,27,27,27,0,0,0,27,27,27,27,0,0,0,27-27A27,27,0,0,0-918.62,322.14Zm74.64,0a27,27,0,0,0-27,27,27,27,0,0,0,27,27,27,27,0,0,0,27-27A27,27,0,0,0-844,322.14Zm74.64,0a27,27,0,0,0-27,27,27,27,0,0,0,27,27,27,27,0,0,0,27-27A27,27,0,0,0-769.34,322.14Zm74.64,0a27,27,0,0,0-27,27,27,27,0,0,0,27,27,27,27,0,0,0,27-27A27,27,0,0,0-694.7,322.14Zm74.64,0a27,27,0,0,0-27,27,27,27,0,0,0,27,27,27,27,0,0,0,27-27A27,27,0,0,0-620.06,322.14Zm74.63,0a27,27,0,0,0-27,27,27,27,0,0,0,27,27,27,27,0,0,0,27-27A27,27,0,0,0-545.43,322.14Zm74.64,0a27,27,0,0,0-27,27,27,27,0,0,0,27,27,27,27,0,0,0,27-27A27,27,0,0,0-470.79,322.14Zm74.64,0a27,27,0,0,0-27,27,27,27,0,0,0,27,27,27,27,0,0,0,27-27A27,27,0,0,0-396.15,322.14Zm74.64,0a27,27,0,0,0-27,27,27,27,0,0,0,27,27,27,27,0,0,0,27-27A27,27,0,0,0-321.51,322.14Zm74.64,0a27,27,0,0,0-27,27,27,27,0,0,0,27,27,27,27,0,0,0,27-27A27,27,0,0,0-246.87,322.14Zm74.63,0a27,27,0,0,0-27,27,27,27,0,0,0,27,27,27,27,0,0,0,27-27A27,27,0,0,0-172.24,322.14Zm74.64,0a27,27,0,0,0-27,27,27,27,0,0,0,27,27,27,27,0,0,0,27-27A27,27,0,0,0-97.6,322.14Zm74.64,0a27,27,0,0,0-27,27,27,27,0,0,0,27,27,27,27,0,0,0,27-27A27,27,0,0,0-23,322.14Zm74.64,0a27,27,0,1,0,27,27A27,27,0,0,0,51.68,322.14Zm74.64,0a27,27,0,1,0,27,27A27,27,0,0,0,126.32,322.14Zm74.63,0a27,27,0,1,0,27,27A27,27,0,0,0,201,322.14Zm74.64,0a27,27,0,1,0,27,27A27,27,0,0,0,275.59,322.14Zm74.64,0a27,27,0,1,0,27,27A27,27,0,0,0,350.23,322.14Zm74.64,0a27,27,0,1,0,27,27A27,27,0,0,0,424.87,322.14Zm74.64,0a27,27,0,1,0,27,27A27,27,0,0,0,499.51,322.14Zm149.27,0a27,27,0,1,0,27,27A27,27,0,0,0,648.78,322.14Zm-74.64,0a27,27,0,1,0,27,27A27,27,0,0,0,574.14,322.14Z"/><path class="cls-6" d="M-3531,394.09a27,27,0,0,0-27,27,27,27,0,0,0,27,27,27,27,0,0,0,27-27A27,27,0,0,0-3531,394.09Zm74.64,0a27,27,0,0,0-27,27,27,27,0,0,0,27,27,27,27,0,0,0,27-27A27,27,0,0,0-3456.32,394.09Zm74.64,0a27,27,0,0,0-27,27,27,27,0,0,0,27,27,27,27,0,0,0,27-27A27,27,0,0,0-3381.68,394.09Zm74.64,0a27,27,0,0,0-27,27,27,27,0,0,0,27,27,27,27,0,0,0,27-27A27,27,0,0,0-3307,394.09Zm74.64,0a27,27,0,0,0-27,27,27,27,0,0,0,27,27,27,27,0,0,0,27-27A27,27,0,0,0-3232.4,394.09Zm74.63,0a27,27,0,0,0-27,27,27,27,0,0,0,27,27,27,27,0,0,0,27-27A27,27,0,0,0-3157.77,394.09Zm74.64,0a27,27,0,0,0-27,27,27,27,0,0,0,27,27,27,27,0,0,0,27-27A27,27,0,0,0-3083.13,394.09Zm74.64,0a27,27,0,0,0-27,27,27,27,0,0,0,27,27,27,27,0,0,0,27-27A27,27,0,0,0-3008.49,394.09Zm74.64,0a27,27,0,0,0-27,27,27,27,0,0,0,27,27,27,27,0,0,0,27-27A27,27,0,0,0-2933.85,394.09Zm74.64,0a27,27,0,0,0-27,27,27,27,0,0,0,27,27,27,27,0,0,0,27-27A27,27,0,0,0-2859.21,394.09Zm74.63,0a27,27,0,0,0-27,27,27,27,0,0,0,27,27,27,27,0,0,0,27-27A27,27,0,0,0-2784.58,394.09Zm74.64,0a27,27,0,0,0-27,27,27,27,0,0,0,27,27,27,27,0,0,0,27-27A27,27,0,0,0-2709.94,394.09Zm74.64,0a27,27,0,0,0-27,27,27,27,0,0,0,27,27,27,27,0,0,0,27-27A27,27,0,0,0-2635.3,394.09Zm74.64,0a27,27,0,0,0-27,27,27,27,0,0,0,27,27,27,27,0,0,0,27-27A27,27,0,0,0-2560.66,394.09Zm74.64,0a27,27,0,0,0-27,27,27,27,0,0,0,27,27,27,27,0,0,0,27-27A27,27,0,0,0-2486,394.09Zm74.63,0a27,27,0,0,0-27,27,27,27,0,0,0,27,27,27,27,0,0,0,27-27A27,27,0,0,0-2411.39,394.09Zm74.64,0a27,27,0,0,0-27,27,27,27,0,0,0,27,27,27,27,0,0,0,27-27A27,27,0,0,0-2336.75,394.09Zm74.64,0a27,27,0,0,0-27,27,27,27,0,0,0,27,27,27,27,0,0,0,27-27A27,27,0,0,0-2262.11,394.09Zm74.64,0a27,27,0,0,0-27,27,27,27,0,0,0,27,27,27,27,0,0,0,27-27A27,27,0,0,0-2187.47,394.09Zm74.64,0a27,27,0,0,0-27,27,27,27,0,0,0,27,27,27,27,0,0,0,27-27A27,27,0,0,0-2112.83,394.09Zm74.63,0a27,27,0,0,0-27,27,27,27,0,0,0,27,27,27,27,0,0,0,27-27A27,27,0,0,0-2038.2,394.09Zm74.64,0a27,27,0,0,0-27,27,27,27,0,0,0,27,27,27,27,0,0,0,27-27A27,27,0,0,0-1963.56,394.09Zm74.64,0a27,27,0,0,0-27,27,27,27,0,0,0,27,27,27,27,0,0,0,27-27A27,27,0,0,0-1888.92,394.09Zm74.64,0a27,27,0,0,0-27,27,27,27,0,0,0,27,27,27,27,0,0,0,27-27A27,27,0,0,0-1814.28,394.09Zm74.64,0a27,27,0,0,0-27,27,27,27,0,0,0,27,27,27,27,0,0,0,27-27A27,27,0,0,0-1739.64,394.09Zm74.63,0a27,27,0,0,0-27,27,27,27,0,0,0,27,27,27,27,0,0,0,27-27A27,27,0,0,0-1665,394.09Zm74.64,0a27,27,0,0,0-27,27,27,27,0,0,0,27,27,27,27,0,0,0,27-27A27,27,0,0,0-1590.37,394.09Zm74.64,0a27,27,0,0,0-27,27,27,27,0,0,0,27,27,27,27,0,0,0,27-27A27,27,0,0,0-1515.73,394.09Zm74.64,0a27,27,0,0,0-27,27,27,27,0,0,0,27,27,27,27,0,0,0,27-27A27,27,0,0,0-1441.09,394.09Zm74.65,0a27,27,0,0,0-27,27,27,27,0,0,0,27,27,27,27,0,0,0,27-27A27,27,0,0,0-1366.44,394.09Zm74.63,0a27,27,0,0,0-27,27,27,27,0,0,0,27,27,27,27,0,0,0,27-27A27,27,0,0,0-1291.81,394.09Zm74.64,0a27,27,0,0,0-27,27,27,27,0,0,0,27,27,27,27,0,0,0,27-27A27,27,0,0,0-1217.17,394.09Zm74.64,0a27,27,0,0,0-27,27,27,27,0,0,0,27,27,27,27,0,0,0,27-27A27,27,0,0,0-1142.53,394.09Zm74.64,0a27,27,0,0,0-27,27,27,27,0,0,0,27,27,27,27,0,0,0,27-27A27,27,0,0,0-1067.89,394.09Zm74.64,0a27,27,0,0,0-27,27,27,27,0,0,0,27,27,27,27,0,0,0,27-27A27,27,0,0,0-993.25,394.09Zm74.63,0a27,27,0,0,0-27,27,27,27,0,0,0,27,27,27,27,0,0,0,27-27A27,27,0,0,0-918.62,394.09Zm74.64,0a27,27,0,0,0-27,27,27,27,0,0,0,27,27,27,27,0,0,0,27-27A27,27,0,0,0-844,394.09Zm74.64,0a27,27,0,0,0-27,27,27,27,0,0,0,27,27,27,27,0,0,0,27-27A27,27,0,0,0-769.34,394.09Zm74.64,0a27,27,0,0,0-27,27,27,27,0,0,0,27,27,27,27,0,0,0,27-27A27,27,0,0,0-694.7,394.09Zm74.64,0a27,27,0,0,0-27,27,27,27,0,0,0,27,27,27,27,0,0,0,27-27A27,27,0,0,0-620.06,394.09Zm74.63,0a27,27,0,0,0-27,27,27,27,0,0,0,27,27,27,27,0,0,0,27-27A27,27,0,0,0-545.43,394.09Zm74.64,0a27,27,0,0,0-27,27,27,27,0,0,0,27,27,27,27,0,0,0,27-27A27,27,0,0,0-470.79,394.09Zm74.64,0a27,27,0,0,0-27,27,27,27,0,0,0,27,27,27,27,0,0,0,27-27A27,27,0,0,0-396.15,394.09Zm74.64,0a27,27,0,0,0-27,27,27,27,0,0,0,27,27,27,27,0,0,0,27-27A27,27,0,0,0-321.51,394.09Zm74.64,0a27,27,0,0,0-27,27,27,27,0,0,0,27,27,27,27,0,0,0,27-27A27,27,0,0,0-246.87,394.09Zm74.63,0a27,27,0,0,0-27,27,27,27,0,0,0,27,27,27,27,0,0,0,27-27A27,27,0,0,0-172.24,394.09Zm74.64,0a27,27,0,0,0-27,27,27,27,0,0,0,27,27,27,27,0,0,0,27-27A27,27,0,0,0-97.6,394.09Zm74.64,0a27,27,0,0,0-27,27,27,27,0,0,0,27,27,27,27,0,0,0,27-27A27,27,0,0,0-23,394.09Zm74.64,0a27,27,0,1,0,27,27A27,27,0,0,0,51.68,394.09Zm74.64,0a27,27,0,1,0,27,27A27,27,0,0,0,126.32,394.09Zm74.63,0a27,27,0,1,0,27,27A27,27,0,0,0,201,394.09Zm74.64,0a27,27,0,1,0,27,27A27,27,0,0,0,275.59,394.09Zm74.64,0a27,27,0,1,0,27,27A27,27,0,0,0,350.23,394.09Zm74.64,0a27,27,0,1,0,27,27A27,27,0,0,0,424.87,394.09Zm74.64,0a27,27,0,1,0,27,27A27,27,0,0,0,499.51,394.09Zm149.27,0a27,27,0,1,0,27,27A27,27,0,0,0,648.78,394.09Zm-74.64,0a27,27,0,1,0,27,27A27,27,0,0,0,574.14,394.09Z"/><path class="cls-7" d="M-3531,466.05a27,27,0,0,0-27,27,27,27,0,0,0,27,27,27,27,0,0,0,27-27A27,27,0,0,0-3531,466.05Zm74.64,0a27,27,0,0,0-27,27,27,27,0,0,0,27,27,27,27,0,0,0,27-27A27,27,0,0,0-3456.32,466.05Zm74.64,0a27,27,0,0,0-27,27,27,27,0,0,0,27,27,27,27,0,0,0,27-27A27,27,0,0,0-3381.68,466.05Zm74.63,0a27,27,0,0,0-27,27,27,27,0,0,0,27,27,27,27,0,0,0,27-27A27,27,0,0,0-3307,466.05Zm74.64,0a27,27,0,0,0-27,27,27,27,0,0,0,27,27,27,27,0,0,0,27-27A27,27,0,0,0-3232.41,466.05Zm74.64,0a27,27,0,0,0-27,27,27,27,0,0,0,27,27,27,27,0,0,0,27-27A27,27,0,0,0-3157.77,466.05Zm74.64,0a27,27,0,0,0-27,27,27,27,0,0,0,27,27,27,27,0,0,0,27-27A27,27,0,0,0-3083.13,466.05Zm74.64,0a27,27,0,0,0-27,27,27,27,0,0,0,27,27,27,27,0,0,0,27-27A27,27,0,0,0-3008.49,466.05Zm74.63,0a27,27,0,0,0-27,27,27,27,0,0,0,27,27,27,27,0,0,0,27-27A27,27,0,0,0-2933.86,466.05Zm74.64,0a27,27,0,0,0-27,27,27,27,0,0,0,27,27,27,27,0,0,0,27-27A27,27,0,0,0-2859.22,466.05Zm74.64,0a27,27,0,0,0-27,27,27,27,0,0,0,27,27,27,27,0,0,0,27-27A27,27,0,0,0-2784.58,466.05Zm74.64,0a27,27,0,0,0-27,27,27,27,0,0,0,27,27,27,27,0,0,0,27-27A27,27,0,0,0-2709.94,466.05Zm74.64,0a27,27,0,0,0-27,27,27,27,0,0,0,27,27,27,27,0,0,0,27-27A27,27,0,0,0-2635.3,466.05Zm74.63,0a27,27,0,0,0-27,27,27,27,0,0,0,27,27,27,27,0,0,0,27-27A27,27,0,0,0-2560.67,466.05Zm74.64,0a27,27,0,0,0-27,27,27,27,0,0,0,27,27,27,27,0,0,0,27-27A27,27,0,0,0-2486,466.05Zm74.64,0a27,27,0,0,0-27,27,27,27,0,0,0,27,27,27,27,0,0,0,27-27A27,27,0,0,0-2411.39,466.05Zm74.64,0a27,27,0,0,0-27,27,27,27,0,0,0,27,27,27,27,0,0,0,27-27A27,27,0,0,0-2336.75,466.05Zm74.64,0a27,27,0,0,0-27,27,27,27,0,0,0,27,27,27,27,0,0,0,27-27A27,27,0,0,0-2262.11,466.05Zm74.63,0a27,27,0,0,0-27,27,27,27,0,0,0,27,27,27,27,0,0,0,27-27A27,27,0,0,0-2187.48,466.05Zm74.64,0a27,27,0,0,0-27,27,27,27,0,0,0,27,27,27,27,0,0,0,27-27A27,27,0,0,0-2112.84,466.05Zm74.64,0a27,27,0,0,0-27,27,27,27,0,0,0,27,27,27,27,0,0,0,27-27A27,27,0,0,0-2038.2,466.05Zm74.64,0a27,27,0,0,0-27,27,27,27,0,0,0,27,27,27,27,0,0,0,27-27A27,27,0,0,0-1963.56,466.05Zm74.64,0a27,27,0,0,0-27,27,27,27,0,0,0,27,27,27,27,0,0,0,27-27A27,27,0,0,0-1888.92,466.05Zm74.63,0a27,27,0,0,0-27,27,27,27,0,0,0,27,27,27,27,0,0,0,27-27A27,27,0,0,0-1814.29,466.05Zm74.65,0a27,27,0,0,0-27,27,27,27,0,0,0,27,27,27,27,0,0,0,27-27A27,27,0,0,0-1739.64,466.05Zm74.63,0a27,27,0,0,0-27,27,27,27,0,0,0,27,27,27,27,0,0,0,27-27A27,27,0,0,0-1665,466.05Zm74.64,0a27,27,0,0,0-27,27,27,27,0,0,0,27,27,27,27,0,0,0,27-27A27,27,0,0,0-1590.37,466.05Zm74.64,0a27,27,0,0,0-27,27,27,27,0,0,0,27,27,27,27,0,0,0,27-27A27,27,0,0,0-1515.73,466.05Zm74.64,0a27,27,0,0,0-27,27,27,27,0,0,0,27,27,27,27,0,0,0,27-27A27,27,0,0,0-1441.09,466.05Zm74.65,0a27,27,0,0,0-27,27,27,27,0,0,0,27,27,27,27,0,0,0,27-27A27,27,0,0,0-1366.44,466.05Zm74.63,0a27,27,0,0,0-27,27,27,27,0,0,0,27,27,27,27,0,0,0,27-27A27,27,0,0,0-1291.81,466.05Zm74.64,0a27,27,0,0,0-27,27,27,27,0,0,0,27,27,27,27,0,0,0,27-27A27,27,0,0,0-1217.17,466.05Zm74.64,0a27,27,0,0,0-27,27,27,27,0,0,0,27,27,27,27,0,0,0,27-27A27,27,0,0,0-1142.53,466.05Zm74.64,0a27,27,0,0,0-27,27,27,27,0,0,0,27,27,27,27,0,0,0,27-27A27,27,0,0,0-1067.89,466.05Zm74.64,0a27,27,0,0,0-27,27,27,27,0,0,0,27,27,27,27,0,0,0,27-27A27,27,0,0,0-993.25,466.05Zm74.63,0a27,27,0,0,0-27,27,27,27,0,0,0,27,27,27,27,0,0,0,27-27A27,27,0,0,0-918.62,466.05Zm74.64,0a27,27,0,0,0-27,27,27,27,0,0,0,27,27,27,27,0,0,0,27-27A27,27,0,0,0-844,466.05Zm74.64,0a27,27,0,0,0-27,27,27,27,0,0,0,27,27,27,27,0,0,0,27-27A27,27,0,0,0-769.34,466.05Zm74.64,0a27,27,0,0,0-27,27,27,27,0,0,0,27,27,27,27,0,0,0,27-27A27,27,0,0,0-694.7,466.05Zm74.64,0a27,27,0,0,0-27,27,27,27,0,0,0,27,27,27,27,0,0,0,27-27A27,27,0,0,0-620.06,466.05Zm74.63,0a27,27,0,0,0-27,27,27,27,0,0,0,27,27,27,27,0,0,0,27-27A27,27,0,0,0-545.43,466.05Zm74.64,0a27,27,0,0,0-27,27,27,27,0,0,0,27,27,27,27,0,0,0,27-27A27,27,0,0,0-470.79,466.05Zm74.64,0a27,27,0,0,0-27,27,27,27,0,0,0,27,27,27,27,0,0,0,27-27A27,27,0,0,0-396.15,466.05Zm74.64,0a27,27,0,0,0-27,27,27,27,0,0,0,27,27,27,27,0,0,0,27-27A27,27,0,0,0-321.51,466.05Zm74.64,0a27,27,0,0,0-27,27,27,27,0,0,0,27,27,27,27,0,0,0,27-27A27,27,0,0,0-246.87,466.05Zm74.63,0a27,27,0,0,0-27,27,27,27,0,0,0,27,27,27,27,0,0,0,27-27A27,27,0,0,0-172.24,466.05Zm74.64,0a27,27,0,0,0-27,27,27,27,0,0,0,27,27,27,27,0,0,0,27-27A27,27,0,0,0-97.6,466.05Zm74.64,0a27,27,0,0,0-27,27,27,27,0,0,0,27,27,27,27,0,0,0,27-27A27,27,0,0,0-23,466.05Zm74.64,0a27,27,0,1,0,27,27A27,27,0,0,0,51.68,466.05Zm74.64,0a27,27,0,1,0,27,27A27,27,0,0,0,126.32,466.05Zm74.63,0a27,27,0,1,0,27,27A27,27,0,0,0,201,466.05Zm74.64,0a27,27,0,1,0,27,27A27,27,0,0,0,275.59,466.05Zm74.64,0a27,27,0,1,0,27,27A27,27,0,0,0,350.23,466.05Zm74.64,0a27,27,0,1,0,27,27A27,27,0,0,0,424.87,466.05Zm74.64,0a27,27,0,1,0,27,27A27,27,0,0,0,499.51,466.05Zm149.27,0a27,27,0,1,0,27,27A27,27,0,0,0,648.78,466.05Zm-74.64,0a27,27,0,1,0,27,27A27,27,0,0,0,574.14,466.05Z"/><path class="cls-8" d="M-3531,538a27,27,0,0,0-27,27,27,27,0,0,0,27,27,27,27,0,0,0,27-27A27,27,0,0,0-3531,538Zm74.64,0a27,27,0,0,0-27,27,27,27,0,0,0,27,27,27,27,0,0,0,27-27A27,27,0,0,0-3456.32,538Zm74.64,0a27,27,0,0,0-27,27,27,27,0,0,0,27,27,27,27,0,0,0,27-27A27,27,0,0,0-3381.68,538Zm74.64,0a27,27,0,0,0-27,27,27,27,0,0,0,27,27,27,27,0,0,0,27-27A27,27,0,0,0-3307,538Zm74.64,0a27,27,0,0,0-27,27,27,27,0,0,0,27,27,27,27,0,0,0,27-27A27,27,0,0,0-3232.4,538Zm74.63,0a27,27,0,0,0-27,27,27,27,0,0,0,27,27,27,27,0,0,0,27-27A27,27,0,0,0-3157.77,538Zm74.64,0a27,27,0,0,0-27,27,27,27,0,0,0,27,27,27,27,0,0,0,27-27A27,27,0,0,0-3083.13,538Zm74.64,0a27,27,0,0,0-27,27,27,27,0,0,0,27,27,27,27,0,0,0,27-27A27,27,0,0,0-3008.49,538Zm74.64,0a27,27,0,0,0-27,27,27,27,0,0,0,27,27,27,27,0,0,0,27-27A27,27,0,0,0-2933.85,538Zm74.64,0a27,27,0,0,0-27,27,27,27,0,0,0,27,27,27,27,0,0,0,27-27A27,27,0,0,0-2859.21,538Zm74.63,0a27,27,0,0,0-27,27,27,27,0,0,0,27,27,27,27,0,0,0,27-27A27,27,0,0,0-2784.58,538Zm74.64,0a27,27,0,0,0-27,27,27,27,0,0,0,27,27,27,27,0,0,0,27-27A27,27,0,0,0-2709.94,538Zm74.64,0a27,27,0,0,0-27,27,27,27,0,0,0,27,27,27,27,0,0,0,27-27A27,27,0,0,0-2635.3,538Zm74.64,0a27,27,0,0,0-27,27,27,27,0,0,0,27,27,27,27,0,0,0,27-27A27,27,0,0,0-2560.66,538Zm74.64,0a27,27,0,0,0-27,27,27,27,0,0,0,27,27,27,27,0,0,0,27-27A27,27,0,0,0-2486,538Zm74.63,0a27,27,0,0,0-27,27,27,27,0,0,0,27,27,27,27,0,0,0,27-27A27,27,0,0,0-2411.39,538Zm74.64,0a27,27,0,0,0-27,27,27,27,0,0,0,27,27,27,27,0,0,0,27-27A27,27,0,0,0-2336.75,538Zm74.64,0a27,27,0,0,0-27,27,27,27,0,0,0,27,27,27,27,0,0,0,27-27A27,27,0,0,0-2262.11,538Zm74.64,0a27,27,0,0,0-27,27,27,27,0,0,0,27,27,27,27,0,0,0,27-27A27,27,0,0,0-2187.47,538Zm74.64,0a27,27,0,0,0-27,27,27,27,0,0,0,27,27,27,27,0,0,0,27-27A27,27,0,0,0-2112.83,538Zm74.63,0a27,27,0,0,0-27,27,27,27,0,0,0,27,27,27,27,0,0,0,27-27A27,27,0,0,0-2038.2,538Zm74.64,0a27,27,0,0,0-27,27,27,27,0,0,0,27,27,27,27,0,0,0,27-27A27,27,0,0,0-1963.56,538Zm74.64,0a27,27,0,0,0-27,27,27,27,0,0,0,27,27,27,27,0,0,0,27-27A27,27,0,0,0-1888.92,538Zm74.64,0a27,27,0,0,0-27,27,27,27,0,0,0,27,27,27,27,0,0,0,27-27A27,27,0,0,0-1814.28,538Zm74.64,0a27,27,0,0,0-27,27,27,27,0,0,0,27,27,27,27,0,0,0,27-27A27,27,0,0,0-1739.64,538Zm74.63,0a27,27,0,0,0-27,27,27,27,0,0,0,27,27,27,27,0,0,0,27-27A27,27,0,0,0-1665,538Zm74.64,0a27,27,0,0,0-27,27,27,27,0,0,0,27,27,27,27,0,0,0,27-27A27,27,0,0,0-1590.37,538Zm74.64,0a27,27,0,0,0-27,27,27,27,0,0,0,27,27,27,27,0,0,0,27-27A27,27,0,0,0-1515.73,538Zm74.64,0a27,27,0,0,0-27,27,27,27,0,0,0,27,27,27,27,0,0,0,27-27A27,27,0,0,0-1441.09,538Zm74.65,0a27,27,0,0,0-27,27,27,27,0,0,0,27,27,27,27,0,0,0,27-27A27,27,0,0,0-1366.44,538Zm74.63,0a27,27,0,0,0-27,27,27,27,0,0,0,27,27,27,27,0,0,0,27-27A27,27,0,0,0-1291.81,538Zm74.64,0a27,27,0,0,0-27,27,27,27,0,0,0,27,27,27,27,0,0,0,27-27A27,27,0,0,0-1217.17,538Zm74.64,0a27,27,0,0,0-27,27,27,27,0,0,0,27,27,27,27,0,0,0,27-27A27,27,0,0,0-1142.53,538Zm74.64,0a27,27,0,0,0-27,27,27,27,0,0,0,27,27,27,27,0,0,0,27-27A27,27,0,0,0-1067.89,538Zm74.64,0a27,27,0,0,0-27,27,27,27,0,0,0,27,27,27,27,0,0,0,27-27A27,27,0,0,0-993.25,538Zm74.63,0a27,27,0,0,0-27,27,27,27,0,0,0,27,27,27,27,0,0,0,27-27A27,27,0,0,0-918.62,538Zm74.64,0a27,27,0,0,0-27,27,27,27,0,0,0,27,27,27,27,0,0,0,27-27A27,27,0,0,0-844,538Zm74.64,0a27,27,0,0,0-27,27,27,27,0,0,0,27,27,27,27,0,0,0,27-27A27,27,0,0,0-769.34,538Zm74.64,0a27,27,0,0,0-27,27,27,27,0,0,0,27,27,27,27,0,0,0,27-27A27,27,0,0,0-694.7,538Zm74.64,0a27,27,0,0,0-27,27,27,27,0,0,0,27,27,27,27,0,0,0,27-27A27,27,0,0,0-620.06,538Zm74.63,0a27,27,0,0,0-27,27,27,27,0,0,0,27,27,27,27,0,0,0,27-27A27,27,0,0,0-545.43,538Zm74.64,0a27,27,0,0,0-27,27,27,27,0,0,0,27,27,27,27,0,0,0,27-27A27,27,0,0,0-470.79,538Zm74.64,0a27,27,0,0,0-27,27,27,27,0,0,0,27,27,27,27,0,0,0,27-27A27,27,0,0,0-396.15,538Zm74.64,0a27,27,0,0,0-27,27,27,27,0,0,0,27,27,27,27,0,0,0,27-27A27,27,0,0,0-321.51,538Zm74.64,0a27,27,0,0,0-27,27,27,27,0,0,0,27,27,27,27,0,0,0,27-27A27,27,0,0,0-246.87,538Zm74.63,0a27,27,0,0,0-27,27,27,27,0,0,0,27,27,27,27,0,0,0,27-27A27,27,0,0,0-172.24,538Zm74.64,0a27,27,0,0,0-27,27,27,27,0,0,0,27,27,27,27,0,0,0,27-27A27,27,0,0,0-97.6,538ZM-23,538a27,27,0,0,0-27,27,27,27,0,0,0,27,27A27,27,0,0,0,4,565,27,27,0,0,0-23,538Zm74.64,0a27,27,0,1,0,27,27A27,27,0,0,0,51.68,538Zm74.64,0a27,27,0,1,0,27,27A27,27,0,0,0,126.32,538ZM201,538a27,27,0,1,0,27,27A27,27,0,0,0,201,538Zm74.64,0a27,27,0,1,0,27,27A27,27,0,0,0,275.59,538Zm74.64,0a27,27,0,1,0,27,27A27,27,0,0,0,350.23,538Zm74.64,0a27,27,0,1,0,27,27A27,27,0,0,0,424.87,538Zm74.64,0a27,27,0,1,0,27,27A27,27,0,0,0,499.51,538Zm149.27,0a27,27,0,1,0,27,27A27,27,0,0,0,648.78,538Zm-74.64,0a27,27,0,1,0,27,27A27,27,0,0,0,574.14,538Z"/><path class="cls-9" d="M-3531,610a27,27,0,0,0-27,27,27,27,0,0,0,27,27,27,27,0,0,0,27-27A27,27,0,0,0-3531,610Zm74.64,0a27,27,0,0,0-27,27,27,27,0,0,0,27,27,27,27,0,0,0,27-27A27,27,0,0,0-3456.32,610Zm74.64,0a27,27,0,0,0-27,27,27,27,0,0,0,27,27,27,27,0,0,0,27-27A27,27,0,0,0-3381.68,610Zm74.64,0a27,27,0,0,0-27,27,27,27,0,0,0,27,27,27,27,0,0,0,27-27A27,27,0,0,0-3307,610Zm74.64,0a27,27,0,0,0-27,27,27,27,0,0,0,27,27,27,27,0,0,0,27-27A27,27,0,0,0-3232.4,610Zm74.63,0a27,27,0,0,0-27,27,27,27,0,0,0,27,27,27,27,0,0,0,27-27A27,27,0,0,0-3157.77,610Zm74.64,0a27,27,0,0,0-27,27,27,27,0,0,0,27,27,27,27,0,0,0,27-27A27,27,0,0,0-3083.13,610Zm74.64,0a27,27,0,0,0-27,27,27,27,0,0,0,27,27,27,27,0,0,0,27-27A27,27,0,0,0-3008.49,610Zm74.64,0a27,27,0,0,0-27,27,27,27,0,0,0,27,27,27,27,0,0,0,27-27A27,27,0,0,0-2933.85,610Zm74.64,0a27,27,0,0,0-27,27,27,27,0,0,0,27,27,27,27,0,0,0,27-27A27,27,0,0,0-2859.21,610Zm74.63,0a27,27,0,0,0-27,27,27,27,0,0,0,27,27,27,27,0,0,0,27-27A27,27,0,0,0-2784.58,610Zm74.64,0a27,27,0,0,0-27,27,27,27,0,0,0,27,27,27,27,0,0,0,27-27A27,27,0,0,0-2709.94,610Zm74.64,0a27,27,0,0,0-27,27,27,27,0,0,0,27,27,27,27,0,0,0,27-27A27,27,0,0,0-2635.3,610Zm74.64,0a27,27,0,0,0-27,27,27,27,0,0,0,27,27,27,27,0,0,0,27-27A27,27,0,0,0-2560.66,610Zm74.64,0a27,27,0,0,0-27,27,27,27,0,0,0,27,27,27,27,0,0,0,27-27A27,27,0,0,0-2486,610Zm74.63,0a27,27,0,0,0-27,27,27,27,0,0,0,27,27,27,27,0,0,0,27-27A27,27,0,0,0-2411.39,610Zm74.64,0a27,27,0,0,0-27,27,27,27,0,0,0,27,27,27,27,0,0,0,27-27A27,27,0,0,0-2336.75,610Zm74.64,0a27,27,0,0,0-27,27,27,27,0,0,0,27,27,27,27,0,0,0,27-27A27,27,0,0,0-2262.11,610Zm74.64,0a27,27,0,0,0-27,27,27,27,0,0,0,27,27,27,27,0,0,0,27-27A27,27,0,0,0-2187.47,610Zm74.64,0a27,27,0,0,0-27,27,27,27,0,0,0,27,27,27,27,0,0,0,27-27A27,27,0,0,0-2112.83,610Zm74.63,0a27,27,0,0,0-27,27,27,27,0,0,0,27,27,27,27,0,0,0,27-27A27,27,0,0,0-2038.2,610Zm74.64,0a27,27,0,0,0-27,27,27,27,0,0,0,27,27,27,27,0,0,0,27-27A27,27,0,0,0-1963.56,610Zm74.64,0a27,27,0,0,0-27,27,27,27,0,0,0,27,27,27,27,0,0,0,27-27A27,27,0,0,0-1888.92,610Zm74.64,0a27,27,0,0,0-27,27,27,27,0,0,0,27,27,27,27,0,0,0,27-27A27,27,0,0,0-1814.28,610Zm74.64,0a27,27,0,0,0-27,27,27,27,0,0,0,27,27,27,27,0,0,0,27-27A27,27,0,0,0-1739.64,610Zm74.63,0a27,27,0,0,0-27,27,27,27,0,0,0,27,27,27,27,0,0,0,27-27A27,27,0,0,0-1665,610Zm74.64,0a27,27,0,0,0-27,27,27,27,0,0,0,27,27,27,27,0,0,0,27-27A27,27,0,0,0-1590.37,610Zm74.64,0a27,27,0,0,0-27,27,27,27,0,0,0,27,27,27,27,0,0,0,27-27A27,27,0,0,0-1515.73,610Zm74.64,0a27,27,0,0,0-27,27,27,27,0,0,0,27,27,27,27,0,0,0,27-27A27,27,0,0,0-1441.09,610Zm74.65,0a27,27,0,0,0-27,27,27,27,0,0,0,27,27,27,27,0,0,0,27-27A27,27,0,0,0-1366.44,610Zm74.63,0a27,27,0,0,0-27,27,27,27,0,0,0,27,27,27,27,0,0,0,27-27A27,27,0,0,0-1291.81,610Zm74.64,0a27,27,0,0,0-27,27,27,27,0,0,0,27,27,27,27,0,0,0,27-27A27,27,0,0,0-1217.17,610Zm74.64,0a27,27,0,0,0-27,27,27,27,0,0,0,27,27,27,27,0,0,0,27-27A27,27,0,0,0-1142.53,610Zm74.64,0a27,27,0,0,0-27,27,27,27,0,0,0,27,27,27,27,0,0,0,27-27A27,27,0,0,0-1067.89,610Zm74.64,0a27,27,0,0,0-27,27,27,27,0,0,0,27,27,27,27,0,0,0,27-27A27,27,0,0,0-993.25,610Zm74.63,0a27,27,0,0,0-27,27,27,27,0,0,0,27,27,27,27,0,0,0,27-27A27,27,0,0,0-918.62,610Zm74.64,0a27,27,0,0,0-27,27,27,27,0,0,0,27,27,27,27,0,0,0,27-27A27,27,0,0,0-844,610Zm74.64,0a27,27,0,0,0-27,27,27,27,0,0,0,27,27,27,27,0,0,0,27-27A27,27,0,0,0-769.34,610Zm74.64,0a27,27,0,0,0-27,27,27,27,0,0,0,27,27,27,27,0,0,0,27-27A27,27,0,0,0-694.7,610Zm74.64,0a27,27,0,0,0-27,27,27,27,0,0,0,27,27,27,27,0,0,0,27-27A27,27,0,0,0-620.06,610Zm74.63,0a27,27,0,0,0-27,27,27,27,0,0,0,27,27,27,27,0,0,0,27-27A27,27,0,0,0-545.43,610Zm74.64,0a27,27,0,0,0-27,27,27,27,0,0,0,27,27,27,27,0,0,0,27-27A27,27,0,0,0-470.79,610Zm74.64,0a27,27,0,0,0-27,27,27,27,0,0,0,27,27,27,27,0,0,0,27-27A27,27,0,0,0-396.15,610Zm74.64,0a27,27,0,0,0-27,27,27,27,0,0,0,27,27,27,27,0,0,0,27-27A27,27,0,0,0-321.51,610Zm74.64,0a27,27,0,0,0-27,27,27,27,0,0,0,27,27,27,27,0,0,0,27-27A27,27,0,0,0-246.87,610Zm74.63,0a27,27,0,0,0-27,27,27,27,0,0,0,27,27,27,27,0,0,0,27-27A27,27,0,0,0-172.24,610Zm74.64,0a27,27,0,0,0-27,27,27,27,0,0,0,27,27,27,27,0,0,0,27-27A27,27,0,0,0-97.6,610ZM-23,610a27,27,0,0,0-27,27,27,27,0,0,0,27,27A27,27,0,0,0,4,637,27,27,0,0,0-23,610Zm74.64,0a27,27,0,1,0,27,27A27,27,0,0,0,51.68,610Zm74.64,0a27,27,0,1,0,27,27A27,27,0,0,0,126.32,610ZM201,610a27,27,0,1,0,27,27A27,27,0,0,0,201,610Zm74.64,0a27,27,0,1,0,27,27A27,27,0,0,0,275.59,610Zm74.64,0a27,27,0,1,0,27,27A27,27,0,0,0,350.23,610Zm74.64,0a27,27,0,1,0,27,27A27,27,0,0,0,424.87,610Zm74.64,0a27,27,0,1,0,27,27A27,27,0,0,0,499.51,610Zm149.27,0a27,27,0,1,0,27,27A27,27,0,0,0,648.78,610Zm-74.64,0a27,27,0,1,0,27,27A27,27,0,0,0,574.14,610Z"/><path class="cls-10" d="M-3531,681.93a27,27,0,0,0-27,27,27,27,0,0,0,27,27,27,27,0,0,0,27-27A27,27,0,0,0-3531,681.93Zm74.64,0a27,27,0,0,0-27,27,27,27,0,0,0,27,27,27,27,0,0,0,27-27A27,27,0,0,0-3456.32,681.93Zm74.64,0a27,27,0,0,0-27,27,27,27,0,0,0,27,27,27,27,0,0,0,27-27A27,27,0,0,0-3381.68,681.93Zm74.64,0a27,27,0,0,0-27,27,27,27,0,0,0,27,27,27,27,0,0,0,27-27A27,27,0,0,0-3307,681.93Zm74.64,0a27,27,0,0,0-27,27,27,27,0,0,0,27,27,27,27,0,0,0,27-27A27,27,0,0,0-3232.4,681.93Zm74.63,0a27,27,0,0,0-27,27,27,27,0,0,0,27,27,27,27,0,0,0,27-27A27,27,0,0,0-3157.77,681.93Zm74.64,0a27,27,0,0,0-27,27,27,27,0,0,0,27,27,27,27,0,0,0,27-27A27,27,0,0,0-3083.13,681.93Zm74.64,0a27,27,0,0,0-27,27,27,27,0,0,0,27,27,27,27,0,0,0,27-27A27,27,0,0,0-3008.49,681.93Zm74.64,0a27,27,0,0,0-27,27,27,27,0,0,0,27,27,27,27,0,0,0,27-27A27,27,0,0,0-2933.85,681.93Zm74.64,0a27,27,0,0,0-27,27,27,27,0,0,0,27,27,27,27,0,0,0,27-27A27,27,0,0,0-2859.21,681.93Zm74.63,0a27,27,0,0,0-27,27,27,27,0,0,0,27,27,27,27,0,0,0,27-27A27,27,0,0,0-2784.58,681.93Zm74.64,0a27,27,0,0,0-27,27,27,27,0,0,0,27,27,27,27,0,0,0,27-27A27,27,0,0,0-2709.94,681.93Zm74.64,0a27,27,0,0,0-27,27,27,27,0,0,0,27,27,27,27,0,0,0,27-27A27,27,0,0,0-2635.3,681.93Zm74.64,0a27,27,0,0,0-27,27,27,27,0,0,0,27,27,27,27,0,0,0,27-27A27,27,0,0,0-2560.66,681.93Zm74.64,0a27,27,0,0,0-27,27,27,27,0,0,0,27,27,27,27,0,0,0,27-27A27,27,0,0,0-2486,681.93Zm74.63,0a27,27,0,0,0-27,27,27,27,0,0,0,27,27,27,27,0,0,0,27-27A27,27,0,0,0-2411.39,681.93Zm74.64,0a27,27,0,0,0-27,27,27,27,0,0,0,27,27,27,27,0,0,0,27-27A27,27,0,0,0-2336.75,681.93Zm74.64,0a27,27,0,0,0-27,27,27,27,0,0,0,27,27,27,27,0,0,0,27-27A27,27,0,0,0-2262.11,681.93Zm74.64,0a27,27,0,0,0-27,27,27,27,0,0,0,27,27,27,27,0,0,0,27-27A27,27,0,0,0-2187.47,681.93Zm74.64,0a27,27,0,0,0-27,27,27,27,0,0,0,27,27,27,27,0,0,0,27-27A27,27,0,0,0-2112.83,681.93Zm74.63,0a27,27,0,0,0-27,27,27,27,0,0,0,27,27,27,27,0,0,0,27-27A27,27,0,0,0-2038.2,681.93Zm74.64,0a27,27,0,0,0-27,27,27,27,0,0,0,27,27,27,27,0,0,0,27-27A27,27,0,0,0-1963.56,681.93Zm74.64,0a27,27,0,0,0-27,27,27,27,0,0,0,27,27,27,27,0,0,0,27-27A27,27,0,0,0-1888.92,681.93Zm74.64,0a27,27,0,0,0-27,27,27,27,0,0,0,27,27,27,27,0,0,0,27-27A27,27,0,0,0-1814.28,681.93Zm74.64,0a27,27,0,0,0-27,27,27,27,0,0,0,27,27,27,27,0,0,0,27-27A27,27,0,0,0-1739.64,681.93Zm74.63,0a27,27,0,0,0-27,27,27,27,0,0,0,27,27,27,27,0,0,0,27-27A27,27,0,0,0-1665,681.93Zm74.64,0a27,27,0,0,0-27,27,27,27,0,0,0,27,27,27,27,0,0,0,27-27A27,27,0,0,0-1590.37,681.93Zm74.64,0a27,27,0,0,0-27,27,27,27,0,0,0,27,27,27,27,0,0,0,27-27A27,27,0,0,0-1515.73,681.93Zm74.64,0a27,27,0,0,0-27,27,27,27,0,0,0,27,27,27,27,0,0,0,27-27A27,27,0,0,0-1441.09,681.93Zm74.65,0a27,27,0,0,0-27,27,27,27,0,0,0,27,27,27,27,0,0,0,27-27A27,27,0,0,0-1366.44,681.93Zm74.63,0a27,27,0,0,0-27,27,27,27,0,0,0,27,27,27,27,0,0,0,27-27A27,27,0,0,0-1291.81,681.93Zm74.64,0a27,27,0,0,0-27,27,27,27,0,0,0,27,27,27,27,0,0,0,27-27A27,27,0,0,0-1217.17,681.93Zm74.64,0a27,27,0,0,0-27,27,27,27,0,0,0,27,27,27,27,0,0,0,27-27A27,27,0,0,0-1142.53,681.93Zm74.64,0a27,27,0,0,0-27,27,27,27,0,0,0,27,27,27,27,0,0,0,27-27A27,27,0,0,0-1067.89,681.93Zm74.64,0a27,27,0,0,0-27,27,27,27,0,0,0,27,27,27,27,0,0,0,27-27A27,27,0,0,0-993.25,681.93Zm74.63,0a27,27,0,0,0-27,27,27,27,0,0,0,27,27,27,27,0,0,0,27-27A27,27,0,0,0-918.62,681.93Zm74.64,0a27,27,0,0,0-27,27,27,27,0,0,0,27,27,27,27,0,0,0,27-27A27,27,0,0,0-844,681.93Zm74.64,0a27,27,0,0,0-27,27,27,27,0,0,0,27,27,27,27,0,0,0,27-27A27,27,0,0,0-769.34,681.93Zm74.64,0a27,27,0,0,0-27,27,27,27,0,0,0,27,27,27,27,0,0,0,27-27A27,27,0,0,0-694.7,681.93Zm74.64,0a27,27,0,0,0-27,27,27,27,0,0,0,27,27,27,27,0,0,0,27-27A27,27,0,0,0-620.06,681.93Zm74.63,0a27,27,0,0,0-27,27,27,27,0,0,0,27,27,27,27,0,0,0,27-27A27,27,0,0,0-545.43,681.93Zm74.64,0a27,27,0,0,0-27,27,27,27,0,0,0,27,27,27,27,0,0,0,27-27A27,27,0,0,0-470.79,681.93Zm74.64,0a27,27,0,0,0-27,27,27,27,0,0,0,27,27,27,27,0,0,0,27-27A27,27,0,0,0-396.15,681.93Zm74.64,0a27,27,0,0,0-27,27,27,27,0,0,0,27,27,27,27,0,0,0,27-27A27,27,0,0,0-321.51,681.93Zm74.64,0a27,27,0,0,0-27,27,27,27,0,0,0,27,27,27,27,0,0,0,27-27A27,27,0,0,0-246.87,681.93Zm74.63,0a27,27,0,0,0-27,27,27,27,0,0,0,27,27,27,27,0,0,0,27-27A27,27,0,0,0-172.24,681.93Zm74.64,0a27,27,0,0,0-27,27,27,27,0,0,0,27,27,27,27,0,0,0,27-27A27,27,0,0,0-97.6,681.93Zm74.64,0a27,27,0,0,0-27,27,27,27,0,0,0,27,27,27,27,0,0,0,27-27A27,27,0,0,0-23,681.93Zm74.64,0a27,27,0,1,0,27,27A27,27,0,0,0,51.68,681.93Zm74.64,0a27,27,0,1,0,27,27A27,27,0,0,0,126.32,681.93Zm74.63,0a27,27,0,1,0,27,27A27,27,0,0,0,201,681.93Zm74.64,0a27,27,0,1,0,27,27A27,27,0,0,0,275.59,681.93Zm74.64,0a27,27,0,1,0,27,27A27,27,0,0,0,350.23,681.93Zm74.64,0a27,27,0,1,0,27,27A27,27,0,0,0,424.87,681.93Zm74.64,0a27,27,0,1,0,27,27A27,27,0,0,0,499.51,681.93Zm149.27,0a27,27,0,1,0,27,27A27,27,0,0,0,648.78,681.93Zm-74.64,0a27,27,0,1,0,27,27A27,27,0,0,0,574.14,681.93Z"/><path class="cls-3" d="M-3531,753.89a27,27,0,0,0-27,27,27,27,0,0,0,27,27,27,27,0,0,0,27-27A27,27,0,0,0-3531,753.89Zm74.64,0a27,27,0,0,0-27,27,27,27,0,0,0,27,27,27,27,0,0,0,27-27A27,27,0,0,0-3456.32,753.89Zm74.64,0a27,27,0,0,0-27,27,27,27,0,0,0,27,27,27,27,0,0,0,27-27A27,27,0,0,0-3381.68,753.89Zm74.64,0a27,27,0,0,0-27,27,27,27,0,0,0,27,27,27,27,0,0,0,27-27A27,27,0,0,0-3307,753.89Zm74.64,0a27,27,0,0,0-27,27,27,27,0,0,0,27,27,27,27,0,0,0,27-27A27,27,0,0,0-3232.4,753.89Zm74.63,0a27,27,0,0,0-27,27,27,27,0,0,0,27,27,27,27,0,0,0,27-27A27,27,0,0,0-3157.77,753.89Zm74.64,0a27,27,0,0,0-27,27,27,27,0,0,0,27,27,27,27,0,0,0,27-27A27,27,0,0,0-3083.13,753.89Zm74.64,0a27,27,0,0,0-27,27,27,27,0,0,0,27,27,27,27,0,0,0,27-27A27,27,0,0,0-3008.49,753.89Zm74.64,0a27,27,0,0,0-27,27,27,27,0,0,0,27,27,27,27,0,0,0,27-27A27,27,0,0,0-2933.85,753.89Zm74.64,0a27,27,0,0,0-27,27,27,27,0,0,0,27,27,27,27,0,0,0,27-27A27,27,0,0,0-2859.21,753.89Zm74.63,0a27,27,0,0,0-27,27,27,27,0,0,0,27,27,27,27,0,0,0,27-27A27,27,0,0,0-2784.58,753.89Zm74.64,0a27,27,0,0,0-27,27,27,27,0,0,0,27,27,27,27,0,0,0,27-27A27,27,0,0,0-2709.94,753.89Zm74.64,0a27,27,0,0,0-27,27,27,27,0,0,0,27,27,27,27,0,0,0,27-27A27,27,0,0,0-2635.3,753.89Zm74.64,0a27,27,0,0,0-27,27,27,27,0,0,0,27,27,27,27,0,0,0,27-27A27,27,0,0,0-2560.66,753.89Zm74.64,0a27,27,0,0,0-27,27,27,27,0,0,0,27,27,27,27,0,0,0,27-27A27,27,0,0,0-2486,753.89Zm74.63,0a27,27,0,0,0-27,27,27,27,0,0,0,27,27,27,27,0,0,0,27-27A27,27,0,0,0-2411.39,753.89Zm74.64,0a27,27,0,0,0-27,27,27,27,0,0,0,27,27,27,27,0,0,0,27-27A27,27,0,0,0-2336.75,753.89Zm74.64,0a27,27,0,0,0-27,27,27,27,0,0,0,27,27,27,27,0,0,0,27-27A27,27,0,0,0-2262.11,753.89Zm74.64,0a27,27,0,0,0-27,27,27,27,0,0,0,27,27,27,27,0,0,0,27-27A27,27,0,0,0-2187.47,753.89Zm74.64,0a27,27,0,0,0-27,27,27,27,0,0,0,27,27,27,27,0,0,0,27-27A27,27,0,0,0-2112.83,753.89Zm74.63,0a27,27,0,0,0-27,27,27,27,0,0,0,27,27,27,27,0,0,0,27-27A27,27,0,0,0-2038.2,753.89Zm74.64,0a27,27,0,0,0-27,27,27,27,0,0,0,27,27,27,27,0,0,0,27-27A27,27,0,0,0-1963.56,753.89Zm74.64,0a27,27,0,0,0-27,27,27,27,0,0,0,27,27,27,27,0,0,0,27-27A27,27,0,0,0-1888.92,753.89Zm74.64,0a27,27,0,0,0-27,27,27,27,0,0,0,27,27,27,27,0,0,0,27-27A27,27,0,0,0-1814.28,753.89Zm74.64,0a27,27,0,0,0-27,27,27,27,0,0,0,27,27,27,27,0,0,0,27-27A27,27,0,0,0-1739.64,753.89Zm74.63,0a27,27,0,0,0-27,27,27,27,0,0,0,27,27,27,27,0,0,0,27-27A27,27,0,0,0-1665,753.89Zm74.64,0a27,27,0,0,0-27,27,27,27,0,0,0,27,27,27,27,0,0,0,27-27A27,27,0,0,0-1590.37,753.89Zm74.64,0a27,27,0,0,0-27,27,27,27,0,0,0,27,27,27,27,0,0,0,27-27A27,27,0,0,0-1515.73,753.89Zm74.64,0a27,27,0,0,0-27,27,27,27,0,0,0,27,27,27,27,0,0,0,27-27A27,27,0,0,0-1441.09,753.89Zm74.65,0a27,27,0,0,0-27,27,27,27,0,0,0,27,27,27,27,0,0,0,27-27A27,27,0,0,0-1366.44,753.89Zm74.63,0a27,27,0,0,0-27,27,27,27,0,0,0,27,27,27,27,0,0,0,27-27A27,27,0,0,0-1291.81,753.89Zm74.64,0a27,27,0,0,0-27,27,27,27,0,0,0,27,27,27,27,0,0,0,27-27A27,27,0,0,0-1217.17,753.89Zm74.64,0a27,27,0,0,0-27,27,27,27,0,0,0,27,27,27,27,0,0,0,27-27A27,27,0,0,0-1142.53,753.89Zm74.64,0a27,27,0,0,0-27,27,27,27,0,0,0,27,27,27,27,0,0,0,27-27A27,27,0,0,0-1067.89,753.89Zm74.64,0a27,27,0,0,0-27,27,27,27,0,0,0,27,27,27,27,0,0,0,27-27A27,27,0,0,0-993.25,753.89Zm74.63,0a27,27,0,0,0-27,27,27,27,0,0,0,27,27,27,27,0,0,0,27-27A27,27,0,0,0-918.62,753.89Zm74.64,0a27,27,0,0,0-27,27,27,27,0,0,0,27,27,27,27,0,0,0,27-27A27,27,0,0,0-844,753.89Zm74.64,0a27,27,0,0,0-27,27,27,27,0,0,0,27,27,27,27,0,0,0,27-27A27,27,0,0,0-769.34,753.89Zm74.64,0a27,27,0,0,0-27,27,27,27,0,0,0,27,27,27,27,0,0,0,27-27A27,27,0,0,0-694.7,753.89Zm74.64,0a27,27,0,0,0-27,27,27,27,0,0,0,27,27,27,27,0,0,0,27-27A27,27,0,0,0-620.06,753.89Zm74.63,0a27,27,0,0,0-27,27,27,27,0,0,0,27,27,27,27,0,0,0,27-27A27,27,0,0,0-545.43,753.89Zm74.64,0a27,27,0,0,0-27,27,27,27,0,0,0,27,27,27,27,0,0,0,27-27A27,27,0,0,0-470.79,753.89Zm74.64,0a27,27,0,0,0-27,27,27,27,0,0,0,27,27,27,27,0,0,0,27-27A27,27,0,0,0-396.15,753.89Zm74.64,0a27,27,0,0,0-27,27,27,27,0,0,0,27,27,27,27,0,0,0,27-27A27,27,0,0,0-321.51,753.89Zm74.64,0a27,27,0,0,0-27,27,27,27,0,0,0,27,27,27,27,0,0,0,27-27A27,27,0,0,0-246.87,753.89Zm74.63,0a27,27,0,0,0-27,27,27,27,0,0,0,27,27,27,27,0,0,0,27-27A27,27,0,0,0-172.24,753.89Zm74.64,0a27,27,0,0,0-27,27,27,27,0,0,0,27,27,27,27,0,0,0,27-27A27,27,0,0,0-97.6,753.89Zm74.64,0a27,27,0,0,0-27,27,27,27,0,0,0,27,27,27,27,0,0,0,27-27A27,27,0,0,0-23,753.89Zm74.64,0a27,27,0,1,0,27,27A27,27,0,0,0,51.68,753.89Zm74.64,0a27,27,0,1,0,27,27A27,27,0,0,0,126.32,753.89Zm74.63,0a27,27,0,1,0,27,27A27,27,0,0,0,201,753.89Zm74.64,0a27,27,0,1,0,27,27A27,27,0,0,0,275.59,753.89Zm74.64,0a27,27,0,1,0,27,27A27,27,0,0,0,350.23,753.89Zm74.64,0a27,27,0,1,0,27,27A27,27,0,0,0,424.87,753.89Zm74.64,0a27,27,0,1,0,27,27A27,27,0,0,0,499.51,753.89Zm149.27,0a27,27,0,1,0,27,27A27,27,0,0,0,648.78,753.89Zm-74.64,0a27,27,0,1,0,27,27A27,27,0,0,0,574.14,753.89Z"/></g><path class="cls-11" d="M645.44,346.28q67.5-33,135-66C818.6,261.66,857,243.43,895,224.51c8.68-4.32,10-2.56,10,6.43q-.3,253.44,0,506.87c0,6.14-1.44,9.91-7.41,12.8Q774.06,810.49,650.78,870.77a31.37,31.37,0,0,1-5.14,1.5c-6.62-6.39-4.82-14.72-4.91-22.47-.08-7.51-1-15.16,1.71-22.49a13,13,0,0,1,3.3-4.89c11.57-9.26,25.34-14.62,38.5-20.93q79.29-38,158.12-76.94c8.23-4.08,11.92-9.48,11.91-18.83q-.16-198.48-.14-397c0-11.73-1.49-12.66-11.92-7.35-39.84,20.27-80.69,38.5-120.42,59-20.18,10.43-41.26,19-61.41,29.52-5.5,2.86-11.47,5.86-16.94-.49C640.22,374.87,636.83,360.3,645.44,346.28Z"/><path class="cls-11" d="M416.86,735.73Q300,802.56,183.26,869.5c-7.7,4.42-8.2,1.23-8.13-5.45.23-21.26.08-42.53.08-63.8q0-221.1-.2-442.19c0-8.81,2.62-13.66,10.35-18Q296.3,277.27,406.83,213.82c2.53-1.45,5.2-2.65,7.81-4,6.59.75,6.68,5.95,6.84,10.62.36,10.92.87,21.86-.09,32.79-.86,2.74-3.17,4.12-5.32,5.63-21.63,15.79-45.56,27.77-68.69,41.05-36.52,21-72.87,42.28-109.63,62.85-8.06,4.51-12.05,10.38-12,20.19q.28,197.43.15,394.84c0,1.47,0,2.93.09,4.4.24,6.61,2.77,8.54,9,5.12,14.8-8.07,29.33-16.61,44-25Q341,727,403.24,692c4.15-2.32,8.18-5.14,13.38-3.23a7,7,0,0,1,2.72,2.87c4.18,12.1,2.27,24.51,1.86,36.84C421.1,731.61,419.14,733.8,416.86,735.73Z"/><path class="cls-12" d="M419.06,254c-4.08-9.13-1.37-18.77-2.17-28.15-.45-5.35,1.35-11-2.26-15.94,4.77-5.16,8,0,11.22,2Q535.73,279,645.44,346.28l.3,44.13-1,1.28c-5.91,2.88-10.66-.29-15.31-3.15Q546.64,337.75,463.87,287c-11.54-7.08-23.18-14-34.68-21.15C424.6,263,419.24,260.63,419.06,254Z"/><path class="cls-12" d="M416.86,735.73l-.06-45.27c5.66-5.84,10.9-1.71,15.59,1.19,32,19.79,64.38,39,96.29,59C564.3,772.9,600.56,794.14,636,816.78c4.06,2.6,8.09,5,9.64,10l0,45.52c-5,.69-8.13-2.95-11.76-5.17Q533.56,805.72,433.31,744.2C428.06,741,423.34,736.61,416.86,735.73Z"/><path class="cls-13" d="M645.74,390.41c21.07-7.53,40.41-18.79,60.5-28.41q71.32-34.15,142.15-69.37c7.9-3.91,11-4.63,11,6.19q-.42,206.63-.15,413.24c0,5.62,0,10.3-6.5,13.43q-102.42,49.29-204.58,99.14c-6.78-1.29-6.2-6-5.1-10.94,4.21-7.41,11.47-11,18.72-14.37,6.71-3.16,9.74-8.1,9.75-15.55.06-40.14.13-80.27-.08-120.4-.06-9.85-1.84-10.7-11.28-6.86-5.07,2.06-10,4.9-15.5,1.12-2.71-3.25-3.85-6.87-2.63-11a20,20,0,0,1,1.42-3.49c16.51-13.88,36.76-21,55.76-30.29,44.41-21.78,89.24-42.72,133.41-65,5.47-2.76,8.34-6.69,8.37-12.95q.07-20.36,0-40.7c0-7.46-3.24-9-9.69-5.81-14.44,7.2-28.84,14.46-43.3,21.61a79,79,0,0,1-10,4.54c-4,1.31-8.07,1.85-11-2.14-2.61-3.61-2.33-7.59-.48-11.48,2.2-4.63,6.47-6.8,10.75-9,17.64-9,35.3-17.94,53.14-26.52,7.6-3.65,10.69-8.86,10.65-17.26-.15-39.59,0-79.19-.13-118.79,0-10.89-1.62-11.82-11.5-7.32-41,18.69-81,39.47-121.85,58.61-8.18,3.84-11,9.47-10.93,18.18.17,45.1-.35,90.2.34,135.29.23,15-4.81,24.45-18.72,29.73-10.46,4-19.66,11.54-31.71,11a6.46,6.46,0,0,1-3-2.33c-2-4.31-2.92-8.62-.16-13,4.75-6.33,11.31-10.29,18.41-13.31,6.9-3,9.82-7.7,9.77-15.32-.23-39.84,0-79.68-.17-119.52-.05-11.41-1.44-12.15-12.23-7.63-5.13,2.14-10.15,4.68-15.22-.07-2.61-4.72-2.51-9,1.83-12.76Z"/><path class="cls-14" d="M645.55,645.54c.11,3.61.21,7.22.32,10.83a5.62,5.62,0,0,1-4,3.19c-6.09,1.16-10.44-2.63-15-5.49q-43.32-27-86.92-53.47c-9.09-5.52-10.38-4.88-10.41,5.67-.13,39.91,0,79.83-.13,119.74,0,8.36,3.45,13.5,10.35,17.75,30.53,18.79,61.17,37.39,91.59,56.33,4.1,2.56,7.52,5.75,11.22,8.67a23.78,23.78,0,0,1,2.3,2.3,6,6,0,0,1,.84,3.07c.32,3.61-.42,7.46,2.41,10.49l-2.5,2.13c-20.47-9.18-38.58-22.4-57.63-34-52.64-31.93-105-64.39-157.49-96.47-4.18-2.55-7.84-7-13.69-5.86a12.62,12.62,0,0,0,.07-1.63c-4.73-2.58-4.53-6.78-3.67-11.2a7.57,7.57,0,0,1,5.86-4c9.16-.29,15.67,5.8,22.62,10.16,18,11.27,36.37,21.84,54.38,33,8.92,5.54,10.4,4.82,10.44-5.75.14-40.26.05-80.52.06-120.79,0-4.39-.08-8.78.09-13.17.58-14.77,6.79-18,19.69-10.14,36.5,22.32,72.8,45,109.39,67.13A24.89,24.89,0,0,1,645.55,645.54Z"/><path class="cls-13" d="M414.36,678.54c2.92,2.93,2.11,6.76,2.51,10.3-31.14,20-64.05,37-96,55.61-29.78,17.31-59.92,34-89.74,51.26-7,4.07-10,4.36-10-5.32q.27-207.35.07-414.71c0-5.46.8-9.75,6.2-12.83q93.14-53,186.12-106.38a4.57,4.57,0,0,1,1.05-.32c6.63.84,6.15,5.4,5.34,10.13a10.46,10.46,0,0,1-1.66,3.3c-5.45,7.32-13.5,11.28-21.23,15.26-8,4.12-10.68,10-10.58,18.59q.36,33.56,0,67.11c-.05,4.73.38,9.62-2.07,14-2.88,5.15-7,8.9-13.24,7.9-6.45-1-7.27-6.44-7.42-11.81-.45-15-.12-30.07-.21-45.1,0-3.67.28-7.36-.07-11-.55-5.62,2.89-13.34-2.65-16.28-4.49-2.38-9.94,3.29-14.6,6q-46.23,26.52-92.8,52.48c-10.19,5.65-14.63,12.37-14.51,24.3.53,51.34.22,102.68.23,154,0,.74,0,1.47,0,2.2.3,11.61,2.22,12.84,11.92,7.11,12.62-7.44,25.53-14.4,38.08-22,21.33-12.87,43.36-24.53,64.67-37.46,6.26-3.8,10-8.19,9.88-15.68a17.64,17.64,0,0,1,1.5-8.6c2.91-5.66,7.27-9.6,13.93-8.6s7.07,6.64,7.22,11.89c.37,13.57.4,27.13-.06,40.7-.23,6.9-3.13,12.19-9.86,14.36-6.53,2.1-10.14-1.49-12.72-7.26-2.93-6.54-7.49-2.62-11-.73-14.54,7.78-28.57,16.45-42.85,24.68q-29.52,17-59.14,33.86c-8.25,4.71-11.76,10.77-11.71,20.39.26,52.81.07,105.62.17,158.43,0,11.35,2.21,12.95,10.85,7.86,34.39-20.28,69.21-39.84,103.69-60,7.4-4.32,9.94-9.72,9.88-17.84-.15-23.47-.21-46.94,0-70.41.06-6,.63-11.78,5.7-16,3.25-2.69,6.91-4.6,11.12-3.25,4.49,1.44,5.58,5.43,5.8,9.68.6,11.73.22,23.47.3,35.2.08,11.37,0,22.74,0,34.1,0,6.8,2.39,8.27,8.78,5.34C401.23,680.35,406.6,673.9,414.36,678.54Z"/><path class="cls-14" d="M416.74,267.15c-.25-3.76.64-7.75-2.19-11l4.51-2.2q105.13,64.37,210.29,128.7c5.24,3.2,10,7.48,16.48,8.3q0,6.19,0,12.38a4.55,4.55,0,0,1-2.41,2.3c-6,1.6-10.53-1.7-15.24-4.55q-64.89-39.13-129.43-78.86c-3-1.81-6.08-5.61-9.67-3.28-2.88,1.87-1.44,6.14-1.44,9.34-.06,38.85.13,77.71-.16,116.56-.08,9.71,2.7,16,11.64,21.35,43.31,26,86.37,52.42,129.47,78.78,5,3,10.19,5.84,14,10.48.74.78,1.45,1.58,2.12,2.42a7.23,7.23,0,0,1,1,3q0,6,.1,12c-6.54,5.92-11.87.34-16.7-2.53-17.61-10.44-35.07-21.16-52.49-31.94-30.79-19.06-61.52-38.22-92.72-56.58-12.11-7.13-17.38-16-17.2-30.15.56-44.66,0-89.33.36-134,.08-10.62-2.59-18.1-12.76-23-9.2-4.41-17.39-10.8-26.17-16.07C423.4,275.74,419.07,272.43,416.74,267.15Z"/><path class="cls-12" d="M416.74,267.15c18.22,7.91,34,20,51,30,5.09,3,3.38,8.52,3.39,13.09.1,49.12.18,98.25-.07,147.38,0,7,2.09,11.45,8.2,15.16q78.91,47.94,157.58,96.31c2.79,1.71,5.48,3.74,9,3.74l-.1.57c3.95,2.39,4.54,6.33,4.68,10.42.52,16,.41,32,.07,47.94a18.71,18.71,0,0,1-4.56,12,5.14,5.14,0,0,0-.37,1.82Q586,609.26,526.43,573c-4.31-2.63-8.66-5.19-13.06-7.83-3.71,4.06-2.27,8.26-2.28,12-.12,47.65,0,95.29-.15,142.94,0,3.11,1.72,7.34-1.48,9.13s-6-1.81-8.67-3.43Q459.84,701.15,419,676.28c-4.75-1.74-6.62-5.36-6.9-10.18-.23-4-.38-8-.38-12.06q-.06-181.67,0-363.32c0-8.08-.24-16.19,5.29-23Z"/><path class="cls-11" d="M645.92,643.72q-.09-35.18-.19-70.34c11.89-5.7,23.59-11.85,35.74-16.94,7.62-3.2,10-7.86,10-15.93-.32-48.39,0-96.79-.34-145.19-.07-8.79,2.37-13.75,10.68-17.69q67.07-31.75,133.53-64.75c9.52-4.72,10.77-2,10.71,7.07q-.4,66.54.06,133.09c.07,7.88-2.83,11.74-9.68,14.95-19.56,9.19-38.81,19.05-58.17,28.66a57.08,57.08,0,0,0-6.75,3.68c-3.77,2.57-3.47,7-2,9.92,1.88,3.79,5.1.38,7.38-.72,19.79-9.58,39.6-19.14,59.18-29.14,7-3.55,10.3-4.12,10,5.57-.51,17.59-.21,35.19-.1,52.79,0,5-.47,9-5.94,11.58Q742.89,596.83,645.92,643.72Z"/><path class="cls-11" d="M845.93,563.43v63.06c0,26.75-.16,53.49.12,80.23.06,6.3-1.95,9.86-7.74,12.7q-69.07,33.78-137.83,68.21c-7.77,3.89-9.28,1.59-9.25-6q.27-68.15,0-136.29c0-5.15,1-9.17,6.19-11.66q72.22-34.82,144.38-69.79C842.44,563.56,843.24,563.69,845.93,563.43Z"/><path class="cls-15" d="M643.6,404.06l2.27-.73c7.92-.68,14.29-5.32,20.93-8.87,8.43-4.53,10.46-2.38,10.4,6.61-.29,40.17-1.39,80.4.44,120.49.84,18.24-4,28.74-21.36,33.65-3.75,1.06-7,3.73-10.55,5.66a4,4,0,0,1-.11-1.2c-4.19-4.15-3.21-9.51-3.22-14.55-.08-37-.2-74,.07-111,.06-8.8-1.51-17.5-1-26.29A9.3,9.3,0,0,1,643.6,404.06Z"/><path class="cls-15" d="M641.32,657.15l4.55-.77c8.49-1.4,15.36-6.57,23-10,5.1-2.25,8.23-2.62,8.22,4.49q-.15,70.29,0,140.6c0,5.3-3,7.66-7.2,9.84-8.07,4.22-17,6.82-24.16,12.77a5.31,5.31,0,0,1-.06-1.49c-4-3.76-3.23-8.74-3.25-13.42q-.12-41.79,0-83.58c.06-17.58.51-35.17-3.21-52.51A10.8,10.8,0,0,1,641.32,657.15Z"/><path class="cls-11" d="M417,267.73q-.06,198.4-.13,396.82c0,4.05,0,8.07,2.13,11.73l-4.66,2.26c-8,4.41-16.18,8.58-24,13.3-6.47,3.91-8.72,3-8.62-5,.32-24.92.23-49.86,0-74.79,0-3.4,2.45-9.66-2.94-9.71-5.1,0-10.36,3.28-10.25,10.53.2,13.93,0,27.87,0,41.8,0,13.56-.23,27.13.1,40.69.14,5.83-1.83,9.4-7,12.32q-59.67,34-119.08,68.58c-6.27,3.64-8.16,2.53-8.15-4.62q.18-90.74,0-181.47c0-5.57,2.36-8.53,7-11.17q59.18-33.82,118.09-68.1c7.43-4.33,9.35-2.5,9.22,5.47-.05,3.35-2.6,9.6,3.39,9.57,5.53,0,9.95-3.66,9.79-10.81-.31-13.92.06-27.86-.16-41.79-.05-2.9,2-7.64-2.52-8.3-3.44-.51-6.89,2.36-9.19,5.28a7,7,0,0,0-1.32,5.1c3.43,15.17-6.29,21-17.5,27.25-35.83,20-71.3,40.68-106.7,61.44-8.16,4.79-10.21,3.51-10.16-6q.43-88.53,0-177.07c0-6.7,2.15-10.6,8.07-13.92Q300.91,334.33,359,300.8c7.18-4.13,9.87-4,9.7,5.39-.44,24.56-.27,49.13,0,73.69,0,3.27-2.68,9.38,3.53,9.21a9.5,9.5,0,0,0,9.43-9.11c.27-6.22.19-12.46.2-18.69,0-21.26.25-42.53-.13-63.79-.12-7.05,1.8-11.62,8.41-14.84C399.32,278.16,408.07,272.75,417,267.73Z"/><path class="cls-12" d="M641.32,657.15l2,2.13c1.8,2.23,1.2,4.88,1.2,7.37q0,69.45,0,138.88c0,2.51.54,5.14-1.08,7.43q-56.62-34.68-113.29-69.27c-4.3-2.61-5.89-5.8-5.88-10.72.12-46.14.19-92.28,0-138.41,0-10.86,4.83-7,9.74-3.91Q587.67,623.88,641.32,657.15Z"/><path class="cls-16" d="M643.45,813q-.06-76.85-.11-153.68c3.69,3.6,2.24,8.23,2.25,12.43q.15,70.45,0,140.93Z"/><path class="cls-12" d="M643.6,404.06a14.78,14.78,0,0,0-.15,1.62c1.65,2.29,1.08,4.92,1.08,7.43q0,69.47,0,138.95c0,2.51.55,5.14-1.09,7.43q-77-46.72-153.94-93.36c-4.6-2.77-6.59-6-6.57-11.44.16-46.14.25-92.27,0-138.41-.06-11.22,4.73-6.67,9.52-3.75q70.3,42.87,140.63,85.71C636.48,400.32,640.08,402.12,643.6,404.06Z"/><path class="cls-16" d="M643.44,559.49q0-76.9,0-153.8c3.26,3.75,2.16,8.33,2.16,12.6q.09,70.69,0,141.38Z"/></svg>