<svg xmlns="http://www.w3.org/2000/svg" xmlns:xlink="http://www.w3.org/1999/xlink" viewBox="0 0 1080 1080"><defs><style>.cls-1{fill:none;}.cls-2{isolation:isolate;}.cls-3{fill:#fffbf2;}.cls-4{fill:#7fcc14;}.cls-5{fill:#ffe14d;}.cls-6{fill:#66b3ff;}.cls-7{fill:#1a8cff;}.cls-8{fill:#0060e6;}.cls-9{fill:#5c9e00;}.cls-10{fill:#ff1500;}.cls-11,.cls-12{fill:#d9cfc2;}.cls-11,.cls-12,.cls-14,.cls-15{mix-blend-mode:multiply;}.cls-12,.cls-15,.cls-24{opacity:0.5;}.cls-13{clip-path:url(#clip-path);}.cls-14{fill:url(#radial-gradient);}.cls-16,.cls-17,.cls-18,.cls-19,.cls-20,.cls-21,.cls-22,.cls-23,.cls-24,.cls-25,.cls-26,.cls-27,.cls-28,.cls-29,.cls-30,.cls-31,.cls-32{fill:#967f71;}.cls-16{opacity:0;}.cls-17{opacity:0.06;}.cls-18{opacity:0.13;}.cls-19{opacity:0.19;}.cls-20{opacity:0.25;}.cls-21{opacity:0.31;}.cls-22{opacity:0.38;}.cls-23{opacity:0.44;}.cls-25{opacity:0.56;}.cls-26{opacity:0.63;}.cls-27{opacity:0.69;}.cls-28{opacity:0.75;}.cls-29{opacity:0.81;}.cls-30{opacity:0.88;}.cls-31{opacity:0.94;}.cls-33,.cls-34,.cls-36,.cls-37{mix-blend-mode:screen;}.cls-33{fill:url(#radial-gradient-2);}.cls-34{fill:url(#radial-gradient-3);}.cls-35{clip-path:url(#clip-path-2);}.cls-36{fill:url(#radial-gradient-4);}.cls-37{fill:url(#radial-gradient-5);}.cls-38{clip-path:url(#clip-path-3);}.cls-39,.cls-41{mix-blend-mode:color-burn;}.cls-39{fill:url(#radial-gradient-6);}.cls-40{clip-path:url(#clip-path-4);}.cls-41{fill:url(#radial-gradient-7);}.cls-42{clip-path:url(#clip-path-5);}.cls-43{fill:#93c01f;}.cls-44{fill:#79ab2b;}.cls-45{fill:#7eae2a;}.cls-46{fill:#80b129;}.cls-47{fill:#84b427;}.cls-48{fill:#89b825;}.cls-49{fill:#8cba23;}.cls-50{fill:#90be21;}.cls-51{fill:#fff;}</style><clipPath id="clip-path"><polygon class="cls-1" points="834.7 386.21 1011.7 394.55 723.66 897.37 550.48 834.05 834.7 386.21"/></clipPath><radialGradient id="radial-gradient" cx="1801.89" cy="367.05" r="10.6" gradientTransform="matrix(0, -0.56, 1.12, -0.03, 368.45, 1589.02)" gradientUnits="userSpaceOnUse"><stop offset="0" stop-color="#967f71"/><stop offset="0.7" stop-color="#e0d9d5"/><stop offset="0.98" stop-color="#fff"/></radialGradient><radialGradient id="radial-gradient-2" cx="2274.9" cy="254.49" r="143.26" gradientTransform="matrix(-0.9, -0.85, 0.72, -0.76, 2572.65, 2942.23)" gradientUnits="userSpaceOnUse"><stop offset="0" stop-color="#527bcc"/><stop offset="0.16" stop-color="#3e5d9b"/><stop offset="0.36" stop-color="#283c64"/><stop offset="0.54" stop-color="#172239"/><stop offset="0.7" stop-color="#0a0f1a"/><stop offset="0.84" stop-color="#030407"/><stop offset="0.94"/></radialGradient><radialGradient id="radial-gradient-3" cx="2110.54" cy="676.46" r="143.25" gradientTransform="matrix(0.76, -2.4, 1.2, 0.38, -1468.87, 5358)" gradientUnits="userSpaceOnUse"><stop offset="0" stop-color="#b8cc52"/><stop offset="0.16" stop-color="#8b9b3e"/><stop offset="0.36" stop-color="#5a6428"/><stop offset="0.54" stop-color="#333917"/><stop offset="0.7" stop-color="#171a0a"/><stop offset="0.84" stop-color="#060703"/><stop offset="0.94"/></radialGradient><clipPath id="clip-path-2"><polygon class="cls-1" points="516.36 267.89 699.38 289.83 396.79 739.97 215.01 687.38 516.36 267.89"/></clipPath><radialGradient id="radial-gradient-4" cx="1944" cy="292.11" r="143.26" gradientTransform="matrix(1.36, -1.9, 0.86, 0.61, -2507.53, 4207.59)" gradientUnits="userSpaceOnUse"><stop offset="0" stop-color="#69f"/><stop offset="0.08" stop-color="#5985de"/><stop offset="0.26" stop-color="#3e5d9c"/><stop offset="0.44" stop-color="#283c64"/><stop offset="0.59" stop-color="#172239"/><stop offset="0.74" stop-color="#0a0f1a"/><stop offset="0.86" stop-color="#030407"/><stop offset="0.94"/></radialGradient><radialGradient id="radial-gradient-5" cx="2027.16" cy="670.06" r="180.58" gradientTransform="matrix(2.15, -1.31, 1.02, 1.67, -4350.7, 1897.94)" xlink:href="#radial-gradient-3"/><clipPath id="clip-path-3"><polygon class="cls-1" points="68.3 581.85 374.43 182.63 516.36 267.89 215.01 687.38 68.3 581.85"/></clipPath><radialGradient id="radial-gradient-6" cx="3063.38" cy="512.25" r="222.53" gradientTransform="matrix(-0.57, -0.5, 1.18, -1.37, 1398.77, 2519.06)" gradientUnits="userSpaceOnUse"><stop offset="0" stop-color="#7c8a37"/><stop offset="0.5" stop-color="#bdc49b"/><stop offset="0.98" stop-color="#fff"/></radialGradient><clipPath id="clip-path-4"><polygon class="cls-1" points="834.7 386.21 699.38 289.83 396.79 739.97 550.48 834.05 834.7 386.21"/></clipPath><radialGradient id="radial-gradient-7" cx="2525.29" cy="650.24" r="222.54" gradientTransform="matrix(-0.99, -0.62, 1.47, -2.36, 2001.45, 3546.74)" xlink:href="#radial-gradient-6"/><clipPath id="clip-path-5"><rect class="cls-1" x="1199.32" y="253.45" width="976.29" height="573.1"/></clipPath></defs><g class="cls-2"><g id="Ñëîé_1" data-name="Ñëîé 1"><g id="map"><path class="cls-3" d="M212,665.2c-9.85-7.05-14.76-10.58-24.62-17.63-35.68-25.55-53.52-38.31-89.21-63.85l-1.74-1.25c.72-.93,1.07-1.38,1.77-2.31l64.91-85.35c8.39-11,12.59-16.56,21-27.62s12.74-16.75,21.25-27.91c14.58-19.2,21.89-28.79,36.48-48,14.77-19.41,22.16-29.14,36.93-48.56l39.76-52.28L382.68,206q62.07,37.53,124.17,75.06c3.79-5.29,5.7-7.93,9.49-13.23q-71-42.6-141.92-85.23Q221.36,382.23,68.3,581.85,141.64,634.62,215,687.38l9.49-13.23Z"/><path class="cls-4" d="M250.12,396.87c17.75,7.54,43.19-2.81,44.65-18.28,1.15-12.3-12.33-24.71-16-35.85C264,362.16,256.57,371.89,241.8,391.3A26.54,26.54,0,0,0,250.12,396.87Z"/><path class="cls-4" d="M318.49,290.46c3.68-2.71,7.45-5.31,11.36-7.67,1.61-2,3.22-4,4.8-5.94,8.07-10.2,20.28-25.54,44.74-28.86,20.44-2.77,35.79,3.31,45.07,9,30.48,18.6,33.12,54.65,27.48,74.47a298.91,298.91,0,0,1-11.28,33.37c-.56,1.36-1.13,2.89-1.73,4.51-1.93,5.24-4.26,11.52-7.94,17.4,30.33-42.24,45.51-63.36,75.86-105.61Q444.77,243.54,382.68,206Z"/><path class="cls-4" d="M394.4,408.6a151.62,151.62,0,0,1,12.74,11.31c8.07-11.22,12.1-16.83,20.17-28.08a37.87,37.87,0,0,1-10.5,8.87A66.77,66.77,0,0,1,394.4,408.6Z"/><path class="cls-5" d="M440.66,364.8a294.2,294.2,0,0,0,11.28-33.37c5.64-19.82,3-55.87-27.48-74.47-9.28-5.66-24.63-11.74-45.07-9-24.46,3.32-36.67,18.66-44.74,28.86-1.58,2-3.19,4-4.8,5.94-3.91,2.36-7.68,5-11.36,7.67l-39.76,52.28c3.71,11.14,17.19,23.55,16,35.85-1.46,15.47-26.9,25.82-44.65,18.28a26.54,26.54,0,0,1-8.32-5.57c-14.59,19.19-21.9,28.78-36.48,48,.1.43.16.87.27,1.3,1.32,4.65.35,8.22-1.92,10.69-.43,23.89,6.14,49.58,19.2,74.79,10.43,20.12,23.86,41.19,30.95,62a97.24,97.24,0,0,1,4.62,38.85l48.89-68c-8.22-6.11-14.05-14.75-15.31-25.41-1.23-10.39,1.08-20.29-5.32-30.77-6.64-10.86-15.83-23.13-16.62-34.44-1.39-19.88,11.79-30.95,28.52-38.56,15.72-15.37,44.07-22.44,70.52-11a98.29,98.29,0,0,1,26.64,17.06l11.38-15.84A151.62,151.62,0,0,0,394.4,408.6a66.77,66.77,0,0,0,22.41-7.9,37.87,37.87,0,0,0,10.5-8.87l3.68-5.12c3.68-5.88,6-12.16,7.94-17.4C439.53,367.69,440.1,366.16,440.66,364.8Zm-33.47,4.11c-23.47,13.18-44.95-2.77-71.7-12.77-6.68-2.5-9.62-9.26-6.79-13.45,10.77-15.88,24-29.8,41.5-39.93,2.12-2.64,4.24-5.28,6.32-7.95,6.16-7.92,13.28-16.94,25.8-18.68,28.95-4,32.07,27.52,27.93,41.92a244.07,244.07,0,0,1-9.37,27.51C417.83,352.76,414.88,364.6,407.19,368.91Z"/><path class="cls-6" d="M369.12,418.69c-26.45-11.44-54.8-4.37-70.52,11-16.73,7.61-29.91,18.68-28.52,38.56.79,11.31,10,23.58,16.62,34.44,6.4,10.48,4.09,20.38,5.32,30.77,1.26,10.66,7.09,19.3,15.31,25.41l8.95-12.49c-6.61-3.43-11-9.93-10.72-19.13.19-7.51,2.69-15-.55-22.11-3.36-7.36-8.28-15.56-7.69-23.83,1-14.54,10.87-23.95,22.74-31.1,12-12.78,31.52-20.55,48-14.43a45,45,0,0,1,18.46,12.87c3.72-5.15,5.58-7.74,9.28-12.9A98.29,98.29,0,0,0,369.12,418.69Z"/><path class="cls-6" d="M222.87,526.06c-13.06-25.21-19.63-50.9-19.2-74.79,2.27-2.47,3.24-6,1.92-10.69-.11-.43-.17-.87-.27-1.3-8.51,11.16-12.75,16.74-21.25,27.91a129.35,129.35,0,0,0,15.83,52.3c7.47,13.51,16.8,27.11,22.26,41.71,9.55,25.52,3.46,56.64-2.07,81.78-1.84,8.38-4.25,16.14-8.11,22.22l12.52,8.95c13.58-18.89,20.37-28.34,33.94-47.25a97.24,97.24,0,0,0-4.62-38.85C246.73,567.25,233.3,546.18,222.87,526.06Z"/><path class="cls-6" d="M430.25,318.05c4.14-14.4,1-45.95-27.93-41.92-12.52,1.74-19.64,10.74-25.8,18.68-2.09,2.67-4.2,5.31-6.32,7.95-17.48,10.13-30.73,24.05-41.5,39.93-2.83,4.19.11,10.95,6.79,13.45,26.74,10,48.23,25.95,71.7,12.77,7.69-4.31,10.64-16.15,13.69-23.35A244.07,244.07,0,0,0,430.25,318.05Zm-32.92,38.13c-16.89,11.7-29.54,1.85-46.3-3.12a6,6,0,0,1-3.16-9.3c8.77-12.66,19-24.1,31.58-33.1q2.52-3.2,5-6.42c4.89-6.39,10.53-13.66,19-16,19.6-5.41,18.47,17.63,14.27,28.59-2.71,7.07-5.58,14.17-9,21C406,343.39,402.85,352.35,397.33,356.18Z"/><path class="cls-7" d="M368,435.78c-16.44-6.12-36,1.65-48,14.43-11.87,7.15-21.72,16.56-22.74,31.1-.59,8.27,4.33,16.47,7.69,23.83,3.24,7.12.74,14.6.55,22.11-.24,9.2,4.11,15.7,10.72,19.13,7.73-10.74,11.59-16.11,19.3-26.85-.5.27-1,.58-1.52.87a42.86,42.86,0,0,0-3.87-18.48q-1-2.18-2.12-4.47c-1.39-2.87-3.51-7.24-3.41-8.49.45-6.61,5.13-12.38,14.69-18.2l2.11-1.29c.64-.7,1-1.05,1.61-1.74,7.8-8.44,17.26-10.83,20.19-10.45a5.92,5.92,0,0,1,1.06.56c2.35,1.54,5.28,6,6.62,12.46l15.54-21.65A45,45,0,0,0,368,435.78Z"/><path class="cls-8" d="M364.32,457.84a5.92,5.92,0,0,0-1.06-.56c-2.93-.38-12.39,2-20.19,10.45-.66.69-1,1-1.61,1.74l-2.11,1.29c-9.56,5.82-14.23,11.58-14.69,18.2-.1,1.26,2,5.62,3.41,8.49q1.11,2.3,2.12,4.47a42.86,42.86,0,0,1,3.87,18.48c.5-.29,1-.6,1.52-.87,14.14-19.7,21.22-29.55,35.36-49.23C369.6,463.82,366.67,459.38,364.32,457.84Z"/><path class="cls-7" d="M222.16,561.2c-5.46-14.6-14.79-28.2-22.26-41.71a129.35,129.35,0,0,1-15.83-52.3c-8.39,11.06-12.59,16.58-21,27.62a159.22,159.22,0,0,0,12.5,29.25c2.4,4.35,4.91,8.59,7.34,12.69,5.22,8.88,10.19,17.27,13.19,25.29,7.68,20.55.56,52.28-3.25,69.43-1.76,7.89-3.66,12.91-5.51,16.1,9.86,7,14.77,10.58,24.62,17.63,3.86-6.08,6.27-13.84,8.11-22.22C225.6,617.84,231.71,586.72,222.16,561.2Z"/><path class="cls-7" d="M96.41,582.47l1.74,1.25c0-1.18,0-2.37,0-3.56C97.48,581.09,97.13,581.54,96.41,582.47Z"/><path class="cls-8" d="M196.12,562c-3-8-8-16.41-13.19-25.29-2.43-4.1-4.94-8.34-7.34-12.69a159.22,159.22,0,0,1-12.5-29.25L98.18,580.16c0,1.19,0,2.38,0,3.56,35.69,25.54,53.53,38.3,89.21,63.85,1.85-3.19,3.76-8.21,5.51-16.1C196.68,614.32,203.8,582.59,196.12,562Z"/><path class="cls-7" d="M417.73,316.82c4.2-11,5.33-34-14.27-28.59-8.48,2.35-14.12,9.62-19,16q-2.47,3.22-5,6.42c-12.62,9-22.81,20.43-31.58,33.1a6,6,0,0,0,3.16,9.3c16.76,5,29.41,14.82,46.3,3.12,5.52-3.83,8.69-12.79,11.42-18.34C412.15,331,415,323.89,417.73,316.82Z"/><path class="cls-3" d="M382.58,719l-60.34-17.13-75.47-21.43-22.27-6.33L215,687.38,396.79,740c3.82-5.67,5.74-8.5,9.54-14.18Z"/><path class="cls-3" d="M592.79,291.86l13,1.61L689.83,304c3.82-5.69,5.73-8.51,9.54-14.19l-183-22c-3.79,5.3-5.7,7.94-9.49,13.23l37,4.64Z"/><path class="cls-9" d="M608.07,296.87c-4.11,1.31-6.16,2-10.29,3.27a40.17,40.17,0,0,1-5-8.28l-48.92-6.12a70.83,70.83,0,0,1-3,30.58,285.11,285.11,0,0,1-13.69,35.57c-.36.74-.69,1.57-1.06,2.45l-.14.34c-3.19,7.57-19.24,18.78-18.35,31.8.87,12.81,6.82,25.51,17.28,36.64l8.6.5a53,53,0,0,0-1.75,6,100.58,100.58,0,0,0,9.66,7.26c2.62,1.72,7.73,1.22,11.52,2a162.18,162.18,0,0,1,37.89,12.44l99-147.3-84.09-10.55C606.41,294.55,607.17,295.67,608.07,296.87ZM525.45,416.55a46.36,46.36,0,0,1,3.5-5.93,33.23,33.23,0,0,1,3.4-4.23c.23-.22.48-.45.7-.69,3.71,1.12,5.59,1.67,9.28,2.77-.18.2-.29.29-.47.49a27.81,27.81,0,0,0-2.75,3.39,44.39,44.39,0,0,0-3.06,5.29Zm23.09-12.61c-3-1.64-4.55-2.45-7.57-4.07a141.8,141.8,0,0,1,15.09-7.72l6.1,4.8A128.79,128.79,0,0,0,548.54,403.94ZM571.18,393c-2.29-2-3.42-3-5.69-5,5.1-2.14,10.41-4.29,15.84-6.47,2.18,2,3.28,3,5.45,5.08C581.4,388.85,576.16,391,571.18,393Zm25.09-10.21c-2.18-2-3.28-3-5.47-5.05,6.45-2.62,11.2-4.64,15.4-6.52l5.9,4.87C607.74,378.07,602.86,380.14,596.27,382.83Zm25.15-11.09L615,367.13a97.33,97.33,0,0,0,12.94-7.45l8.11,3.57A107.66,107.66,0,0,1,621.42,371.74Zm23.83-17.88a11.2,11.2,0,0,1-.85,1.43c-.34.52-.75,1-1.15,1.54l-9.83-2c.29-.34.53-.68.77-1s.41-.62.57-.92a9.58,9.58,0,0,0,.76-6.55l11-1.74A13.37,13.37,0,0,1,645.25,353.86Zm-7.6-25.09a55.88,55.88,0,0,1,6.49,9.46L633.52,341a51.86,51.86,0,0,0-6-8.72Zm-12.74-13.69c2.79,2.81,5.55,5.63,8.13,8.43l-10,3.66c-2.53-2.77-5.27-5.55-8-8.32Zm-4.92-5-9.86,3.74c-2.29-2.32-5.26-5.37-8-8.44l10.06-3.54C614.27,304.2,616.66,306.74,620,310.12Z"/><path class="cls-4" d="M386.76,584.62c9.31,2.22,21.4,14.78,29.14,12.09,12.33-4.28-6.93-15.78-5.68-25.23.73-5.43,12.27-17.74,3.08-18.6-10-.93-60.27,15.38-52.25,28.83C364,586.67,378.38,582.61,386.76,584.62Z"/><path class="cls-4" d="M464.28,469.5a54.24,54.24,0,0,1,1.55,36.29,118.06,118.06,0,0,1,59.22-3.44,87.34,87.34,0,0,1,25.36,9.09l19.17-28.53L567.5,482c2.14-1.59,3.22-2.38,5.38-4,7.18-10.7,10.77-16,17.94-26.71a161.72,161.72,0,0,0-37.89-12.44c-3.79-.77-8.9-.27-11.52-2a100.58,100.58,0,0,1-9.66-7.26c-.32,1.38-.63,2.76-.83,4.09-4.4.06-6.59.08-11,.12A56.85,56.85,0,0,1,522.7,423l2.2.12c-10.46-11.13-16.41-23.83-17.28-36.64-.89-13,15.16-24.23,18.35-31.8l.14-.34c.37-.88.7-1.71,1.06-2.45a290.93,290.93,0,0,0,13.69-35.57,70.83,70.83,0,0,0,3-30.58l-37-4.64C476.5,323.35,461.32,344.47,431,386.71a49.91,49.91,0,0,1-3.68,5.12c-8.07,11.25-12.1,16.86-20.17,28.08C435.36,430.72,455.91,448.07,464.28,469.5Zm90.77-3.67c3.87,2.48,7.91,4.83,12,7l-7.76,5.06c-4.31-2.3-8.56-4.79-12.64-7.39C550,468.64,551.69,467.71,555.05,465.83Zm-16.49-12.34a98.59,98.59,0,0,0,9.83,7.89c-3.5,1.76-5.25,2.63-8.74,4.4a104.19,104.19,0,0,1-10.58-8.5Zm-8-13.82a14.6,14.6,0,0,0,1.18,5.54,19.07,19.07,0,0,0,2.12,3.29c-4,1.23-6.07,1.86-10.12,3.1a23.29,23.29,0,0,1-2.64-4.13,18.44,18.44,0,0,1-1.56-7C524,440.15,526.17,440,530.57,439.67Z"/><path class="cls-5" d="M322.24,701.91c7.64-14.07,3.43-28.91,5.48-43.66-2.88-9-4.52-18.42-1.93-26.88,7.21-23.58,51-29.61,67.89-9.94,16,5.34,30.65,13.39,42.38,19.78,6.6,3.6,13.08,7.4,19.53,11.33,7.75-11.55,11.62-17.32,19.38-28.86-16.93-12.31-35.44-27.78-33.31-44.26a34.34,34.34,0,0,1,8.77-18.08A33.9,33.9,0,0,1,464,529.43c21.28-15.92,57.78-11.71,71.61,4,5.9-8.8,8.86-13.2,14.78-22a87.34,87.34,0,0,0-25.36-9.09,118.06,118.06,0,0,0-59.22,3.44,54.24,54.24,0,0,0-1.55-36.29c-8.37-21.43-28.92-38.78-57.14-49.59l-11.38,15.84c47.08,15.63,62.8,58.44,22.53,84.9-19.86,13.08-42.09,30.1-69.47,37.31-14.63,3.86-29.68,4.16-41.49.91l-48.89,68c.72,18-5.4,36.84-11.67,53.58Zm91.06-149c9.19.86-2.35,13.17-3.08,18.6-1.25,9.45,18,20.95,5.68,25.23-7.74,2.69-19.83-9.87-29.14-12.09-8.38-2-22.75,2-25.71-2.91C353,568.26,403.28,552,413.3,552.88Z"/><path class="cls-5" d="M431,386.71l-3.68,5.12A49.91,49.91,0,0,0,431,386.71Z"/><path class="cls-6" d="M348.82,558c27.38-7.21,49.61-24.25,69.47-37.31,40.27-26.46,24.55-69.27-22.53-84.9-3.7,5.16-5.56,7.75-9.28,12.9,24.48,11.9,27.61,42.51.35,63.3-14,10.7-30,24.57-48.1,31.22-8,2.94-16,4.06-22.45,3.21l-8.95,12.49C319.14,562.12,334.19,561.82,348.82,558Z"/><path class="cls-6" d="M258.44,626.9c-13.57,18.91-20.36,28.36-33.94,47.25l22.27,6.33C253,663.74,259.16,644.89,258.44,626.9Z"/><path class="cls-6" d="M464,529.43a33.9,33.9,0,0,0-13.59,31.91,34.34,34.34,0,0,0-8.77,18.08c-2.13,16.48,16.38,32,33.31,44.26,3.75-5.6,5.64-8.39,9.4-14-4.66-4.91-8-10.45-8.48-16.77a31.14,31.14,0,0,1,2.85-15.06c-2.54-8.71-1.55-18.89,3.87-26.29,10.7-14.63,33.42-15.19,44-4.7l9-13.43C521.8,517.72,485.3,513.51,464,529.43Z"/><path class="cls-6" d="M393.68,621.43c-16.9-19.67-60.68-13.64-67.89,9.94-2.59,8.46-1,17.93,1.93,26.88-2.05,14.75,2.16,29.59-5.48,43.66L382.58,719c.79-7-1.45-14.31-1.13-21.51-2.71-5.92-4.56-12.16-3.31-17.62,3.5-15.21,34.55-17.74,48.1-4.37,3.77,1.26,7.46,2.71,11,4.23l18.33-27.23c-6.45-3.93-12.93-7.73-19.53-11.33C424.35,634.82,409.65,626.77,393.68,621.43Z"/><path class="cls-7" d="M338.73,543.17c18.07-6.65,34.08-20.52,48.1-31.22,27.26-20.79,24.13-51.4-.35-63.3L370.94,470.3c0,.09.11.15.15.25,3.88,8.18,2.22,20.87-10.42,30.38-2.35,1.8-4.79,3.66-7.25,5.56-5.48,4.23-11.7,9-17.84,13-7.71,10.74-11.57,16.11-19.3,26.85C322.78,547.23,330.7,546.11,338.73,543.17Z"/><path class="cls-8" d="M360.67,500.93c12.63-9.53,14.34-22.19,10.42-30.38,0-.1-.11-.16-.15-.25-14.14,19.68-21.22,29.53-35.36,49.23,6.14-4,12.36-8.81,17.84-13C355.88,504.59,358.32,502.72,360.67,500.93Z"/><path class="cls-7" d="M482.61,551.58c-5.42,7.4-6.41,17.58-3.87,26.29a31.14,31.14,0,0,0-2.85,15.06c.46,6.32,3.82,11.86,8.48,16.77,16.9-25.12,25.33-37.69,42.21-62.82C516,536.39,493.31,537,482.61,551.58Z"/><path class="cls-7" d="M378.14,679.91c-1.25,5.46.6,11.7,3.31,17.62-.32,7.2,1.92,14.5,1.13,21.51l23.75,6.75L415.59,712c-.13-1.89-.34-3.7-.52-5.4a52.29,52.29,0,0,1-.58-8c.06-1.26.09-1.88.15-3.16-.14-.29-.21-.43-.34-.73,3.32,1.29,6.66,2.79,10,4.37l13-19.37c-3.56-1.52-7.25-3-11-4.23C412.69,662.17,381.64,664.7,378.14,679.91Z"/><path class="cls-8" d="M414.64,695.5c-.06,1.28-.09,1.9-.15,3.16a52.38,52.38,0,0,0,.58,8c.18,1.7.39,3.51.52,5.4,3.47-5.17,5.2-7.74,8.67-12.88-3.3-1.58-6.64-3.08-10-4.37C414.43,695.07,414.5,695.21,414.64,695.5Z"/><path class="cls-10" d="M524.9,423.12l-2.2-.12a56.85,56.85,0,0,0-2.77,10.84c4.4,0,6.59-.06,11-.12.2-1.33.51-2.71.83-4.09a53.56,53.56,0,0,1,1.75-6Z"/><path class="cls-10" d="M541,399.87c3,1.62,4.54,2.43,7.57,4.07a128.79,128.79,0,0,1,13.62-7l-6.1-4.8A141.8,141.8,0,0,0,541,399.87Z"/><path class="cls-10" d="M523.75,451.6c4-1.24,6.07-1.87,10.12-3.1a19.07,19.07,0,0,1-2.12-3.29,14.6,14.6,0,0,1-1.18-5.54c-4.4.33-6.61.48-11,.8a18.44,18.44,0,0,0,1.56,7A23.29,23.29,0,0,0,523.75,451.6Z"/><path class="cls-10" d="M541.86,409c.18-.2.29-.29.47-.49-3.69-1.1-5.57-1.65-9.28-2.77-.22.24-.47.47-.7.69a33.23,33.23,0,0,0-3.4,4.23,46.36,46.36,0,0,0-3.5,5.93l10.6,1.09a44.39,44.39,0,0,1,3.06-5.29A27.81,27.81,0,0,1,541.86,409Z"/><path class="cls-10" d="M610.13,313.86l9.86-3.74c-3.33-3.38-5.72-5.92-7.78-8.24l-10.06,3.54C604.87,308.49,607.84,311.54,610.13,313.86Z"/><path class="cls-10" d="M565.49,388.07c2.27,2,3.4,3,5.69,5,5-2.09,10.22-4.19,15.6-6.36-2.17-2-3.27-3.05-5.45-5.08C575.9,383.78,570.59,385.93,565.49,388.07Z"/><path class="cls-10" d="M615,367.13l6.42,4.61a107.66,107.66,0,0,0,14.63-8.49l-8.11-3.57A97.33,97.33,0,0,1,615,367.13Z"/><path class="cls-10" d="M634.76,352.9c-.17.3-.37.62-.57.92s-.48.68-.77,1l9.83,2c.4-.52.81-1,1.15-1.54a11.2,11.2,0,0,0,.85-1.43,13.42,13.42,0,0,0,1.25-9.25l-11,1.74A9.58,9.58,0,0,1,634.76,352.9Z"/><path class="cls-10" d="M567,472.82c-4.08-2.16-8.12-4.51-12-7-3.36,1.88-5,2.81-8.41,4.66,4.08,2.6,8.33,5.09,12.64,7.39Z"/><path class="cls-10" d="M633.52,341l10.62-2.73a55.88,55.88,0,0,0-6.49-9.46l-10.13,3.47A51.86,51.86,0,0,1,633.52,341Z"/><path class="cls-10" d="M590.8,377.78c2.19,2,3.29,3,5.47,5.05,6.59-2.69,11.47-4.76,15.83-6.7l-5.9-4.87C602,373.14,597.25,375.16,590.8,377.78Z"/><path class="cls-10" d="M633,323.51c-2.58-2.8-5.34-5.62-8.13-8.43l-9.85,3.77c2.74,2.77,5.48,5.55,8,8.32Z"/><path class="cls-10" d="M548.39,461.38a98.59,98.59,0,0,1-9.83-7.89l-9.49,3.79a104.19,104.19,0,0,0,10.58,8.5C543.14,464,544.89,463.14,548.39,461.38Z"/><path class="cls-10" d="M569.58,482.91l3.3-4.88c-2.16,1.57-3.24,2.36-5.38,4Z"/><path class="cls-10" d="M608.07,296.87c-.9-1.2-1.66-2.32-2.33-3.4l-13-1.61a40.17,40.17,0,0,0,5,8.28C601.91,298.84,604,298.18,608.07,296.87Z"/><path class="cls-3" d="M834.71,386.21,699.37,289.83c-3.81,5.68-5.72,8.5-9.54,14.19q68,48.14,135.92,96.3C829.32,394.67,831.13,391.85,834.71,386.21Z"/><path class="cls-3" d="M412.85,729.8l-6.52-4c-3.8,5.68-5.72,8.51-9.54,14.18Q473.65,787,550.47,834c3.59-5.64,5.37-8.47,9-14.11Z"/><path class="cls-9" d="M618.19,501.75c4,1.6,7.92,3.31,11.34,5.11-1.22,2.77-1.83,4.14-3.06,6.9-1.72-.91-3.71-1.82-5.78-2.71,1.55,6.67,2.44,12.37,3.1,16.66.16,1,.29,1.95.44,2.84,1.46,4.15,5.66,11.94,9.42,18.83.81,1.48,1.72,3.11,2.65,4.81,10.89,19.64,30.83,55.2,32.33,93.68l31.59-49.77A108.61,108.61,0,0,0,698,585.88c3.48,0,5.23.07,8.71.13.11.44.21.92.32,1.39q59.38-93.53,118.74-187.08-68-48.15-135.92-96.3l-99,147.3a144.31,144.31,0,0,1,26.4,47.29C617.57,499.67,617.89,500.72,618.19,501.75Zm77.64,61.44a58.45,58.45,0,0,1,5.76,8.69,48.89,48.89,0,0,1,2.46,5.52l-8.39.9a36.92,36.92,0,0,0-2-4.43,50.9,50.9,0,0,0-4.7-7.08Zm-17.76-18.8c4.31,4,8.16,7.8,11.44,11.36-2.5,1.74-3.76,2.63-6.24,4.37-3.07-3.32-6.69-6.92-10.76-10.68C674.73,547.41,675.84,546.41,678.07,544.39Zm-19.46-16.66c4.3,3.43,8.44,6.87,12.3,10.23-2.12,2.12-3.17,3.19-5.29,5.32-3.74-3.25-7.75-6.58-11.93-9.9Zm-20.48-15.38c4.08,2.85,8.55,6.13,12.92,9.48-1.88,2.33-2.83,3.49-4.71,5.81-4.26-3.24-8.58-6.41-12.54-9.17Z"/><path class="cls-4" d="M566.62,548a80.2,80.2,0,0,0,2.61,9.56c4,10.78,10.9,21.7,18.24,33.22,1.07,1.68,2.21,3.45,3.4,5.27,14.11,21.81,35.72,54.71,27.51,82.55-5.54,18.76-22.36,33.45-43.09,37.45-12.55,2.42-25.93.84-38.71-4.43,13.68,14.34,28.06,27.22,44.18,37.57l.84.55a145.64,145.64,0,0,0,16.8,8.79c28.1-44.26,42.14-66.39,70.23-110.66-1.5-38.48-21.43-74-32.33-93.68-.93-1.7-1.84-3.33-2.65-4.81-3.76-6.89-8-14.68-9.42-18.83-.15-.89-.28-1.83-.44-2.84-.66-4.29-1.55-10-3.1-16.66-2.62-1.14-5.35-2.24-7.89-3.23.73-3,1.09-4.48,1.83-7.48,1.17.45,2.36.94,3.56,1.41-.3-1-.62-2.08-1-3.14a144.31,144.31,0,0,0-26.4-47.29c-7.17,10.68-10.76,16-17.94,26.71.67-.46,1-.67,1.67-1.1a96,96,0,0,0,9,9.1c.36.32.75.62,1.17.93l-4.64,6c-.66-.49-1.31-1-1.87-1.49a97.53,97.53,0,0,1-8.67-8.53l-19.17,28.53A75.12,75.12,0,0,1,561,529.31,114,114,0,0,1,566.62,548Zm39.3-51c-.74,3-1.1,4.51-1.84,7.5-4.94-1.92-10.17-4-14.83-6.25,1.09-2.84,1.64-4.27,2.74-7.11C596.26,493.18,601.2,495.15,605.92,497Z"/><path class="cls-5" d="M586.31,777.6l12.09-19.07a145.64,145.64,0,0,1-16.8-8.79l-.84-.55c-16.12-10.35-30.5-23.23-44.18-37.57,12.78,5.27,26.16,6.85,38.71,4.43,20.73-4,37.55-18.69,43.09-37.45,8.21-27.84-13.39-60.74-27.51-82.55-1.19-1.82-2.33-3.59-3.4-5.27-7.34-11.52-14.24-22.42-18.24-33.22a80.2,80.2,0,0,1-2.61-9.56,114,114,0,0,0-5.6-18.69,75.12,75.12,0,0,0-10.61-17.87c-5.92,8.81-8.88,13.21-14.78,22a1,1,0,0,0,.09.18c3.85,9.3,4.63,18.62,8.13,27.9C549,575.34,557.14,588,565.55,601c12.77,19.79,34.55,49.61,28.4,70.3-5.63,19-32.11,36.24-58.23,18.94-23.47-15.56-43-42-58.36-63.31-.78-1.09-1.59-2.18-2.39-3.29-7.76,11.54-11.63,17.31-19.38,28.86C489,694.85,523.78,738.2,568.35,767.76A148.74,148.74,0,0,0,586.31,777.6Z"/><path class="cls-6" d="M535.72,690.28c26.12,17.3,52.6,0,58.23-18.94,6.15-20.69-15.63-50.51-28.4-70.3-8.41-13-16.52-25.7-21.7-39.51-3.5-9.28-4.25-18.58-8.13-27.9a1,1,0,0,1-.09-.18l-9,13.43a2,2,0,0,1,.14.23c3,6.33,4.26,13.44,7.09,19.88,4.2,9.59,10,17.72,16.08,26.06,9.19,12.69,24.46,31.29,22.42,48.75-1.87,16-16.19,35.07-33.06,27-15.17-7.23-28.89-23.78-39.81-37.09-5.24-6.4-11-13.88-15.07-22-3.76,5.59-5.65,8.38-9.4,14,.8,1.11,1.59,2.2,2.39,3.29C492.73,648.24,512.25,674.72,535.72,690.28Z"/><path class="cls-6" d="M552.76,788.87a169.4,169.4,0,0,0,19.75,10.45c5.52-8.69,8.27-13,13.8-21.72a148.74,148.74,0,0,1-18-9.84C523.78,738.2,489,694.85,455.59,652.54l-18.33,27.23c6.27,5.39,12,11.06,16.95,15.86C485.52,726.26,513.09,763.82,552.76,788.87Z"/><path class="cls-7" d="M539.25,668.83c16.87,8,31.19-11,33.06-27,2-17.46-13.23-36.06-22.42-48.75-6-8.34-11.88-16.45-16.08-26.06-2.83-6.44-4-13.51-7.09-19.88a2,2,0,0,0-.14-.23c-16.88,25.13-25.31,37.7-42.21,62.82,4.06,8.16,9.83,15.64,15.07,22C510.36,645.05,524.08,661.6,539.25,668.83Z"/><path class="cls-7" d="M415.59,712l-9.26,13.77,6.52,4A57.85,57.85,0,0,0,415.59,712Z"/><path class="cls-7" d="M435,709.38c9,8.72,17.73,18.2,27,28.23,22.73,24.5,46.42,49.8,78.37,69.86l1.26.77a201.52,201.52,0,0,0,18.77,10.09c4.83-7.59,7.24-11.41,12.07-19a169.4,169.4,0,0,1-19.75-10.45c-39.67-25-67.24-62.58-98.55-93.24-4.93-4.8-10.68-10.47-16.95-15.86l-13,19.37c3.42,3.13,6.79,6.37,9.93,9.43C434.52,708.88,434.7,709.05,435,709.38Z"/><path class="cls-8" d="M559.43,819.93c.4-.64.61-.95,1-1.6a201.52,201.52,0,0,1-18.77-10.09l-1.26-.77c-31.95-20.06-55.66-45.35-78.37-69.86-9.31-10-18.05-19.51-27-28.23-.32-.33-.5-.5-.83-.81-3.14-3.06-6.51-6.3-9.93-9.43-3.47,5.14-5.2,7.71-8.67,12.88a57.85,57.85,0,0,1-2.74,17.78Z"/><path class="cls-10" d="M651.05,521.83c-4.37-3.35-8.84-6.63-12.92-9.48l-4.33,6.12c4,2.76,8.28,5.93,12.54,9.17C648.22,525.32,649.17,524.16,651.05,521.83Z"/><path class="cls-10" d="M629.53,506.86c-3.42-1.8-7.36-3.51-11.34-5.11-1.2-.47-2.39-1-3.56-1.41-.74,3-1.1,4.49-1.83,7.48,2.54,1,5.27,2.09,7.89,3.23,2.07.89,4.06,1.8,5.78,2.71C627.7,511,628.31,509.63,629.53,506.86Z"/><path class="cls-10" d="M604.08,504.47c.74-3,1.1-4.5,1.84-7.5-4.72-1.82-9.66-3.79-13.93-5.86-1.1,2.84-1.65,4.27-2.74,7.11C593.91,500.48,599.14,502.55,604.08,504.47Z"/><path class="cls-10" d="M580.12,492.93l4.64-6c-.42-.31-.81-.61-1.17-.93a97.18,97.18,0,0,1-9-9.1c-.68.43-1,.64-1.67,1.1l-3.3,4.88a96.2,96.2,0,0,0,8.67,8.53A22.22,22.22,0,0,0,580.12,492.93Z"/><path class="cls-10" d="M698,585.88a108.61,108.61,0,0,1,2.24,12.22L707,587.4c-.11-.47-.21-.95-.32-1.39C703.21,586,701.46,585.91,698,585.88Z"/><path class="cls-10" d="M695.66,578.3l8.39-.9a48.89,48.89,0,0,0-2.46-5.52,58.45,58.45,0,0,0-5.76-8.69l-6.83,3.6a50.9,50.9,0,0,1,4.7,7.08A36.92,36.92,0,0,1,695.66,578.3Z"/><path class="cls-10" d="M670.91,538c-3.86-3.36-8-6.8-12.3-10.23l-4.92,5.65c4.18,3.32,8.19,6.65,11.93,9.9C667.74,541.15,668.79,540.08,670.91,538Z"/><path class="cls-10" d="M689.51,555.75c-3.28-3.56-7.13-7.38-11.44-11.36-2.23,2-3.34,3-5.56,5.05,4.07,3.76,7.69,7.36,10.76,10.68C685.75,558.38,687,557.49,689.51,555.75Z"/><path class="cls-3" d="M1011.7,394.55q-144,251.41-288,502.81h0q144-251.4,288-502.81Z"/><path class="cls-3" d="M834.71,386.21c-3.58,5.64-5.39,8.46-9,14.11l154.58,8.8q-96.41,166.26-192.82,332.5l-27.24,47c-5,8.62-7.51,12.95-12.53,21.59-14.73,25.42-22.1,38.14-36.85,63.56-2-.71-3.07-1.11-5.12-1.82L674.44,860.8l-115-40.87c-3.59,5.64-5.37,8.47-9,14.11l173.19,63.32q144-251.4,288-502.81Z"/><path class="cls-9" d="M655.18,702.74a16.31,16.31,0,0,0,4,3.63c-.06-.64-.12-1.28-.12-2,4.21.05,6.31.06,10.51.09a8.13,8.13,0,0,0,1,4.25,5.41,5.41,0,0,0,3.23,2.31.67.67,0,0,0-.11.14c3.09.47,6.39.76,9.83,1a125.86,125.86,0,0,0,14.21-1c.15.58.22.88.38,1.49,3.52.06,7.08.13,10.59.3-.39-1.27-.61-1.9-1-3.17,5.08-.77,10.37-1.67,16.73-2.81,1,2.73,1.49,4.08,2.5,6.82-1,.18-1.93.36-2.88.52a66.18,66.18,0,0,1,8.59,1.84c21.3,6.21,39.65,14.75,54.89,25.44q96.4-166.24,192.82-332.5l-154.58-8.8Q766.38,493.85,707,587.4a62.34,62.34,0,0,1,3.77,9.49l-10.37,1.79a5.62,5.62,0,0,0-.19-.58l-31.59,49.77a69.55,69.55,0,0,1-3.24,34.35C663,689.2,650.39,696.58,655.18,702.74Zm153.59-5-2.46,7.18a94.09,94.09,0,0,0-15.89-.45c0-2.89-.08-4.33-.14-7.23A109.24,109.24,0,0,1,808.77,697.74Zm-29.32.33c.42,2.85.62,4.29,1,7.15-5.06.5-10.52,1.2-16.7,2.16-.76-2.8-1.16-4.21-1.93-7C768.35,699.38,774.1,698.62,779.45,698.07Zm-27.94,4c.9,2.76,1.35,4.15,2.25,6.93-5.61,1-11.23,2-16.75,3-1-2.76-1.51-4.13-2.5-6.87C740.13,704.11,745.84,703.07,751.51,702.08Zm-90.62-5.19a40.68,40.68,0,0,1,3-5.63c1.06-1.69,2.32-3.51,3.76-5.39l9.43,2.93c-1.32,1.76-2.49,3.42-3.45,5a37.67,37.67,0,0,0-2.63,4.92Zm20.91-14-9.17-3.21c2.82-3.29,5.92-6.68,8.85-9.85,3.6,1.33,5.4,2,9,3.34C687.59,676.34,684.55,679.69,681.8,682.93Zm14.08-15.61-9-3.28c2.67-2.92,5.77-6.36,8.49-9.71l9.29,2.92C701.8,660.76,698.62,664.31,695.88,667.32Zm18.24-26.56a26.06,26.06,0,0,1-3.74,8.57c-.31.5-.63,1-1,1.52l-9.64-2.38c.31-.47.6-.91.87-1.34a21.31,21.31,0,0,0,3-6.81c.1-.51.19-1,.28-1.59,4.2.11,6.29.16,10.49.25C714.33,639.59,714.22,640.18,714.12,640.76Zm1-8.65-10.54.25a94.58,94.58,0,0,0-.1-10.74l10.55-.74A103.27,103.27,0,0,1,715.1,632.11Zm-13-27.32c4.17-.59,6.27-.86,10.45-1.48.78,3.49,1.42,7.16,1.88,10.92l-10.52,1A103.51,103.51,0,0,0,702.07,604.79Z"/><path class="cls-4" d="M734.57,778.44a148,148,0,0,1,25.7,10.17l27.24-47c-15.24-10.69-33.59-19.21-54.89-25.44a66.54,66.54,0,0,0-8.59-1.84c-5.18.92-9.75,1.67-14.14,2.34-.47-1.49-.7-2.23-1.19-3.7-3.51-.17-7.07-.24-10.59-.3.54,2.16.8,3.24,1.34,5.42a125.72,125.72,0,0,1-18.29,1c.18-2.79.27-4.18.47-7,.59,0,1.26,0,1.89,0-3.44-.21-6.74-.5-9.83-1l-4.73,6c-3.91-1.35-6.67-3.41-8.19-6.05a12.29,12.29,0,0,1-1.6-4.8,16.31,16.31,0,0,1-4-3.63c-4.79-6.14,7.77-13.54,10.21-20.52a69.43,69.43,0,0,0,3.24-34.35c-28.09,44.27-42.13,66.4-70.23,110.66,14,2.54,30.31,4.29,47.26,6C675.78,767.5,706.93,770.2,734.57,778.44Z"/><path class="cls-5" d="M747.74,810.2c5-8.64,7.52-13,12.53-21.59a148,148,0,0,0-25.7-10.17c-27.64-8.24-58.79-10.94-88.91-13.93-16.95-1.69-33.22-3.44-47.26-6L586.31,777.6C639.8,787,698.51,784.53,747.74,810.2Z"/><path class="cls-6" d="M703.43,849.86c2.59,6.11,3.46,14.72,2.34,22.08,2.05.71,3.07,1.11,5.12,1.82,14.75-25.42,22.12-38.14,36.85-63.56C698.51,784.53,639.8,787,586.31,777.6c-5.53,8.68-8.28,13-13.8,21.72C614.83,806.48,685.57,807.76,703.43,849.86Z"/><path class="cls-7" d="M652.13,837.38c14.26,4.94,18.6,10.11,20.71,16.4a37.3,37.3,0,0,1,1.6,7l31.33,11.14c1.12-7.36.25-16-2.34-22.08-17.86-42.1-88.6-43.38-130.92-50.54-4.83,7.6-7.24,11.42-12.07,19,13.28,3.28,27.14,5.73,40.72,8C619.46,829.51,638.41,832.62,652.13,837.38Z"/><path class="cls-8" d="M672.84,853.78c-2.11-6.29-6.45-11.46-20.71-16.4-13.72-4.76-32.67-7.87-51-11-13.58-2.32-27.44-4.77-40.72-8-.4.65-.61,1-1,1.6l115,40.87A37.3,37.3,0,0,0,672.84,853.78Z"/><path class="cls-10" d="M710.78,596.89A62.34,62.34,0,0,0,707,587.4l-6.79,10.7a5.62,5.62,0,0,1,.19.58Z"/><path class="cls-10" d="M683.52,712.17c-.63,0-1.3,0-1.89,0-.2,2.79-.29,4.18-.47,7a125.72,125.72,0,0,0,18.29-1c-.54-2.18-.8-3.26-1.34-5.42-.16-.61-.23-.91-.38-1.49A125.86,125.86,0,0,1,683.52,712.17Z"/><path class="cls-10" d="M753.76,709c-.9-2.78-1.35-4.17-2.25-6.93-5.67,1-11.38,2-17,3,1,2.74,1.49,4.11,2.5,6.87C742.53,711,748.15,710,753.76,709Z"/><path class="cls-10" d="M806.31,704.92l2.46-7.18a109.24,109.24,0,0,0-18.49-.5c.06,2.9.09,4.34.14,7.23A94.09,94.09,0,0,1,806.31,704.92Z"/><path class="cls-10" d="M780.49,705.22c-.42-2.86-.62-4.3-1-7.15-5.35.55-11.1,1.31-17.59,2.31.77,2.79,1.17,4.2,1.93,7C770,706.42,775.43,705.72,780.49,705.22Z"/><path class="cls-10" d="M724.41,707c-6.36,1.14-11.65,2-16.73,2.81.41,1.27.63,1.9,1,3.17.49,1.47.72,2.21,1.19,3.7,4.39-.67,9-1.42,14.14-2.34,1-.16,1.87-.34,2.88-.52C725.9,711.08,725.4,709.73,724.41,707Z"/><path class="cls-10" d="M686.86,664l9,3.28c2.74-3,5.92-6.56,8.76-10.07l-9.29-2.92C692.63,657.68,689.53,661.12,686.86,664Z"/><path class="cls-10" d="M672.63,679.72l9.17,3.21c2.75-3.24,5.79-6.59,8.68-9.72-3.6-1.35-5.4-2-9-3.34C678.55,673,675.45,676.43,672.63,679.72Z"/><path class="cls-10" d="M677.08,688.8l-9.43-2.93c-1.44,1.88-2.7,3.7-3.76,5.39a40.68,40.68,0,0,0-3,5.63l10.11,1.8a37.67,37.67,0,0,1,2.63-4.92C674.59,692.22,675.76,690.56,677.08,688.8Z"/><path class="cls-10" d="M703.66,640.32a21.77,21.77,0,0,1-3,6.81c-.27.43-.56.87-.87,1.34l9.64,2.38c.34-.51.66-1,1-1.52a26.06,26.06,0,0,0,3.74-8.57c.1-.58.21-1.17.31-1.78-4.2-.09-6.29-.14-10.49-.25C703.85,639.28,703.76,639.81,703.66,640.32Z"/><path class="cls-10" d="M704.56,632.36l10.54-.25a103.27,103.27,0,0,0-.09-11.23l-10.55.74A94.58,94.58,0,0,1,704.56,632.36Z"/><path class="cls-10" d="M670.57,708.75a8.13,8.13,0,0,1-1-4.25c-4.2,0-6.3,0-10.51-.09a17.78,17.78,0,0,0,.12,2,12.29,12.29,0,0,0,1.6,4.8c1.52,2.64,4.28,4.7,8.19,6.05l4.73-6a.67.67,0,0,1,.11-.14A5.41,5.41,0,0,1,670.57,708.75Z"/><path class="cls-10" d="M712.52,603.31c-4.18.62-6.28.89-10.45,1.48a103.51,103.51,0,0,1,1.81,10.46l10.52-1C713.94,610.47,713.3,606.8,712.52,603.31Z"/><polygon class="cls-11" points="68.3 581.85 374.43 182.63 516.36 267.89 215.01 687.38 68.3 581.85"/><polygon class="cls-12" points="834.7 386.21 699.38 289.83 396.79 739.97 550.48 834.05 834.7 386.21"/><g class="cls-13"><path class="cls-14" d="M773.68,570.25c-6.56.15-11.87,2.91-11.85,6.17s5.36,5.79,11.93,5.63,11.87-2.92,11.85-6.18S780.24,570.1,773.68,570.25Z"/><g class="cls-15"><path class="cls-16" d="M773.72,575.44s149.43,83.51,192.84,56c32.38-20.49,44.47-100,13.77-122.93C935.83,475.28,773.72,575.44,773.72,575.44Z"/><path class="cls-17" d="M773.72,575.44S916.38,654.7,959.43,629c31.39-18.74,43.53-95.23,13.77-116.73C928.78,480.17,773.72,575.44,773.72,575.44Z"/><path class="cls-18" d="M773.72,575.44s135.86,75,178.57,51.08c30.38-17,42.58-90.45,13.78-110.53C921.72,485.07,773.72,575.44,773.72,575.44Z"/><path class="cls-19" d="M773.72,575.44s129,70.73,171.44,48.6c29.33-15.3,41.6-85.66,13.77-104.33C914.63,490,773.72,575.44,773.72,575.44Z"/><path class="cls-20" d="M773.72,575.44S895.85,641.89,938,621.56c28.24-13.62,40.6-80.84,13.77-98.13C907.51,494.89,773.72,575.44,773.72,575.44Z"/><path class="cls-21" d="M773.72,575.44s115.2,62.16,157.17,43.64c27.13-12,39.59-76,13.78-91.93C900.37,499.82,773.72,575.44,773.72,575.44Z"/><path class="cls-22" d="M773.72,575.44s108.22,57.84,150,41.16c26-10.36,38.54-71.15,13.77-85.73C893.21,504.78,773.72,575.44,773.72,575.44Z"/><path class="cls-23" d="M773.72,575.44s101.18,53.48,142.91,38.68c24.79-8.8,37.48-66.26,13.77-79.53C886,509.76,773.72,575.44,773.72,575.44Z"/><path class="cls-24" d="M773.72,575.44s94.1,49.06,135.77,36.2c23.57-7.28,36.41-61.35,13.78-73.33C878.78,514.77,773.72,575.44,773.72,575.44Z"/><path class="cls-25" d="M773.72,575.44s87,44.57,128.64,33.71c22.32-5.81,35.3-56.4,13.77-67.12C871.53,519.83,773.72,575.44,773.72,575.44Z"/><path class="cls-26" d="M773.72,575.44s79.81,40,121.51,31.23c21-4.41,34.18-51.43,13.77-60.91C864.24,524.94,773.72,575.44,773.72,575.44Z"/><path class="cls-27" d="M773.72,575.44s72.61,35.27,114.38,28.75c19.75-3.08,33-46.42,13.77-54.71C856.91,530.13,773.72,575.44,773.72,575.44Z"/><path class="cls-28" d="M773.72,575.44s65.4,30.4,107.24,26.27c18.47-1.82,31.9-41.38,13.78-48.51C849.55,535.41,773.72,575.44,773.72,575.44Z"/><path class="cls-29" d="M773.72,575.44s58.76,30.8,100.11,23.79c16.95-2.87,30.74-36.29,13.77-42.31C842.15,540.8,773.72,575.44,773.72,575.44Z"/><path class="cls-30" d="M773.72,575.44s51.14,24.26,93,21.31c15.89-1.12,29.58-31.17,13.77-36.11C834.73,546.35,773.72,575.44,773.72,575.44Z"/><path class="cls-31" d="M773.72,575.44s44,14.41,85.84,18.83c14.71,1.55,28.43-26,13.78-29.91C827.28,552.09,773.72,575.44,773.72,575.44Z"/><path class="cls-32" d="M773.72,575.44s37.14,8.51,78.71,16.35c13.57,2.57,27.28-20.8,13.77-23.71C819.82,558.09,773.72,575.44,773.72,575.44Z"/></g><path class="cls-33" d="M588.88,700.13c-57,60.48-45.9,163.71,25,230.73s174.69,72.31,231.82,11.89S891.59,779,820.64,712,646,639.71,588.88,700.13Z"/><path class="cls-34" d="M1061.08,199.65c-95.32-30.09-221.33,99.44-281.55,289.61S747.74,858,843,888.26c95.34,30.06,221.34-99.55,281.58-289.76C1184.75,408.54,1156.36,229.85,1061.08,199.65Z"/></g><g class="cls-35"><path class="cls-36" d="M581.36,412.29C513.66,364,371.67,446.84,264,597.49s-140,311.93-72.4,360.32C259.33,1006,401.35,923.17,509,772.48,616.54,622,649,460.64,581.36,412.29Z"/><path class="cls-37" d="M1081.68,117.51C980.34-48.52,724.44-77.18,509.75,53.67S203.09,425.19,304.23,591.36c101.36,166,357.33,194.59,572.1,63.7C1090.8,524.36,1182.87,283.62,1081.68,117.51Z"/></g><g class="cls-38"><path class="cls-39" d="M121,189.81C-24.2,357.61-84.84,543.06-14.42,604s245.25-25.63,390.54-193.4S582,57.35,511.53-3.63,266.25,22,121,189.81Z"/></g><g class="cls-40"><path class="cls-41" d="M227.07,304.64C45.91,594.29-1.85,891.11,120.36,967.52s368.21-96.35,549.45-386,228.85-586.48,106.6-663S408.21,15,227.07,304.64Z"/></g></g><g class="cls-42"><path class="cls-43" d="M4230.73,229.36H-51.45V826.55H4230.73Z"/><path class="cls-44" d="M-2.39,250.18a27,27,0,0,0-27,27,27,27,0,0,0,27,27,27,27,0,0,0,27-27A27,27,0,0,0-2.39,250.18Zm74.64,0a27,27,0,1,0,27,27A27,27,0,0,0,72.25,250.18Zm74.64,0a27,27,0,1,0,27,27A27,27,0,0,0,146.89,250.18Zm74.64,0a27,27,0,1,0,27,27A27,27,0,0,0,221.53,250.18Zm74.63,0a27,27,0,1,0,27,27A27,27,0,0,0,296.16,250.18Zm74.64,0a27,27,0,1,0,27,27A27,27,0,0,0,370.8,250.18Zm74.64,0a27,27,0,1,0,27,27A27,27,0,0,0,445.44,250.18Zm74.64,0a27,27,0,1,0,27,27A27,27,0,0,0,520.08,250.18Zm74.64,0a27,27,0,1,0,27,27A27,27,0,0,0,594.72,250.18Zm74.63,0a27,27,0,1,0,27,27A27,27,0,0,0,669.35,250.18Zm74.64,0a27,27,0,1,0,27,27A27,27,0,0,0,744,250.18Zm74.64,0a27,27,0,1,0,27,27A27,27,0,0,0,818.63,250.18Zm74.64,0a27,27,0,1,0,27,27A27,27,0,0,0,893.27,250.18Zm74.64,0a27,27,0,1,0,27,27A27,27,0,0,0,967.91,250.18Zm74.63,0a27,27,0,1,0,27,27A27,27,0,0,0,1042.54,250.18Zm74.64,0a27,27,0,1,0,27,27A27,27,0,0,0,1117.18,250.18Zm74.64,0a27,27,0,1,0,27,27A27,27,0,0,0,1191.82,250.18Zm74.64,0a27,27,0,1,0,27,27A27,27,0,0,0,1266.46,250.18Zm74.64,0a27,27,0,1,0,27,27A27,27,0,0,0,1341.1,250.18Zm74.63,0a27,27,0,1,0,27,27A27,27,0,0,0,1415.73,250.18Zm74.64,0a27,27,0,1,0,27,27A27,27,0,0,0,1490.37,250.18Zm74.64,0a27,27,0,1,0,27,27A27,27,0,0,0,1565,250.18Zm74.64,0a27,27,0,1,0,27,27A27,27,0,0,0,1639.65,250.18Zm74.64,0a27,27,0,1,0,27,27A27,27,0,0,0,1714.29,250.18Zm74.63,0a27,27,0,1,0,27,27A27,27,0,0,0,1788.92,250.18Zm74.64,0a27,27,0,1,0,27,27A27,27,0,0,0,1863.56,250.18Zm74.64,0a27,27,0,1,0,27,27A27,27,0,0,0,1938.2,250.18Zm74.64,0a27,27,0,1,0,27,27A27,27,0,0,0,2012.84,250.18Zm74.64,0a27,27,0,1,0,27,27A27,27,0,0,0,2087.48,250.18Zm74.64,0a27,27,0,1,0,27,27A27,27,0,0,0,2162.12,250.18Zm74.64,0a27,27,0,1,0,27,27A27,27,0,0,0,2236.76,250.18Zm74.64,0a27,27,0,1,0,27,27A27,27,0,0,0,2311.4,250.18Zm74.64,0a27,27,0,1,0,27,27A27,27,0,0,0,2386,250.18Zm74.63,0a27,27,0,1,0,27,27A27,27,0,0,0,2460.67,250.18Zm74.64,0a27,27,0,1,0,27,27A27,27,0,0,0,2535.31,250.18Zm74.64,0a27,27,0,1,0,27,27A27,27,0,0,0,2610,250.18Zm74.64,0a27,27,0,1,0,27,27A27,27,0,0,0,2684.59,250.18Zm74.64,0a27,27,0,1,0,27,27A27,27,0,0,0,2759.23,250.18Zm74.63,0a27,27,0,1,0,27,27A27,27,0,0,0,2833.86,250.18Zm74.64,0a27,27,0,1,0,27,27A27,27,0,0,0,2908.5,250.18Zm74.64,0a27,27,0,1,0,27,27A27,27,0,0,0,2983.14,250.18Zm74.64,0a27,27,0,1,0,27,27A27,27,0,0,0,3057.78,250.18Zm74.64,0a27,27,0,1,0,27,27A27,27,0,0,0,3132.42,250.18Zm74.63,0a27,27,0,1,0,27,27A27,27,0,0,0,3207.05,250.18Zm74.64,0a27,27,0,1,0,27,27A27,27,0,0,0,3281.69,250.18Zm74.64,0a27,27,0,1,0,27,27A27,27,0,0,0,3356.33,250.18Zm74.64,0a27,27,0,1,0,27,27A27,27,0,0,0,3431,250.18Zm74.64,0a27,27,0,1,0,27,27A27,27,0,0,0,3505.61,250.18Zm74.63,0a27,27,0,1,0,27,27A27,27,0,0,0,3580.24,250.18Zm74.64,0a27,27,0,1,0,27,27A27,27,0,0,0,3654.88,250.18Zm74.64,0a27,27,0,1,0,27,27A27,27,0,0,0,3729.52,250.18Zm74.64,0a27,27,0,1,0,27,27A27,27,0,0,0,3804.16,250.18Zm74.64,0a27,27,0,1,0,27,27A27,27,0,0,0,3878.8,250.18Zm74.63,0a27,27,0,1,0,27,27A27,27,0,0,0,3953.43,250.18Zm74.64,0a27,27,0,1,0,27,27A27,27,0,0,0,4028.07,250.18Zm149.28,0a27,27,0,1,0,27,27A27,27,0,0,0,4177.35,250.18Zm-74.64,0a27,27,0,1,0,27,27A27,27,0,0,0,4102.71,250.18Z"/><path class="cls-45" d="M-2.39,322.14a27,27,0,0,0-27,27,27,27,0,0,0,27,27,27,27,0,0,0,27-27A27,27,0,0,0-2.39,322.14Zm74.64,0a27,27,0,1,0,27,27A27,27,0,0,0,72.25,322.14Zm74.64,0a27,27,0,1,0,27,27A27,27,0,0,0,146.89,322.14Zm74.64,0a27,27,0,1,0,27,27A27,27,0,0,0,221.53,322.14Zm74.63,0a27,27,0,1,0,27,27A27,27,0,0,0,296.16,322.14Zm74.64,0a27,27,0,1,0,27,27A27,27,0,0,0,370.8,322.14Zm74.64,0a27,27,0,1,0,27,27A27,27,0,0,0,445.44,322.14Zm74.64,0a27,27,0,1,0,27,27A27,27,0,0,0,520.08,322.14Zm74.64,0a27,27,0,1,0,27,27A27,27,0,0,0,594.72,322.14Zm74.63,0a27,27,0,1,0,27,27A27,27,0,0,0,669.35,322.14Zm74.64,0a27,27,0,1,0,27,27A27,27,0,0,0,744,322.14Zm74.64,0a27,27,0,1,0,27,27A27,27,0,0,0,818.63,322.14Zm74.64,0a27,27,0,1,0,27,27A27,27,0,0,0,893.27,322.14Zm74.64,0a27,27,0,1,0,27,27A27,27,0,0,0,967.91,322.14Zm74.63,0a27,27,0,1,0,27,27A27,27,0,0,0,1042.54,322.14Zm74.64,0a27,27,0,1,0,27,27A27,27,0,0,0,1117.18,322.14Zm74.64,0a27,27,0,1,0,27,27A27,27,0,0,0,1191.82,322.14Zm74.64,0a27,27,0,1,0,27,27A27,27,0,0,0,1266.46,322.14Zm74.64,0a27,27,0,1,0,27,27A27,27,0,0,0,1341.1,322.14Zm74.63,0a27,27,0,1,0,27,27A27,27,0,0,0,1415.73,322.14Zm74.64,0a27,27,0,1,0,27,27A27,27,0,0,0,1490.37,322.14Zm74.64,0a27,27,0,1,0,27,27A27,27,0,0,0,1565,322.14Zm74.64,0a27,27,0,1,0,27,27A27,27,0,0,0,1639.65,322.14Zm74.64,0a27,27,0,1,0,27,27A27,27,0,0,0,1714.29,322.14Zm74.63,0a27,27,0,1,0,27,27A27,27,0,0,0,1788.92,322.14Zm74.64,0a27,27,0,1,0,27,27A27,27,0,0,0,1863.56,322.14Zm74.64,0a27,27,0,1,0,27,27A27,27,0,0,0,1938.2,322.14Zm74.64,0a27,27,0,1,0,27,27A27,27,0,0,0,2012.84,322.14Zm74.64,0a27,27,0,1,0,27,27A27,27,0,0,0,2087.48,322.14Zm74.64,0a27,27,0,1,0,27,27A27,27,0,0,0,2162.12,322.14Zm74.64,0a27,27,0,1,0,27,27A27,27,0,0,0,2236.76,322.14Zm74.64,0a27,27,0,1,0,27,27A27,27,0,0,0,2311.4,322.14Zm74.64,0a27,27,0,1,0,27,27A27,27,0,0,0,2386,322.14Zm74.63,0a27,27,0,1,0,27,27A27,27,0,0,0,2460.67,322.14Zm74.64,0a27,27,0,1,0,27,27A27,27,0,0,0,2535.31,322.14Zm74.64,0a27,27,0,1,0,27,27A27,27,0,0,0,2610,322.14Zm74.64,0a27,27,0,1,0,27,27A27,27,0,0,0,2684.59,322.14Zm74.64,0a27,27,0,1,0,27,27A27,27,0,0,0,2759.23,322.14Zm74.63,0a27,27,0,1,0,27,27A27,27,0,0,0,2833.86,322.14Zm74.64,0a27,27,0,1,0,27,27A27,27,0,0,0,2908.5,322.14Zm74.64,0a27,27,0,1,0,27,27A27,27,0,0,0,2983.14,322.14Zm74.64,0a27,27,0,1,0,27,27A27,27,0,0,0,3057.78,322.14Zm74.64,0a27,27,0,1,0,27,27A27,27,0,0,0,3132.42,322.14Zm74.63,0a27,27,0,1,0,27,27A27,27,0,0,0,3207.05,322.14Zm74.64,0a27,27,0,1,0,27,27A27,27,0,0,0,3281.69,322.14Zm74.64,0a27,27,0,1,0,27,27A27,27,0,0,0,3356.33,322.14Zm74.64,0a27,27,0,1,0,27,27A27,27,0,0,0,3431,322.14Zm74.64,0a27,27,0,1,0,27,27A27,27,0,0,0,3505.61,322.14Zm74.63,0a27,27,0,1,0,27,27A27,27,0,0,0,3580.24,322.14Zm74.64,0a27,27,0,1,0,27,27A27,27,0,0,0,3654.88,322.14Zm74.64,0a27,27,0,1,0,27,27A27,27,0,0,0,3729.52,322.14Zm74.64,0a27,27,0,1,0,27,27A27,27,0,0,0,3804.16,322.14Zm74.64,0a27,27,0,1,0,27,27A27,27,0,0,0,3878.8,322.14Zm74.63,0a27,27,0,1,0,27,27A27,27,0,0,0,3953.43,322.14Zm74.64,0a27,27,0,1,0,27,27A27,27,0,0,0,4028.07,322.14Zm149.28,0a27,27,0,1,0,27,27A27,27,0,0,0,4177.35,322.14Zm-74.64,0a27,27,0,1,0,27,27A27,27,0,0,0,4102.71,322.14Z"/><path class="cls-46" d="M-2.39,394.09a27,27,0,0,0-27,27,27,27,0,0,0,27,27,27,27,0,0,0,27-27A27,27,0,0,0-2.39,394.09Zm74.64,0a27,27,0,1,0,27,27A27,27,0,0,0,72.25,394.09Zm74.64,0a27,27,0,1,0,27,27A27,27,0,0,0,146.89,394.09Zm74.64,0a27,27,0,1,0,27,27A27,27,0,0,0,221.53,394.09Zm74.63,0a27,27,0,1,0,27,27A27,27,0,0,0,296.16,394.09Zm74.64,0a27,27,0,1,0,27,27A27,27,0,0,0,370.8,394.09Zm74.64,0a27,27,0,1,0,27,27A27,27,0,0,0,445.44,394.09Zm74.64,0a27,27,0,1,0,27,27A27,27,0,0,0,520.08,394.09Zm74.64,0a27,27,0,1,0,27,27A27,27,0,0,0,594.72,394.09Zm74.63,0a27,27,0,1,0,27,27A27,27,0,0,0,669.35,394.09Zm74.64,0a27,27,0,1,0,27,27A27,27,0,0,0,744,394.09Zm74.64,0a27,27,0,1,0,27,27A27,27,0,0,0,818.63,394.09Zm74.64,0a27,27,0,1,0,27,27A27,27,0,0,0,893.27,394.09Zm74.64,0a27,27,0,1,0,27,27A27,27,0,0,0,967.91,394.09Zm74.63,0a27,27,0,1,0,27,27A27,27,0,0,0,1042.54,394.09Zm74.64,0a27,27,0,1,0,27,27A27,27,0,0,0,1117.18,394.09Zm74.64,0a27,27,0,1,0,27,27A27,27,0,0,0,1191.82,394.09Zm74.64,0a27,27,0,1,0,27,27A27,27,0,0,0,1266.46,394.09Zm74.64,0a27,27,0,1,0,27,27A27,27,0,0,0,1341.1,394.09Zm74.63,0a27,27,0,1,0,27,27A27,27,0,0,0,1415.73,394.09Zm74.64,0a27,27,0,1,0,27,27A27,27,0,0,0,1490.37,394.09Zm74.64,0a27,27,0,1,0,27,27A27,27,0,0,0,1565,394.09Zm74.64,0a27,27,0,1,0,27,27A27,27,0,0,0,1639.65,394.09Zm74.64,0a27,27,0,1,0,27,27A27,27,0,0,0,1714.29,394.09Zm74.63,0a27,27,0,1,0,27,27A27,27,0,0,0,1788.92,394.09Zm74.64,0a27,27,0,1,0,27,27A27,27,0,0,0,1863.56,394.09Zm74.64,0a27,27,0,1,0,27,27A27,27,0,0,0,1938.2,394.09Zm74.64,0a27,27,0,1,0,27,27A27,27,0,0,0,2012.84,394.09Zm74.64,0a27,27,0,1,0,27,27A27,27,0,0,0,2087.48,394.09Zm74.64,0a27,27,0,1,0,27,27A27,27,0,0,0,2162.12,394.09Zm74.64,0a27,27,0,1,0,27,27A27,27,0,0,0,2236.76,394.09Zm74.64,0a27,27,0,1,0,27,27A27,27,0,0,0,2311.4,394.09Zm74.64,0a27,27,0,1,0,27,27A27,27,0,0,0,2386,394.09Zm74.63,0a27,27,0,1,0,27,27A27,27,0,0,0,2460.67,394.09Zm74.64,0a27,27,0,1,0,27,27A27,27,0,0,0,2535.31,394.09Zm74.64,0a27,27,0,1,0,27,27A27,27,0,0,0,2610,394.09Zm74.64,0a27,27,0,1,0,27,27A27,27,0,0,0,2684.59,394.09Zm74.64,0a27,27,0,1,0,27,27A27,27,0,0,0,2759.23,394.09Zm74.63,0a27,27,0,1,0,27,27A27,27,0,0,0,2833.86,394.09Zm74.64,0a27,27,0,1,0,27,27A27,27,0,0,0,2908.5,394.09Zm74.64,0a27,27,0,1,0,27,27A27,27,0,0,0,2983.14,394.09Zm74.64,0a27,27,0,1,0,27,27A27,27,0,0,0,3057.78,394.09Zm74.64,0a27,27,0,1,0,27,27A27,27,0,0,0,3132.42,394.09Zm74.63,0a27,27,0,1,0,27,27A27,27,0,0,0,3207.05,394.09Zm74.64,0a27,27,0,1,0,27,27A27,27,0,0,0,3281.69,394.09Zm74.64,0a27,27,0,1,0,27,27A27,27,0,0,0,3356.33,394.09Zm74.64,0a27,27,0,1,0,27,27A27,27,0,0,0,3431,394.09Zm74.64,0a27,27,0,1,0,27,27A27,27,0,0,0,3505.61,394.09Zm74.63,0a27,27,0,1,0,27,27A27,27,0,0,0,3580.24,394.09Zm74.64,0a27,27,0,1,0,27,27A27,27,0,0,0,3654.88,394.09Zm74.64,0a27,27,0,1,0,27,27A27,27,0,0,0,3729.52,394.09Zm74.64,0a27,27,0,1,0,27,27A27,27,0,0,0,3804.16,394.09Zm74.64,0a27,27,0,1,0,27,27A27,27,0,0,0,3878.8,394.09Zm74.63,0a27,27,0,1,0,27,27A27,27,0,0,0,3953.43,394.09Zm74.64,0a27,27,0,1,0,27,27A27,27,0,0,0,4028.07,394.09Zm149.28,0a27,27,0,1,0,27,27A27,27,0,0,0,4177.35,394.09Zm-74.64,0a27,27,0,1,0,27,27A27,27,0,0,0,4102.71,394.09Z"/><path class="cls-47" d="M-2.39,466.05a27,27,0,0,0-27,27,27,27,0,0,0,27,27,27,27,0,0,0,27-27A27,27,0,0,0-2.39,466.05Zm74.64,0a27,27,0,1,0,27,27A27,27,0,0,0,72.25,466.05Zm74.63,0a27,27,0,1,0,27,27A27,27,0,0,0,146.88,466.05Zm74.64,0a27,27,0,1,0,27,27A27,27,0,0,0,221.52,466.05Zm74.64,0a27,27,0,1,0,27,27A27,27,0,0,0,296.16,466.05Zm74.64,0a27,27,0,1,0,27,27A27,27,0,0,0,370.8,466.05Zm74.64,0a27,27,0,1,0,27,27A27,27,0,0,0,445.44,466.05Zm74.63,0a27,27,0,1,0,27,27A27,27,0,0,0,520.07,466.05Zm74.64,0a27,27,0,1,0,27,27A27,27,0,0,0,594.71,466.05Zm74.64,0a27,27,0,1,0,27,27A27,27,0,0,0,669.35,466.05Zm74.64,0a27,27,0,1,0,27,27A27,27,0,0,0,744,466.05Zm74.64,0a27,27,0,1,0,27,27A27,27,0,0,0,818.63,466.05Zm74.63,0a27,27,0,1,0,27,27A27,27,0,0,0,893.26,466.05Zm74.64,0a27,27,0,1,0,27,27A27,27,0,0,0,967.9,466.05Zm74.64,0a27,27,0,1,0,27,27A27,27,0,0,0,1042.54,466.05Zm74.64,0a27,27,0,1,0,27,27A27,27,0,0,0,1117.18,466.05Zm74.64,0a27,27,0,1,0,27,27A27,27,0,0,0,1191.82,466.05Zm74.63,0a27,27,0,1,0,27,27A27,27,0,0,0,1266.45,466.05Zm74.64,0a27,27,0,1,0,27,27A27,27,0,0,0,1341.09,466.05Zm74.64,0a27,27,0,1,0,27,27A27,27,0,0,0,1415.73,466.05Zm74.64,0a27,27,0,1,0,27,27A27,27,0,0,0,1490.37,466.05Zm74.64,0a27,27,0,1,0,27,27A27,27,0,0,0,1565,466.05Zm74.63,0a27,27,0,1,0,27,27A27,27,0,0,0,1639.64,466.05Zm74.64,0a27,27,0,1,0,27,27A27,27,0,0,0,1714.28,466.05Zm74.64,0a27,27,0,1,0,27,27A27,27,0,0,0,1788.92,466.05Zm74.64,0a27,27,0,1,0,27,27A27,27,0,0,0,1863.56,466.05Zm74.64,0a27,27,0,1,0,27,27A27,27,0,0,0,1938.2,466.05Zm74.64,0a27,27,0,1,0,27,27A27,27,0,0,0,2012.84,466.05Zm74.64,0a27,27,0,1,0,27,27A27,27,0,0,0,2087.48,466.05Zm74.64,0a27,27,0,1,0,27,27A27,27,0,0,0,2162.12,466.05Zm74.64,0a27,27,0,1,0,27,27A27,27,0,0,0,2236.76,466.05Zm74.64,0a27,27,0,1,0,27,27A27,27,0,0,0,2311.4,466.05Zm74.64,0a27,27,0,1,0,27,27A27,27,0,0,0,2386,466.05Zm74.63,0a27,27,0,1,0,27,27A27,27,0,0,0,2460.67,466.05Zm74.64,0a27,27,0,1,0,27,27A27,27,0,0,0,2535.31,466.05Zm74.64,0a27,27,0,1,0,27,27A27,27,0,0,0,2610,466.05Zm74.64,0a27,27,0,1,0,27,27A27,27,0,0,0,2684.59,466.05Zm74.64,0a27,27,0,1,0,27,27A27,27,0,0,0,2759.23,466.05Zm74.63,0a27,27,0,1,0,27,27A27,27,0,0,0,2833.86,466.05Zm74.64,0a27,27,0,1,0,27,27A27,27,0,0,0,2908.5,466.05Zm74.64,0a27,27,0,1,0,27,27A27,27,0,0,0,2983.14,466.05Zm74.64,0a27,27,0,1,0,27,27A27,27,0,0,0,3057.78,466.05Zm74.64,0a27,27,0,1,0,27,27A27,27,0,0,0,3132.42,466.05Zm74.63,0a27,27,0,1,0,27,27A27,27,0,0,0,3207.05,466.05Zm74.64,0a27,27,0,1,0,27,27A27,27,0,0,0,3281.69,466.05Zm74.64,0a27,27,0,1,0,27,27A27,27,0,0,0,3356.33,466.05Zm74.64,0a27,27,0,1,0,27,27A27,27,0,0,0,3431,466.05Zm74.64,0a27,27,0,1,0,27,27A27,27,0,0,0,3505.61,466.05Zm74.63,0a27,27,0,1,0,27,27A27,27,0,0,0,3580.24,466.05Zm74.64,0a27,27,0,1,0,27,27A27,27,0,0,0,3654.88,466.05Zm74.64,0a27,27,0,1,0,27,27A27,27,0,0,0,3729.52,466.05Zm74.64,0a27,27,0,1,0,27,27A27,27,0,0,0,3804.16,466.05Zm74.64,0a27,27,0,1,0,27,27A27,27,0,0,0,3878.8,466.05Zm74.63,0a27,27,0,1,0,27,27A27,27,0,0,0,3953.43,466.05Zm74.64,0a27,27,0,1,0,27,27A27,27,0,0,0,4028.07,466.05Zm149.28,0a27,27,0,1,0,27,27A27,27,0,0,0,4177.35,466.05Zm-74.64,0a27,27,0,1,0,27,27A27,27,0,0,0,4102.71,466.05Z"/><path class="cls-48" d="M-2.39,538a27,27,0,0,0-27,27,27,27,0,0,0,27,27,27,27,0,0,0,27-27A27,27,0,0,0-2.39,538Zm74.64,0a27,27,0,1,0,27,27A27,27,0,0,0,72.25,538Zm74.64,0a27,27,0,1,0,27,27A27,27,0,0,0,146.89,538Zm74.64,0a27,27,0,1,0,27,27A27,27,0,0,0,221.53,538Zm74.63,0a27,27,0,1,0,27,27A27,27,0,0,0,296.16,538Zm74.64,0a27,27,0,1,0,27,27A27,27,0,0,0,370.8,538Zm74.64,0a27,27,0,1,0,27,27A27,27,0,0,0,445.44,538Zm74.64,0a27,27,0,1,0,27,27A27,27,0,0,0,520.08,538Zm74.64,0a27,27,0,1,0,27,27A27,27,0,0,0,594.72,538Zm74.63,0a27,27,0,1,0,27,27A27,27,0,0,0,669.35,538ZM744,538a27,27,0,1,0,27,27A27,27,0,0,0,744,538Zm74.64,0a27,27,0,1,0,27,27A27,27,0,0,0,818.63,538Zm74.64,0a27,27,0,1,0,27,27A27,27,0,0,0,893.27,538Zm74.64,0a27,27,0,1,0,27,27A27,27,0,0,0,967.91,538Zm74.63,0a27,27,0,1,0,27,27A27,27,0,0,0,1042.54,538Zm74.64,0a27,27,0,1,0,27,27A27,27,0,0,0,1117.18,538Zm74.64,0a27,27,0,1,0,27,27A27,27,0,0,0,1191.82,538Zm74.64,0a27,27,0,1,0,27,27A27,27,0,0,0,1266.46,538Zm74.64,0a27,27,0,1,0,27,27A27,27,0,0,0,1341.1,538Zm74.63,0a27,27,0,1,0,27,27A27,27,0,0,0,1415.73,538Zm74.64,0a27,27,0,1,0,27,27A27,27,0,0,0,1490.37,538Zm74.64,0a27,27,0,1,0,27,27A27,27,0,0,0,1565,538Zm74.64,0a27,27,0,1,0,27,27A27,27,0,0,0,1639.65,538Zm74.64,0a27,27,0,1,0,27,27A27,27,0,0,0,1714.29,538Zm74.63,0a27,27,0,1,0,27,27A27,27,0,0,0,1788.92,538Zm74.64,0a27,27,0,1,0,27,27A27,27,0,0,0,1863.56,538Zm74.64,0a27,27,0,1,0,27,27A27,27,0,0,0,1938.2,538Zm74.64,0a27,27,0,1,0,27,27A27,27,0,0,0,2012.84,538Zm74.64,0a27,27,0,1,0,27,27A27,27,0,0,0,2087.48,538Zm74.64,0a27,27,0,1,0,27,27A27,27,0,0,0,2162.12,538Zm74.64,0a27,27,0,1,0,27,27A27,27,0,0,0,2236.76,538Zm74.64,0a27,27,0,1,0,27,27A27,27,0,0,0,2311.4,538Zm74.64,0a27,27,0,1,0,27,27A27,27,0,0,0,2386,538Zm74.63,0a27,27,0,1,0,27,27A27,27,0,0,0,2460.67,538Zm74.64,0a27,27,0,1,0,27,27A27,27,0,0,0,2535.31,538Zm74.64,0a27,27,0,1,0,27,27A27,27,0,0,0,2610,538Zm74.64,0a27,27,0,1,0,27,27A27,27,0,0,0,2684.59,538Zm74.64,0a27,27,0,1,0,27,27A27,27,0,0,0,2759.23,538Zm74.63,0a27,27,0,1,0,27,27A27,27,0,0,0,2833.86,538Zm74.64,0a27,27,0,1,0,27,27A27,27,0,0,0,2908.5,538Zm74.64,0a27,27,0,1,0,27,27A27,27,0,0,0,2983.14,538Zm74.64,0a27,27,0,1,0,27,27A27,27,0,0,0,3057.78,538Zm74.64,0a27,27,0,1,0,27,27A27,27,0,0,0,3132.42,538Zm74.63,0a27,27,0,1,0,27,27A27,27,0,0,0,3207.05,538Zm74.64,0a27,27,0,1,0,27,27A27,27,0,0,0,3281.69,538Zm74.64,0a27,27,0,1,0,27,27A27,27,0,0,0,3356.33,538Zm74.64,0a27,27,0,1,0,27,27A27,27,0,0,0,3431,538Zm74.64,0a27,27,0,1,0,27,27A27,27,0,0,0,3505.61,538Zm74.63,0a27,27,0,1,0,27,27A27,27,0,0,0,3580.24,538Zm74.64,0a27,27,0,1,0,27,27A27,27,0,0,0,3654.88,538Zm74.64,0a27,27,0,1,0,27,27A27,27,0,0,0,3729.52,538Zm74.64,0a27,27,0,1,0,27,27A27,27,0,0,0,3804.16,538Zm74.64,0a27,27,0,1,0,27,27A27,27,0,0,0,3878.8,538Zm74.63,0a27,27,0,1,0,27,27A27,27,0,0,0,3953.43,538Zm74.64,0a27,27,0,1,0,27,27A27,27,0,0,0,4028.07,538Zm149.28,0a27,27,0,1,0,27,27A27,27,0,0,0,4177.35,538Zm-74.64,0a27,27,0,1,0,27,27A27,27,0,0,0,4102.71,538Z"/><path class="cls-49" d="M-2.39,610a27,27,0,0,0-27,27,27,27,0,0,0,27,27,27,27,0,0,0,27-27A27,27,0,0,0-2.39,610Zm74.64,0a27,27,0,1,0,27,27A27,27,0,0,0,72.25,610Zm74.64,0a27,27,0,1,0,27,27A27,27,0,0,0,146.89,610Zm74.64,0a27,27,0,1,0,27,27A27,27,0,0,0,221.53,610Zm74.63,0a27,27,0,1,0,27,27A27,27,0,0,0,296.16,610Zm74.64,0a27,27,0,1,0,27,27A27,27,0,0,0,370.8,610Zm74.64,0a27,27,0,1,0,27,27A27,27,0,0,0,445.44,610Zm74.64,0a27,27,0,1,0,27,27A27,27,0,0,0,520.08,610Zm74.64,0a27,27,0,1,0,27,27A27,27,0,0,0,594.72,610Zm74.63,0a27,27,0,1,0,27,27A27,27,0,0,0,669.35,610ZM744,610a27,27,0,1,0,27,27A27,27,0,0,0,744,610Zm74.64,0a27,27,0,1,0,27,27A27,27,0,0,0,818.63,610Zm74.64,0a27,27,0,1,0,27,27A27,27,0,0,0,893.27,610Zm74.64,0a27,27,0,1,0,27,27A27,27,0,0,0,967.91,610Zm74.63,0a27,27,0,1,0,27,27A27,27,0,0,0,1042.54,610Zm74.64,0a27,27,0,1,0,27,27A27,27,0,0,0,1117.18,610Zm74.64,0a27,27,0,1,0,27,27A27,27,0,0,0,1191.82,610Zm74.64,0a27,27,0,1,0,27,27A27,27,0,0,0,1266.46,610Zm74.64,0a27,27,0,1,0,27,27A27,27,0,0,0,1341.1,610Zm74.63,0a27,27,0,1,0,27,27A27,27,0,0,0,1415.73,610Zm74.64,0a27,27,0,1,0,27,27A27,27,0,0,0,1490.37,610Zm74.64,0a27,27,0,1,0,27,27A27,27,0,0,0,1565,610Zm74.64,0a27,27,0,1,0,27,27A27,27,0,0,0,1639.65,610Zm74.64,0a27,27,0,1,0,27,27A27,27,0,0,0,1714.29,610Zm74.63,0a27,27,0,1,0,27,27A27,27,0,0,0,1788.92,610Zm74.64,0a27,27,0,1,0,27,27A27,27,0,0,0,1863.56,610Zm74.64,0a27,27,0,1,0,27,27A27,27,0,0,0,1938.2,610Zm74.64,0a27,27,0,1,0,27,27A27,27,0,0,0,2012.84,610Zm74.64,0a27,27,0,1,0,27,27A27,27,0,0,0,2087.48,610Zm74.64,0a27,27,0,1,0,27,27A27,27,0,0,0,2162.12,610Zm74.64,0a27,27,0,1,0,27,27A27,27,0,0,0,2236.76,610Zm74.64,0a27,27,0,1,0,27,27A27,27,0,0,0,2311.4,610Zm74.64,0a27,27,0,1,0,27,27A27,27,0,0,0,2386,610Zm74.63,0a27,27,0,1,0,27,27A27,27,0,0,0,2460.67,610Zm74.64,0a27,27,0,1,0,27,27A27,27,0,0,0,2535.31,610Zm74.64,0a27,27,0,1,0,27,27A27,27,0,0,0,2610,610Zm74.64,0a27,27,0,1,0,27,27A27,27,0,0,0,2684.59,610Zm74.64,0a27,27,0,1,0,27,27A27,27,0,0,0,2759.23,610Zm74.63,0a27,27,0,1,0,27,27A27,27,0,0,0,2833.86,610Zm74.64,0a27,27,0,1,0,27,27A27,27,0,0,0,2908.5,610Zm74.64,0a27,27,0,1,0,27,27A27,27,0,0,0,2983.14,610Zm74.64,0a27,27,0,1,0,27,27A27,27,0,0,0,3057.78,610Zm74.64,0a27,27,0,1,0,27,27A27,27,0,0,0,3132.42,610Zm74.63,0a27,27,0,1,0,27,27A27,27,0,0,0,3207.05,610Zm74.64,0a27,27,0,1,0,27,27A27,27,0,0,0,3281.69,610Zm74.64,0a27,27,0,1,0,27,27A27,27,0,0,0,3356.33,610Zm74.64,0a27,27,0,1,0,27,27A27,27,0,0,0,3431,610Zm74.64,0a27,27,0,1,0,27,27A27,27,0,0,0,3505.61,610Zm74.63,0a27,27,0,1,0,27,27A27,27,0,0,0,3580.24,610Zm74.64,0a27,27,0,1,0,27,27A27,27,0,0,0,3654.88,610Zm74.64,0a27,27,0,1,0,27,27A27,27,0,0,0,3729.52,610Zm74.64,0a27,27,0,1,0,27,27A27,27,0,0,0,3804.16,610Zm74.64,0a27,27,0,1,0,27,27A27,27,0,0,0,3878.8,610Zm74.63,0a27,27,0,1,0,27,27A27,27,0,0,0,3953.43,610Zm74.64,0a27,27,0,1,0,27,27A27,27,0,0,0,4028.07,610Zm149.28,0a27,27,0,1,0,27,27A27,27,0,0,0,4177.35,610Zm-74.64,0a27,27,0,1,0,27,27A27,27,0,0,0,4102.71,610Z"/><path class="cls-50" d="M-2.39,681.93a27,27,0,0,0-27,27,27,27,0,0,0,27,27,27,27,0,0,0,27-27A27,27,0,0,0-2.39,681.93Zm74.64,0a27,27,0,1,0,27,27A27,27,0,0,0,72.25,681.93Zm74.64,0a27,27,0,1,0,27,27A27,27,0,0,0,146.89,681.93Zm74.64,0a27,27,0,1,0,27,27A27,27,0,0,0,221.53,681.93Zm74.63,0a27,27,0,1,0,27,27A27,27,0,0,0,296.16,681.93Zm74.64,0a27,27,0,1,0,27,27A27,27,0,0,0,370.8,681.93Zm74.64,0a27,27,0,1,0,27,27A27,27,0,0,0,445.44,681.93Zm74.64,0a27,27,0,1,0,27,27A27,27,0,0,0,520.08,681.93Zm74.64,0a27,27,0,1,0,27,27A27,27,0,0,0,594.72,681.93Zm74.63,0a27,27,0,1,0,27,27A27,27,0,0,0,669.35,681.93Zm74.64,0a27,27,0,1,0,27,27A27,27,0,0,0,744,681.93Zm74.64,0a27,27,0,1,0,27,27A27,27,0,0,0,818.63,681.93Zm74.64,0a27,27,0,1,0,27,27A27,27,0,0,0,893.27,681.93Zm74.64,0a27,27,0,1,0,27,27A27,27,0,0,0,967.91,681.93Zm74.63,0a27,27,0,1,0,27,27A27,27,0,0,0,1042.54,681.93Zm74.64,0a27,27,0,1,0,27,27A27,27,0,0,0,1117.18,681.93Zm74.64,0a27,27,0,1,0,27,27A27,27,0,0,0,1191.82,681.93Zm74.64,0a27,27,0,1,0,27,27A27,27,0,0,0,1266.46,681.93Zm74.64,0a27,27,0,1,0,27,27A27,27,0,0,0,1341.1,681.93Zm74.63,0a27,27,0,1,0,27,27A27,27,0,0,0,1415.73,681.93Zm74.64,0a27,27,0,1,0,27,27A27,27,0,0,0,1490.37,681.93Zm74.64,0a27,27,0,1,0,27,27A27,27,0,0,0,1565,681.93Zm74.64,0a27,27,0,1,0,27,27A27,27,0,0,0,1639.65,681.93Zm74.64,0a27,27,0,1,0,27,27A27,27,0,0,0,1714.29,681.93Zm74.63,0a27,27,0,1,0,27,27A27,27,0,0,0,1788.92,681.93Zm74.64,0a27,27,0,1,0,27,27A27,27,0,0,0,1863.56,681.93Zm74.64,0a27,27,0,1,0,27,27A27,27,0,0,0,1938.2,681.93Zm74.64,0a27,27,0,1,0,27,27A27,27,0,0,0,2012.84,681.93Zm74.64,0a27,27,0,1,0,27,27A27,27,0,0,0,2087.48,681.93Zm74.64,0a27,27,0,1,0,27,27A27,27,0,0,0,2162.12,681.93Zm74.64,0a27,27,0,1,0,27,27A27,27,0,0,0,2236.76,681.93Zm74.64,0a27,27,0,1,0,27,27A27,27,0,0,0,2311.4,681.93Zm74.64,0a27,27,0,1,0,27,27A27,27,0,0,0,2386,681.93Zm74.63,0a27,27,0,1,0,27,27A27,27,0,0,0,2460.67,681.93Zm74.64,0a27,27,0,1,0,27,27A27,27,0,0,0,2535.31,681.93Zm74.64,0a27,27,0,1,0,27,27A27,27,0,0,0,2610,681.93Zm74.64,0a27,27,0,1,0,27,27A27,27,0,0,0,2684.59,681.93Zm74.64,0a27,27,0,1,0,27,27A27,27,0,0,0,2759.23,681.93Zm74.63,0a27,27,0,1,0,27,27A27,27,0,0,0,2833.86,681.93Zm74.64,0a27,27,0,1,0,27,27A27,27,0,0,0,2908.5,681.93Zm74.64,0a27,27,0,1,0,27,27A27,27,0,0,0,2983.14,681.93Zm74.64,0a27,27,0,1,0,27,27A27,27,0,0,0,3057.78,681.93Zm74.64,0a27,27,0,1,0,27,27A27,27,0,0,0,3132.42,681.93Zm74.63,0a27,27,0,1,0,27,27A27,27,0,0,0,3207.05,681.93Zm74.64,0a27,27,0,1,0,27,27A27,27,0,0,0,3281.69,681.93Zm74.64,0a27,27,0,1,0,27,27A27,27,0,0,0,3356.33,681.93Zm74.64,0a27,27,0,1,0,27,27A27,27,0,0,0,3431,681.93Zm74.64,0a27,27,0,1,0,27,27A27,27,0,0,0,3505.61,681.93Zm74.63,0a27,27,0,1,0,27,27A27,27,0,0,0,3580.24,681.93Zm74.64,0a27,27,0,1,0,27,27A27,27,0,0,0,3654.88,681.93Zm74.64,0a27,27,0,1,0,27,27A27,27,0,0,0,3729.52,681.93Zm74.64,0a27,27,0,1,0,27,27A27,27,0,0,0,3804.16,681.93Zm74.64,0a27,27,0,1,0,27,27A27,27,0,0,0,3878.8,681.93Zm74.63,0a27,27,0,1,0,27,27A27,27,0,0,0,3953.43,681.93Zm74.64,0a27,27,0,1,0,27,27A27,27,0,0,0,4028.07,681.93Zm149.28,0a27,27,0,1,0,27,27A27,27,0,0,0,4177.35,681.93Zm-74.64,0a27,27,0,1,0,27,27A27,27,0,0,0,4102.71,681.93Z"/><path class="cls-43" d="M-2.39,753.89a27,27,0,0,0-27,27,27,27,0,0,0,27,27,27,27,0,0,0,27-27A27,27,0,0,0-2.39,753.89Zm74.64,0a27,27,0,1,0,27,27A27,27,0,0,0,72.25,753.89Zm74.64,0a27,27,0,1,0,27,27A27,27,0,0,0,146.89,753.89Zm74.64,0a27,27,0,1,0,27,27A27,27,0,0,0,221.53,753.89Zm74.63,0a27,27,0,1,0,27,27A27,27,0,0,0,296.16,753.89Zm74.64,0a27,27,0,1,0,27,27A27,27,0,0,0,370.8,753.89Zm74.64,0a27,27,0,1,0,27,27A27,27,0,0,0,445.44,753.89Zm74.64,0a27,27,0,1,0,27,27A27,27,0,0,0,520.08,753.89Zm74.64,0a27,27,0,1,0,27,27A27,27,0,0,0,594.72,753.89Zm74.63,0a27,27,0,1,0,27,27A27,27,0,0,0,669.35,753.89Zm74.64,0a27,27,0,1,0,27,27A27,27,0,0,0,744,753.89Zm74.64,0a27,27,0,1,0,27,27A27,27,0,0,0,818.63,753.89Zm74.64,0a27,27,0,1,0,27,27A27,27,0,0,0,893.27,753.89Zm74.64,0a27,27,0,1,0,27,27A27,27,0,0,0,967.91,753.89Zm74.63,0a27,27,0,1,0,27,27A27,27,0,0,0,1042.54,753.89Zm74.64,0a27,27,0,1,0,27,27A27,27,0,0,0,1117.18,753.89Zm74.64,0a27,27,0,1,0,27,27A27,27,0,0,0,1191.82,753.89Zm74.64,0a27,27,0,1,0,27,27A27,27,0,0,0,1266.46,753.89Zm74.64,0a27,27,0,1,0,27,27A27,27,0,0,0,1341.1,753.89Zm74.63,0a27,27,0,1,0,27,27A27,27,0,0,0,1415.73,753.89Zm74.64,0a27,27,0,1,0,27,27A27,27,0,0,0,1490.37,753.89Zm74.64,0a27,27,0,1,0,27,27A27,27,0,0,0,1565,753.89Zm74.64,0a27,27,0,1,0,27,27A27,27,0,0,0,1639.65,753.89Zm74.64,0a27,27,0,1,0,27,27A27,27,0,0,0,1714.29,753.89Zm74.63,0a27,27,0,1,0,27,27A27,27,0,0,0,1788.92,753.89Zm74.64,0a27,27,0,1,0,27,27A27,27,0,0,0,1863.56,753.89Zm74.64,0a27,27,0,1,0,27,27A27,27,0,0,0,1938.2,753.89Zm74.64,0a27,27,0,1,0,27,27A27,27,0,0,0,2012.84,753.89Zm74.64,0a27,27,0,1,0,27,27A27,27,0,0,0,2087.48,753.89Zm74.64,0a27,27,0,1,0,27,27A27,27,0,0,0,2162.12,753.89Zm74.64,0a27,27,0,1,0,27,27A27,27,0,0,0,2236.76,753.89Zm74.64,0a27,27,0,1,0,27,27A27,27,0,0,0,2311.4,753.89Zm74.64,0a27,27,0,1,0,27,27A27,27,0,0,0,2386,753.89Zm74.63,0a27,27,0,1,0,27,27A27,27,0,0,0,2460.67,753.89Zm74.64,0a27,27,0,1,0,27,27A27,27,0,0,0,2535.31,753.89Zm74.64,0a27,27,0,1,0,27,27A27,27,0,0,0,2610,753.89Zm74.64,0a27,27,0,1,0,27,27A27,27,0,0,0,2684.59,753.89Zm74.64,0a27,27,0,1,0,27,27A27,27,0,0,0,2759.23,753.89Zm74.63,0a27,27,0,1,0,27,27A27,27,0,0,0,2833.86,753.89Zm74.64,0a27,27,0,1,0,27,27A27,27,0,0,0,2908.5,753.89Zm74.64,0a27,27,0,1,0,27,27A27,27,0,0,0,2983.14,753.89Zm74.64,0a27,27,0,1,0,27,27A27,27,0,0,0,3057.78,753.89Zm74.64,0a27,27,0,1,0,27,27A27,27,0,0,0,3132.42,753.89Zm74.63,0a27,27,0,1,0,27,27A27,27,0,0,0,3207.05,753.89Zm74.64,0a27,27,0,1,0,27,27A27,27,0,0,0,3281.69,753.89Zm74.64,0a27,27,0,1,0,27,27A27,27,0,0,0,3356.33,753.89Zm74.64,0a27,27,0,1,0,27,27A27,27,0,0,0,3431,753.89Zm74.64,0a27,27,0,1,0,27,27A27,27,0,0,0,3505.61,753.89Zm74.63,0a27,27,0,1,0,27,27A27,27,0,0,0,3580.24,753.89Zm74.64,0a27,27,0,1,0,27,27A27,27,0,0,0,3654.88,753.89Zm74.64,0a27,27,0,1,0,27,27A27,27,0,0,0,3729.52,753.89Zm74.64,0a27,27,0,1,0,27,27A27,27,0,0,0,3804.16,753.89Zm74.64,0a27,27,0,1,0,27,27A27,27,0,0,0,3878.8,753.89Zm74.63,0a27,27,0,1,0,27,27A27,27,0,0,0,3953.43,753.89Zm74.64,0a27,27,0,1,0,27,27A27,27,0,0,0,4028.07,753.89Zm149.28,0a27,27,0,1,0,27,27A27,27,0,0,0,4177.35,753.89Zm-74.64,0a27,27,0,1,0,27,27A27,27,0,0,0,4102.71,753.89Z"/><path class="cls-51" d="M1316.28,392.51c10-7.81,28-10.61,39.93-6.23l25.41,9.33c11.93,4.38,30,1.7,40.13-6l58.79-44.45c10.15-7.67,28.14-10.19,40-5.6,0,0,128,48.38,127.78,48.59,32.37,12,54.39-7.28,54.39-7.28l146-112c10.12-7.68,26.41-11.22,36.21-7.86s142.26,53.25,142,53.46c32.37,12,54.4-7.28,54.4-7.28l29-21.41c10.13-7.69,26.41-11.23,36.21-7.86S2454.44,392.82,2454.24,393c32.36,12,54.38-7.28,54.38-7.28l29-21.41c10.12-7.68,26.41-11.22,36.21-7.86s304.7,113.7,304.51,113.88c32.36,12,54.39-7.28,54.39-7.28l200.71-139V219.82H1042.65V518.27h112Z"/></g></g></g></svg>