<svg id="Layer_1" enable-background="new 0 0 512 512" viewBox="0 0 512 512" xmlns="http://www.w3.org/2000/svg"><g clip-rule="evenodd" fill-rule="evenodd"><path d="m47.969 344.867h56.3c2.761 0 5 2.239 5 5v97.246c0 2.761-2.239 5-5 5h-56.3c-2.761 0-5-2.239-5-5v-97.246c-.001-2.761 2.238-5 5-5z" fill="#e4404d"/><path d="m97.269 452.114h-49.3c-2.761 0-5-2.239-5-5v-90.247h49.3c2.761 0 5 2.239 5 5z" fill="#fd4755"/><path d="m137.537 294.963h56.301c2.761 0 5 2.239 5 5v147.151c0 2.761-2.239 5-5 5h-56.301c-2.761 0-5-2.239-5-5v-147.151c0-2.761 2.239-5 5-5z" fill="#00cd8a"/><path d="m186.838 452.114h-49.301c-2.761 0-5-2.239-5-5v-140.151h49.3c2.761 0 5 2.239 5 5v140.151z" fill="#00e499"/><path d="m227.107 215.63h56.3c2.761 0 5 2.239 5 5v225.204c0 2.761-2.239 5-5 5h-56.3c-2.761 0-5-2.239-5-5v-225.204c-.001-2.761 2.238-5 5-5z" fill="#e6bd5c"/><path d="m276.407 450.834h-49.3c-2.761 0-5-2.239-5-5v-218.204h49.3c2.761 0 5 2.239 5 5z" fill="#ffd266"/><path d="m316.676 145.254h56.3c2.761 0 5 2.239 5 5v296.859c0 2.761-2.239 5-5 5h-56.3c-2.761 0-5-2.239-5-5v-296.859c0-2.761 2.238-5 5-5z" fill="#56a5e6"/><path d="m365.976 452.114h-49.3c-2.761 0-5-2.239-5-5v-289.86h49.3c2.761 0 5 2.239 5 5z" fill="#60b7ff"/><path d="m30.659 250.879 249.798-195.271-9.475-12.121c-2.383-3.05-.462-7.499 3.242-8.008l66.936-9.425c3.749-.523 6.82 3.223 5.254 6.942l-25.247 62.536c-1.525 3.792-6.391 4.133-8.702 1.022l-9.325-11.929-249.801 195.273c-2.168 1.693-5.299 1.308-6.992-.859l-16.547-21.168c-1.694-2.168-1.309-5.299.859-6.992z" fill="#00cd8a"/><path d="m30.659 250.879 251.925-196.934-12.187-15.59c.676-1.474 2.045-2.631 3.827-2.875l66.936-9.425c1.621-.226 3.114.346 4.162 1.368l-25.192 62.398c-1.525 3.792-6.391 4.133-8.702 1.022l-9.325-11.929-249.801 195.273c-2.168 1.693-5.299 1.308-6.992-.859l-16.11-20.608c.322-.7.81-1.335 1.459-1.841z" fill="#00e499"/><circle cx="387.543" cy="390.282" fill="#eceff1" r="90.713"/><path d="m390.191 403.401v77.594h-5.297v-77.594c-.662-3.294-1.63-6.512-2.886-9.611-1.297-3.198-2.891-6.258-4.763-9.135l4.428-2.876c2.076 3.189 3.828 6.547 5.238 10.025.218.538.428 1.08.631 1.624.202-.544.412-1.086.63-1.624 1.41-3.478 3.163-6.836 5.238-10.025l4.428 2.876c-1.872 2.877-3.466 5.937-4.763 9.135-1.254 3.1-2.222 6.317-2.884 9.611z" fill="#7d9d30"/><path d="m320.826 356.028c11.978-2.345 23.828-.883 34.297 3.544 10.781 4.559 20.09 12.266 26.561 22.2.794 1.223.447 2.858-.776 3.652-2.17 1.415-4.479 2.629-6.904 3.612-2.38.964-4.885 1.715-7.495 2.227-11.026 2.159-21.886-.359-30.532-6.173-8.651-5.818-15.081-14.931-17.24-25.958-.281-1.434.655-2.823 2.089-3.104z" fill="#9ac13b"/><path d="m378.588 386.831c-1.475.828-3.005 1.566-4.585 2.207-2.38.964-4.885 1.715-7.495 2.227-11.026 2.159-21.886-.359-30.532-6.173-8.202-5.516-14.407-13.993-16.869-24.257 11.508-1.976 22.852-.462 32.921 3.796 10.78 4.558 20.089 12.265 26.56 22.2z" fill="#abd641"/><path d="m419.963 359.573c10.47-4.427 22.319-5.889 34.297-3.544 1.434.28 2.37 1.67 2.09 3.104-2.159 11.028-8.589 20.14-17.24 25.958-8.645 5.814-19.506 8.332-30.532 6.173-2.611-.511-5.115-1.263-7.495-2.227-2.426-.983-4.734-2.197-6.904-3.612-1.223-.794-1.57-2.429-.776-3.652 6.47-9.934 15.779-17.641 26.56-22.2z" fill="#9ac13b"/><path d="m455.884 361.222c-2.524 10.089-8.676 18.422-16.774 23.868-8.645 5.814-19.506 8.332-30.532 6.173-2.611-.511-5.115-1.263-7.495-2.227-1.58-.64-3.11-1.378-4.585-2.206 6.46-9.759 15.672-17.334 26.321-21.837 10.11-4.275 21.508-5.784 33.065-3.771z" fill="#abd641"/><path d="m387.543 294.569c52.86 0 95.714 42.854 95.714 95.714s-42.854 95.713-95.714 95.713c-52.859 0-95.714-42.853-95.714-95.713 0-52.861 42.854-95.714 95.714-95.714zm60.609 35.104c-33.473-33.473-87.745-33.473-121.218 0-33.472 33.472-33.473 87.745 0 121.218s87.745 33.473 121.218 0c33.472-33.473 33.472-87.746 0-121.218z" fill="#d4d7d9"/></g></svg>