<svg width="100" height="97" viewBox="0 0 100 97" fill="none" xmlns="http://www.w3.org/2000/svg">
<path d="M1.2127 96.5375C0.277616 96.0179 -0.00426949 95.2456 4.87079e-05 94.2532C0.0247802 85.2228 0.00910374 76.1925 0.016955 67.1617C0.0216658 61.5512 3.63793 57.7547 9.64926 56.9655C12.1723 56.6344 14.6831 56.2256 17.2407 55.846C17.2065 54.5942 17.4162 53.5453 18.986 53.3275C18.986 51.4086 19.0202 49.5356 18.9519 47.6659C18.9409 47.3603 18.5314 47.0003 18.2139 46.781C13.1541 43.2836 9.58726 38.766 8.0123 33.1052C5.14658 22.8034 7.96009 13.8801 16.5243 6.81054C22.733 1.68567 30.2161 -0.34577 38.4634 0.884169C49.6425 2.55129 57.2354 8.52393 60.7167 18.4589C63.8101 27.2882 61.8551 35.501 55.4563 42.6748C54.0777 44.2209 52.2636 45.4287 50.6993 46.8393C50.3621 47.1432 50.0672 47.6408 50.0449 48.0634C49.9664 49.56 50.0253 51.0621 50.0084 52.5617C50.0029 53.0324 50.0606 53.3329 50.66 53.5205C51.4887 53.7796 51.6591 54.2645 51.78 55.8431C53.7923 56.1477 55.8352 56.4624 57.88 56.7652C60.3705 57.1357 62.8656 57.4807 65.3517 57.8745C66.094 57.9922 66.5565 57.8705 67.0103 57.2311C70.9128 51.7281 74.8615 46.2542 78.8516 40.6976C77.744 39.5267 76.6382 38.3577 75.534 37.1907C72.773 34.2849 70.012 31.3795 67.2509 28.4744C66.0218 27.1763 66.0807 26.428 67.5116 25.3314C69.9106 23.4931 72.6624 23.0216 75.8002 23.6264C75.8222 23.2566 75.8575 22.9324 75.8579 22.6081C75.8626 19.7646 75.9364 16.9189 75.8422 14.078C75.7213 10.4096 78.4814 8.44852 81.7534 8.54543C85.9244 8.66893 90.1028 8.56837 94.2762 8.57748C97.8964 8.58513 99.9911 10.5204 99.9935 13.8637C99.9994 22.5506 100.014 31.2374 99.9613 39.9238C99.957 40.6426 99.6371 41.47 99.1817 42.0598C89.3637 54.7804 79.5167 67.4818 69.6409 80.1643C69.1388 80.8098 68.9307 81.443 68.937 82.2299C68.9684 86.2921 68.9346 90.3542 68.9637 94.4164C68.9704 95.3891 68.6665 96.1218 67.6785 96.5375H1.2127ZM51.7243 59.0975C51.7243 59.8389 51.7184 60.4291 51.7243 61.0193C51.7353 61.878 51.4126 62.4977 50.5026 62.8773C50.2392 62.9866 50.0496 63.4992 50.05 63.8268C50.05 64.1047 50.3024 64.5139 50.5662 64.6352C51.3203 64.9831 51.7085 65.5001 51.714 66.2535C51.7286 68.3152 51.7349 70.3768 51.7113 72.4385C51.7019 73.2699 51.2744 73.8302 50.3589 74.0867C50.0398 74.1763 49.6743 74.4667 49.5467 74.7494C48.3435 77.4213 46.1946 78.8771 43.0945 78.9103C37.3729 78.9715 31.6501 78.9616 25.9281 78.9136C22.8174 78.8873 20.6776 77.4253 19.4457 74.7829C19.3279 74.5279 19.1046 74.2277 18.8494 74.1297C17.488 73.6069 17.2615 73.3551 17.2517 71.9959C17.2399 70.3091 17.2732 68.6216 17.2403 66.9355C17.2167 65.7351 17.4609 64.7372 18.9601 64.5139V63.0129C18.1145 62.7655 17.3565 62.4121 17.307 61.4733C17.2678 60.7082 17.2988 59.9431 17.2988 59.0895C14.7204 59.467 12.3674 59.8356 10.0065 60.1519C5.79234 60.7166 3.46091 63.1881 3.45856 67.1672C3.45306 75.5392 3.45306 83.911 3.45856 92.2826V93.2746H65.5009C65.5009 89.3356 65.526 85.464 65.4844 81.5931C65.473 80.5428 65.7592 79.6786 66.4297 78.8192C75.6722 66.9507 84.8975 55.0709 94.1054 43.1797C94.3304 42.8883 94.5412 42.5903 94.8584 42.1596H93.7847C90.1496 42.1596 86.514 42.1775 82.8793 42.144C82.1931 42.1378 81.7954 42.3396 81.4193 42.8668C77.2974 48.646 73.1362 54.3989 69.0245 60.1854C68.3532 61.1301 67.552 61.4605 66.3897 61.2634C65.0012 61.0262 63.6024 60.8353 62.2084 60.6302C58.7566 60.1245 55.3044 59.6211 51.7243 59.0975ZM15.5746 26.1737H16.7523C20.2854 26.1737 23.8224 26.1558 27.357 26.1894C28.0263 26.1956 28.373 26.0072 28.6659 25.4469C30.0159 22.865 31.4201 20.3074 32.7964 17.7372C33.2074 16.9696 33.7778 16.4657 34.7777 16.6238C35.7775 16.7819 36.1485 17.4337 36.2415 18.2848C36.4217 19.9311 36.5949 21.5782 36.7758 23.2245C36.9544 24.8622 37.1362 26.4994 37.3199 28.1684C37.4569 28.1123 37.4997 28.1075 37.5162 28.0857C37.5927 27.9855 37.6901 27.8889 37.7298 27.7756C38.1945 26.455 39.2113 26.1223 40.63 26.1511C44.0622 26.2211 47.4971 26.1737 50.9313 26.1737H53.3899V29.3757C52.2742 29.3757 51.2336 29.4183 50.1999 29.3608C49.4933 29.3214 49.1302 29.5761 48.7867 30.1357C45.2568 35.9201 41.709 41.6949 38.1435 47.4601C37.9979 47.6973 37.8726 47.945 37.7188 48.2226C48.5197 47.2317 59.0153 37.9375 58.5921 25.3726C58.1874 13.3439 47.2659 3.58414 34.3258 3.74553C21.0179 3.90947 10.2966 13.8685 10.3763 26.1595C10.4595 39.0043 21.3681 47.3741 31.2509 48.2103C31.1947 48.0842 31.1571 47.9643 31.0919 47.8587C27.4062 41.8685 23.7113 35.8835 20.0071 29.9036C19.8398 29.6347 19.3429 29.4194 18.9864 29.399C17.8609 29.3349 16.7288 29.3753 15.5762 29.3753L15.5746 26.1737ZM84.4774 24.4767H81.0087V11.817C80.781 11.8414 80.6063 11.8283 80.4591 11.8811C79.4695 12.236 79.3113 12.9999 79.3136 13.8663C79.3231 17.7722 79.3136 21.678 79.3191 25.5839C79.3191 26.3613 79.2343 27.0947 78.4092 27.5315C77.6181 27.9509 76.9331 27.6361 76.2332 27.2798C74.4317 26.3617 72.6059 26.3194 70.6874 27.1752C70.8315 27.3599 70.9155 27.4889 71.0211 27.6C74.471 31.2334 77.9138 34.8729 81.3938 38.4815C81.6584 38.7558 82.1876 38.9423 82.5959 38.9456C86.9726 38.9784 91.35 38.9671 95.7267 38.9627C95.9827 38.9627 96.237 38.9165 96.5118 38.8899C96.5275 38.6418 96.5511 38.4578 96.5511 38.2738C96.5527 30.1182 96.5514 21.9627 96.5472 13.8073C96.5472 13.4994 96.5193 13.1752 96.4145 12.887C96.1695 12.2137 95.6859 11.8108 94.7477 11.8622V24.4949H91.3351V11.8287H89.6432V24.4771H86.1835V11.8334H84.4778L84.4774 24.4767ZM45.2952 29.3801C43.7725 29.3801 42.4374 29.3524 41.1058 29.4056C40.8671 29.4151 40.5613 29.7178 40.4271 29.9542C39.6745 31.2785 38.9636 32.6229 38.242 33.9618C37.7604 34.8554 37.382 35.8835 35.9726 35.7105C34.9288 35.5826 34.5315 34.9126 34.3631 33.2284C34.0836 30.4306 33.793 27.6339 33.4913 24.8381C33.4689 24.6257 33.3735 24.4202 33.2616 24.0395C32.4996 25.4436 31.7773 26.6422 31.1912 27.8955C30.6734 29.0026 29.8502 29.4307 28.5838 29.3874C27.0214 29.3338 25.4551 29.3746 23.6874 29.3746L34.495 46.9209L45.2952 29.3801ZM48.2564 56.642H20.7855V59.6852H48.2564V56.642ZM48.283 67.7975H20.8004V70.8865H48.2332C48.2528 70.6523 48.2799 70.4705 48.2811 70.2883C48.2866 69.4799 48.283 68.6711 48.283 67.7975ZM46.4969 49.1761C38.4525 52.5887 30.4573 52.5923 22.5112 49.1866V53.2958H46.4969V49.1761ZM46.5165 63.0132H22.4763V64.4596H46.5165V63.0132ZM45.9767 74.2379H22.9898C23.7749 75.2562 24.7108 75.7247 25.8892 75.7269C31.6411 75.7363 37.3928 75.7347 43.1444 75.7221C44.2769 75.7185 45.2136 75.2835 45.9767 74.2375V74.2379Z" fill="#20665C"/>
</svg>
