<svg fill="none" height="300" viewBox="0 0 22 24" width="300" xmlns="http://www.w3.org/2000/svg" version="1.1" xmlns:xlink="http://www.w3.org/1999/xlink" xmlns:svgjs="http://svgjs.dev/svgjs"><g transform="matrix(1,0,0,1,0,0)"><g fill="#000"><path clip-rule="evenodd" d="m7 9c0-2.20914 1.79086-4 4-4 2.2091 0 4 1.79086 4 4 0 2.2091-1.7909 4-4 4-2.20914 0-4-1.7909-4-4zm4-2c-1.10457 0-2 .89543-2 2 0 1.1046.89543 2 2 2 1.1046 0 2-.8954 2-2 0-1.10457-.8954-2-2-2z" fill-rule="evenodd" fill="#7a9685" fill-opacity="1" data-original-color="#000000ff" stroke="none" stroke-opacity="1"/><path clip-rule="evenodd" d="m11 20 .6353.7722c-.3691.3037-.9019.3034-1.271-.0002l-.0074-.0062-.0193-.0159-.0246-.0206-.0465-.039c-.0616-.0518-.1506-.1273-.2632-.2244-.22522-.1941-.54514-.475-.92826-.8255-.76496-.6997-1.78819-1.6826-2.81463-2.8105-1.02292-1.124-2.06948-2.4144-2.86577-3.7291-.78291-1.2928-1.39464-2.723-1.39464-4.1008 0-4.97056 4.02944-9 9-9 4.9706 0 9 4.02944 9 9 0 1.3778-.6117 2.808-1.3946 4.1008-.7963 1.3147-1.8429 2.6051-2.8658 3.7291-1.0265 1.1279-2.0497 2.1108-2.8146 2.8105-.3832.3505-.7031.6314-.9283.8255-.1126.0971-.2016.1726-.2632.2244-.0307.0259-.0546.0458-.0711.0596l-.0193.0159-.0069.0057s-.0009.0007-.6362-.7715zm0-18c-3.86599 0-7 3.13401-7 7 0 .8313.38827 1.8807 1.10536 3.0647.70371 1.1619 1.65715 2.3454 2.63423 3.4191.97356 1.0698 1.95033 2.0085 2.68541 2.6809.2149.1967.4087.37.575.5167.1663-.1467.3601-.32.575-.5167.7351-.6724 1.7119-1.6111 2.6854-2.6809.9771-1.0737 1.9305-2.2572 2.6342-3.4191.7171-1.184 1.1054-2.2334 1.1054-3.0647 0-3.86599-3.134-7-7-7zm-.6357 18.772s.0004.0002.6357-.772z" fill-rule="evenodd" fill="#7a9685" fill-opacity="1" data-original-color="#000000ff" stroke="none" stroke-opacity="1"/><path d="m2.37882 19.6378c-.27449.1919-.3522.3175-.37297.3623.02052.0442.09607.1658.35853.352.38177.2708.99908.5555 1.8519.8114 1.69291.5079 4.09158.8365 6.78372.8365 2.6921 0 5.0908-.3286 6.7837-.8365.8528-.2559 1.4701-.5406 1.8519-.8114.2625-.1862.338-.3078.3585-.352-.0207-.0448-.0984-.1704-.3729-.3623-.3942-.2757-1.0295-.5639-1.9033-.8209-.5299-.1558-.8331-.7116-.6773-1.2415.1559-.5298.7117-.833 1.2415-.6772.9775.2875 1.8423.6509 2.4852 1.1006.6149.4299 1.2327 1.0908 1.2327 2.0012 0 .899-.603 1.5548-1.2073 1.9834-.6303.447-1.4775.8087-2.4343 1.0957-1.9264.578-4.5277.9209-7.3584.9209-2.83071 0-5.43204-.3429-7.35842-.9209-.95682-.287-1.80398-.6487-2.43426-1.0957-.604306-.4286-1.20732-1.0844-1.20732-1.9834 0-.9104.617839-1.5713 1.23266-2.0012.64298-.4497 1.5077-.8131 2.48519-1.1006.52985-.1558 1.0857.1474 1.24152.6772.15583.5299-.14738 1.0857-.67722 1.2415-.87387.257-1.50915.5452-1.90333.8209z" fill="#7a9685" fill-opacity="1" data-original-color="#000000ff" stroke="none" stroke-opacity="1"/></g></g></svg>