<svg width="1057" height="1057" viewBox="0 0 1057 1057" fill="none" xmlns="http://www.w3.org/2000/svg">
<path d="M900.481 314.91C898.566 320.657 896.617 326.438 894.668 332.251C916.931 441.122 908.706 559.407 852.52 688.56C860.679 605.618 859.324 526.277 846.508 450.239C831.38 479.67 812.09 508.209 792.337 536.913C795.145 619.392 779.752 706.429 739.388 799.313C745.862 733.35 744.673 669.765 738.199 607.93C711.741 638.022 682.211 666.924 649.113 693.382C641.285 745.704 626.52 799.842 602.176 855.896C606.536 811.37 607.263 767.372 605.776 724.696C532.414 774.573 445.311 814.475 339.776 836.639C428.663 786.761 499.581 735.299 557.65 682.548C519.466 674.587 480.159 669.368 440.885 665.702C492.81 652.588 544.074 647.469 593.753 648.856C629.262 612.555 658.924 576.022 682.838 538.102C616.611 526.178 549.59 522.743 481.81 527.268C559.599 489.612 637.123 476.466 714.119 481.52C734.004 440.561 747.613 398.182 757.456 355.142C698.892 349.593 635.108 363.499 562.439 381.633C628.04 321.516 698.958 295.422 769.479 287.758C773.146 257.931 775.062 228.038 775.425 197.22C450.133 -34.2304 536.312 744.217 26.7717 869.273C446.037 1129 1257.88 752.343 900.481 314.91ZM824.708 60.9657C845.451 50.8911 870.621 50.2966 889.713 68.1995C900.613 170.696 867.252 387.381 735.622 538.862C836.004 355.935 843.337 223.479 824.708 60.9987V60.9657Z" fill="#7A9685"/>
</svg>
