<svg width="100" height="100" viewBox="0 0 100 100" fill="none" xmlns="http://www.w3.org/2000/svg">
<g clip-path="url(#clip0_4111_975)">
<path d="M46.0955 99.9997C43.8778 99.4891 41.9632 98.4771 41.0334 96.2994C40.5742 95.2263 40.3323 93.9927 40.2842 92.8212C40.1758 90.1895 40.2749 87.5497 40.2235 84.9144C40.2157 84.5144 39.9541 83.9963 39.64 83.7451C37.8663 82.3268 36.9717 80.5051 36.9391 78.2531C36.9188 76.8292 36.9354 75.4039 36.9354 73.7099C36.0686 74.5724 35.3756 75.2725 34.6711 75.9608C33.6807 76.9284 33.0617 76.9935 31.9192 76.2242C30.5462 75.2992 29.1865 74.3563 27.6844 73.3273C27.3629 74.8181 27.065 76.1972 26.769 77.5767C26.6873 77.9582 26.6377 78.3486 26.5274 78.7212C26.2803 79.5567 25.7334 80.0655 24.834 80.0714C22.6881 80.0859 20.5385 80.0955 18.3911 80.0714C17.3662 80.0588 16.8401 79.5745 16.5978 78.4914C16.2241 76.8222 15.8767 75.1467 15.4849 73.3169C14.0908 74.2742 12.8154 75.1504 11.5394 76.0259C10.0365 77.0575 9.53777 77.0135 8.2554 75.7328C6.87388 74.353 5.48793 72.9776 4.11603 71.5885C3.14704 70.6068 3.09301 69.9859 3.86739 68.8355C4.79235 67.4634 5.731 66.1032 6.75327 64.6049C5.22116 64.2771 3.80856 63.9637 2.39152 63.6743C0.245614 63.2366 0.00254076 62.9506 0.00254076 60.76C0.00254076 59.0023 -0.00819384 57.2447 0.00660552 55.4874C0.0165951 54.3063 0.455033 53.7631 1.60494 53.5067C3.25063 53.14 4.90224 52.7992 6.70776 52.414C6.50057 52.0809 6.34924 51.8182 6.17905 51.5681C5.35547 50.3593 4.52917 49.1517 3.70016 47.9451C3.14037 47.1274 3.20586 46.3366 3.88515 45.6428C5.48089 44.0169 7.08477 42.3984 8.72047 40.8139C9.48374 40.0739 10.1604 40.0635 11.1021 40.6955C12.5254 41.6502 13.9287 42.6356 15.4749 43.7005C15.8427 41.9784 16.1694 40.4013 16.5183 38.8291C16.8494 37.3357 17.1472 37.074 18.5902 36.8894C18.9572 34.865 19.1988 32.8265 19.7053 30.8579C21.9041 22.3102 26.8612 15.7977 34.4488 11.313C39.1683 8.52296 44.3129 7.19308 49.7817 7.07541C49.9766 7.07097 50.1805 7.04063 50.3655 7.08503C52.551 7.61121 54.345 6.93702 55.9241 5.40029C56.5716 4.77124 57.3589 4.28095 58.0963 3.74663C59.2433 2.91517 60.0883 3.02581 60.9452 4.14367C62.0921 5.64192 63.2176 7.15644 64.3438 8.67023C64.8341 9.32926 65.3905 9.85803 66.2948 9.66302C67.2445 9.45803 67.5505 8.73795 67.673 7.87023C67.9419 5.97124 68.2046 4.07077 68.5117 2.17733C68.7393 0.774183 69.4285 0.309428 70.8308 0.508873C73.7596 0.926266 76.6876 1.34958 79.6186 1.75032C81.3283 1.98381 81.8456 2.66614 81.5903 4.40269C81.3257 6.20399 81.0845 8.00862 80.8133 9.80918C80.6879 10.6473 80.8037 11.3877 81.5951 11.8443C82.395 12.3043 83.0887 11.9768 83.7495 11.4769C85.2294 10.3587 86.7136 9.24723 88.2019 8.14257C89.4809 7.19493 90.2827 7.3126 91.252 8.59771C93.0346 10.961 94.8105 13.3291 96.5798 15.7023C97.5569 17.014 97.4533 17.7744 96.1669 18.7528C94.6907 19.875 93.2064 20.9865 91.7141 22.0875C91.0093 22.6096 90.5302 23.2316 90.8003 24.1597C91.056 25.0418 91.7704 25.2938 92.5955 25.4041C94.4321 25.649 96.2616 25.9495 98.1012 26.1708C98.944 26.2725 99.526 26.6947 99.9985 27.3441V28.7132C99.6732 30.7599 99.3428 32.8061 99.0254 34.8539C98.8774 35.8178 98.769 36.7884 98.6129 37.7512C98.412 38.9886 97.6509 39.534 96.3959 39.3568C94.4644 39.0842 92.5335 38.8058 90.6034 38.5216C89.808 38.4039 89.0995 38.5046 88.6329 39.245C88.1405 40.0265 88.378 40.7251 88.8897 41.4019C90.0292 42.9067 91.1623 44.4158 92.2887 45.9292C93.2407 47.2128 93.1208 48.0114 91.834 48.9805C89.4686 50.7615 87.0992 52.5371 84.7259 54.307C83.425 55.2765 82.6399 55.1674 81.6717 53.8911C80.5506 52.414 79.4373 50.9308 78.3318 49.4415C77.8335 48.7666 77.2404 48.2822 76.3598 48.4924C75.4286 48.7144 75.1315 49.4622 75.0127 50.3226C74.7545 52.1907 74.4902 54.0581 74.2198 55.9248C74.0252 57.2791 73.374 57.8305 72.0295 57.6521C68.9352 57.2416 65.845 56.8028 62.7588 56.3355C61.3718 56.1235 60.9256 55.4915 61.0984 54.0917C61.3137 52.3492 61.5793 50.6134 61.8235 48.8743C61.8642 48.5845 61.9926 48.2593 61.9071 48.0095C61.7085 47.4312 61.529 46.7544 61.1113 46.3658C60.563 45.8559 59.8212 46.0472 59.2244 46.4898C57.7334 47.5925 56.2516 48.7078 54.7672 49.8201C53.1648 51.0204 52.4877 50.9302 51.299 49.3457C49.5795 47.056 47.8611 44.7657 46.1436 42.475C45.1517 41.1458 45.2697 40.3551 46.5913 39.3582C48.0712 38.2411 49.5512 37.1229 51.0433 36.0213C51.7304 35.5144 52.1532 34.8879 51.9224 34.0206C51.7004 33.1947 51.0451 32.8816 50.2375 32.7743C48.4001 32.5297 46.5661 32.2618 44.7329 31.9921C43.0794 31.749 42.5755 31.124 42.8001 29.4847C43.2108 26.4885 43.6449 23.4957 44.1024 20.5064C44.3181 19.1002 45.0296 18.6029 46.4118 18.7976C48.3117 19.0655 50.2127 19.3237 52.107 19.6264C52.9239 19.757 53.6158 19.6231 54.0738 18.9075C54.5644 18.1408 54.3299 17.4299 53.8126 16.7513C52.689 15.276 51.5628 13.8014 50.4828 12.2932C50.1191 11.7844 49.8978 11.1742 49.6115 10.6103C49.6467 10.4936 49.6821 10.3772 49.7176 10.261C47.6165 10.5696 45.4821 10.7346 43.4194 11.2109C32.3077 13.7755 23.5986 23.1461 22.1761 34.4535C20.762 45.695 24.7263 54.7918 33.8768 61.5744C35.1769 62.5365 36.5037 63.5163 37.6033 64.6886C39.3292 66.5273 40.1521 68.8329 40.2213 71.3547C40.2831 73.5989 40.2335 75.8461 40.252 78.0921C40.2709 80.3493 41.5606 81.7029 43.8157 81.721C48.0791 81.7558 52.3427 81.7558 56.6064 81.721C58.8773 81.7033 60.1504 80.3678 60.163 78.1029C60.1738 76.1173 60.139 74.131 60.1712 72.1454C60.2363 68.1395 61.8524 64.9254 65.129 62.5716C66.4209 61.6436 67.6955 60.6908 69.0745 59.678L71.2559 62.1087C70.1903 62.9276 69.2539 63.7953 68.1832 64.4418C64.7423 66.5187 63.2095 69.5112 63.4674 73.5075C63.5698 75.096 63.4896 76.6964 63.4822 78.2916C63.4714 80.5588 62.5332 82.3519 60.7639 83.7658C60.4509 84.0159 60.203 84.5429 60.1937 84.9466C60.1405 87.2888 60.0594 89.6393 60.1937 91.9771C60.4043 95.6715 58.8914 99.011 54.2995 99.9986L46.0955 99.9997ZM95.5087 35.8637C95.831 33.6398 96.1377 31.5269 96.4573 29.3142C94.9944 29.1025 93.5874 28.8912 92.1781 28.697C90.925 28.5245 89.7732 28.1349 88.8608 27.2117C86.6728 25.0018 86.9458 21.6335 89.5027 19.6138C90.7189 18.6518 91.9768 17.7456 93.2537 16.7857L89.2852 11.5058C87.759 12.6118 86.3856 13.7171 84.9057 14.6543C82.6399 16.0897 79.6889 15.3378 78.2253 13.095C77.3173 11.7048 77.381 10.207 77.6104 8.66986C77.7954 7.43027 77.9633 6.18771 78.1468 4.8915L71.6037 3.97123C71.3736 5.50167 71.1353 6.93739 70.9459 8.37939C70.6443 10.6784 69.4459 12.2699 67.1938 12.8545C64.8807 13.4547 63.07 12.5382 61.6885 10.6532C60.8438 9.50095 59.971 8.36903 59.0668 7.16903L53.7723 11.1405C54.7668 12.4686 55.7221 13.6967 56.6245 14.9626C57.9195 16.7809 58.0833 18.7287 56.9064 20.6325C55.7521 22.499 53.9743 23.2135 51.7981 22.9141C50.2908 22.7069 48.7834 22.4982 47.1895 22.2781C46.8762 24.4845 46.5721 26.6226 46.2594 28.8242C47.8404 29.0548 49.3447 29.1521 50.7784 29.5232C51.8417 29.7989 52.9894 30.2311 53.7915 30.9415C55.9596 32.862 55.8265 36.2589 53.5977 38.179C52.3027 39.2953 50.8949 40.2815 49.4753 41.3741L53.4419 46.6552C54.7398 45.6857 55.9371 44.7921 57.1336 43.8974C58.3638 42.9775 59.7265 42.5368 61.2563 42.8613C64.1008 43.4645 65.644 45.9011 65.1782 48.9753C64.9658 50.3759 64.7797 51.7801 64.5725 53.2462L71.0957 54.1668C71.1741 53.6976 71.237 53.3505 71.2896 53.0016C71.4868 51.6832 71.6152 50.3507 71.8912 49.0493C72.3041 47.1011 73.5228 45.8134 75.4485 45.295C77.3743 44.7766 79.0936 45.2713 80.3978 46.7751C81.5448 48.0954 82.5522 49.5355 83.6474 50.9564L88.9274 46.9905C88.4239 46.3151 87.9784 45.7161 87.5315 45.1185C87.0638 44.4931 86.5828 43.8774 86.1292 43.2421C84.8051 41.3867 84.6837 39.2409 85.7896 37.48C86.8955 35.719 88.8834 34.8898 91.1229 35.2365C92.5355 35.4537 93.9529 35.6417 95.5087 35.8637ZM7.18948 47.1481C7.94943 48.2608 8.72825 49.3416 9.44454 50.4624C10.8394 52.6456 9.8393 55.0737 7.30972 55.671C6.01811 55.9762 4.71613 56.2375 3.37642 56.5276V60.468C4.60588 60.7348 5.80906 60.9861 7.00707 61.2584C10.0173 61.9437 10.947 64.3592 9.1948 66.9261C8.52106 67.913 7.84473 68.8984 7.27088 69.7358L10.2792 72.844C11.2549 72.1754 12.2664 71.4701 13.2901 70.783C15.7043 69.1622 18.144 70.1228 18.7896 72.9495C19.0767 74.2042 19.3397 75.4657 19.6035 76.6801H23.5505C23.8343 75.3676 24.0863 74.1269 24.373 72.8921C25.0149 70.1262 27.4554 69.1693 29.8207 70.7534C30.8688 71.4564 31.9011 72.1813 33.0994 73.0054C33.9678 72.0803 34.7355 71.0919 35.6742 70.309C36.547 69.5804 36.5151 68.9143 35.9676 68.0888C35.8777 67.9533 35.8196 67.7857 35.7056 67.6792C34.0037 66.1017 32.2966 64.5321 30.5728 62.9454C26.8674 67.7831 22.9637 69.4264 18.7459 68.0792C14.5044 66.7245 11.6663 63.0582 11.5616 58.7478C11.5079 56.5298 12.178 54.5146 13.4707 52.7218C15.1501 50.3932 17.4647 49.0674 20.2703 48.6145C19.8466 46.8384 19.4426 45.141 19.0201 43.3675C18.9394 43.5973 18.8643 43.7712 18.817 43.9525C18.02 47.0075 15.7339 47.8807 13.1418 46.1172C12.1532 45.4448 11.1664 44.7703 10.1997 44.1109L7.18948 47.1481ZM22.0395 65.0852C24.1281 65.0209 26.1164 63.8686 27.4254 61.533C27.7447 60.9631 27.7214 60.5938 27.2482 60.1028C25.2077 57.9822 23.4688 55.6262 22.2404 52.9535C21.7594 51.9048 21.1253 51.7982 20.1752 52.0154C16.8942 52.7648 14.6761 55.7509 14.9832 59.0382C15.3054 62.4858 17.993 64.985 22.0384 65.0852H22.0395ZM56.8358 91.761H43.5841C43.5841 92.3945 43.5497 92.9473 43.5904 93.4942C43.7243 95.2852 45.0274 96.6066 46.8188 96.651C49.0913 96.707 51.3649 96.7063 53.6399 96.6491C55.3936 96.6036 56.7192 95.2722 56.8287 93.5705C56.8657 92.9906 56.8347 92.4064 56.8347 91.761H56.8358ZM56.8025 85.1097H43.6244V88.299H56.8014L56.8025 85.1097Z" fill="#20665C"/>
<path d="M51.8182 70.0717H48.5993C48.5175 69.4223 48.482 68.7766 48.3496 68.1475C47.5685 64.4473 45.4441 61.8086 41.9603 60.3377C38.5894 58.9142 35.614 56.9619 33.0933 54.2848C24.3639 45.0137 25.1479 29.5239 34.8074 21.2338C35.7416 20.4319 36.741 19.7056 37.7928 18.8789L39.5406 21.639C38.4159 22.5818 37.297 23.4151 36.2973 24.3738C26.3237 33.9354 29.2702 50.9863 41.8893 56.6337C44.7186 57.8996 47.361 59.3486 49.2013 61.944C50.9176 64.3666 51.8396 67.0382 51.8182 70.0717Z" fill="#20665C"/>
<path d="M79.0291 73.0552L81.1442 70.502L91.0924 78.7862C90.3813 79.6454 89.7083 80.4594 88.9783 81.3423L79.0291 73.0552Z" fill="#20665C"/>
<path d="M71.8423 86.6654V75.1738H75.0282V86.6654H71.8423Z" fill="#20665C"/>
<path d="M81.8076 65.0662V61.8906H93.2978V65.0662H81.8076Z" fill="#20665C"/>
<path d="M48.6648 73.4629H51.8171V78.3103H48.6648V73.4629Z" fill="#20665C"/>
<path d="M17.996 17.3209L16.0646 20.0199L4.45752 11.7276C5.09574 10.8313 5.7077 9.97287 6.38144 9.0293L17.996 17.3209Z" fill="#20665C"/>
<path d="M25.2758 13.2663L22.0721 14.1018C20.9429 9.69291 19.8278 5.33878 18.6782 0.851067L21.8764 0C23.0052 4.40483 24.1214 8.76155 25.2758 13.2663Z" fill="#20665C"/>
<path d="M2.51042 31.8916C2.23515 30.7945 1.98505 29.7987 1.70386 28.6786L14.9593 25.3613L15.767 28.5765L2.51042 31.8916Z" fill="#20665C"/>
<path d="M58.0698 29.0786C58.0606 21.7724 64.0428 15.7976 71.3619 15.8027C78.6909 15.8083 84.6132 21.7602 84.6021 29.1053C84.591 36.3926 78.6801 42.3153 71.3874 42.3505C64.1039 42.3834 58.0791 36.3793 58.0698 29.0786ZM81.2822 29.0635C81.2797 23.5974 76.828 19.1315 71.3737 19.1234C65.9383 19.1149 61.4382 23.5756 61.3897 29.0198C61.3412 34.4274 65.9505 39.0502 71.3752 39.0343C76.7899 39.0187 81.2848 34.4948 81.2822 29.065V29.0635Z" fill="#20665C"/>
</g>
<defs>
<clipPath id="clip0_4111_975">
<rect width="100" height="100" fill="white"/>
</clipPath>
</defs>
</svg>
