<svg width="40" height="40" viewBox="0 0 40 40" fill="none" xmlns="http://www.w3.org/2000/svg">
<path d="M13 2H27C32.3333 2 36.6666 6.33333 36.6666 11.6667V25.6667C36.6666 28.2304 35.6482 30.6892 33.8353 32.502C32.0225 34.3149 29.5637 35.3333 27 35.3333H13C7.66665 35.3333 3.33331 31 3.33331 25.6667V11.6667C3.33331 9.10291 4.35176 6.64415 6.16461 4.8313C7.97747 3.01845 10.4362 2 13 2ZM12.6666 5.33333C11.0753 5.33333 9.54922 5.96547 8.42401 7.09069C7.29879 8.21591 6.66665 9.74203 6.66665 11.3333V26C6.66665 29.3167 9.34998 32 12.6666 32H27.3333C28.9246 32 30.4507 31.3679 31.576 30.2426C32.7012 29.1174 33.3333 27.5913 33.3333 26V11.3333C33.3333 8.01667 30.65 5.33333 27.3333 5.33333H12.6666ZM28.75 7.83333C29.3025 7.83333 29.8324 8.05283 30.2231 8.44353C30.6138 8.83423 30.8333 9.36413 30.8333 9.91667C30.8333 10.4692 30.6138 10.9991 30.2231 11.3898C29.8324 11.7805 29.3025 12 28.75 12C28.1974 12 27.6675 11.7805 27.2768 11.3898C26.8861 10.9991 26.6666 10.4692 26.6666 9.91667C26.6666 9.36413 26.8861 8.83423 27.2768 8.44353C27.6675 8.05283 28.1974 7.83333 28.75 7.83333ZM20 10.3333C22.2101 10.3333 24.3297 11.2113 25.8925 12.7741C27.4553 14.3369 28.3333 16.4565 28.3333 18.6667C28.3333 20.8768 27.4553 22.9964 25.8925 24.5592C24.3297 26.122 22.2101 27 20 27C17.7898 27 15.6702 26.122 14.1074 24.5592C12.5446 22.9964 11.6666 20.8768 11.6666 18.6667C11.6666 16.4565 12.5446 14.3369 14.1074 12.7741C15.6702 11.2113 17.7898 10.3333 20 10.3333ZM20 13.6667C18.6739 13.6667 17.4021 14.1934 16.4644 15.1311C15.5268 16.0688 15 17.3406 15 18.6667C15 19.9927 15.5268 21.2645 16.4644 22.2022C17.4021 23.1399 18.6739 23.6667 20 23.6667C21.3261 23.6667 22.5978 23.1399 23.5355 22.2022C24.4732 21.2645 25 19.9927 25 18.6667C25 17.3406 24.4732 16.0688 23.5355 15.1311C22.5978 14.1934 21.3261 13.6667 20 13.6667Z" fill="white"/>
</svg>
