<svg id="Capa_1" data-name="Capa 1" xmlns="http://www.w3.org/2000/svg" viewBox="0 0 1920 1920"><defs><style>.cls-1{fill:#629268;}.cls-2{fill:#f5a52d;}</style></defs><path class="cls-1" d="M914.86,1515.31c-39.25-2.27-78.35-3.4-117.32-8.44a904.22,904.22,0,0,1-369.8-132.61c-35.7-22.39-69.13-47.75-102-73.94-7-5.58-6.7-7.88.75-13.2a2114.33,2114.33,0,0,1,179.11-114.75c44.84-25.63,90.47-49.87,137.11-72.07,73-34.72,147.33-66.12,223.33-93.66,77-27.91,155.21-52,234.47-72.78,61-16,122.53-29.44,184.41-41.29q72.08-13.8,145-22.66c31.64-3.83,63.28-7.44,95-10.12q37.65-3.18,75.36-5.1c35.58-1.79,71.17-4.23,106.75-2.85,27.37,1.07,54.84,1.45,82.12,4.76,5.77.7,5,3.7,3.93,7.69-5,18.74-11.74,36.89-18.5,55a877,877,0,0,1-44.73,99.82,914.9,914.9,0,0,1-95.56,147.18c-25.93,32.56-54.14,62.89-83.77,92-30.64,30.13-63.73,57.33-98.49,82.47a898.7,898.7,0,0,1-136.2,81.72c-72.6,35-148.36,60.54-227.61,75.52a873,873,0,0,1-108.11,13.77C958.36,1513.17,936.55,1514,914.86,1515.31Z"/><path class="cls-1" d="M1120.09,866.67c-13.45,2.55-24.38,4.51-35.27,6.7-45.92,9.21-91,21.64-135.78,35.3-51.55,15.73-102,34.47-151.91,54.69-63.51,25.73-125.35,55.17-186,87-81.5,42.83-159.79,91.07-235.56,143.34-27,18.6-53.26,38.21-79.58,57.74-4.6,3.41-7.12,3.43-11.34-.36q-33.9-30.43-64.88-63.79A927.85,927.85,0,0,1,73.27,976.87,717.87,717.87,0,0,1,43,910.23c-2.28-5.86.7-7.71,5-9.35,30.63-11.77,61.56-22.74,93-32.06A1616.87,1616.87,0,0,1,306.76,829.2c35.48-6.55,71.12-11.93,106.88-16.71,28.82-3.84,57.73-6.88,86.66-9.46,20.31-1.81,40.77-2.73,61.15-4.08,53.27-3.51,106.59-3.92,159.87-2.78,34.92.75,69.84,3.07,104.72,6a1331.73,1331.73,0,0,1,141.22,19.22c49.84,9.65,98.9,22.44,146.11,41.54C1114.88,863.56,1116.24,864.52,1120.09,866.67Z"/><path class="cls-2" d="M1779.51,779c-3.69,0-6.74.09-9.79,0-34.22-1.22-68.37,1.48-102.56,2.07-29.9.52-59.82,2.08-89.72,3.27-30.19,1.19-60.41,1.86-90.54,3.57-19.89,1.13-39.79-.13-59.58,1.85-3.3.33-3.74-.58-4.17-3.2-2.23-13.59,6.86-24.87,20.58-24.34,34.39,1.35,68.79,2.45,103.19,3.6,27.38.92,54.76,2.18,82.14,3.22,33.28,1.27,66.57,2.2,99.82,3.74,15,.69,30.24-.72,45.08,2.85C1775.72,776,1778,775,1779.51,779Z"/><path class="cls-2" d="M1794.74,684.16c-15.3,1-29.61,1.25-43.77,1.51-26.62.49-53.21,1.87-79.81,2.51-32.71.8-65.43,2.14-98.14,3.3-30.75,1.1-61.47,3.21-92.26,3.08-7.29,0-14.31,2.34-21.69,1.8-12-.87-14-3.66-9.28-14.38,1.14-2.56,2.79-4.93,3.61-7.58,2.19-7.1,7.52-8,13.35-6.42,5,1.38,10,1.26,15,1.27,34.15.09,68.2,3,102.35,3.76,25.12.58,50.25,2.22,75.39,3.24,27.66,1.12,55.39,1.62,83,3.7,16.43,1.24,33.08-1.3,49.28,2.86A24.83,24.83,0,0,1,1794.74,684.16Z"/><path class="cls-2" d="M1786.72,731.48c-14.09-1.16-27.91,2.23-41.88,1.89-25-.61-49.84,1.52-74.76,2.11-31.87.76-63.74,2.13-95.61,3.26-31.6,1.12-63.17,2.59-94.78,3.42-9.72.25-19.49,1.58-29.28,1.32-8.89-.23-11.17-3.15-8.44-11.33,1.68-5,4.39-9.67,6.77-14.42a4.19,4.19,0,0,1,4.84-2.54c15.71,3.52,31.72.89,47.64,2.58,21.65,2.3,43.65,1,65.45,2.27,27.65,1.56,55.31,2.34,83,3.5,25.41,1.08,50.89,1.73,76.22,3.57C1746.15,728.59,1766.7,726,1786.72,731.48Z"/><path class="cls-2" d="M1871.67,542.41c-15.18,1-30.06,1.17-44.79,1.47-26.62.55-53.22,1.88-79.82,2.52-32.72.8-65.45,2.13-98.17,3.31-30.2,1.09-60.36,3.25-90.59,3.06-7,0-13.74,2.47-20.86,1.78-10.91-1.06-12.92-3.9-8.74-13.68,1-2.32,2.58-4.43,3.26-6.81,2.46-8.52,8.78-9.56,15.84-7.84a54.69,54.69,0,0,0,13.32,1.26c34.44-.08,68.78,2.93,103.21,3.73,26,.61,52,2.19,77.94,3.28,26.83,1.12,53.66,2.13,80.46,3.53,13.15.69,26.28.88,39.42,1.27C1865.49,539.39,1868.8,539.38,1871.67,542.41Z"/><path class="cls-2" d="M1877.83,494.32c-15.23-.31-30.18,3.09-45.29,2.75-24.4-.54-48.74,1.49-73.1,2.12-31.32.79-62.65,2.08-94,3.24-31.61,1.18-63.2,2.57-94.82,3.43-9.15.25-18.38,1.58-27.6,1.3-9.71-.28-11.88-4.23-8.1-12.89,4.25-9.75,7.88-16.13,22.07-14.83,21.89,2,44.16,2.29,66.29,2.84,26.25.67,52.52,2.2,78.79,3.26q39.83,1.6,79.64,3.38c27.11,1.2,54.19,2.92,81.34,3.24C1868,492.22,1872.91,493.56,1877.83,494.32Z"/><path class="cls-2" d="M1813.66,636.75c-20.13-1.12-39.87,2.15-59.78,2.36-36.66.37-73.3,2.47-110,3.47-30.76.84-61.55,1.86-92.27,3.48-23.17,1.22-46.4.45-69.56,2.7-13.52,1.32-16.21-3.9-10.26-16,5.87-12,5.85-11.7,19.58-10.85,13.4.82,26.87,1,40.25,1.33,22.4.54,44.79,1.88,67.18,2.5,27.67.76,55.34,2.22,83,3.32,25.14,1,50.35,1.65,75.39,3.57C1776.09,634.06,1795.24,631.41,1813.66,636.75Z"/><path class="cls-2" d="M1839.05,589.61c-9.92-.85-19.71,2.38-29.79,2-26.09-.94-52.11,1.42-78.15,2.07-31.6.78-63.21,2.06-94.81,3.26-31.32,1.18-62.63,2.4-94,3.47-12.83.44-25.7,1.28-38.56,1.27-8.88,0-10.92-3.19-8-11.55,5.28-15,5.91-15.55,22.07-15.37,33.31.38,66.55,2.78,99.85,3.69,25.14.68,50.27,2.26,75.42,3.26,27.67,1.1,55.38,1.89,83,3.59C1797,586.6,1818.09,585.21,1839.05,589.61Z"/><path class="cls-2" d="M917.15,802c3.18-6.56,8.06-10.72,13.14-14.39,29.08-21,59.64-39.63,92.66-53.53,9.89-4.17,13.83-9.29,16.08-19.16,4.73-20.71,15.51-23.28,37.17-16.82,5.69,1.7,8.68,1.94,14-2.64,18.78-16.34,40.32-29,62.14-40.9,15.65-8.57,30.89-18.2,48.76-21.86a39.82,39.82,0,0,1,4.66-.26,38.29,38.29,0,0,1-13.52,15.14c-29.76,20.37-59.68,41.19-93.73,53.29-17.48,6.22-31.38,17.89-48.09,24.27-9.15,3.49-12.75,11.64-19.62,16.73-7.17,5.32-14.43,10.57-22,15.29-24.43,15.22-48.71,30.77-75.6,41.47C928.38,800.54,923.34,802.35,917.15,802Z"/><path class="cls-2" d="M1450.64,468.53c2.81,0,6.42-1.13,8.3.19,11.43,8,17.73-1,25.53-6.65a509.51,509.51,0,0,1,91.83-53.42,4,4,0,0,1,.77-.34c5.18-1.12,12.77-6,14.88-2.16,2,3.61-5.78,8.67-10,11.89-19.44,14.66-40.31,27.11-61.62,38.84-15.65,8.62-30.88,17.95-49.1,20.81-4.24.67-7.9,5-11.84,7.64a28.32,28.32,0,0,1-4.25,2.68c-29.92,12.91-50.2,39.77-79.17,54.32-20.19,10.14-38.87,23.31-60.58,30.4-2.91.95-7,4.19-9.14.71-1.78-2.88,2.66-5.05,4.75-7,15.63-14.64,34.13-25.2,52.47-35.82,15.46-8.94,30.65-18.54,47.5-24.89a36.89,36.89,0,0,1,6.38-1.93c5.43-1,7.87-3.54,7.73-9.64-.18-7.37,3-14.11,7.23-20.17C1436.9,467.34,1443.94,468.36,1450.64,468.53Z"/><path class="cls-2" d="M1501.82,504.47c-2.86-5.73-6.57-11-9.81-16.59-5-8.57-9.15-10.17-17.77-5.29-14.33,8.13-28.47,16.63-42.5,25.28-8.15,5-9.2,8.79-4.58,17.4,5.69,10.58,11.62,21.08,18.21,31.11,3.2,4.86,2,7.77-1.1,11.68q-33.58,42.3-66.85,84.86c-1.9,2.43-3.62,3.46-7,3.12a109.15,109.15,0,0,0-35.12,1.88c-40.14,9.14-70.49,31.72-89.77,68.37-3,5.61-6.66,8-12.77,8.93-33.07,5-66.12,10.14-99.07,15.87-6,1-8.65-.6-11.45-5.28-6.59-11-11.93-22.76-19.71-33.11-3.93-5.22-7.25-7.1-13.94-3.72-16,8.11-30.77,18.28-46.42,26.94-4.78,2.65-6.14,6.09-4.34,11.78a76.37,76.37,0,0,0,12.55,23.51c7.27,9.47,16.63,13.79,28.8,9.5,10.76-3.79,21.35-8.66,33.31-6.81,4.68.73,9.43,1.72,14.12,1.62,29.75-.66,59.41,2.65,89.18,2,13.29-.3,24.87,3.48,32.25,16.8,6.55,11.84,17.78,14.61,30.44,9.6,3.6-1.42,6.89-3.69,10.22-5.72,5.14-3.13,9.2-4.51,14.39,1.24,6.57,7.29,15.25,13.52,25.46,12.59a38.8,38.8,0,0,1,17,2.25c4,1.38,8.06,2.42,11.69,1.88,21,0,35.52-13.44,37.16-34,.21-2.62.47-5.37,2.17-7.1,9.26-9.41,7.09-20.81,5.15-31.7-1.37-7.7-1-12.21,7.34-15.89,14.79-6.51,25-18.74,13.93-38.59-4.67-8.39-4.12-16.82.43-25.61q26.47-51.15,52.13-102.72c4.36-8.79,9.93-15.91,17.92-21.64C1505.74,530.11,1508.54,518,1501.82,504.47ZM1357.47,799.21c-10.49.06-18.67-8.42-18.68-19.34,0-11.61,7.31-19.37,18.32-19.45,10.07-.06,20.26,9,20.45,18.27C1377.78,789.2,1368,799.15,1357.47,799.21Z"/></svg>