<svg id="Layer_1" height="300" viewBox="0 0 512 512" width="300" xmlns="http://www.w3.org/2000/svg" data-name="Layer 1" version="1.1" xmlns:xlink="http://www.w3.org/1999/xlink" xmlns:svgjs="http://svgjs.dev/svgjs"><g transform="matrix(1,0,0,1,0,0)"><path d="m226.744 120.6a29.256 29.256 0 1 0 29.256-29.26 29.29 29.29 0 0 0 -29.256 29.26z" fill="#7a9685" fill-opacity="1" data-original-color="#000000ff" stroke="none" stroke-opacity="1"/><path d="m489.05 128.543h-134.42a107.818 107.818 0 0 1 -5.794 26.188l-.063.171c-5.418 14.16-17.551 23.309-30.91 23.309-14.552 0-26.9-10.25-31.087-24.354a45.348 45.348 0 1 1 -1.476-67.833 8.047 8.047 0 0 1 16.049.846v56.466c0 10.356 7.407 18.781 16.512 18.781 6.609 0 12.823-5.056 15.848-12.888a87.923 87.923 0 0 0 5.2-28.633 82.888 82.888 0 1 0 -36.886 68.975 8.047 8.047 0 1 1 8.946 13.379 99.02 99.02 0 0 1 -153.658-74.407h-134.361a22.976 22.976 0 0 0 -22.95 22.95v7.688l220.207 151.74a63.429 63.429 0 0 0 71.586 0l220.207-151.74v-7.688a22.976 22.976 0 0 0 -22.95-22.95z" fill="#7a9685" fill-opacity="1" data-original-color="#000000ff" stroke="none" stroke-opacity="1"/><path d="m256 338.06a79.138 79.138 0 0 1 -44.924-13.886l-211.076-145.448v272.638a22.818 22.818 0 0 0 4.056 13.008l131.851-148.772a8.047 8.047 0 0 1 12.045 10.675l-130.59 147.349a22.937 22.937 0 0 0 5.588.691h466.1a22.937 22.937 0 0 0 5.588-.691l-130.59-147.348a8.047 8.047 0 0 1 12.045-10.676l131.851 148.772a22.818 22.818 0 0 0 4.056-13.008v-272.638l-211.076 145.448a79.138 79.138 0 0 1 -44.924 13.886z" fill="#7a9685" fill-opacity="1" data-original-color="#000000ff" stroke="none" stroke-opacity="1"/></g></svg>