<svg id="Ñëîé_1" data-name="Ñëîé 1" xmlns="http://www.w3.org/2000/svg" viewBox="0 0 1080 1080"><defs><style>.cls-1{fill:#e4e4e4;}.cls-2{fill:#248a46;}.cls-3{fill:#a0d89a;}.cls-4{fill:#73c375;}.cls-5{fill:#a0d899;}.cls-6{fill:#41aa5d;}.cls-7{fill:#c5e8bf;}.cls-8{fill:#c6e8bf;}.cls-9{fill:#74c376;}.cls-10{fill:#c6e7bf;}.cls-11{fill:#6e9a6e;}.cls-12{fill:#95a59c;}.cls-13{fill:#7ba07e;}.cls-14{fill:#5d955e;}.cls-15{fill:#8ea38c;}.cls-16{fill:#a8b0b1;}.cls-17{fill:#a9b0b1;}.cls-18{fill:#83a989;}.cls-19{fill:#96ae96;}.cls-20{fill:#9da5a5;}.cls-21{fill:#8ea895;}.cls-22{fill:#91aa97;}.cls-23{fill:#84a085;}.cls-24{fill:#648e6d;}.cls-25{fill:#a5afb1;}.cls-26{fill:#649664;}.cls-27{fill:#a4aeae;}.cls-28{fill:#8b9294;}.cls-29{fill:#90a993;}.cls-30{fill:#7c9f82;}.cls-31{fill:#879c8a;}.cls-32{fill:#116d2e;}.cls-33{fill:#8e9696;}.cls-34{fill:#8aa68f;}.cls-35{fill:#86ac8c;}.cls-36{fill:#779c79;}.cls-37{fill:#96b09b;}.cls-38{fill:#8ca791;}.cls-39{fill:#8a9892;}.cls-40{fill:#92ae99;}.cls-41{fill:#7ca17e;}.cls-42{fill:#779c7d;}.cls-43{fill:#40aa5d;}.cls-44{fill:#829d80;}.cls-45{fill:#e4e7e1;}.cls-46{fill:#678e68;}.cls-47{fill:#488057;}.cls-48{fill:#6c906c;}.cls-49{fill:#889984;}.cls-50{fill:#015a32;}.cls-51{fill:#c5e9be;}.cls-52{fill:#98aa94;}.cls-53{fill:#97a695;}.cls-54{fill:#e9f0ef;}.cls-55{fill:#2b7f3b;}.cls-56{fill:#005b32;}.cls-57{fill:#0f6e2c;}.cls-58{fill:#106d2c;}.cls-59{fill:#358a42;}.cls-60{fill:#c6e8c0;}.cls-61{fill:#82a77a;}.cls-62{fill:#639b60;}.cls-63{fill:#81a37a;}.cls-64{fill:#71a36b;}.cls-65{fill:#789e70;}.cls-66{fill:#6c9d66;}.cls-67{fill:#52934e;}.cls-68{fill:#4f8e4d;}.cls-69{fill:#559450;}.cls-70{fill:#79a370;}.cls-71{fill:#408e45;}.cls-72{fill:#4f8f4d;}.cls-73{fill:#4a8a4d;}.cls-74{fill:#338240;}.cls-75{fill:#6b9d63;}.cls-76{fill:#8bab84;}.cls-77{fill:#cbecc6;}.cls-78{fill:#258a46;}.cls-79{fill:#c7e8c0;}.cls-80{fill:#75c177;}.cls-81{fill:#529451;}.cls-82{fill:#328840;}.cls-83{fill:#177231;}.cls-84{fill:#73c376;}.cls-85{fill:#2a853d;}.cls-86{fill:#9dd8a0;}.cls-87{fill:#1f823c;}.cls-88{fill:#217e39;}.cls-89{fill:#1e7e39;}.cls-90{fill:#41a95d;}.cls-91{fill:#20823d;}.cls-92{fill:#25833b;}.cls-93{fill:#287939;}.cls-94{fill:#76c17c;}.cls-95{fill:#1e813a;}</style></defs><path class="cls-1" d="M156.69,775.64c-2.8,3.34-5.61,5.55-6.39-1.13a12,12,0,0,1,4.18-10.37c7.57-8.56,10.53-19.38,10.87-30,.23-7.36,3.07-14.8,1.47-21.82-3.58-15.72,4.41-30.1,4-45.32-.06-2.07.61-4.31-1.15-6.07l.09.14c-1.52-2.18-1.18-3.7,1.37-4.86,1.34-.61,3.39,2.06,3.76-.54a3,3,0,0,0-3.39-3.09c-5,.25-10.41-3.12-14.73,2l.13-.07c-9,3.22-12,.62-12.38-9.38-.29-7.15-2.2-12.32,7.55-11.79,1.24-.83,2.48-1.65,3.71-2.49,7.6-3.64,2.7-10.59,3.92-16.48-1,2.37-1.37,4.52-2.58,6.28-6.9,14-6.9,14-30.48,10.2l0,.06c-.92-1.19-1.56-2.86-.87-3.95,6.9-10.94,4.45-24.91,11.64-35.7,3.17-4.76,1.18-10.47,3.15-15.41,9.89-7.54,18.84-15.47,20.85-29,1-6.87,6.15-12.57,8.26-19.3l-.06.1c1.92-3.68,2.86-7.83,5-11.34,1.82-3,4.31-4.84-.16-8.22-2.26-1.7.7-5.64,1.64-8.49l0,.09c4.12-8.22,5.57-17.32,8.64-25.89l0,.11c4.44-7.94,8.18-16.09,7.68-25.53,5.9-13.69-3.49-26.23-3-39.26.57-14.16-7.38-27.22-4-41.42,7.36-10.82,14.23-22.23,30.27-20.4,4.47.51,8.24-4.25,13.14-2.57a10.31,10.31,0,0,1,2.44,1.76c3.83,3.7,4.43,7.52.64,11.73-2.11,2.33-4,4.9-2.61,8.38a20.34,20.34,0,0,0,1.48,2.29c5.27,4.61,10-.76,15-.85,5.28-.1,10-3.61,15.45-3.07,3.89,1.31,6.84,4.94,11.39,4.7,7.65,2.78,14.43,2.24,19.52-5,4.94-7,11.12,1.19,16.44-1.38,4.88-.76,9.52-2.19,14.75-.86,12,3,13,3.55,11.82,15.8-.61,6.07,1.49,8,7,9.43,14.18,3.72,16.14,10.69,6.91,22.41a79.09,79.09,0,0,1-11.2,11.5c-9.73,5-19.52,9.58-24.15,20.89-1.2,2.95-3,5-1.94,8.52,5.07,17.62.27,35-1.94,52.37-.17,1.35-1.32,2.49-2.18,3.63a10.75,10.75,0,0,1-2.24,2.07c-6.51,2.18-8.88,5.58-3.72,11.62,5.92,6.92,4.2,13.85,1.29,21.85-5.13,14.09-13.56,20.55-28.74,17.6-2.88-.56-6.31-1.27-10.61,1.18,7,9.25,13.17,19,15.36,30.46A24.51,24.51,0,0,0,290,604.44c7.33,4.17,7.25,9.64,3.92,16.27-2.43,4.85-5.17,9.38-9.85,12.35-5.14,3.26-7.58,8.07-9.19,13.82-4.35,15.46,1.27,29.22,15.67,37.21,3.47,7.83,1.5,13-7.29,14.72-2.49.5-5.35,1.13-6.42,3.34-6.15,12.72-20.37,20.87-20.8,36.79-.08,7.52,3.41,14.61,2.47,22.24-.55,4.48-1.06,8.29-7.15,8.56-4.33.19-7.49,3.61-10.91,6.23-10.4,8-17.68,8.17-28.76,1.28-1.82-1.14-3.8-2.91-5.68-2.8-10.92.65-21.27-3.14-32-3.74l.13-.07C168.77,774,161.66,771.11,156.69,775.64Z"/><path class="cls-2" d="M290.24,684.69c-2,.4-4.42,1.67-6.05,1-5-1.93-15.71-27.15-14.29-32.44,2.6-9.6,4.66-19.11,15.09-24.32,5.4-2.7,6.75-9.75,9.27-15.05,1.62-3.39-1.12-5.68-5.19-7.48-5.86-2.59-12.41-5.94-12.08-14.35,5-16.45,19.08-21.07,32.12-10.56,2.64,2.14,4.69,4.85,4.06,8.26-1.21,6.48,1.87,8.48,7.6,8.23,9.12-.41,17.78.25,24.74,7.43,3.23,3.33,7.53,1.09,11.28.57,10-1.39,19.88-.73,29.87-5.56a82.92,82.92,0,0,0,15.9-9.78c5.82-4.54,16-6.95,25.09-5.42A38.83,38.83,0,0,1,433,586c4.25,1.07,11.57-4.08,12.22,1.36.73,6.09,3.9,14.58-5.63,19.59-5.68,3-10.48,8.72-5.35,17,2.41,3.89-5.29,16.7-10.83,18.72-3,1.09-5.77,2.74-7.36,3.18,6.34-4.42,12.63-2.92,19.32,3.55,9.26,8.95,22,13.59,31.12,22.69,4.28,4.24,8.58-5.51,11.79,1.11,3.52,9.65,3.57,18.87.73,29.18-4.87,17.65,1.36,33.57,12.37,47.73,3.16,4.07,6.22,4,9.84.57,14-13.22,31.85-15.39,49.84-16,6.54-.21,8.65-3.44,10.51-8.45,5.22-14,16.16-22.75,28.49-30.12,7.1,2.85,11.59,1.64,16.45-5.6,6.16-9.21,14.6-17.65,28.06-12.7a4,4,0,0,1,.23,2.94c-1.83,3.11-5.09,3.62-8.15,4.52a24.29,24.29,0,0,0-12.2,8.24c-8,9.93-6.81,14.62,5.51,18.15,7.45,2.14,11.21,6.15,10.17,13.72-1.55,11.27,4.18,18.1,13,23.5,4.14,2.53,9.18,4.58,8.53,10.93-6.55,6.2-11.23,13.1-13.28,22.37-2.65,12-10.8,21.41-18.22,30.91-4,5.14-7,1.63-10.27-1.74-7.74-8-18.38-6.81-24.29,2.82-4.27,6.94-9.73,6.21-15.62,3.33-12.22-6-24.68-6-36.86-.72-8.25,3.54-14.09-3.72-21.43-3.32-1.35-1.25-4.06-.61-4.68-2.22-3.54-9.24-12.13-9.68-19-12,4.59,4.6,18.7-1,15,13.89-11.95,1-23.88,2.37-35.84,2.64-4.73.11-6.77,2.21-9.47,5.27-7.14,8.12-13.5,15.09-27.4,12.93-12.68-2-24,6.44-30.38,18.84-3.19-2.23-3.64-6-5.29-9.16-2.41-4.55-4.81-8.83-11-8.69-3,.08-5.87-.77-6.56-4.28s1.44-5.42,4.19-6.71c8.25-3.9,14-9.07,14.48-19.31.26-5.77,2.46-6.27,12.21-6.25-4.8-1.46-8.16-4-12.29-4.67-1.65-.27-3.91-1.92-4.83.12-3.45,7.71-9.17,6.22-15.38,4.63-4-1-7.81.69-11,3.17-4.26,3.29-9,4.08-14.2,3.5l-23.91,2.18a248.87,248.87,0,0,1,1.11-55.24c.7-5.21-1.16-8.92-4.54-12.47-7.95-8.36-6.57-14.39,4.15-18.77,1-.41,2-.67,3-1,4-1.41,11.06,1,11-5.59s-7.71-10-12.06-10.41C313.3,702.52,302,693.38,290.24,684.69Z"/><path class="cls-3" d="M449.57,244c8.63.44,17.41-2.12,25.86,1.43-4.1,4.55-8.72,3.29-13.29,1.49,1.39,3.69,3.14,7.68-3.35,8.92-2.09.4-4.46,1.16-5.47,3-3.33,6.09-7.84,6.19-13.42,3.51-2.06-1-4.14.27-6,1.24-12.73,11.92-28.68,12.61-44.75,12.88-4,3.5-8,6.47-13.47,2.89-4.58-4.11-9.16-7.6-15.89-4-2.85,1.51-6.23.19-9.36.07-6.43,1.13-8.32,10.9-16.48,8.7a14.84,14.84,0,0,0-8.25.05c-2.61.3-4.94-.2-6.73-2.31-.79-5.48-7.33-5.64-10.77-11.59,2.51,6.14,10.08,5.28,9.51,11.21-.7,3.25,0,6.62-.76,9.88a19.12,19.12,0,0,1-4.65,5.77c-8.78,4.94-6.71,14.8-10.05,22.21a39.54,39.54,0,0,1-3.87,6.36c-5.23,7.22-6.94,7.1-13-.69-1.92-3.23-4.53-.77-6.37-.29a22.33,22.33,0,0,1-19.94-3.84c-5.21-3.77-11-7-12-14.33-.1-2.63.14-5.16,2.38-7-2.9-21.7-3.8-43.17,7.84-63.07.49-.86,1-1.69,1.61-2.5,3.51-4.3,3.65-9.88,5.53-14.79a23.21,23.21,0,0,1,1-2.68c1.3-6.71,5.94-3.4,9.56-3.17l0,.2c5.55-3.11,9.91-.28,12.75,3.81,3.82,5.5,7.91,9.73,14.92,10.37,3.83.35,4.26,3,3.62,6.15-11,5.58-4.59,12.59-1.43,19-1.67-5.86-9.88-12.53,1.22-17.79,1.45-7,6.22-9.72,12.62-8.07,15.95,4.1,32.22.57,48.22,2.71,5.37.72,9.45-2.59,13.54-5.45l-.08,0c9,6.74,19.25,8.45,30.26,8.35,6.4-.06,10.6,6.91,17.35,6.79l-.23-.1C434.75,242.1,443,239,449.57,244Z"/><path class="cls-4" d="M651.65,759.88c-1.72-4.27-5.18-6.56-9.18-8.4-10.75-4.94-16-13.79-15-25.22.62-6.78.24-12-9-11.79-6.1.12-12.28-4.29-12.81-9.64-.57-5.7,4.7-11,8.61-15.76,5.17-6.31,13.37-5.72,20-8.82,2.25-4.91,5.7-6.66,11.23-5.35,11.16,2.64,13.43.49,13.18-11.46-.35-16.41,12.9-25.4,28.11-19.11,6.1,4.79,6.58,12.73,3.66,17.42-5.27,8.45-2.39,13.48,3.25,19.06.47.46.43,1.33.49,2a6.83,6.83,0,0,0-3.73-6.29c-1.92-1.07-4.09-3.22-3.19-5.07,5.45-11.18,2.67-25.09,11.73-35,5.84-.2,11.75-.84,16.94,2.78,2,.59-3.21,4.62,1.9,3.9,4.37-.62,4.85-4.82,7.22-7.27,15.52-9.29,31.21-9.67,47.07-.85,2.66,2.39,2.86,4.93-.05,7.12C764,648.23,756.17,654.87,747.5,660c-10.25,6-16.78,13.14-21.9,24.82-3.22,7.36-5.94,16-10.63,23.19a25.25,25.25,0,0,0-4.05,10.87,1.69,1.69,0,0,1-2.44-.35c-1.78-2.06-4.26-3.39-5.15-4.63,1.83,2.26,5.65,4.46,7.19,8.56.15,2.14-.74,4.15-.58,6.35.72,9.51-3.82,14-13.43,12.59a56.16,56.16,0,0,0-23.12,1.71C665.43,747.77,660.63,756.54,651.65,759.88Z"/><path class="cls-5" d="M290.24,684.69c2.6-2,6.23.18,6.56,1.09,3.61,10.21,17.37,5,21.38,14.28.31.72,2.34,1.56,2.72,1.26,8.52-6.68,12.23,4.08,18.61,5.13,4.37.72,6.83,4,6.16,8.61-.72,5-5.24,6.37-9,6.58a32.2,32.2,0,0,0-10.35,2.18c-8.21,3.33-7.94,6.75-1.9,12.79,3.88,3.88,6.79,8.52,5.91,16.22-1.32,11.68-4,23.59-2.3,35.6.87,6.31,2.35,12.79-2.09,18.55-.66.64-1.21.56-1.64-.26-.58-10.53-7.34-17-15-23-3.88-4.79-8.4-8.52-14.87-9l-6.36-4.13c-6.4-6-14.32-3.18-21.39-2.88-7.88.33-10.34-2.58-9.93-9.72a42.73,42.73,0,0,0-3.47-19.73c3.08-9.3,2.12-20.62,14.19-25.33,2.36-.92,3.43-6,4.39-9.42,1.41-5,5.75-8,9.35-7.6C291.19,696.88,289.79,690.38,290.24,684.69Z"/><path class="cls-5" d="M715.82,641.74c-4.94-5.08-12.18-.37-17.44-4.1-4.21-.74-3.79-4.47-4.74-7.3-1.2-4-4.71-3.32-7.72-4-9.75-2.09-14.12-10.4-10.81-19.76,1.3-3.68,5-7.23,1.16-11.46-7.21-3.81-17-2.93-21.42-11.71-.69-7.74,2.85-14,6.88-20.16,6.49-3.87,12.55-7.94,12.85-16.74.17-4.94,2.31-9.09,7.67-10.2s10.69-1.12,14.38,4.06c1,1.44,1.86,3,3.76,3.5,5,1.67,10.53,2.38,13.56,7.57a6.49,6.49,0,0,0,2.09,1.59c5.59.17,11.29,3,16.61-1,10.78,3.94,11.65,4.84,6.27,14-5.92,10.06-6,19.75-.28,29.32,3.82,6.38.73,15.25,7.86,20.18,3.33,2.2,1.9,7.56,6.12,9.17,2.5,6.41-3.59,5.77-5.81,5.52-7.8-.87-14.28,2.58-21.13,4.92-4.08.38-3.21,3.85-4.17,6.36C720.06,645.3,717.92,646.47,715.82,641.74Z"/><path class="cls-6" d="M324.33,806.72A8.36,8.36,0,0,0,326,807c1.9-.23,3.82-1.07,4.15-2.88,1.52-8.44,6.58-6.65,11.78-4.24,8.22,3.81,15.72,5.77,23.29-2.27,2.23-2.36,8.33-4.69,12-2.2,10.56,7.22,10.87-1,12.6-7.55,5.43,4.46,12.24,5.77,18.72,6.9,2.31.41,4.58-1.78,4.13,2.46-.27,2.62-1.23,5.63-4.54,4.18-10.64-4.7-10.38,2-10.42,9.22-.07,9.92-8.55,12.08-15.26,15.65-1.93,1-4.41,1.31-3.52,4.17.33,1,2.07,2.46,3,2.36,15.49-1.72,15.22,10.58,18.09,20.1-1.26,9.75-9.68,14.13-16.16,18.9-8.45,6.21-15.16-1.93-21.31-6.68-3.33-2.57-5.35-6.37-10.48-6.16-4.75.19-6.34-4.16-8.29-7.46-4.48-7.58-8.72-15.3-13.05-23,4.1-2.48,4.11,3,7.79,1.42-.94-5.31-4.68-7.71-9.33-9.66C322.75,817.61,319.49,813.53,324.33,806.72Z"/><path class="cls-7" d="M229.81,227.48c.8-3.52,4.2-4.65,6.33-6.95,7.19-9.29,17.44-10.92,28.2-11.27l-.08,0c6,1.58,3.12,5.34,2.14,8.65l.06-.06c-3.52,5.28-2.19,12.38-6.54,17.34l.09-.15c-8.43,10.41-13.11,21.43-9.34,35.46,2.21,8.2-4.4,14-13,15.67A262.56,262.56,0,0,0,199,296.87c-6.69,2.62-15.82.13-19.06,10.84-3.41-4-3.15-7.06-1.67-10.27l-.06.12c2.09-2.66,1.44-6.76,5.9-9.49-4.35.6-7.68,1.51-10.21-1.26l0,.05c.68-6.17,2.52-12.36-6-15.54-3.12-1.16-2.23-6.25-.31-8.49,3.7-4.32,4-12.13,13-11.52,5.26.36,6.62-6.83,10.53-9.78l-.05,0c14.19,6,27-2.82,40.59-2.91C232,234.21,226,231.74,229.81,227.48Z"/><path class="cls-8" d="M907.37,395.23c-1.9,1.68-4.23,1.23-6.45,1.26-5.39,5.73-9.2,12.5-12.83,19.4l0-.05c-7.82,4.88-17.74,3.84-25.46,9-2.77.74-6.22,1.94-7.68-1.22-5.89-12.66-16.72-23.21-16.25-38.63.16-5.18.53-9.38,7.15-9.28,5,.07,5.5-3.52,5.68-7.28,2.24-9.23,7.26-18.16,2.95-28.07-1.21-11,7.83-9.54,13.72-10.18,8.54-.92,11.26,5,11,12.61.89.29,1.74.58,2.62.84,3.87.78,7.66-.71,11.58,0,13.31,2.52,15.63,5.56,13.95,19.18.36,3.37-5,3.38-4.08,7.09,4.85,3.55,9.16,8.08,16.21,5.81a4.72,4.72,0,0,1,6.1,3c1.18,3.2-.34,5.5-2.94,7.23C917.71,389.25,911.36,390.29,907.37,395.23Z"/><path class="cls-5" d="M787.11,489.2c-4.78,11.05-10.21,21.68-19.31,29.95-7.24,8.39-13.71,17.26-17.49,27.83q-2,3.27-4,6.54c-3.35,1.61-6.61,4.08-9.94-.31-1.71-2.24-4.09-2.34-6.33-.39-1.62,1.8-3.91,5-5.87,2.52-4.08-5.1-7-.08-10.35.24l.08.06c.22-8.93-8.54-8.37-13-12.33-3.63-5.82-.37-9.75,4.23-12.3,5.3-2.94,9.26-6.45,10.69-12.52.58-2.51,2.35-4.18,4.58-5.62,13-8.42,15.22-16.38,8.75-31.79-.74-1.76-1.69-4-.08-4.81,6.63-3.22,10.18-14,20.75-8,4.67,2.67,10.55.78,15.83,1.61C772.31,476.82,782.12,480.33,787.11,489.2Z"/><path class="cls-3" d="M812.75,444.3c-4.91,4-6.47,10.43-11.34,14.79-3.8,3.4.19,6.71,3.81,8.86,2.19,1.3,7.39,2,1.9,5.94s-12.33,5.11-18,8.76l.11-.16c-1.56,1.8-3.4,4.77-5.8,2.51-5.23-4.93-13.54-6.51-15.94-14.5-1.41-9.79,3.28-20.28-3.35-29.5,1.18-7.61,6.78-12.48,11.23-18.07,3.8-3.67,8.14-4.49,13.52-4.32,10.78.34,21.18-1.58,28.23-11.21a59.39,59.39,0,0,1,4.76-5.74c10.16-11.29,16-10.83,22.59,2.19a41.09,41.09,0,0,0,6.64,9.11c6.13,6.81,4,13.42-4.69,16.43C834.82,433.44,822.77,436.56,812.75,444.3Z"/><path class="cls-7" d="M898.7,370.29c-1-5.61,2.75-5.45,6.47-5.34,5-14.43-2.17-22.82-17.64-20.62-2.69.38-5.27,2.67-8.12.5l.08.05C876.2,341,881,334,874.38,331.33a5.3,5.3,0,0,1-.13-3.08c1-2.27,3.91-1.1,5.21-2.84l-.1.07c8.67-8.75,17.33-6.13,26,0l-.08-.07c5.18,2.18,8.65,1.41,12.48-3.7,8.47-11.32,19.73-11.26,30-1,1,1-.31-.19.65.86,2.12,2.32,7.92-.59,7.45,5.53-.5,6.44-7.09,1.56-9,5.14-3.56,3.86-1.19,7.6,1.07,10.43a30.29,30.29,0,0,1,6.62,19.14c-2,7.7-11.1,7.31-14.85,13-5.2,2.85-9.56,3.43-16.35,2.7C914.12,376.58,906.79,373,898.7,370.29Z"/><path class="cls-9" d="M509.53,237.93c3.33,2.21,6-.36,8.81-1.37,2.41-.88,5.2-2.26,6.84-.2,6.53,8.17,17.47,7.8,25.15,13.56a4.43,4.43,0,0,1,1.23,2.76c-.62,3.69-3.25,5.62-6.51,6.08-5.59.8-8.61,4.34-11,8.86-8.29,3.36-18,.89-25.78,7.45-5.85,4.95-11.8,7.92-4,16.42,5.52,6-1.34,7.23-5.37,9-8.58,1.49-14-2.52-18.23-9.66-5.07-8.47-11.83-14.17-22.88-10.85-3.22,1-6.32-.46-8.66-3-5.7-7.63-1.71-19.13,7.5-21.61,1.73-.47,4.33,1.09,5.1-.18,9.44-15.5,27.74-5.07,39.78-13.69C505.38,238.61,508.82,239.36,509.53,237.93Z"/><path class="cls-10" d="M617.33,254.41c3.29-4.33,8.69-5.32,12.93-8.15,3.67,1.67,5.56,4.38,5,8.52-4,10.67-12.72,18.33-17.91,28.29-2.13,4.1-7.57,3-11.27,4.89-3.18.84-6.1-.49-9.11-1-12.66-1.37-13.52-2.46-10.07-14.09,1.48-5,2.28-10.26,4.49-15.06a8,8,0,0,1,2-2.58C601.37,254,609.45,257.31,617.33,254.41Z"/><path class="cls-11" d="M812.75,444.3c7.7-10.14,20.16-10.93,30.7-15.24,11.58-4.73,12.95-8,4.1-17.2-2.39-2.49-2.95-5.52-4.66-8.14-5.9-9-10.3-9.64-17.41-1.63-2.11,2.39-4.17,4.83-6.25,7.25-3.42.49-3.39-1.88-2.86-3.94a15.64,15.64,0,0,1,6.85-9.3c7.55-4.46,13.38-9,14.72-18.93.32-2.41,6.76-11.91,15.38-8.69,1.89,6.9.45,11.84-7.84,9.8-5.22-1.29-4.91,1.6-4.4,4.29,1.94,10.41,1.48,21.83,11.27,29.2,4.48,3.37.5,13.21,9.85,12.81-.05.47-.09.95-.14,1.42A322.24,322.24,0,0,0,812.75,444.3Z"/><path class="cls-12" d="M253.35,738.26c5.62,4.39,4.92,10.7,4.47,16.56-.66,8.72,2.62,12.56,11.52,11.52,4.19-.48,8.55.22,12.65-.58,4.49-.86,5.77,1.09,6.15,4.83-17.46-2.86-34.59-3.54-49.41,8.54-4.13,3.37-10.17,3-13.65,7.61-1.35,1.81-3.51.33-4.62-.87-8.74-9.44-19.77-11.58-32.09-11.33-4.78.1-9.61-2.48-14.41-3.83,2.1-3.59,4.86-1.84,7.45-.85a41.73,41.73,0,0,0,18.91,2.87,17.26,17.26,0,0,1,13,4c8,6.58,15.85,4.61,23.76,0,5.14-3,8.84-8.25,15.66-8.71,4.06-.27,2.94-4.27,2.75-6.93C254.87,753.49,254.06,745.88,253.35,738.26Z"/><path class="cls-13" d="M380.43,224.3c-3.08,6-8.65,7.15-14.42,6.46-14.92-1.78-30.05,2.26-44.87-2-7.87-2.26-12.43,2.32-15.89,8.58a1.77,1.77,0,0,1-.24-2.83c0-.7.18-2,0-2-11.61-3.77-16.9-17.58-30-18.92,4.12-8.22,9.44-2.41,11.29.54,7.49,11.89,17.59,13.51,30.3,11.2,5.69-1,12.26,0,17.87,1.83,11.41,3.7,22.76-3.34,34.25.85C371.74,229.1,376.47,225.65,380.43,224.3Z"/><path class="cls-14" d="M509.53,237.93c-.44,2.51-1.76,5,0,8.09-4.38-3-8-4-13.38-1.51-5.88,2.71-13.08,3-19.75,3.39-5.25.3-9.92,0-11.25,6.67-.4,2-1.85,3.1-4.6,3.31-12.68,1-16.25,8.33-9.31,18.48-1.08,2.14-2.67,2.95-5,2-5.8-4.9-8.76-12.15-14.24-17.33,1-.42,2.21-1.45,2.89-1.16,9.52,4,15.41-4.54,22.95-6.17,8.14-1.77,2.09-5,2.73-7.53l14.81-.67C487.56,246.37,497.86,239.07,509.53,237.93Z"/><path class="cls-15" d="M229.92,347.05c-16.52,1.53-32.27,4.73-42.68,19.56a2.09,2.09,0,0,1-3-.31c-1.74-9.43-5.26-19,4-27,1.27-1.1,3.3-3.3.11-6-3.35-2.82-2.27-5.59,2.49-6,.36.2.73.4,1.1.58,1.55.54,2.67-.5,4-1,2.88-1.13,5.55-6.52,8.77-2,2.76,3.92-.74,7.4-3.84,9.87a44.23,44.23,0,0,0-11.7,13.67c-1.13,2.1-2.39,4.48.09,7.59,11-12.66,25.74-13.63,40.92-13.32A3.49,3.49,0,0,1,229.92,347.05Z"/><path class="cls-16" d="M169.64,660.93c5.05,9.7,2.46,19.11-1.34,28.34-1.52,3.67-3.65,7,0,10.61a4.09,4.09,0,0,1,1.05,2.92c-2.23,21.14-1.26,42.92-11.94,62.42-2.48,4.51-2.43.62-2.92-1.08,9.56-21.08,13-43,9-65.92a10.39,10.39,0,0,1,.84-7.21C169.43,681.59,169.93,671.33,169.64,660.93Z"/><path class="cls-17" d="M184.28,366.3l3,.31c-.7,2.37-2.59,5.18-1.91,7,5.83,15.71,3.08,32.78,7.9,48.51,2.93,9.55,3.17,18.7.11,28.07a1.68,1.68,0,0,1-2.45-.22c1.28-9.09,2.12-17.57-.59-27.23-4.48-15.94-5.42-32.89-7.72-49.43C182.24,370.92,182.24,368.29,184.28,366.3Z"/><path class="cls-18" d="M729,551.34c2.06-2.89,6-3.37,7.09-1,2.56,5.47,6.88,2,10.15,3.2-2,4.54-3.73,9.3-6.23,13.58-5.14,8.8-5.76,17.61-.45,26.32,4.19,6.87,2.89,15.29,6.9,22.11a9.57,9.57,0,0,1-.78.67c-9.6-9.41-14.9-37-8.64-48.66,4.17-7.73,3.79-12.42-5.73-14C729.89,553.55,729.66,552.24,729,551.34Z"/><path class="cls-19" d="M229.81,227.48c-.44,5.81,10.92,7.92,4.61,15.44-5.34-3.53-12.78-2.58-17-.66-9.54,4.36-17.64,4.32-26.29-.7,1.24-2.51,3.48-2.68,5.38-1.46,6.72,4.31,13.07,2.39,19.14-1.09,4.65-2.66,13.57-1.4,11.13-11.19Z"/><path class="cls-20" d="M154.73,635c-2.15,8.06-7-.92-10.69,2.12,4.94,5.31-4.08,20.11,12.83,17.44-4.32,4.49-9.77,1.5-14.9,3.33-.23-6,2.34-10.3,1.29-15.57-2-10-11.19-7.61-16.65-11.42a6.41,6.41,0,0,1,1.07-.07c12.07,1.07,24,1.77,29.07-12.89l.94,1.08C159.77,624.88,153.39,629.2,154.73,635Z"/><path class="cls-21" d="M617.33,254.41c-7.53,5.55-16.13,0-24,2.3-5.89-4.11-12.61-6.28-19.4-8.3-4.74-1.4-9.14-1.32-12.29,3.32-3.35,4.93-7.1,5.44-11.26,1,0-.92,0-1.85-.08-2.77,1.42-.1,3.64.34,4.13-.38,9.67-14.51,22.91-7.47,32.46-2.58A65.82,65.82,0,0,0,617.33,254.41Z"/><path class="cls-22" d="M191.19,241.53c-2.76,6.37-6.2,11.55-14.21,12.35-4.84.49-4.89,6.51-7.93,9.56-4.15,4.17.46,6.08,3.65,9,4,3.62,5.15,9.25,1.23,14.43-3-1.44-1-3.41-.67-5.33a7.15,7.15,0,0,0-2.61-6.61c-2-1.71-10,6.63-6.79-3.29,2.59-8,1.19-20.4,13.9-21.19C184.8,250,185.09,241.86,191.19,241.53Z"/><path class="cls-23" d="M898.7,370.29c9.49,2.39,19.22,4.12,28.39,7.43,5.52,2,8.15-3.23,12.57-2.85-8.82,9.86-20.9,14.55-32.29,20.36,2-6.31,8.49-6.68,13-9.62,2.42-1.58,5.36-3,3.78-6.41-1.4-3.08-4-1.77-6.33-.75C908.54,382.6,905.43,372.2,898.7,370.29Z"/><path class="cls-24" d="M673.39,743.1c5.36-5.52,13.54-4.58,18.76-3.65,12.62,2.24,17.57-.69,16-13.56-.2-1.6.68-3.33,1-5a1.45,1.45,0,0,1,.47-2.19,3.81,3.81,0,0,0,1.3.17c.48,2.77.93,5.55,1.45,8.32,2.17,11.4-1.88,16.73-13.81,15.78C690.09,742.31,681.77,743.29,673.39,743.1Z"/><path class="cls-25" d="M142.14,575.88c-1.45,15.4-9.57,28.94-12.35,44-.67,3.64-3,7.07-3.13,11a3.78,3.78,0,0,1-2-5.32c6.4-9.75,4.57-22,9.92-32a21.94,21.94,0,0,0,3-12.19c-.26-3.64,0-7.19,4.18-8.83A2,2,0,0,1,142.14,575.88Z"/><path class="cls-26" d="M722.34,633.41c9.17-1.09,17.46-6.74,27.21-5.07,1.9.33,2.66-1.89,3.07-3.64,5.71,4.92,15.31,2.48,19.48,10.32-16.26-7-32-3.55-47.66,2.25C721.21,637.36,721.06,635.78,722.34,633.41Z"/><path class="cls-27" d="M142.14,575.88c-.13-1.08-.27-2.17-.41-3.25,9-6.31,15.43-13.91,17.86-25.41a43.85,43.85,0,0,1,10.1-19.66C163.29,545.26,161.62,565.64,142.14,575.88Z"/><path class="cls-28" d="M156.74,654.59c3.08-4,6.24-8.37,11.95-4.12,4.16,3.1,3.39-4,6.45-2.69,1.58,7,1.58,7,6.39,12.54-3.65,4.5-8.25-6.6-11.8.75C165.81,658.1,164.3,650.29,156.74,654.59Z"/><path class="cls-29" d="M178.27,297.44l.51,10.35c4-11.33,12.42-9.91,18.79-12.56a3.78,3.78,0,0,1,3,3c-.92,4.8-3.35,8.38-8.12,10.09l-1.51.07c-4-2.75-4-2.75.93-7.67-3.47-2.06-5.09.79-7.17,2.57-2.4,2.05-3.13,8.47-7.26,5.4C174.48,306.54,174.66,301,178.27,297.44Z"/><path class="cls-30" d="M428,239.42c-4.18,0-8.18.59-12-2.85a14.46,14.46,0,0,0-12-3.48c-9.78,1.76-17.15-2.18-23.66-8.81,3.65-1.63,3.79-1.76,5.38,0,3.09,3.41,5.87,7.29,11.33,6.28C408.85,228.37,418.64,233.07,428,239.42Z"/><path class="cls-31" d="M190.87,327.33c-.1-1.95,7-4.26-.36-5.86-4.21-.92-6.61-5.28-7.18-8-.92-4.44,6-1.68,7.61-5l.2-.09c.34-.09.82-.36,1-.23,4.58,3.29,3.19,6-.85,8.49,3.32-.05,6.67-2.84,9.92,0,1.64,1.42,1.18,3.33.08,4.73-2.57,3.28-3.84,8.89-10.12,6.28Z"/><path class="cls-32" d="M503.07,813.2c.24-6-2.76-9.11-8.51-10.37-5.09-1.11-10.7-1.54-14.73-8.22,12.77,4.58,25.58,6,31.85,18.92C508.78,814.09,505.9,814.39,503.07,813.2Z"/><path class="cls-33" d="M190.89,450l2.45.22c3,10.06-1.3,17.43-8.66,23.69C184.65,465.41,188.17,457.81,190.89,450Z"/><path class="cls-27" d="M176.14,499.61c.73,3.51-3.28,8.67,3.75,10.05,1.49.29,3.09,3.73,1.52,4.05-7.9,1.61-6.38,10.64-11.78,13.95C173.76,518.76,170.64,508.19,176.14,499.61Z"/><path class="cls-34" d="M264.34,209.26c-.33,2-2.33,4.16-3.28,3.67-10.88-5.51-16.81,4.56-24.92,7.6C242.78,209.86,251.53,204.5,264.34,209.26Z"/><path class="cls-35" d="M750.31,547c-.56-8.31,4.7-14.62,9.41-19.82,2.26-2.49,1.41-9.83,8.08-8Z"/><path class="cls-36" d="M767.63,469.56c3.81,5.74,10.14,8.55,15,13,2.82,2.6,4.48.09,6.66-.1l-2.16,6.71c-8.11-4.87-16.52-9.37-21.83-17.7C765.19,469.8,765.79,468.93,767.63,469.56Z"/><path class="cls-36" d="M789.16,482.65c2.25-10.57,12.11-5.55,18-8.75C801.32,477.19,799.84,489.35,789.16,482.65Z"/><path class="cls-37" d="M945.84,331.89l2.85.24c-4.31,5-.2,8.46,2.24,12.1,3.64,5.43,6.48,10.91,3.58,17.62-2.2-7.53-4.63-14.9-9.36-21.4C943.32,337.93,943,334.53,945.84,331.89Z"/><path class="cls-29" d="M173.9,286.81c5.29,1.11,9.82-2.14,15.83-3.82-2.57,7.19-8.95,9.38-11.52,14.57C179.69,292.8,174.47,290.74,173.9,286.81Z"/><path class="cls-38" d="M862.06,426a4.86,4.86,0,0,1,.14-1.42c7.21-7.18,17.3-5.82,25.94-8.74C881.11,423.49,870.3,421.44,862.06,426Z"/><path class="cls-27" d="M184.73,473.81c-.73,9.35-2.45,18.37-8.64,25.89C178.55,490.93,178.89,481.45,184.73,473.81Z"/><path class="cls-34" d="M266.4,217.93c-.42-3,.83-6.33-2.14-8.65,7.44-8.72,7.26,2.37,10.69,4.1-.24,1.83-1.25,5.54-2.77,3.05C267.43,208.65,268.8,219.9,266.4,217.93Z"/><path class="cls-39" d="M634.17,254.51c.65-3.67-3.3-5.18-3.91-8.25,5.64-.56,11.8.11,15-6.34-.32,5.48-.2,5.74-4.31,7.67-2.17,1-4.67,1.14-4.4,4.39,1.34,1.57.19,2.28-1,3Z"/><path class="cls-40" d="M888.09,415.89c1.63-8.21,5.51-14.95,12.83-19.4C898.33,404.07,893,409.84,888.09,415.89Z"/><path class="cls-12" d="M156.69,775.64c4.37-6.63,11.33-4.27,17.4-5C169.5,776.53,162.43,773.77,156.69,775.64Z"/><path class="cls-41" d="M294.5,774.72c7.77-1.62,12.22,2.21,14.86,9Z"/><path class="cls-42" d="M449.57,244c-7.12-2.32-15-.95-21.84-4.71C435.25,239.75,443.47,237,449.57,244Z"/><path class="cls-43" d="M703.49,288.66c6.94,5.24,13.14,9.46,22.62,2.92,3.9-2.7,10.3,3.22,14.48,7.12,2.89,2.7,5.33,5.86,9.94,3.86,11.51-2.71,23,1.69,34.68-.16,6.46-1,8.86,6,11.28,11.2,6.76,20.29-1.13,39.19-5.6,58.42-1.16,5-5.7,7.15-8.67,10.63-2.45,2.86-6.9,5.66-3.57,10,6.82,8.77,2,14.38-4.42,19.92-5.2,1.08-10.23,2.08-15,5.06-6.81,4.24-12.46,2.34-15.36-5.27-2.59-6.78-6.6-11-13-14.57-6.68-3.73-12.93-8.77-16-16.62a19.57,19.57,0,0,0-13-11.85c-7.11-2.13-10.55-5.15-5.61-13,3.81-6.06,1.34-14,4.4-20.53,0-1.46-2.84-.49-1.41-.37.21,0,.16.18.21.44.84,4.71-2.19,7.08-5.87,6.69-3.87-.41-2-4.51-2.41-7.09-1.9-11.51-5.34-22.9-2.34-34.73.46-5.3-.92-11.31,5.36-14.45C697.55,285.92,700.26,288.29,703.49,288.66Z"/><path class="cls-4" d="M773.64,411.84c2.12-6.37,13.85-12.6-.39-19.36-2.25-1.06,2-6.71,4.62-9.64,15.28-17.3,21-37.29,16.38-60-.65-3.15.18-5.56,1.28-8.17-.32-4.41-4.1-7.1-5.45-11-.28-.81,1.9-4.17-1.86-1.43a5.91,5.91,0,0,1-7.68-.79c4.28-1.35,7.2-3.14,6.63-8.77-.51-5,3.45-7.55,7.71-5.23,8,4.39,18.49,1.55,25.44,9,1.79,1.93,4.82,1.23,7.12.51,5.59-1.73,7.78,1.39,9.27,5.86,2.71,3.27,2.14,7.28,2.53,11.08.3,2.83.37,5.92,4.65,5.29,1-.32,1.9-.58,2.86-.88,4.23-1.59,8.32-1.48,12.13,1.13,2.9,2,6.33,3.78,6,8-.32,3.68-2.82,5-6.43,5.69-4.77,1-5.28,3.83-1.63,7.19,4.91,10.12.42,19.09-3.47,28.13l-1.88-1c.32,9.63-17.63,7-13.16,20,1.5,4.38-2.78,6.15-7.3,6.93-6.38,1.09-11.88,8.76-11.75,14.92-6.59,11.71-18.77,12.1-29.49,12.19a27.53,27.53,0,0,0-13.06,3C770.63,421.49,772.5,416.58,773.64,411.84Z"/><path class="cls-4" d="M694.41,286.89c-4.24,3.3-1.53,8.9-4.22,12.71-.83,4.7-4.44,7.12-7.92,9.64-11.94,8.65-18.16,20.66-20.55,34.93a18.84,18.84,0,0,0,2,11.43c2.6,5.37,2.57,10.33-1.82,14.76s-9.37,4.68-14.85,2.72c-6-2.15-12.39-3.58-17.42-7.93-4.81-9,4-11.28,8.36-15.91-11.25-9.3-22.29-18.12-36.63-21.4a7.34,7.34,0,0,1-5.55-4.59c-2-6.38-2.29-11.93,3-17.61,4.84-5.17,6-12.63,7.32-19.62,15-5.43,17.64-21.91,28-31.51l.45.26c6.28-.57,12,2.81,18.69,1.61,5.27-.95,5.47,5,6.51,8.83l-1.07,2.31c-2.35,1.79-4.58,3.79-2.69,7,1.68,2.86,4.19,1.89,6.59.85a6.67,6.67,0,0,1,5.23-.39C676.74,279,686.1,281.75,694.41,286.89Z"/><path class="cls-44" d="M856.79,340.35c-4.31-2.36-4.52-5.58-.46-7.76,3-1.64,8.14-2.29,6.25-6.34a11.33,11.33,0,0,0-11.9-6.59c-2,.31-3.93,1.52-6.09.67,2.55-6.55,9-9.38,13.46-14.11.77,8.13,4.53,12.12,13.07,9.3,2.94-1,4.58.45,3.25,2.89-3.57,6.54,1,6.42,5.09,7-.47,2.45-2.6,2.33-4.36,2.79-2.75.29-4.3-1.67-6.24-3.35,1.33,2.84,4.46,3.06,6.29,4.92,6,3.74,4.46,9.63,4.34,15.11-5.56-1.17-5.45-1.11-2.89-5.73.56-1,.6-3.11-.06-3.78-2.9-2.91-7-4.94-10.48-2.66C862.81,334.84,854.07,331.05,856.79,340.35Z"/><path class="cls-45" d="M858.05,306.22c-.83,8.19-9.14,9.24-13.45,14.11l.2.39c-6.82,1.85-6-3.37-6-7,0-4.18-1.69-9.9,5.17-10.61,3.36-.35,7-1.07,10.24,1Z"/><path class="cls-46" d="M694.41,286.89c-12.26-1.16-21.51-14-35.44-9.05-2.13.75-4.13-1.27-4.78-3.41-1.17-3.9.92-6,4.56-6.91-.06,2.36-3.69,4-1.71,6.62,1.8,2.37,3.8.18,5.63-.52,5-1.88,8.86,1.14,13,2.83,6.7,2.75,12.55,7.56,20.91,4.7,5.6-1.91,4.39,5.12,6.92,7.51C699.73,291.86,697,289.57,694.41,286.89Z"/><path class="cls-47" d="M780.54,301.48a23.27,23.27,0,0,1,3.14.44c3.73,1.06,4.74-2.51,7-4-1.88,6.61,8.91,9.53,4.89,16.77-4.76-9.35-12.47-11.7-22.52-10.89-7.41.6-15-.76-22.48-1.24,5.86-4.13,11.89-3.08,18.33-1.32C772.5,302.24,776.63,301.46,780.54,301.48Z"/><path class="cls-44" d="M854.17,304.07c-4.54,1.24-11.68-3.6-13.22,3.73-.79,3.75-4.41,10.83,3.85,12.92-5.3,5.4-7.39,1.16-8-3.27-.72-4.75-.08-9.72,0-14.59C842.61,302.17,848.6,300.05,854.17,304.07Z"/><path class="cls-48" d="M659.82,265.21c-3.05-4.09-4.12-10.49-12.44-6.44-2.91,1.42-8.44-2.51-12.76-4L636.5,252c6.14.72,11.79,3.28,18.36,3S660.36,260.65,659.82,265.21Z"/><path class="cls-49" d="M905.34,325.49c-8.66-3.75-17.31-6.62-26,0C887.89,315.11,894.87,315.11,905.34,325.49Z"/><path class="cls-50" d="M447.18,278.25l4.09-1.89a6.36,6.36,0,0,0,7,1.19c12.48-5.1,17.68,2.69,24.32,11.17,1.91,2.44,3.2,15.29,13,7.54.1-.08,2.13,2.28,3.26,3.5,3.43.27,2.23,1.87.67,3-2.71,2-6.09,1.84-9.23,2.46s-7,1.62-7.6,5.05c-1.48,8.09-2.75,17.06-1.82,24.44a35.28,35.28,0,0,0,15.45,24.67c10.82,7.1,10.71,7.48,1.5,15.8-4.75,4.29-4,13.89,1.71,22.3,1.91,2.8,5.76,4.73,4,9.13-9.82,4.16-19.67,8.17-30.36,9.57-3.41.45-5.33,2.3-7,5.65A41.07,41.07,0,0,1,449.83,439a20.08,20.08,0,0,0-6.45,3.16c-8.71,3.55-16.27-2.86-24.59-2.79-10.31,2.7-19.05-1.79-28.15-5.58-6.33-2.64-13.19-3.76-18.69,2.59-1.19,1.37-3.21,2.75-4.71,1.92-10.62-5.86-23.85-7-31.9-17.56,4-5.28,9.75-8.91,12.93-14.95,1.7-3.22,6.66-5.27,3.46-10-2.78-4.07-6.8-6.87-11.84-5.83-8.73,1.82-10.05-2-8.4-9.36,2.95-13.1-3.61-18.58-17.28-14.82-2,.54-4.24.08-6.37.08a6.94,6.94,0,0,1-4.77-3.64c-5-12.58,1.15-21.69,16.66-24.9a21,21,0,0,1,4.48,1.14c20.53,3.94,41.12,7.59,61.73,11.11,2.46.42,5.07.24,7.34,1.36,5.75,2.85,9.3,3.8,12.27-4.5,2.18-6.08,10.48-9.23,16.87-10,10.06-1.17,11.7-7.95,13.12-15.24,1-5.24,0-10.66-.34-16C434.48,294.21,438.2,285,447.18,278.25Z"/><path class="cls-4" d="M427.22,587.79c-8.34-4.23-14.62,8.12-23.14,2.92-.18-.1-1.43.83-1.45,1.32-.47,10-3.72,15.19-14.29,8.71-.48-.29-2.63.84-2.61,1.21.83,12.76-5.32,6.8-10.51,4.11a4.21,4.21,0,0,0-3.89.42c-6.13,6.68-15.21-1.06-21.62,4.49-.59.5-3.71-.71-4.54-1.9-6.91-9.87-17.24-8.28-27.12-8.69-5.55-.23-13.09.52-7.15-9.26,2.05-3.38-.68-6.26-3.27-8.18-10.22-7.52-19.87-5.34-26.78,5.66-.89,1.42-2.56,2.34-3.86,3.49-4.2-10.54-8.78-20.71-16.34-29.56-2.89-3.38-1.34-8.22,5-6.15,7.4,2.44,14.91-.53,22.27,1.07a6.46,6.46,0,0,0,4.18-.36c8.88-5,12.46-28.53,5.53-36.26-2.29-2.56-4.24-5.33-2.54-8.61,1.9-3.68,4.85-6.28,9.54-4,8.08-1.34,17.62,2,23.23-7.26,2.59-2,5.7-2.84,8.63-4.11,14.22-6.13,14.41-6.31,24.66,5.84,3.91,4.64,8.2,3,12.65,2.56,5,1.88,10.18,3.22,14.28,7,2.88,2.64,6,3.43,9.73,1.15,6.39-4,7,.49,7.61,5.28.73,5.42-.77,10.65-.83,16-.09,7.79,1.53,14.75,9.67,18.23,3.4,1.45,5.47,4.4,4.22,7.69-3.46,9.1,1.07,15,7.16,20.52a11,11,0,0,1,2.94,4.42A2,2,0,0,1,427.22,587.79Z"/><path class="cls-43" d="M373.91,506.14c-9,5.86-12.29,5.24-17-4.91-3.53-7.6-7.13-9.82-14.54-4.31-3.54,2.64-8.53,3.35-12.86,4.93-9.91,8.86-15.07,9.83-23.61,4.4,4.27-9.52,4.22-20.06,4.65-29.91.4-9.31,3.8-19.94-3.5-28.7-.93-1.12-1.37-2.87,0-3.8,10.06-7,13.06-22.58,28.32-23.16,9.57,6.19,21.11,8.4,30.46,15.1.84.6,3.37.43,3.79-.22,9.53-14.84,20.2-3.78,30.14-1.06,5.05,1.38,9.43,8.53,14.4-.23.4-.7,3.79,1.18,5.11,3,6.82,16,3.48,27.92-10.11,38.42-5.16,4-11.73,7.48-10.58,15.94.2,1.47-1.46,3.52-2.27,3.26C385.05,491.3,385.81,511.41,373.91,506.14Z"/><path class="cls-51" d="M320.16,338.07c-2.83,1.32-5.9,2.28-8.43,4-7,4.82-10.58,11.08-7.09,19.76-3.37,7.06-7.21-2.86-10.43.24-2.92,2.8-2.66,8.09-7.68,9.49-5.34,1.49-10.53-.85-15.79-.15-5.34,2.39-6.37-2.39-8.6-5.16-8.08-.12-15.76,2-23.22,4.73-4.53,1.67-8.24,1.73-11.22-2.52l.07.09c-2.57-4.38-.46-7.76,2.85-10.22,5.94-4.43,4.57-7.93-.77-11.37l.07.06c0-1.45,0-2.9,0-4.35-.12-.5-.23-1-.35-1.52-.6-3.36-3.5-5.21-5.16-7.87-6-9.55-4.2-18,5.07-24.28,11.5-3,20.16,2.62,28.44,9.38,6.55,5.54,13.3,9.6,22.1,4.36a4.2,4.2,0,0,1,5.72.93c4,5.6,7.65,8.77,11.08-.52.64-1.73,2.81-2.89,4.27-4.31,4.72-3.44,10.41-5.13,14.45-.61C320.27,323.58,325.13,330,320.16,338.07Z"/><path class="cls-52" d="M270.74,371.44c1.6-4.72,4.39-1.25,6.8-1.07,5.6.42,11,1.45,13.25-6.55,2.66-9.52,9.54,1.42,13.85-2l3.2,4c-3.14-.12-6.43,1-9.36-1.08-1.83-1.31-2.63-2-4.49,1C288.19,375,281.7,376.27,270.74,371.44Z"/><path class="cls-53" d="M227.7,368.49c9.74,6.29,17.56-4.64,27-3.1,2.36.39,5.21-2.08,7.48.89-8.43,2.46-16.83,5-25.31,7.33C232.35,374.82,228.22,374.67,227.7,368.49Z"/><path class="cls-20" d="M156.75,617.9c.76-4.56,3.22-7.77,8.87-9.17-11,5.73,5.21,19.07-8.23,24-3.73-4.76,3.05-9.84-.45-14.6Z"/><path class="cls-15" d="M229.85,347c7.84,2.19,9.5,6.08,2.85,11.63-3.23,2.71-5.42,5.58-4.93,10-3.93-3.65-2.79-7.53.86-9.83C234.6,355,232.26,351.18,229.85,347Z"/><path class="cls-54" d="M156.94,618.18c5.83,4.7,2.08,9.68.44,14.6-.88.73-1.76,1.46-2.65,2.18-2-.29-4.17.07-2.56-3.42C154.15,627.27,155.38,622.65,156.94,618.18Z"/><path class="cls-55" d="M305.9,506.25c9.22,5.78,16.27-.05,23.6-4.4-6.39,9.81-12.37,11.33-24.91,6.33Z"/><path class="cls-43" d="M662.25,564.86l-5.94,18c5,9.39,14.05,9.54,23,9.87,4.72,5.29.49,10-1.38,14.47-4,9.59,1.08,17.57,11.59,16.3,5-.6,6.53.94,6.93,5.24-1.66,3.26-1.43,6.53-1,10.15.34,3.1,2.5,7.55-1.63,9.62s-5.84-2.75-8.65-4.46c-13.34-5.16-26.57,4.46-25.6,19.06.35,5.23.9,9.93-3.62,13.7-2.42,2-5.14,3.56-7.56.92-5.09-5.53-9.51-2.81-14.11.43-13.41.61-23,6.26-29.06,19-3.1,6.53-9.09,5.62-13.92.4l.12-1.48c5.4-12.94.48-25.79-12.56-32.42-3.31-1.68-4.65-4.08-4-7.68,5.66-10.73,5.13-14.19-3.58-23.5-4-4.32-5.08-19.67-1.81-26.66,5.13-10.93,8.32-12.8,20.31-12.26-4-.23-7.93-.08-11.92-.07-10.93,0-14.09-3-15.88-14.07a21.41,21.41,0,0,0-4.12-18.06c-5.51-7.24-7-16.26-10.13-24.52-1.16-3-.11-5.54,1.55-8a20.67,20.67,0,0,1,2.13-4.06c1-1.44,2.38-3.6,3.81-3.45,15,1.56,13.63-10.11,15.71-19,3.59-2.18,8.35-1.91,11.34-5.37,8.82-5.62,17.39-11.72,27.65-14.61,9-2.22,16.87.53,21,8.3,4.47,8.53,10.8,15,17.72,21.1a151.21,151.21,0,0,1,15,15.1c3.19,4.44,8.44,5.26,13,7.37C677.91,547.27,675.9,558.76,662.25,564.86Z"/><path class="cls-56" d="M563.26,579.23c2.07,11.64,11.28,12.4,20.31,13,4.73.33,9.88-1,13.21,7-6.34-5-13.92-8.36-17.15-3.58-3.79,5.6-12.64,10.65-8,20.24,1.09,2.24.13,4.92-1.62,7-2.49,2.89-1.63,3.81,1.6,6.12,12.79,9.16,13.87,18.11,4.33,27.62-1.7,2.3.25,5.2-1.22,7.54-5,6.48-11.6,8.94-19.65,8.17-18.93-1.82-37.24,2.73-55.74,5.45-7.75,1.14-15.58,2.38-21.88-4.2-9.46,4.87-15.31-.9-21.71-6.72-8.05-7.33-18.65-10.87-26.45-19.35-6.46-7-14.22.53-22.25,5.71,1.62-5.18,4.09-7,7-7.75,9.17-2.21,13.07-9.72,17.68-16.66.82-1.23,2.14-2.32.8-3.5-4.13-3.66-7.39-7.21-1.78-12.24,3.52-3.16,3.2-10,9.83-10.22,3.25-.09,3.56-2.07,2.17-4.25-2.67-4.15-.52-7.36,3.88-11.83-8,1-13.71,3.83-19.39,1a3,3,0,0,0,.33-2c2.17-14,4.69-13.13,17.55-12.22,9.51.67,19.5,1.12,29.28,1.09,2.37,0,3.91-2.94,6-4.29,2.91-1.86,6.05-2.49,9-.43,3.16,2.18,2.79,5.44,2.06,8.72-.58,2.62-3.8,5.69-.93,7.82,3.89,2.88,7.59,7.92,12.69,7.14,7.54-1.15,16.21-.35,22-6.69,10.27-11.19,24.68-8.72,37.37-11.76C564.52,574.76,564.41,577.6,563.26,579.23Z"/><path class="cls-43" d="M477.43,673.57c14.29,5.56,27.76-1.2,41.53-3,2.3-.29,4-.5,5.84.77,1.46,1,3.6,2.88,4.7,1.57,8.72-10.44,18.82-1.87,28.22-2.51,6.12-.41,11.56-3.36,16.36-7.25,7-.12,13.47-.39,16.33,8.59,2.78,8.74,9.26,16.87.81,25.79l0,0c-11.15,9.07-24.27,16.51-27.91,32-1.77,7.55-5.86,10.39-13.15,7.69-4.84-1.78-9-1.38-12.92,2.06-1.28,1.12-3.49,2.55-4.74,2.15-14.42-4.61-22.33,5.9-31.18,13.54-4.45,3.84-7.48,3.3-10.66-.75-3.73-4.75-9.35-9.23-10.45-14.59-2.63-12.84-10-25.73-4-39.17,3.48-7.83,4.51-14.86.08-22.35C475.21,676.28,475.66,674.73,477.43,673.57Z"/><path class="cls-57" d="M545.52,810.94c9.86-6.71,12.38-14.24,10.07-23.35-.77-3-1.36-6.53,2.27-7,5.61-.65,6.6-4.35,8.08-8.51,1-2.8,2.16-6.9,6.71-4.22,6.19,3.66,7.89,1.33,8.15-5a14.83,14.83,0,0,1,9.42-13.3c6.82-2.69,11-6.56,11-16.19,3.75,10.32,2.1,15.16-7,17.86-8,2.36-10.7,10-11.42,17.89-.36,3.92-1.5,5.88-5.83,5.69-2.9-.14-7-5.85-7.88-1.34-1.35,6.94-8.45,9.59-9.23,17-.75,7.09.7,16.5-8.73,20.37C550.24,811.25,549.11,810.94,545.52,810.94Z"/><path class="cls-58" d="M443.73,765.06c-4.62-1.37-9.72-1.51-11.08-7.89,6.64,2,13.83,1.79,16.3,10.18,1,3.45,4,3.92,6.88,1.87s5.76-4.3,10.66-.81c-7.5.94-12.27,10-20.23,3.16-3.71,6.46-12.16,4.95-16.69,9.93-1.72,1.89-3.45,3.45-6.67,3.47,2.22-6.38.88-15.2,12.92-11.09C440.41,775.45,441.3,768.63,443.73,765.06Z"/><path class="cls-59" d="M634.23,678.18c3.52-4.06,6.76-8.83,12.89-3.4,7,6.23,9.33.5,10.6-4.91,1.11-4.74,0-9.75,1.65-14.69,2.53-7.45,13.36-16.08,20.84-15.62,2.81.17,4.51,1.81,5.72,4.16a1.68,1.68,0,0,1-.2,2.79c-11.37-5.45-26,3.33-24.7,15.46.63,5.93,2,11-3.26,15.55s-9.29,2.41-14.21-1c-3.61-2.48-6,2.73-9.32,3.69C634.25,679.56,634.25,678.87,634.23,678.18Z"/><path class="cls-4" d="M447.18,278.25C439.9,289,435,300.4,438.41,313.81c2.18,8.46-2.68,15.42-4.91,22.92a3.67,3.67,0,0,1-5.07,2.28c-5.27-3.51-8.88,1.14-12.37,2.8-5.44,2.59-12.83,5.2-9.54,14.47.8,2.25-1.33,4.25-3.91,2.47-13.86-9.55-30.94-6-45.48-11.24-11.49-4.13-24-.7-34.61-7.1-.79-6.12-1.7-12.12-4.24-17.91-1.3-3-3.2-4.32-5.74-5.73-2.9-1.61-9.17,3.49-8.87-3.6.24-5.51-1.55-12.65,6.35-15.39,1-.33,1.3-1.6,1.43-2.7l4.23-4.12c.22-7.07,6.23-7.2,10.82-9,2.35-2.22,4.62-2.27,6.8.25,4.5,3.21,7.63.57,10.19-2.76,2.11-2.74,3.57-6,6.85-7.63,3.17,1.41,6.78,3.57,9.79,1,7.69-6.48,11.7-.9,16.06,4.22,6.93,5.69,8.1,5.34,10.78-3.2,1.16-.66,2.85-2.21,3.41-1.87,11.59,7,21.55-3.77,32.62-2.91,4.88.38,4.6-6.91,9.06-8.09C443.29,261.32,441.88,272.72,447.18,278.25Z"/><path class="cls-60" d="M191.18,327.6c6-.57,7-6,10.16-9.44-4-3.29-6.75,2.12-10.91.3-1.17-3.14,6.15-6.64.71-10.12,3.24-3.31,6.77-6.39,8.25-11,.5-4.91,4.06-5.09,7.81-5.16a48,48,0,0,0,18.42-4.4c13.14-5.66,19.53-5.35,25.46,11.77-1.86,1.43-2.09,3.41-1.84,5.54-1.65,5.18-5.67,5.37-10.07,4.79-3.37-.45-6.71-2.19-10.12-.23-8.43,5.33-9.33,18-1.57,26.26,2,2.11,4.62,3.41,2.45,6.78l0,0c-15,5.24-33.19,2.86-43,20.82-8.18-20.88,13.07-25.73,16.79-39.09-3.86,2.81-7,6.46-11.59,6.84C188.74,331.55,191.43,328.89,191.18,327.6Z"/><path class="cls-61" d="M251.08,299.53c-11.77-15.87-12-16.37-30-8.08-7.12,3.3-16.21-2.13-21.73,5.88l-1.82-2.1c1-2,2.52-3.78,4.74-3.92a74,74,0,0,0,29.28-7.72,8,8,0,0,1,3-.93c14.23-.81,16.67-3.51,13.68-16.72S251,243.42,260,235.06c-6.11,12-12.44,23.89-6.8,38a2.51,2.51,0,0,1-.39,2c-5.71,8-6.41,15.76.64,23.39.2.22-.38,1.15-.59,1.75Z"/><path class="cls-62" d="M311.45,295.08c3.47,3.07.87,3.91-1.73,4.85-6.08,2.2-4.22,7.51-4.46,11.88-.36,6.25,4.5,2.49,6.86,3.21,7.95,2.4,12.26,12.57,10.4,25.39l-2.36-2.34c-.13-15.91-4-19.82-19.09-19.2C302.65,310.12,299.7,299.4,311.45,295.08Z"/><path class="cls-63" d="M228,308.74c3.08-3.32,6.4-1.06,9.69-.49,4.31.75,8.34.15,11.58-3.18.12,7.42,6.53,9.87,11,13.88a2.12,2.12,0,0,1-3.14.32c-7.81-6.73-17.07-9-27.13-8.81C227.73,311.66,227.64,310.44,228,308.74Z"/><path class="cls-64" d="M305,234.52l.24,2.83c-2.95,2.31-4.92,4.54-2.3,8.69a52.14,52.14,0,0,1,5.65,13.39c-5.48-4.58-7.74-11.14-10.43-17.28C295.26,235.51,301.38,235.89,305,234.52Z"/><path class="cls-65" d="M257.07,319.27l3.14-.32c7.83,7.2,16.76,2.58,25.29,2.38.23,0,.7.41.68.59a10.36,10.36,0,0,1-.46,1.78C275.5,326.58,265.34,329,257.07,319.27Z"/><path class="cls-66" d="M316.59,282.55a7.49,7.49,0,0,0-4.76-6.26c-9-4.21-3.13-6.46,3.25-10.57-7,9.89,5.27,9.1,4.79,14.83A2.86,2.86,0,0,1,316.59,282.55Z"/><path class="cls-67" d="M350.34,271.8c-4.85,5.45-6.39,15.68-17.47,12.13-.15-.05-.24-.62-.17-.9s.39-.56.6-.84c4.73.75,8.08-1.26,10.24-5.33C345,274,346.31,271.12,350.34,271.8Z"/><path class="cls-68" d="M316.59,282.55l3.29-2c1.76,2.58,4.25,1.71,6.62,1.39-1.1,5-11.13,1.31-9,9.37-.32.08-.65.27-.93.21s-.58-.36-.87-.56C315.74,288.13,313.86,285.09,316.59,282.55Z"/><path class="cls-69" d="M387,273.86c3.52,3.93.36,6.78-2.39,7.95-3.89,1.66-7.42.09-8.39-4.75C381.06,280.31,384.61,279.09,387,273.86Z"/><path class="cls-70" d="M259.92,235.21c2.67-5.59.88-12.87,6.54-17.34C265.15,224,266.21,231,259.92,235.21Z"/><path class="cls-71" d="M685.73,646.51c.07-.93.13-1.86.2-2.79,2.57.72,4.18,5,7.16,3,2.56-1.71,2.1-5.63.69-7.7-3.29-4.86-.52-7.45,2.65-10.26,1.08,2.86-1,6.41,2,8.88-.43,6-4.38,11.52-5.14,16.57-1.23,8.14-9.94,18.08,1.92,26.09,3,2,1.12,6.46-2.37,9.36-.83-4.95.7-9.92-4.73-13.39-4-2.56-2.87-7.61-.31-11.5C692.18,658.08,690.84,652.1,685.73,646.51Z"/><path class="cls-72" d="M722.34,633.41l2.1,3.86c2.35,3.57.42,5.82-2.49,7.59-2.58,1.56-5.45,1.85-7.72-.31s-.42-2.69,1.59-2.81c2.33,2.35,4.87,2.75,3.4-1.35S719.16,634.78,722.34,633.41Z"/><path class="cls-73" d="M709.62,718.7c-.16.73-.31,1.46-.47,2.19-4.83-3.43-9.14-7.35-11.76-12.95C702,710.91,707,713.41,709.62,718.7Z"/><path class="cls-2" d="M662.25,564.86c10.65-7.49,15.57-17.4,12.91-30.51,2.39-3.19,3.67-6-1.82-7.34a18.93,18.93,0,0,0-11.1.69c-9.77-9-20.64-17.19-28.91-27.45-4.88-6.05-7-13.9-15.8-16.43-2.82-.81-4.73-.18-7,.7-1.49-.62-2.7-1.44-2.62-3.3,6.8-4.88,18-2.68,23.81,4.58,1.75,2.21,1.95,5.33,5,7.67,4.13-9.59,15-16,11.53-28.59-3.06-11.17,7.88-13.87,13.1-18.44,7.25-6.33,15.54-15.52,28.28-7.5,5.22,3.28,17.05-4.13,19.94-10.51,4.22-9.32,8.83-9.83,17.73-4.59,12.15,7.14,24,15.39,38.47,17.52,8.76,8.87,4.36,18.6,1.85,28.2l-2.35,1.94c-7,1.24-14.17,2.55-20.58-1.86-3.61-2.47-5.24-.8-6.25,2.33-1.36,4.22-4,6.44-10.46,5.52,8.11,5.15,10.11,10,6.61,17.76-2.22,5,.21,14.88-4.85,15.73-14.09,2.37-11.17,21.84-25.61,23.06-2.67.22-4.91,5.17-1.25,8.75,1.53,2.43-.95,3.06-2,4.35-3.09.5-6,.33-6.31-3.63-.63-7.5-6.14-5.26-10.42-5.35-5.14-.1-6.59,3.16-6.81,7.64C676.9,555.72,672.66,562.76,662.25,564.86Z"/><path class="cls-74" d="M679.29,592.75c-4,1.59-24.63-2.91-26.12-6.14-.83-1.8,1.74-2.72,3.14-3.73C662.53,589.5,671.19,590.47,679.29,592.75Z"/><path class="cls-75" d="M729,551.34l2.31,2.24c-2.59,2.76-4.69,8.84-9.24,2.5-3.05-4.26-5.94,4.59-8.32-.5,3-2.54,4.83-8.77,10.06-2.06C726.5,556.92,727.75,553.21,729,551.34Z"/><path class="cls-75" d="M700.92,547.14l2-4.35c5,3.15,13.56,3.23,11,12.85C711,550.65,707.13,547.09,700.92,547.14Z"/><path class="cls-76" d="M879.41,344.83c7.31-2.57,14.25-2.87,21.64.72,10.06,4.89,11.43,9.72,4.12,19.4.8-16.37-3.07-19.83-20.23-18.17C882.86,347,880.64,347.19,879.41,344.83Z"/><path class="cls-56" d="M765.78,441.36c-2.79,3.36-7.24,3.58-9.67,1.53-11.22-9.46-27.64-10-37-22.86-3.51,3.79,2.44,6.81-.07,9.65-3.43,1.08-4.15-2.2-6-3.56-.56.68-1.22,1.12-1.25,1.59-.24,4.21-.23,12-3.36,11.12-8.35-2.3-15.49,10.7-23.45,1.11-3-3.6-6.44-2.74-9.53-.54-8.27,5.87-16.48,11.83-24.44,18.11-3,2.32,1.11,5.17.46,7.89-5.07.84-5.32-3.52-7.06-6.41-5.45-9.06-11.66-17.22-23.44-18.11a13.67,13.67,0,0,1-3-.35c-12.24-7-13.23-22.29-1.46-29.76,3-1.87,4.19-3.18,3.67-6.35-.57-3.43.1-6.8,3.36-8.25,7.61-3.38,7.66-9.25,6-15.93a48.22,48.22,0,0,0-1.31-10.56,11.32,11.32,0,0,1,.09-3.13A5.57,5.57,0,0,1,630,364c6.34,2.31,12.63,4.72,19,6.88,4.15,1.41,8.46,2.21,11.73-1.89s3-7.56.41-12.53c-6.82-13.2.08-24.69,6.5-35.92,5.33-9.32,14.72-14.26,22.55-20.88,3.13,8.08-2.64,16.85,1.63,24.69,2.93,5.39,3.89,10.52.33,16.34,7.93.26,4.86-6.93,7.91-9.52,2.7,5,2.2,25.91-1.5,28.24-7.79,4.91-1.39,6.28,1.76,6.76,10,1.5,15,7.23,18.16,16.54,2.26,6.75,9.86,13.07,14.8,13.63,9.55,1.1,10.14,7.42,12.41,13.08,3.71,9.26,6.42,10.56,14.29,4.47,4.44-3.43,8.6-4.75,13.67-2q1.5,6.33,3,12.67C773.81,430.62,767.55,434.54,765.78,441.36Z"/><path class="cls-77" d="M875.15,329.77c-7.46.74-9.14-5-12.4-10.38,7,.24,7.63,7.22,12.35,8.81C875.11,328.72,875.13,329.25,875.15,329.77Z"/><path class="cls-78" d="M503.09,407.25c-4.2-7-9.76-12.94-11.21-21.9-1.1-6.83-.93-10.3,5.8-13.21,5.95-2.59,5.51-3.09.14-7.16-10.74-8.14-20.05-19.88-20.44-31.76-.25-7.46-1.64-18,2.89-25.79,4-6.91,12.06-4.51,18.43-5.89a1.09,1.09,0,0,0,.59-.82c0-.31-.27-.64-.43-1,4.78-3.23,7-6.84.48-10.3-5.39-2.86-4.13-7.2-1.12-9.43,8.51-6.27,15.47-16.72,28.72-12.71,1.93.59,4.24-.06,6.37-.14,4.57-6.18,10.36-6.55,16.86-3.55,3,1.54,5.66,3.27,4.36,7.37-1,3.1.21,5.46,2.38,7.68,2.4,2.46,6.23,4.81,3.85,8.92-2.51,4.3-6.58,5.95-11.13,3.8,5.43,8.49,15.38,12.24,21.8,20A8.59,8.59,0,0,1,573,317.2c-1.74,3.86-4.08,2.95-6.78,1-5.79-4.16-8.64-1.89-8.78,4.54-.16,7.84-.94,15.67-.68,23.5.27,8.18,5.11,11.26,12.72,8,3.8-1.62,6.4-3.37,7.31,2.75s7.45,2.58,10.45,5.4c1.1,8.32-5.41,6.56-9.24,6-7.27-1.07-11.17,2.09-16.49,6.78-11.52,10.12-23.58,19.79-36,29-4.36.38-8.67.89-12,4.2-3.17,1.92-6.35,2.53-9.56.08Z"/><path class="cls-79" d="M550.33,265.46a19.51,19.51,0,0,0-17,1.73c-.87-6.26,2.34-9.44,8.12-10.28,3.51-.5,7.34.09,9-4.22,3.44-.47,8.22,3.66,9.61-3.7.66-3.47,4-5.34,8.41-3.85,8.77,2.94,19.92.55,24.93,11.57l.06-.08a42,42,0,0,0-3.36,9.9c-1.36,7.3-6.83,10.49-13.45,11.68-6.27,1.13-12.56.44-15.29-6.38C559.14,266.38,554.7,266.33,550.33,265.46Z"/><path class="cls-80" d="M550.33,265.46c6.68-3.11,12.26-4.86,13.44,5.89.62,5.65,6.49,4.75,10.54,4.81A14.53,14.53,0,0,0,588.52,267c1.5-3.53,1.57-7.65,4.9-10.32-1.22,5.48-1.71,11.27-3.84,16.37-3.77,9-1.67,12.55,8.14,10.87C609.11,293,606.4,304,590.63,313c-3.61-.88-5-4-6.15-6.88-2.19-5.37-6.43-7.19-11.18-5.43-6.48,2.39.89,6.48-.37,9.76-.47,1.6-1.23,2.77-3.19,2.14-9.31-6.08-15.82-15.77-26.27-20.42-.54-.24-1-2-.63-2.72,1.08-2.28,3.06-3.21,5.15-1.41,2.83,2.44,5.67,2.77,8.87,1.08,1.93-1,4.63-3.33,2.38-4.53C551.14,280.27,550.8,273,550.33,265.46Z"/><path class="cls-81" d="M589,312.52c3.24-3.74,9.16-3.31,11.45-9.54,2.76-7.51,3.8-13.48-2.68-19.11,2.92.34,5,3.8,8.47,2.16,5.29,8.15-.43,15.71-4.5,20.13-5.41,5.87-3.45,11.47-4.27,17.3a3.28,3.28,0,0,1-3.9.49c-1.61-3.56-7.5-4.86-5.49-10.34Z"/><path class="cls-82" d="M593.14,323l4.28.44c16.23,3.55,28.8,14,42.5,22.37,1.61,1,2.81,2.29,2.64,4.25-.22,2.66-2.24,3.19-4.5,3.51-6,.85-8.52,4.46-8.08,10.36l0,2.4c-7.54-.2-6.65-4.93-4.68-9.5a12.13,12.13,0,0,1,8.41-7c-6.21-6.93-15.21-9.11-22.59-14-6-4-12.92-7.35-19.94-6.48-10.59,1.3-15.92-3.49-19.31-12.36l-2.16-4.42,2.68-2.22a3.85,3.85,0,0,1,2.87-.43C582.21,313,584.11,322.86,593.14,323Z"/><path class="cls-2" d="M563.26,579.23c-6.72,4-14-2.11-20.09.41-7,2.88-13.87,6.45-19.26,12.61-4.34,5-24,3.85-29.89-.52-.83-.61-1.79-1.51-2.68-1.5-8.5.17-7.74-3.78-4-8.93,2.18-3,4.9-6.52,1.3-9.35-3.87-3-7.28-.57-9.45,3.48-2.06,3.83-5.43,4.3-9.23,3.19-3-.89-6.1-2.85-9.06-2.69-8.69.49-17.6,4.74-25.51-2.51l-7.83,12.41c-4-4-8.18-7.87-11.92-12.11-1.49-1.69-3.62-3.74-2.19-6.62,3.22-6.47,8.37-13.86-5.8-11.65-.9-6-6.54-10.16-6.17-16.68.47-8.29,2.65-16.54.76-24.9-9.55,5.88-13.93,4.69-28.32-7.73,3.77-1.64,8.83-.75,9.1-7.77.18-4.75,4.57-8.06,10-5.29,2.3,1.16,4.36-.13,3.68-1.11-8.14-11.57,5.62-14.68,9.22-17,12.84-8.28,15.76-18.7,13.19-32.35-.32-1.71.06-3.56.12-5.34,8.21-2.56,15.27,6.76,23.66,2.26,9.82.71,12.24,9.28,14.62,16,2.73,7.67,9.24,13.23,10.47,21.6.4,2.72,3.43,1.16,5.33.36a11.92,11.92,0,0,1,2.89-.94c11.85,1.53,2.47,6.54,1.7,10.17-2.68,9.08-2.93,19.71-11.62,21.72,7.06-1.31,17.27-.74,25.84,4.43,10.42,6.27,23.92,5.28,32.74,15,2.26,2.49,6.09-.08,9.21-.52,6.22-.88,12.71-3.36,18.37,1.82-5.61,6.37.52,12.07,1.62,17.77a31.6,31.6,0,0,0,7.5,14.9C566,566.82,567.54,573,563.26,579.23Z"/><path class="cls-2" d="M511.85,407.16c3.16-4.77,7.45-6.17,12.83-4.25,5.41-.37,10.8,1.48,12.78,6,3.83,8.76,10.8,12.61,18.93,15.64,1.32.49,2.29,1.62,2.8,4.65-12.55,1.77-28.32.23-29.15,19.38-4.67.75-6.9-7.93-10.7-4.48-5.94,5.39-12.84,9.92-17.62,16.54-1.21,1.69-1.58,4-3.6,5.11-7.93,3.62-14.07,10.58-23,12.39l0,0c-4.6,3.09-7.84,4-9.77-3.17-2.67-9.94-6.69-19.49-13.18-27.7-2.4-3-5.68-5.62-2.94-10.07,4.73-6.09,12.51-9.91,13.72-18.62.5-3.61,3.69-4,6.32-4.73,9.63-2.63,20.74-.72,28.52-9.37.34-.39,3.49,1.75,5.33,2.71l-.06-.06C506,409.52,508.92,413.36,511.85,407.16Z"/><path class="cls-83" d="M449.2,437.25c1.95,9.77,11.78,15.21,13.66,25.27.66,3.52,3.82,6.64,3.68,10.75-.25,7,4.26,5.77,8.55,4.92-1.5,3.47-4.25,4.85-7.76,3.93-3.79-1-1.89-4.92-3.14-7-7-11.91-9.5-26.52-21.28-35.54C444.33,436.93,446.9,437.46,449.2,437.25Z"/><path class="cls-15" d="M228,308.74l2,1.72c-8.57,7.35-9,15.9-.47,23.68,3.49,3.2,4.17,5.47.46,8.53-3.79-6.86-8.27-13-9.29-21.55C219.76,313.66,221.54,310.54,228,308.74Z"/><path class="cls-84" d="M496.79,465.42c2.43-12.8,15.09-16.78,22.66-25,4.68-5.09,6,5.12,9.66,7.42a6,6,0,0,1,2.82,8.24c-7.5,15.33,3.13,24.43,11.38,34.36,1.36,1.63,3.12,2.91,4.32,4.71,1.49,2.4,3.06,5.1,2.51,7.8-1.1,5.42-1.59,9.92,3.64,14,2.35,1.84.66,5.89-1.27,8.6,0,1.21,0,2.43,0,3.64-7.05.14-14-1.19-21.1,1.71-3.92,1.61-10,3.67-11.9-3.94-.57-2.22-2.75-3.31-5-3.57-11-1.26-20.19-7.72-30.46-11.15-3.53-1.19-5.52-2.17-8.24.52a6,6,0,0,1-2.63,1.16c-6-10.38-9.33.79-16.12,2.28,7.36-10.88,19.91-17.34,18.09-31.24,1.56-2.08,5.62-.92,6.09-3.5C482.86,472.48,490,469.23,496.79,465.42Z"/><path class="cls-85" d="M552.51,525.56c-1.92-3.3,4.11-10.73-5.69-10.16-3,.17-1.78-3.26-.67-4.91,3.47-5.15,1.65-10.09-.18-15.1.57-4.28,2.64-1.94,3.91-.69,4.09,4.05,4,9.63,5.09,14.78.83,3.92,3.18,6.35,7.39,6.19,4.56-.17,4.2-3.86,4.79-6.95.67-3.51-.92-8.2,4.58-9.38a1.78,1.78,0,0,1,.64,1.71c-.13.61-.28.91-.44.91,0,4.26.71,8.67-.19,12.73-1.18,5.35-2.92,11.52-11,7.58C556.74,520.29,555.47,525,552.51,525.56Z"/><path class="cls-86" d="M662.24,527.7c6.52-9.87,14.9-3.12,18.77.7,4.91,4.85-3.73,3.79-5.85,6C668.94,535.85,665.27,532.4,662.24,527.7Z"/><path class="cls-87" d="M591.22,697.56c4.16-7.26,2-14.27-.18-21.62-2.64-8.74-9.45-11-17-12.76.11-2.33-.45-4.85,1.84-6.57.33,2.52.81,5.36,4,5.35,14.58,0,12.1,13.66,16.74,21.29C599.88,688.62,596.4,694,591.22,697.56Z"/><path class="cls-88" d="M608.39,482.43l2.15,2.09c-10,2.81-17.53,10.89-27.81,13.12-.18-.47-.36-.94-.55-1.42C588.05,485.12,597.57,480.11,608.39,482.43Z"/><path class="cls-89" d="M611.93,598.14c2.07-2.68,5.48-.48,5.8-3.41.27-2.39-.64-5.36,2.93-5.4,1.9,0,3.18,2.5,2.12,3.89-1.54,2,.3,7.38-5.26,5.75A41.35,41.35,0,0,0,611.93,598.14Z"/><path class="cls-88" d="M571.93,502l-.15-2.47c2.73-5.25,6.76-3.68,10.8-2.06l.15.21C580.7,503,577.5,505.44,571.93,502Z"/><path class="cls-43" d="M582.58,497.43l-10.8,2.06c-2.52,2.19-2.07,5.16-2.09,8-.05,4.94.87,11.93-5.51,12-6.79,0-13.11-4.42-12.81-12.72.18-5.13-.38-9.08-5.4-11.35-8.49-6.26-15-13.84-19-23.93-1.43-3.6-1-5.32.32-8.43,2-4.71,4.58-9.76,1.82-15.22-.64-15.67,5.85-20.3,29.46-19.89-9.9-4.29-20.51-5.19-22.9-17.62-.58-3.05-7.17-5-11-7.39,4.18-2.43,8.25-4.61,10.33-9.69,3.72-9.06,14.67-9.3,20.8-15.79,1.8-1.91,4.4-2.9,5.5-5.83,2.41-6.38,7-7.8,13.56-6.12,4.22,1.08,9.92,4.07,12.08-3.44,0-.59,0-1.17,0-1.76,2.49-7.45,8.52-7.92,14.74-6.87,5.84,1,12.47,1.69,13.6,9.5.66,4.57,2.77,7.15,7.55,7,6.39-.13,8.18,4.19,9.13,9.35,2,7.94,4.9,16.19-7.25,18.78-1,.22-2.58,2-2.5,2.93.54,5.8,6.07,12.25-6.83,13.12-6.64.44-6.21,17.38.31,23a30.5,30.5,0,0,0,3.48,2.32c-7.28,4.34-14.89,7.23-23.57,5.55-1.08-.91.12.51-.93-.47-7.91-7.39-12.54-20-22.4-16.36,7.11-.48,14.79,6.09,20.81,15.3,10.3,5.09,19.08-.06,28-4.2,3.6-4,6.23-.47,9.16,1.14,10.26,5.63,15.27,15.69,21.18,25-.31,3.43-1.56,6.54-.72,10.39.7,3.21,4.85,11.68-5.93,8.33-2.56-.8-3.27,2.58-2.88,4.48,1.15,5.65-3.07,7.25-6.38,9.79-9.56-17.25-16.86-21.49-27.15-16C597.56,483.6,589.67,489.83,582.58,497.43Z"/><path class="cls-90" d="M571.9,317l3-.75c1.78,10.47,8.3,10.52,17.48,10.46,8-.06,16.09,6.71,23.33,8.55,10.07,2.56,13.54,13,26.78,13.81-8.68,2.58-14.27,4.57-16.32,10.55-1.15,3.34,1.16,5.26,3.83,6.72l-.06,2.16c-8.19,4.9-15.4,3.2-15.68-4.81-.37-10.39-8.94-7.9-13.68-9.65-5.78-2.13-11.94.52-13.67,8.05l0-.06c-4.83,3.54-9.35,1.95-13.43-1.22-3.13-2.42,2.08-3.95,1-6.68-4.8-1.82-3.71,10.61-12.33,4.45-6.17-4.41-9.27-6.64-7.95-14.43,1.23-7.26.3-14.86.6-22.29.12-3-1.71-7.35,2.31-8.47,3.74-1,8.44-1.75,10.79,3.47C568.92,319.18,570.5,318.74,571.9,317Z"/><path class="cls-91" d="M586.92,362.1c-.83-8.89,6.44-10.41,11.85-10.17,5.92.27,14,1.11,15.9,8.64,2.32,9.3,6.83,11.72,15.28,7.94a17.51,17.51,0,0,1,2,10.8c-.25-.25-.66-.46-.72-.76-2.2-9.76-12.33-2.75-16.54-7.78-3.73-4.47.2-13.48-10.43-14.45C596.87,355.64,591.19,355.44,586.92,362.1Z"/><path class="cls-92" d="M593.46,443.71a63.55,63.55,0,0,0,25.74-4.26,12.23,12.23,0,0,0,1.91-.18c-.06,1.39.44,3.29-.27,4.07-3,3.25-23.92,3.42-27.5.48Z"/><path class="cls-50" d="M511.85,407.16c.68,2.29,1.85,5.25-1.71,5.63s-6.52-1.47-7.11-5.61C506,407.39,508.92,409.5,511.85,407.16Z"/><path class="cls-93" d="M574.27,310.54c-.62-.07-1.23-.12-1.85-.17-1.56-3.61-8.1-4.78-5.51-10.29,1.67-3.54,5.52-3.09,8.57-2.58,4.63.78,11.22-1.09,10.83,7.73-.09,1.89,3.68,4,2.64,7.29l.12,0C583.56,316.24,579.18,311.38,574.27,310.54Z"/><path class="cls-94" d="M574.27,310.54l14.8,1.93c.57,2.31-1.07,5.5,3.55,5.92,5.19.48.52,3,.52,4.63C581,327.74,579.89,315.7,574.27,310.54Z"/><path class="cls-83" d="M496.79,465.42c-5,6-14.06,8.6-14.78,18.26,0,.59-4.49.86-6.89,1.29.58-2.82,5.27-2.46,4.65-5.83-.11-.59-3-.67-4.64-1C482.28,473.79,487.74,466.56,496.79,465.42Z"/><path class="cls-95" d="M593.34,443.82c-3.25-.1-5.32-1.93-6.5-4.76-2.55-6.08-7.17-8.47-13.59-8.19-5,.21-7.87-2.15-8.4-7.6,9.34,7.55,25.95,4.2,28.61,20.44Z"/></svg>