<svg xmlns="http://www.w3.org/2000/svg" xmlns:xlink="http://www.w3.org/1999/xlink" viewBox="0 0 1080 1080"><defs><style>.cls-1{fill:none;}.cls-2{isolation:isolate;}.cls-3{clip-path:url(#clip-path);}.cls-4{fill:#93c01f;}.cls-5{fill:#79ab2b;}.cls-6{fill:#7eae2a;}.cls-7{fill:#80b129;}.cls-8{fill:#84b427;}.cls-9{fill:#89b825;}.cls-10{fill:#8cba23;}.cls-11{fill:#90be21;}.cls-12{fill:#fff;}.cls-13{fill:#a9c91a;}.cls-14{fill:#b7d136;}.cls-14,.cls-19,.cls-22{mix-blend-mode:multiply;}.cls-15{fill:#ba7331;}.cls-16{fill:#d48337;}.cls-17{fill:#ff9e42;}.cls-18{fill:#94fff1;}.cls-19{fill:#007d6c;}.cls-19,.cls-22,.cls-26{opacity:0.3;}.cls-20{fill:#ba671a;}.cls-21{fill:#cf991d;}.cls-22{fill:#262e00;}.cls-23,.cls-24{fill:#ffbc24;}.cls-23{opacity:0.6;}.cls-24,.cls-25{opacity:0.4;}.cls-25,.cls-26,.cls-27{fill:#d6ff21;}.cls-27{opacity:0.5;}</style><clipPath id="clip-path"><rect class="cls-1" x="-1118.29" y="253.45" width="976.29" height="573.1"/></clipPath></defs><g class="cls-2"><g id="Ñëîé_1" data-name="Ñëîé 1"><g class="cls-3"><path class="cls-4" d="M1913.13,229.36H-2369V826.55H1913.13Z"/><path class="cls-5" d="M-2320,250.18a27,27,0,0,0-27,27,27,27,0,0,0,27,27,27,27,0,0,0,27-27A27,27,0,0,0-2320,250.18Zm74.63,0a27,27,0,0,0-27,27,27,27,0,0,0,27,27,27,27,0,0,0,27-27A27,27,0,0,0-2245.36,250.18Zm74.64,0a27,27,0,0,0-27,27,27,27,0,0,0,27,27,27,27,0,0,0,27-27A27,27,0,0,0-2170.72,250.18Zm74.64,0a27,27,0,0,0-27,27,27,27,0,0,0,27,27,27,27,0,0,0,27-27A27,27,0,0,0-2096.08,250.18Zm74.64,0a27,27,0,0,0-27,27,27,27,0,0,0,27,27,27,27,0,0,0,27-27A27,27,0,0,0-2021.44,250.18Zm74.64,0a27,27,0,0,0-27,27,27,27,0,0,0,27,27,27,27,0,0,0,27-27A27,27,0,0,0-1946.8,250.18Zm74.63,0a27,27,0,0,0-27,27,27,27,0,0,0,27,27,27,27,0,0,0,27-27A27,27,0,0,0-1872.17,250.18Zm74.64,0a27,27,0,0,0-27,27,27,27,0,0,0,27,27,27,27,0,0,0,27-27A27,27,0,0,0-1797.53,250.18Zm74.64,0a27,27,0,0,0-27,27,27,27,0,0,0,27,27,27,27,0,0,0,27-27A27,27,0,0,0-1722.89,250.18Zm74.64,0a27,27,0,0,0-27,27,27,27,0,0,0,27,27,27,27,0,0,0,27-27A27,27,0,0,0-1648.25,250.18Zm74.64,0a27,27,0,0,0-27,27,27,27,0,0,0,27,27,27,27,0,0,0,27-27A27,27,0,0,0-1573.61,250.18Zm74.63,0a27,27,0,0,0-27,27,27,27,0,0,0,27,27,27,27,0,0,0,27-27A27,27,0,0,0-1499,250.18Zm74.64,0a27,27,0,0,0-27,27,27,27,0,0,0,27,27,27,27,0,0,0,27-27A27,27,0,0,0-1424.34,250.18Zm74.64,0a27,27,0,0,0-27,27,27,27,0,0,0,27,27,27,27,0,0,0,27-27A27,27,0,0,0-1349.7,250.18Zm74.64,0a27,27,0,0,0-27,27,27,27,0,0,0,27,27,27,27,0,0,0,27-27A27,27,0,0,0-1275.06,250.18Zm74.64,0a27,27,0,0,0-27,27,27,27,0,0,0,27,27,27,27,0,0,0,27-27A27,27,0,0,0-1200.42,250.18Zm74.63,0a27,27,0,0,0-27,27,27,27,0,0,0,27,27,27,27,0,0,0,27-27A27,27,0,0,0-1125.79,250.18Zm74.64,0a27,27,0,0,0-27,27,27,27,0,0,0,27,27,27,27,0,0,0,27-27A27,27,0,0,0-1051.15,250.18Zm74.64,0a27,27,0,0,0-27,27,27,27,0,0,0,27,27,27,27,0,0,0,27-27A27,27,0,0,0-976.51,250.18Zm74.64,0a27,27,0,0,0-27,27,27,27,0,0,0,27,27,27,27,0,0,0,27-27A27,27,0,0,0-901.87,250.18Zm74.64,0a27,27,0,0,0-27,27,27,27,0,0,0,27,27,27,27,0,0,0,27-27A27,27,0,0,0-827.23,250.18Zm74.63,0a27,27,0,0,0-27,27,27,27,0,0,0,27,27,27,27,0,0,0,27-27A27,27,0,0,0-752.6,250.18Zm74.64,0a27,27,0,0,0-27,27,27,27,0,0,0,27,27,27,27,0,0,0,27-27A27,27,0,0,0-678,250.18Zm74.64,0a27,27,0,0,0-27,27,27,27,0,0,0,27,27,27,27,0,0,0,27-27A27,27,0,0,0-603.32,250.18Zm74.64,0a27,27,0,0,0-27,27,27,27,0,0,0,27,27,27,27,0,0,0,27-27A27,27,0,0,0-528.68,250.18Zm74.64,0a27,27,0,0,0-27,27,27,27,0,0,0,27,27,27,27,0,0,0,27-27A27,27,0,0,0-454,250.18Zm74.63,0a27,27,0,0,0-27,27,27,27,0,0,0,27,27,27,27,0,0,0,27-27A27,27,0,0,0-379.41,250.18Zm74.64,0a27,27,0,0,0-27,27,27,27,0,0,0,27,27,27,27,0,0,0,27-27A27,27,0,0,0-304.77,250.18Zm74.64,0a27,27,0,0,0-27,27,27,27,0,0,0,27,27,27,27,0,0,0,27-27A27,27,0,0,0-230.13,250.18Zm74.65,0a27,27,0,0,0-27,27,27,27,0,0,0,27,27,27,27,0,0,0,27-27A27,27,0,0,0-155.48,250.18Zm74.63,0a27,27,0,0,0-27,27,27,27,0,0,0,27,27,27,27,0,0,0,27-27A27,27,0,0,0-80.85,250.18Zm74.64,0a27,27,0,0,0-27,27,27,27,0,0,0,27,27,27,27,0,0,0,27-27A27,27,0,0,0-6.21,250.18Zm74.64,0a27,27,0,1,0,27,27A27,27,0,0,0,68.43,250.18Zm74.64,0a27,27,0,1,0,27,27A27,27,0,0,0,143.07,250.18Zm74.64,0a27,27,0,1,0,27,27A27,27,0,0,0,217.71,250.18Zm74.63,0a27,27,0,1,0,27,27A27,27,0,0,0,292.34,250.18Zm74.64,0a27,27,0,1,0,27,27A27,27,0,0,0,367,250.18Zm74.64,0a27,27,0,1,0,27,27A27,27,0,0,0,441.62,250.18Zm74.64,0a27,27,0,1,0,27,27A27,27,0,0,0,516.26,250.18Zm74.64,0a27,27,0,1,0,27,27A27,27,0,0,0,590.9,250.18Zm74.63,0a27,27,0,1,0,27,27A27,27,0,0,0,665.53,250.18Zm74.64,0a27,27,0,1,0,27,27A27,27,0,0,0,740.17,250.18Zm74.64,0a27,27,0,1,0,27,27A27,27,0,0,0,814.81,250.18Zm74.64,0a27,27,0,1,0,27,27A27,27,0,0,0,889.45,250.18Zm74.64,0a27,27,0,1,0,27,27A27,27,0,0,0,964.09,250.18Zm74.63,0a27,27,0,1,0,27,27A27,27,0,0,0,1038.72,250.18Zm74.64,0a27,27,0,1,0,27,27A27,27,0,0,0,1113.36,250.18Zm74.64,0a27,27,0,1,0,27,27A27,27,0,0,0,1188,250.18Zm74.64,0a27,27,0,1,0,27,27A27,27,0,0,0,1262.64,250.18Zm74.64,0a27,27,0,1,0,27,27A27,27,0,0,0,1337.28,250.18Zm74.63,0a27,27,0,1,0,27,27A27,27,0,0,0,1411.91,250.18Zm74.64,0a27,27,0,1,0,27,27A27,27,0,0,0,1486.55,250.18Zm74.64,0a27,27,0,1,0,27,27A27,27,0,0,0,1561.19,250.18Zm74.64,0a27,27,0,1,0,27,27A27,27,0,0,0,1635.83,250.18Zm74.64,0a27,27,0,1,0,27,27A27,27,0,0,0,1710.47,250.18Zm149.27,0a27,27,0,1,0,27,27A27,27,0,0,0,1859.74,250.18Zm-74.64,0a27,27,0,1,0,27,27A27,27,0,0,0,1785.1,250.18Z"/><path class="cls-6" d="M-2320,322.14a27,27,0,0,0-27,27,27,27,0,0,0,27,27,27,27,0,0,0,27-27A27,27,0,0,0-2320,322.14Zm74.63,0a27,27,0,0,0-27,27,27,27,0,0,0,27,27,27,27,0,0,0,27-27A27,27,0,0,0-2245.36,322.14Zm74.64,0a27,27,0,0,0-27,27,27,27,0,0,0,27,27,27,27,0,0,0,27-27A27,27,0,0,0-2170.72,322.14Zm74.64,0a27,27,0,0,0-27,27,27,27,0,0,0,27,27,27,27,0,0,0,27-27A27,27,0,0,0-2096.08,322.14Zm74.64,0a27,27,0,0,0-27,27,27,27,0,0,0,27,27,27,27,0,0,0,27-27A27,27,0,0,0-2021.44,322.14Zm74.64,0a27,27,0,0,0-27,27,27,27,0,0,0,27,27,27,27,0,0,0,27-27A27,27,0,0,0-1946.8,322.14Zm74.63,0a27,27,0,0,0-27,27,27,27,0,0,0,27,27,27,27,0,0,0,27-27A27,27,0,0,0-1872.17,322.14Zm74.64,0a27,27,0,0,0-27,27,27,27,0,0,0,27,27,27,27,0,0,0,27-27A27,27,0,0,0-1797.53,322.14Zm74.64,0a27,27,0,0,0-27,27,27,27,0,0,0,27,27,27,27,0,0,0,27-27A27,27,0,0,0-1722.89,322.14Zm74.64,0a27,27,0,0,0-27,27,27,27,0,0,0,27,27,27,27,0,0,0,27-27A27,27,0,0,0-1648.25,322.14Zm74.64,0a27,27,0,0,0-27,27,27,27,0,0,0,27,27,27,27,0,0,0,27-27A27,27,0,0,0-1573.61,322.14Zm74.63,0a27,27,0,0,0-27,27,27,27,0,0,0,27,27,27,27,0,0,0,27-27A27,27,0,0,0-1499,322.14Zm74.64,0a27,27,0,0,0-27,27,27,27,0,0,0,27,27,27,27,0,0,0,27-27A27,27,0,0,0-1424.34,322.14Zm74.64,0a27,27,0,0,0-27,27,27,27,0,0,0,27,27,27,27,0,0,0,27-27A27,27,0,0,0-1349.7,322.14Zm74.64,0a27,27,0,0,0-27,27,27,27,0,0,0,27,27,27,27,0,0,0,27-27A27,27,0,0,0-1275.06,322.14Zm74.64,0a27,27,0,0,0-27,27,27,27,0,0,0,27,27,27,27,0,0,0,27-27A27,27,0,0,0-1200.42,322.14Zm74.63,0a27,27,0,0,0-27,27,27,27,0,0,0,27,27,27,27,0,0,0,27-27A27,27,0,0,0-1125.79,322.14Zm74.64,0a27,27,0,0,0-27,27,27,27,0,0,0,27,27,27,27,0,0,0,27-27A27,27,0,0,0-1051.15,322.14Zm74.64,0a27,27,0,0,0-27,27,27,27,0,0,0,27,27,27,27,0,0,0,27-27A27,27,0,0,0-976.51,322.14Zm74.64,0a27,27,0,0,0-27,27,27,27,0,0,0,27,27,27,27,0,0,0,27-27A27,27,0,0,0-901.87,322.14Zm74.64,0a27,27,0,0,0-27,27,27,27,0,0,0,27,27,27,27,0,0,0,27-27A27,27,0,0,0-827.23,322.14Zm74.63,0a27,27,0,0,0-27,27,27,27,0,0,0,27,27,27,27,0,0,0,27-27A27,27,0,0,0-752.6,322.14Zm74.64,0a27,27,0,0,0-27,27,27,27,0,0,0,27,27,27,27,0,0,0,27-27A27,27,0,0,0-678,322.14Zm74.64,0a27,27,0,0,0-27,27,27,27,0,0,0,27,27,27,27,0,0,0,27-27A27,27,0,0,0-603.32,322.14Zm74.64,0a27,27,0,0,0-27,27,27,27,0,0,0,27,27,27,27,0,0,0,27-27A27,27,0,0,0-528.68,322.14Zm74.64,0a27,27,0,0,0-27,27,27,27,0,0,0,27,27,27,27,0,0,0,27-27A27,27,0,0,0-454,322.14Zm74.63,0a27,27,0,0,0-27,27,27,27,0,0,0,27,27,27,27,0,0,0,27-27A27,27,0,0,0-379.41,322.14Zm74.64,0a27,27,0,0,0-27,27,27,27,0,0,0,27,27,27,27,0,0,0,27-27A27,27,0,0,0-304.77,322.14Zm74.64,0a27,27,0,0,0-27,27,27,27,0,0,0,27,27,27,27,0,0,0,27-27A27,27,0,0,0-230.13,322.14Zm74.65,0a27,27,0,0,0-27,27,27,27,0,0,0,27,27,27,27,0,0,0,27-27A27,27,0,0,0-155.48,322.14Zm74.63,0a27,27,0,0,0-27,27,27,27,0,0,0,27,27,27,27,0,0,0,27-27A27,27,0,0,0-80.85,322.14Zm74.64,0a27,27,0,0,0-27,27,27,27,0,0,0,27,27,27,27,0,0,0,27-27A27,27,0,0,0-6.21,322.14Zm74.64,0a27,27,0,1,0,27,27A27,27,0,0,0,68.43,322.14Zm74.64,0a27,27,0,1,0,27,27A27,27,0,0,0,143.07,322.14Zm74.64,0a27,27,0,1,0,27,27A27,27,0,0,0,217.71,322.14Zm74.63,0a27,27,0,1,0,27,27A27,27,0,0,0,292.34,322.14Zm74.64,0a27,27,0,1,0,27,27A27,27,0,0,0,367,322.14Zm74.64,0a27,27,0,1,0,27,27A27,27,0,0,0,441.62,322.14Zm74.64,0a27,27,0,1,0,27,27A27,27,0,0,0,516.26,322.14Zm74.64,0a27,27,0,1,0,27,27A27,27,0,0,0,590.9,322.14Zm74.63,0a27,27,0,1,0,27,27A27,27,0,0,0,665.53,322.14Zm74.64,0a27,27,0,1,0,27,27A27,27,0,0,0,740.17,322.14Zm74.64,0a27,27,0,1,0,27,27A27,27,0,0,0,814.81,322.14Zm74.64,0a27,27,0,1,0,27,27A27,27,0,0,0,889.45,322.14Zm74.64,0a27,27,0,1,0,27,27A27,27,0,0,0,964.09,322.14Zm74.63,0a27,27,0,1,0,27,27A27,27,0,0,0,1038.72,322.14Zm74.64,0a27,27,0,1,0,27,27A27,27,0,0,0,1113.36,322.14Zm74.64,0a27,27,0,1,0,27,27A27,27,0,0,0,1188,322.14Zm74.64,0a27,27,0,1,0,27,27A27,27,0,0,0,1262.64,322.14Zm74.64,0a27,27,0,1,0,27,27A27,27,0,0,0,1337.28,322.14Zm74.63,0a27,27,0,1,0,27,27A27,27,0,0,0,1411.91,322.14Zm74.64,0a27,27,0,1,0,27,27A27,27,0,0,0,1486.55,322.14Zm74.64,0a27,27,0,1,0,27,27A27,27,0,0,0,1561.19,322.14Zm74.64,0a27,27,0,1,0,27,27A27,27,0,0,0,1635.83,322.14Zm74.64,0a27,27,0,1,0,27,27A27,27,0,0,0,1710.47,322.14Zm149.27,0a27,27,0,1,0,27,27A27,27,0,0,0,1859.74,322.14Zm-74.64,0a27,27,0,1,0,27,27A27,27,0,0,0,1785.1,322.14Z"/><path class="cls-7" d="M-2320,394.09a27,27,0,0,0-27,27,27,27,0,0,0,27,27,27,27,0,0,0,27-27A27,27,0,0,0-2320,394.09Zm74.63,0a27,27,0,0,0-27,27,27,27,0,0,0,27,27,27,27,0,0,0,27-27A27,27,0,0,0-2245.36,394.09Zm74.64,0a27,27,0,0,0-27,27,27,27,0,0,0,27,27,27,27,0,0,0,27-27A27,27,0,0,0-2170.72,394.09Zm74.64,0a27,27,0,0,0-27,27,27,27,0,0,0,27,27,27,27,0,0,0,27-27A27,27,0,0,0-2096.08,394.09Zm74.64,0a27,27,0,0,0-27,27,27,27,0,0,0,27,27,27,27,0,0,0,27-27A27,27,0,0,0-2021.44,394.09Zm74.64,0a27,27,0,0,0-27,27,27,27,0,0,0,27,27,27,27,0,0,0,27-27A27,27,0,0,0-1946.8,394.09Zm74.63,0a27,27,0,0,0-27,27,27,27,0,0,0,27,27,27,27,0,0,0,27-27A27,27,0,0,0-1872.17,394.09Zm74.64,0a27,27,0,0,0-27,27,27,27,0,0,0,27,27,27,27,0,0,0,27-27A27,27,0,0,0-1797.53,394.09Zm74.64,0a27,27,0,0,0-27,27,27,27,0,0,0,27,27,27,27,0,0,0,27-27A27,27,0,0,0-1722.89,394.09Zm74.64,0a27,27,0,0,0-27,27,27,27,0,0,0,27,27,27,27,0,0,0,27-27A27,27,0,0,0-1648.25,394.09Zm74.64,0a27,27,0,0,0-27,27,27,27,0,0,0,27,27,27,27,0,0,0,27-27A27,27,0,0,0-1573.61,394.09Zm74.63,0a27,27,0,0,0-27,27,27,27,0,0,0,27,27,27,27,0,0,0,27-27A27,27,0,0,0-1499,394.09Zm74.64,0a27,27,0,0,0-27,27,27,27,0,0,0,27,27,27,27,0,0,0,27-27A27,27,0,0,0-1424.34,394.09Zm74.64,0a27,27,0,0,0-27,27,27,27,0,0,0,27,27,27,27,0,0,0,27-27A27,27,0,0,0-1349.7,394.09Zm74.64,0a27,27,0,0,0-27,27,27,27,0,0,0,27,27,27,27,0,0,0,27-27A27,27,0,0,0-1275.06,394.09Zm74.64,0a27,27,0,0,0-27,27,27,27,0,0,0,27,27,27,27,0,0,0,27-27A27,27,0,0,0-1200.42,394.09Zm74.63,0a27,27,0,0,0-27,27,27,27,0,0,0,27,27,27,27,0,0,0,27-27A27,27,0,0,0-1125.79,394.09Zm74.64,0a27,27,0,0,0-27,27,27,27,0,0,0,27,27,27,27,0,0,0,27-27A27,27,0,0,0-1051.15,394.09Zm74.64,0a27,27,0,0,0-27,27,27,27,0,0,0,27,27,27,27,0,0,0,27-27A27,27,0,0,0-976.51,394.09Zm74.64,0a27,27,0,0,0-27,27,27,27,0,0,0,27,27,27,27,0,0,0,27-27A27,27,0,0,0-901.87,394.09Zm74.64,0a27,27,0,0,0-27,27,27,27,0,0,0,27,27,27,27,0,0,0,27-27A27,27,0,0,0-827.23,394.09Zm74.63,0a27,27,0,0,0-27,27,27,27,0,0,0,27,27,27,27,0,0,0,27-27A27,27,0,0,0-752.6,394.09Zm74.64,0a27,27,0,0,0-27,27,27,27,0,0,0,27,27,27,27,0,0,0,27-27A27,27,0,0,0-678,394.09Zm74.64,0a27,27,0,0,0-27,27,27,27,0,0,0,27,27,27,27,0,0,0,27-27A27,27,0,0,0-603.32,394.09Zm74.64,0a27,27,0,0,0-27,27,27,27,0,0,0,27,27,27,27,0,0,0,27-27A27,27,0,0,0-528.68,394.09Zm74.64,0a27,27,0,0,0-27,27,27,27,0,0,0,27,27,27,27,0,0,0,27-27A27,27,0,0,0-454,394.09Zm74.63,0a27,27,0,0,0-27,27,27,27,0,0,0,27,27,27,27,0,0,0,27-27A27,27,0,0,0-379.41,394.09Zm74.64,0a27,27,0,0,0-27,27,27,27,0,0,0,27,27,27,27,0,0,0,27-27A27,27,0,0,0-304.77,394.09Zm74.64,0a27,27,0,0,0-27,27,27,27,0,0,0,27,27,27,27,0,0,0,27-27A27,27,0,0,0-230.13,394.09Zm74.65,0a27,27,0,0,0-27,27,27,27,0,0,0,27,27,27,27,0,0,0,27-27A27,27,0,0,0-155.48,394.09Zm74.63,0a27,27,0,0,0-27,27,27,27,0,0,0,27,27,27,27,0,0,0,27-27A27,27,0,0,0-80.85,394.09Zm74.64,0a27,27,0,0,0-27,27,27,27,0,0,0,27,27,27,27,0,0,0,27-27A27,27,0,0,0-6.21,394.09Zm74.64,0a27,27,0,1,0,27,27A27,27,0,0,0,68.43,394.09Zm74.64,0a27,27,0,1,0,27,27A27,27,0,0,0,143.07,394.09Zm74.64,0a27,27,0,1,0,27,27A27,27,0,0,0,217.71,394.09Zm74.63,0a27,27,0,1,0,27,27A27,27,0,0,0,292.34,394.09Zm74.64,0a27,27,0,1,0,27,27A27,27,0,0,0,367,394.09Zm74.64,0a27,27,0,1,0,27,27A27,27,0,0,0,441.62,394.09Zm74.64,0a27,27,0,1,0,27,27A27,27,0,0,0,516.26,394.09Zm74.64,0a27,27,0,1,0,27,27A27,27,0,0,0,590.9,394.09Zm74.63,0a27,27,0,1,0,27,27A27,27,0,0,0,665.53,394.09Zm74.64,0a27,27,0,1,0,27,27A27,27,0,0,0,740.17,394.09Zm74.64,0a27,27,0,1,0,27,27A27,27,0,0,0,814.81,394.09Zm74.64,0a27,27,0,1,0,27,27A27,27,0,0,0,889.45,394.09Zm74.64,0a27,27,0,1,0,27,27A27,27,0,0,0,964.09,394.09Zm74.63,0a27,27,0,1,0,27,27A27,27,0,0,0,1038.72,394.09Zm74.64,0a27,27,0,1,0,27,27A27,27,0,0,0,1113.36,394.09Zm74.64,0a27,27,0,1,0,27,27A27,27,0,0,0,1188,394.09Zm74.64,0a27,27,0,1,0,27,27A27,27,0,0,0,1262.64,394.09Zm74.64,0a27,27,0,1,0,27,27A27,27,0,0,0,1337.28,394.09Zm74.63,0a27,27,0,1,0,27,27A27,27,0,0,0,1411.91,394.09Zm74.64,0a27,27,0,1,0,27,27A27,27,0,0,0,1486.55,394.09Zm74.64,0a27,27,0,1,0,27,27A27,27,0,0,0,1561.19,394.09Zm74.64,0a27,27,0,1,0,27,27A27,27,0,0,0,1635.83,394.09Zm74.64,0a27,27,0,1,0,27,27A27,27,0,0,0,1710.47,394.09Zm149.27,0a27,27,0,1,0,27,27A27,27,0,0,0,1859.74,394.09Zm-74.64,0a27,27,0,1,0,27,27A27,27,0,0,0,1785.1,394.09Z"/><path class="cls-8" d="M-2320,466.05a27,27,0,0,0-27,27,27,27,0,0,0,27,27,27,27,0,0,0,27-27A27,27,0,0,0-2320,466.05Zm74.64,0a27,27,0,0,0-27,27,27,27,0,0,0,27,27,27,27,0,0,0,27-27A27,27,0,0,0-2245.36,466.05Zm74.64,0a27,27,0,0,0-27,27,27,27,0,0,0,27,27,27,27,0,0,0,27-27A27,27,0,0,0-2170.72,466.05Zm74.64,0a27,27,0,0,0-27,27,27,27,0,0,0,27,27,27,27,0,0,0,27-27A27,27,0,0,0-2096.08,466.05Zm74.63,0a27,27,0,0,0-27,27,27,27,0,0,0,27,27,27,27,0,0,0,27-27A27,27,0,0,0-2021.45,466.05Zm74.64,0a27,27,0,0,0-27,27,27,27,0,0,0,27,27,27,27,0,0,0,27-27A27,27,0,0,0-1946.81,466.05Zm74.64,0a27,27,0,0,0-27,27,27,27,0,0,0,27,27,27,27,0,0,0,27-27A27,27,0,0,0-1872.17,466.05Zm74.64,0a27,27,0,0,0-27,27,27,27,0,0,0,27,27,27,27,0,0,0,27-27A27,27,0,0,0-1797.53,466.05Zm74.64,0a27,27,0,0,0-27,27,27,27,0,0,0,27,27,27,27,0,0,0,27-27A27,27,0,0,0-1722.89,466.05Zm74.63,0a27,27,0,0,0-27,27,27,27,0,0,0,27,27,27,27,0,0,0,27-27A27,27,0,0,0-1648.26,466.05Zm74.64,0a27,27,0,0,0-27,27,27,27,0,0,0,27,27,27,27,0,0,0,27-27A27,27,0,0,0-1573.62,466.05Zm74.64,0a27,27,0,0,0-27,27,27,27,0,0,0,27,27,27,27,0,0,0,27-27A27,27,0,0,0-1499,466.05Zm74.64,0a27,27,0,0,0-27,27,27,27,0,0,0,27,27,27,27,0,0,0,27-27A27,27,0,0,0-1424.34,466.05Zm74.64,0a27,27,0,0,0-27,27,27,27,0,0,0,27,27,27,27,0,0,0,27-27A27,27,0,0,0-1349.7,466.05Zm74.63,0a27,27,0,0,0-27,27,27,27,0,0,0,27,27,27,27,0,0,0,27-27A27,27,0,0,0-1275.07,466.05Zm74.64,0a27,27,0,0,0-27,27,27,27,0,0,0,27,27,27,27,0,0,0,27-27A27,27,0,0,0-1200.43,466.05Zm74.64,0a27,27,0,0,0-27,27,27,27,0,0,0,27,27,27,27,0,0,0,27-27A27,27,0,0,0-1125.79,466.05Zm74.64,0a27,27,0,0,0-27,27,27,27,0,0,0,27,27,27,27,0,0,0,27-27A27,27,0,0,0-1051.15,466.05Zm74.64,0a27,27,0,0,0-27,27,27,27,0,0,0,27,27,27,27,0,0,0,27-27A27,27,0,0,0-976.51,466.05Zm74.63,0a27,27,0,0,0-27,27,27,27,0,0,0,27,27,27,27,0,0,0,27-27A27,27,0,0,0-901.88,466.05Zm74.64,0a27,27,0,0,0-27,27,27,27,0,0,0,27,27,27,27,0,0,0,27-27A27,27,0,0,0-827.24,466.05Zm74.64,0a27,27,0,0,0-27,27,27,27,0,0,0,27,27,27,27,0,0,0,27-27A27,27,0,0,0-752.6,466.05Zm74.64,0a27,27,0,0,0-27,27,27,27,0,0,0,27,27,27,27,0,0,0,27-27A27,27,0,0,0-678,466.05Zm74.64,0a27,27,0,0,0-27,27,27,27,0,0,0,27,27,27,27,0,0,0,27-27A27,27,0,0,0-603.32,466.05Zm74.64,0a27,27,0,0,0-27,27,27,27,0,0,0,27,27,27,27,0,0,0,27-27A27,27,0,0,0-528.68,466.05Zm74.64,0a27,27,0,0,0-27,27,27,27,0,0,0,27,27,27,27,0,0,0,27-27A27,27,0,0,0-454,466.05Zm74.63,0a27,27,0,0,0-27,27,27,27,0,0,0,27,27,27,27,0,0,0,27-27A27,27,0,0,0-379.41,466.05Zm74.64,0a27,27,0,0,0-27,27,27,27,0,0,0,27,27,27,27,0,0,0,27-27A27,27,0,0,0-304.77,466.05Zm74.64,0a27,27,0,0,0-27,27,27,27,0,0,0,27,27,27,27,0,0,0,27-27A27,27,0,0,0-230.13,466.05Zm74.65,0a27,27,0,0,0-27,27,27,27,0,0,0,27,27,27,27,0,0,0,27-27A27,27,0,0,0-155.48,466.05Zm74.63,0a27,27,0,0,0-27,27,27,27,0,0,0,27,27,27,27,0,0,0,27-27A27,27,0,0,0-80.85,466.05Zm74.64,0a27,27,0,0,0-27,27,27,27,0,0,0,27,27,27,27,0,0,0,27-27A27,27,0,0,0-6.21,466.05Zm74.64,0a27,27,0,1,0,27,27A27,27,0,0,0,68.43,466.05Zm74.64,0a27,27,0,1,0,27,27A27,27,0,0,0,143.07,466.05Zm74.64,0a27,27,0,1,0,27,27A27,27,0,0,0,217.71,466.05Zm74.63,0a27,27,0,1,0,27,27A27,27,0,0,0,292.34,466.05Zm74.64,0a27,27,0,1,0,27,27A27,27,0,0,0,367,466.05Zm74.64,0a27,27,0,1,0,27,27A27,27,0,0,0,441.62,466.05Zm74.64,0a27,27,0,1,0,27,27A27,27,0,0,0,516.26,466.05Zm74.64,0a27,27,0,1,0,27,27A27,27,0,0,0,590.9,466.05Zm74.63,0a27,27,0,1,0,27,27A27,27,0,0,0,665.53,466.05Zm74.64,0a27,27,0,1,0,27,27A27,27,0,0,0,740.17,466.05Zm74.64,0a27,27,0,1,0,27,27A27,27,0,0,0,814.81,466.05Zm74.64,0a27,27,0,1,0,27,27A27,27,0,0,0,889.45,466.05Zm74.64,0a27,27,0,1,0,27,27A27,27,0,0,0,964.09,466.05Zm74.63,0a27,27,0,1,0,27,27A27,27,0,0,0,1038.72,466.05Zm74.64,0a27,27,0,1,0,27,27A27,27,0,0,0,1113.36,466.05Zm74.64,0a27,27,0,1,0,27,27A27,27,0,0,0,1188,466.05Zm74.64,0a27,27,0,1,0,27,27A27,27,0,0,0,1262.64,466.05Zm74.64,0a27,27,0,1,0,27,27A27,27,0,0,0,1337.28,466.05Zm74.63,0a27,27,0,1,0,27,27A27,27,0,0,0,1411.91,466.05Zm74.64,0a27,27,0,1,0,27,27A27,27,0,0,0,1486.55,466.05Zm74.64,0a27,27,0,1,0,27,27A27,27,0,0,0,1561.19,466.05Zm74.64,0a27,27,0,1,0,27,27A27,27,0,0,0,1635.83,466.05Zm74.64,0a27,27,0,1,0,27,27A27,27,0,0,0,1710.47,466.05Zm149.27,0a27,27,0,1,0,27,27A27,27,0,0,0,1859.74,466.05Zm-74.64,0a27,27,0,1,0,27,27A27,27,0,0,0,1785.1,466.05Z"/><path class="cls-9" d="M-2320,538a27,27,0,0,0-27,27,27,27,0,0,0,27,27,27,27,0,0,0,27-27A27,27,0,0,0-2320,538Zm74.63,0a27,27,0,0,0-27,27,27,27,0,0,0,27,27,27,27,0,0,0,27-27A27,27,0,0,0-2245.36,538Zm74.64,0a27,27,0,0,0-27,27,27,27,0,0,0,27,27,27,27,0,0,0,27-27A27,27,0,0,0-2170.72,538Zm74.64,0a27,27,0,0,0-27,27,27,27,0,0,0,27,27,27,27,0,0,0,27-27A27,27,0,0,0-2096.08,538Zm74.64,0a27,27,0,0,0-27,27,27,27,0,0,0,27,27,27,27,0,0,0,27-27A27,27,0,0,0-2021.44,538Zm74.64,0a27,27,0,0,0-27,27,27,27,0,0,0,27,27,27,27,0,0,0,27-27A27,27,0,0,0-1946.8,538Zm74.63,0a27,27,0,0,0-27,27,27,27,0,0,0,27,27,27,27,0,0,0,27-27A27,27,0,0,0-1872.17,538Zm74.64,0a27,27,0,0,0-27,27,27,27,0,0,0,27,27,27,27,0,0,0,27-27A27,27,0,0,0-1797.53,538Zm74.64,0a27,27,0,0,0-27,27,27,27,0,0,0,27,27,27,27,0,0,0,27-27A27,27,0,0,0-1722.89,538Zm74.64,0a27,27,0,0,0-27,27,27,27,0,0,0,27,27,27,27,0,0,0,27-27A27,27,0,0,0-1648.25,538Zm74.64,0a27,27,0,0,0-27,27,27,27,0,0,0,27,27,27,27,0,0,0,27-27A27,27,0,0,0-1573.61,538Zm74.63,0a27,27,0,0,0-27,27,27,27,0,0,0,27,27,27,27,0,0,0,27-27A27,27,0,0,0-1499,538Zm74.64,0a27,27,0,0,0-27,27,27,27,0,0,0,27,27,27,27,0,0,0,27-27A27,27,0,0,0-1424.34,538Zm74.64,0a27,27,0,0,0-27,27,27,27,0,0,0,27,27,27,27,0,0,0,27-27A27,27,0,0,0-1349.7,538Zm74.64,0a27,27,0,0,0-27,27,27,27,0,0,0,27,27,27,27,0,0,0,27-27A27,27,0,0,0-1275.06,538Zm74.64,0a27,27,0,0,0-27,27,27,27,0,0,0,27,27,27,27,0,0,0,27-27A27,27,0,0,0-1200.42,538Zm74.63,0a27,27,0,0,0-27,27,27,27,0,0,0,27,27,27,27,0,0,0,27-27A27,27,0,0,0-1125.79,538Zm74.64,0a27,27,0,0,0-27,27,27,27,0,0,0,27,27,27,27,0,0,0,27-27A27,27,0,0,0-1051.15,538Zm74.64,0a27,27,0,0,0-27,27,27,27,0,0,0,27,27,27,27,0,0,0,27-27A27,27,0,0,0-976.51,538Zm74.64,0a27,27,0,0,0-27,27,27,27,0,0,0,27,27,27,27,0,0,0,27-27A27,27,0,0,0-901.87,538Zm74.64,0a27,27,0,0,0-27,27,27,27,0,0,0,27,27,27,27,0,0,0,27-27A27,27,0,0,0-827.23,538Zm74.63,0a27,27,0,0,0-27,27,27,27,0,0,0,27,27,27,27,0,0,0,27-27A27,27,0,0,0-752.6,538Zm74.64,0a27,27,0,0,0-27,27,27,27,0,0,0,27,27,27,27,0,0,0,27-27A27,27,0,0,0-678,538Zm74.64,0a27,27,0,0,0-27,27,27,27,0,0,0,27,27,27,27,0,0,0,27-27A27,27,0,0,0-603.32,538Zm74.64,0a27,27,0,0,0-27,27,27,27,0,0,0,27,27,27,27,0,0,0,27-27A27,27,0,0,0-528.68,538Zm74.64,0a27,27,0,0,0-27,27,27,27,0,0,0,27,27,27,27,0,0,0,27-27A27,27,0,0,0-454,538Zm74.63,0a27,27,0,0,0-27,27,27,27,0,0,0,27,27,27,27,0,0,0,27-27A27,27,0,0,0-379.41,538Zm74.64,0a27,27,0,0,0-27,27,27,27,0,0,0,27,27,27,27,0,0,0,27-27A27,27,0,0,0-304.77,538Zm74.64,0a27,27,0,0,0-27,27,27,27,0,0,0,27,27,27,27,0,0,0,27-27A27,27,0,0,0-230.13,538Zm74.65,0a27,27,0,0,0-27,27,27,27,0,0,0,27,27,27,27,0,0,0,27-27A27,27,0,0,0-155.48,538Zm74.63,0a27,27,0,0,0-27,27,27,27,0,0,0,27,27,27,27,0,0,0,27-27A27,27,0,0,0-80.85,538Zm74.64,0a27,27,0,0,0-27,27,27,27,0,0,0,27,27,27,27,0,0,0,27-27A27,27,0,0,0-6.21,538Zm74.64,0a27,27,0,1,0,27,27A27,27,0,0,0,68.43,538Zm74.64,0a27,27,0,1,0,27,27A27,27,0,0,0,143.07,538Zm74.64,0a27,27,0,1,0,27,27A27,27,0,0,0,217.71,538Zm74.63,0a27,27,0,1,0,27,27A27,27,0,0,0,292.34,538ZM367,538a27,27,0,1,0,27,27A27,27,0,0,0,367,538Zm74.64,0a27,27,0,1,0,27,27A27,27,0,0,0,441.62,538Zm74.64,0a27,27,0,1,0,27,27A27,27,0,0,0,516.26,538Zm74.64,0a27,27,0,1,0,27,27A27,27,0,0,0,590.9,538Zm74.63,0a27,27,0,1,0,27,27A27,27,0,0,0,665.53,538Zm74.64,0a27,27,0,1,0,27,27A27,27,0,0,0,740.17,538Zm74.64,0a27,27,0,1,0,27,27A27,27,0,0,0,814.81,538Zm74.64,0a27,27,0,1,0,27,27A27,27,0,0,0,889.45,538Zm74.64,0a27,27,0,1,0,27,27A27,27,0,0,0,964.09,538Zm74.63,0a27,27,0,1,0,27,27A27,27,0,0,0,1038.72,538Zm74.64,0a27,27,0,1,0,27,27A27,27,0,0,0,1113.36,538Zm74.64,0a27,27,0,1,0,27,27A27,27,0,0,0,1188,538Zm74.64,0a27,27,0,1,0,27,27A27,27,0,0,0,1262.64,538Zm74.64,0a27,27,0,1,0,27,27A27,27,0,0,0,1337.28,538Zm74.63,0a27,27,0,1,0,27,27A27,27,0,0,0,1411.91,538Zm74.64,0a27,27,0,1,0,27,27A27,27,0,0,0,1486.55,538Zm74.64,0a27,27,0,1,0,27,27A27,27,0,0,0,1561.19,538Zm74.64,0a27,27,0,1,0,27,27A27,27,0,0,0,1635.83,538Zm74.64,0a27,27,0,1,0,27,27A27,27,0,0,0,1710.47,538Zm149.27,0a27,27,0,1,0,27,27A27,27,0,0,0,1859.74,538Zm-74.64,0a27,27,0,1,0,27,27A27,27,0,0,0,1785.1,538Z"/><path class="cls-10" d="M-2320,610a27,27,0,0,0-27,27,27,27,0,0,0,27,27,27,27,0,0,0,27-27A27,27,0,0,0-2320,610Zm74.63,0a27,27,0,0,0-27,27,27,27,0,0,0,27,27,27,27,0,0,0,27-27A27,27,0,0,0-2245.36,610Zm74.64,0a27,27,0,0,0-27,27,27,27,0,0,0,27,27,27,27,0,0,0,27-27A27,27,0,0,0-2170.72,610Zm74.64,0a27,27,0,0,0-27,27,27,27,0,0,0,27,27,27,27,0,0,0,27-27A27,27,0,0,0-2096.08,610Zm74.64,0a27,27,0,0,0-27,27,27,27,0,0,0,27,27,27,27,0,0,0,27-27A27,27,0,0,0-2021.44,610Zm74.64,0a27,27,0,0,0-27,27,27,27,0,0,0,27,27,27,27,0,0,0,27-27A27,27,0,0,0-1946.8,610Zm74.63,0a27,27,0,0,0-27,27,27,27,0,0,0,27,27,27,27,0,0,0,27-27A27,27,0,0,0-1872.17,610Zm74.64,0a27,27,0,0,0-27,27,27,27,0,0,0,27,27,27,27,0,0,0,27-27A27,27,0,0,0-1797.53,610Zm74.64,0a27,27,0,0,0-27,27,27,27,0,0,0,27,27,27,27,0,0,0,27-27A27,27,0,0,0-1722.89,610Zm74.64,0a27,27,0,0,0-27,27,27,27,0,0,0,27,27,27,27,0,0,0,27-27A27,27,0,0,0-1648.25,610Zm74.64,0a27,27,0,0,0-27,27,27,27,0,0,0,27,27,27,27,0,0,0,27-27A27,27,0,0,0-1573.61,610Zm74.63,0a27,27,0,0,0-27,27,27,27,0,0,0,27,27,27,27,0,0,0,27-27A27,27,0,0,0-1499,610Zm74.64,0a27,27,0,0,0-27,27,27,27,0,0,0,27,27,27,27,0,0,0,27-27A27,27,0,0,0-1424.34,610Zm74.64,0a27,27,0,0,0-27,27,27,27,0,0,0,27,27,27,27,0,0,0,27-27A27,27,0,0,0-1349.7,610Zm74.64,0a27,27,0,0,0-27,27,27,27,0,0,0,27,27,27,27,0,0,0,27-27A27,27,0,0,0-1275.06,610Zm74.64,0a27,27,0,0,0-27,27,27,27,0,0,0,27,27,27,27,0,0,0,27-27A27,27,0,0,0-1200.42,610Zm74.63,0a27,27,0,0,0-27,27,27,27,0,0,0,27,27,27,27,0,0,0,27-27A27,27,0,0,0-1125.79,610Zm74.64,0a27,27,0,0,0-27,27,27,27,0,0,0,27,27,27,27,0,0,0,27-27A27,27,0,0,0-1051.15,610Zm74.64,0a27,27,0,0,0-27,27,27,27,0,0,0,27,27,27,27,0,0,0,27-27A27,27,0,0,0-976.51,610Zm74.64,0a27,27,0,0,0-27,27,27,27,0,0,0,27,27,27,27,0,0,0,27-27A27,27,0,0,0-901.87,610Zm74.64,0a27,27,0,0,0-27,27,27,27,0,0,0,27,27,27,27,0,0,0,27-27A27,27,0,0,0-827.23,610Zm74.63,0a27,27,0,0,0-27,27,27,27,0,0,0,27,27,27,27,0,0,0,27-27A27,27,0,0,0-752.6,610Zm74.64,0a27,27,0,0,0-27,27,27,27,0,0,0,27,27,27,27,0,0,0,27-27A27,27,0,0,0-678,610Zm74.64,0a27,27,0,0,0-27,27,27,27,0,0,0,27,27,27,27,0,0,0,27-27A27,27,0,0,0-603.32,610Zm74.64,0a27,27,0,0,0-27,27,27,27,0,0,0,27,27,27,27,0,0,0,27-27A27,27,0,0,0-528.68,610Zm74.64,0a27,27,0,0,0-27,27,27,27,0,0,0,27,27,27,27,0,0,0,27-27A27,27,0,0,0-454,610Zm74.63,0a27,27,0,0,0-27,27,27,27,0,0,0,27,27,27,27,0,0,0,27-27A27,27,0,0,0-379.41,610Zm74.64,0a27,27,0,0,0-27,27,27,27,0,0,0,27,27,27,27,0,0,0,27-27A27,27,0,0,0-304.77,610Zm74.64,0a27,27,0,0,0-27,27,27,27,0,0,0,27,27,27,27,0,0,0,27-27A27,27,0,0,0-230.13,610Zm74.65,0a27,27,0,0,0-27,27,27,27,0,0,0,27,27,27,27,0,0,0,27-27A27,27,0,0,0-155.48,610Zm74.63,0a27,27,0,0,0-27,27,27,27,0,0,0,27,27,27,27,0,0,0,27-27A27,27,0,0,0-80.85,610Zm74.64,0a27,27,0,0,0-27,27,27,27,0,0,0,27,27,27,27,0,0,0,27-27A27,27,0,0,0-6.21,610Zm74.64,0a27,27,0,1,0,27,27A27,27,0,0,0,68.43,610Zm74.64,0a27,27,0,1,0,27,27A27,27,0,0,0,143.07,610Zm74.64,0a27,27,0,1,0,27,27A27,27,0,0,0,217.71,610Zm74.63,0a27,27,0,1,0,27,27A27,27,0,0,0,292.34,610ZM367,610a27,27,0,1,0,27,27A27,27,0,0,0,367,610Zm74.64,0a27,27,0,1,0,27,27A27,27,0,0,0,441.62,610Zm74.64,0a27,27,0,1,0,27,27A27,27,0,0,0,516.26,610Zm74.64,0a27,27,0,1,0,27,27A27,27,0,0,0,590.9,610Zm74.63,0a27,27,0,1,0,27,27A27,27,0,0,0,665.53,610Zm74.64,0a27,27,0,1,0,27,27A27,27,0,0,0,740.17,610Zm74.64,0a27,27,0,1,0,27,27A27,27,0,0,0,814.81,610Zm74.64,0a27,27,0,1,0,27,27A27,27,0,0,0,889.45,610Zm74.64,0a27,27,0,1,0,27,27A27,27,0,0,0,964.09,610Zm74.63,0a27,27,0,1,0,27,27A27,27,0,0,0,1038.72,610Zm74.64,0a27,27,0,1,0,27,27A27,27,0,0,0,1113.36,610Zm74.64,0a27,27,0,1,0,27,27A27,27,0,0,0,1188,610Zm74.64,0a27,27,0,1,0,27,27A27,27,0,0,0,1262.64,610Zm74.64,0a27,27,0,1,0,27,27A27,27,0,0,0,1337.28,610Zm74.63,0a27,27,0,1,0,27,27A27,27,0,0,0,1411.91,610Zm74.64,0a27,27,0,1,0,27,27A27,27,0,0,0,1486.55,610Zm74.64,0a27,27,0,1,0,27,27A27,27,0,0,0,1561.19,610Zm74.64,0a27,27,0,1,0,27,27A27,27,0,0,0,1635.83,610Zm74.64,0a27,27,0,1,0,27,27A27,27,0,0,0,1710.47,610Zm149.27,0a27,27,0,1,0,27,27A27,27,0,0,0,1859.74,610Zm-74.64,0a27,27,0,1,0,27,27A27,27,0,0,0,1785.1,610Z"/><path class="cls-11" d="M-2320,681.93a27,27,0,0,0-27,27,27,27,0,0,0,27,27,27,27,0,0,0,27-27A27,27,0,0,0-2320,681.93Zm74.63,0a27,27,0,0,0-27,27,27,27,0,0,0,27,27,27,27,0,0,0,27-27A27,27,0,0,0-2245.36,681.93Zm74.64,0a27,27,0,0,0-27,27,27,27,0,0,0,27,27,27,27,0,0,0,27-27A27,27,0,0,0-2170.72,681.93Zm74.64,0a27,27,0,0,0-27,27,27,27,0,0,0,27,27,27,27,0,0,0,27-27A27,27,0,0,0-2096.08,681.93Zm74.64,0a27,27,0,0,0-27,27,27,27,0,0,0,27,27,27,27,0,0,0,27-27A27,27,0,0,0-2021.44,681.93Zm74.64,0a27,27,0,0,0-27,27,27,27,0,0,0,27,27,27,27,0,0,0,27-27A27,27,0,0,0-1946.8,681.93Zm74.63,0a27,27,0,0,0-27,27,27,27,0,0,0,27,27,27,27,0,0,0,27-27A27,27,0,0,0-1872.17,681.93Zm74.64,0a27,27,0,0,0-27,27,27,27,0,0,0,27,27,27,27,0,0,0,27-27A27,27,0,0,0-1797.53,681.93Zm74.64,0a27,27,0,0,0-27,27,27,27,0,0,0,27,27,27,27,0,0,0,27-27A27,27,0,0,0-1722.89,681.93Zm74.64,0a27,27,0,0,0-27,27,27,27,0,0,0,27,27,27,27,0,0,0,27-27A27,27,0,0,0-1648.25,681.93Zm74.64,0a27,27,0,0,0-27,27,27,27,0,0,0,27,27,27,27,0,0,0,27-27A27,27,0,0,0-1573.61,681.93Zm74.63,0a27,27,0,0,0-27,27,27,27,0,0,0,27,27,27,27,0,0,0,27-27A27,27,0,0,0-1499,681.93Zm74.64,0a27,27,0,0,0-27,27,27,27,0,0,0,27,27,27,27,0,0,0,27-27A27,27,0,0,0-1424.34,681.93Zm74.64,0a27,27,0,0,0-27,27,27,27,0,0,0,27,27,27,27,0,0,0,27-27A27,27,0,0,0-1349.7,681.93Zm74.64,0a27,27,0,0,0-27,27,27,27,0,0,0,27,27,27,27,0,0,0,27-27A27,27,0,0,0-1275.06,681.93Zm74.64,0a27,27,0,0,0-27,27,27,27,0,0,0,27,27,27,27,0,0,0,27-27A27,27,0,0,0-1200.42,681.93Zm74.63,0a27,27,0,0,0-27,27,27,27,0,0,0,27,27,27,27,0,0,0,27-27A27,27,0,0,0-1125.79,681.93Zm74.64,0a27,27,0,0,0-27,27,27,27,0,0,0,27,27,27,27,0,0,0,27-27A27,27,0,0,0-1051.15,681.93Zm74.64,0a27,27,0,0,0-27,27,27,27,0,0,0,27,27,27,27,0,0,0,27-27A27,27,0,0,0-976.51,681.93Zm74.64,0a27,27,0,0,0-27,27,27,27,0,0,0,27,27,27,27,0,0,0,27-27A27,27,0,0,0-901.87,681.93Zm74.64,0a27,27,0,0,0-27,27,27,27,0,0,0,27,27,27,27,0,0,0,27-27A27,27,0,0,0-827.23,681.93Zm74.63,0a27,27,0,0,0-27,27,27,27,0,0,0,27,27,27,27,0,0,0,27-27A27,27,0,0,0-752.6,681.93Zm74.64,0a27,27,0,0,0-27,27,27,27,0,0,0,27,27,27,27,0,0,0,27-27A27,27,0,0,0-678,681.93Zm74.64,0a27,27,0,0,0-27,27,27,27,0,0,0,27,27,27,27,0,0,0,27-27A27,27,0,0,0-603.32,681.93Zm74.64,0a27,27,0,0,0-27,27,27,27,0,0,0,27,27,27,27,0,0,0,27-27A27,27,0,0,0-528.68,681.93Zm74.64,0a27,27,0,0,0-27,27,27,27,0,0,0,27,27,27,27,0,0,0,27-27A27,27,0,0,0-454,681.93Zm74.63,0a27,27,0,0,0-27,27,27,27,0,0,0,27,27,27,27,0,0,0,27-27A27,27,0,0,0-379.41,681.93Zm74.64,0a27,27,0,0,0-27,27,27,27,0,0,0,27,27,27,27,0,0,0,27-27A27,27,0,0,0-304.77,681.93Zm74.64,0a27,27,0,0,0-27,27,27,27,0,0,0,27,27,27,27,0,0,0,27-27A27,27,0,0,0-230.13,681.93Zm74.65,0a27,27,0,0,0-27,27,27,27,0,0,0,27,27,27,27,0,0,0,27-27A27,27,0,0,0-155.48,681.93Zm74.63,0a27,27,0,0,0-27,27,27,27,0,0,0,27,27,27,27,0,0,0,27-27A27,27,0,0,0-80.85,681.93Zm74.64,0a27,27,0,0,0-27,27,27,27,0,0,0,27,27,27,27,0,0,0,27-27A27,27,0,0,0-6.21,681.93Zm74.64,0a27,27,0,1,0,27,27A27,27,0,0,0,68.43,681.93Zm74.64,0a27,27,0,1,0,27,27A27,27,0,0,0,143.07,681.93Zm74.64,0a27,27,0,1,0,27,27A27,27,0,0,0,217.71,681.93Zm74.63,0a27,27,0,1,0,27,27A27,27,0,0,0,292.34,681.93Zm74.64,0a27,27,0,1,0,27,27A27,27,0,0,0,367,681.93Zm74.64,0a27,27,0,1,0,27,27A27,27,0,0,0,441.62,681.93Zm74.64,0a27,27,0,1,0,27,27A27,27,0,0,0,516.26,681.93Zm74.64,0a27,27,0,1,0,27,27A27,27,0,0,0,590.9,681.93Zm74.63,0a27,27,0,1,0,27,27A27,27,0,0,0,665.53,681.93Zm74.64,0a27,27,0,1,0,27,27A27,27,0,0,0,740.17,681.93Zm74.64,0a27,27,0,1,0,27,27A27,27,0,0,0,814.81,681.93Zm74.64,0a27,27,0,1,0,27,27A27,27,0,0,0,889.45,681.93Zm74.64,0a27,27,0,1,0,27,27A27,27,0,0,0,964.09,681.93Zm74.63,0a27,27,0,1,0,27,27A27,27,0,0,0,1038.72,681.93Zm74.64,0a27,27,0,1,0,27,27A27,27,0,0,0,1113.36,681.93Zm74.64,0a27,27,0,1,0,27,27A27,27,0,0,0,1188,681.93Zm74.64,0a27,27,0,1,0,27,27A27,27,0,0,0,1262.64,681.93Zm74.64,0a27,27,0,1,0,27,27A27,27,0,0,0,1337.28,681.93Zm74.63,0a27,27,0,1,0,27,27A27,27,0,0,0,1411.91,681.93Zm74.64,0a27,27,0,1,0,27,27A27,27,0,0,0,1486.55,681.93Zm74.64,0a27,27,0,1,0,27,27A27,27,0,0,0,1561.19,681.93Zm74.64,0a27,27,0,1,0,27,27A27,27,0,0,0,1635.83,681.93Zm74.64,0a27,27,0,1,0,27,27A27,27,0,0,0,1710.47,681.93Zm149.27,0a27,27,0,1,0,27,27A27,27,0,0,0,1859.74,681.93Zm-74.64,0a27,27,0,1,0,27,27A27,27,0,0,0,1785.1,681.93Z"/><path class="cls-4" d="M-2320,753.89a27,27,0,0,0-27,27,27,27,0,0,0,27,27,27,27,0,0,0,27-27A27,27,0,0,0-2320,753.89Zm74.63,0a27,27,0,0,0-27,27,27,27,0,0,0,27,27,27,27,0,0,0,27-27A27,27,0,0,0-2245.36,753.89Zm74.64,0a27,27,0,0,0-27,27,27,27,0,0,0,27,27,27,27,0,0,0,27-27A27,27,0,0,0-2170.72,753.89Zm74.64,0a27,27,0,0,0-27,27,27,27,0,0,0,27,27,27,27,0,0,0,27-27A27,27,0,0,0-2096.08,753.89Zm74.64,0a27,27,0,0,0-27,27,27,27,0,0,0,27,27,27,27,0,0,0,27-27A27,27,0,0,0-2021.44,753.89Zm74.64,0a27,27,0,0,0-27,27,27,27,0,0,0,27,27,27,27,0,0,0,27-27A27,27,0,0,0-1946.8,753.89Zm74.63,0a27,27,0,0,0-27,27,27,27,0,0,0,27,27,27,27,0,0,0,27-27A27,27,0,0,0-1872.17,753.89Zm74.64,0a27,27,0,0,0-27,27,27,27,0,0,0,27,27,27,27,0,0,0,27-27A27,27,0,0,0-1797.53,753.89Zm74.64,0a27,27,0,0,0-27,27,27,27,0,0,0,27,27,27,27,0,0,0,27-27A27,27,0,0,0-1722.89,753.89Zm74.64,0a27,27,0,0,0-27,27,27,27,0,0,0,27,27,27,27,0,0,0,27-27A27,27,0,0,0-1648.25,753.89Zm74.64,0a27,27,0,0,0-27,27,27,27,0,0,0,27,27,27,27,0,0,0,27-27A27,27,0,0,0-1573.61,753.89Zm74.63,0a27,27,0,0,0-27,27,27,27,0,0,0,27,27,27,27,0,0,0,27-27A27,27,0,0,0-1499,753.89Zm74.64,0a27,27,0,0,0-27,27,27,27,0,0,0,27,27,27,27,0,0,0,27-27A27,27,0,0,0-1424.34,753.89Zm74.64,0a27,27,0,0,0-27,27,27,27,0,0,0,27,27,27,27,0,0,0,27-27A27,27,0,0,0-1349.7,753.89Zm74.64,0a27,27,0,0,0-27,27,27,27,0,0,0,27,27,27,27,0,0,0,27-27A27,27,0,0,0-1275.06,753.89Zm74.64,0a27,27,0,0,0-27,27,27,27,0,0,0,27,27,27,27,0,0,0,27-27A27,27,0,0,0-1200.42,753.89Zm74.63,0a27,27,0,0,0-27,27,27,27,0,0,0,27,27,27,27,0,0,0,27-27A27,27,0,0,0-1125.79,753.89Zm74.64,0a27,27,0,0,0-27,27,27,27,0,0,0,27,27,27,27,0,0,0,27-27A27,27,0,0,0-1051.15,753.89Zm74.64,0a27,27,0,0,0-27,27,27,27,0,0,0,27,27,27,27,0,0,0,27-27A27,27,0,0,0-976.51,753.89Zm74.64,0a27,27,0,0,0-27,27,27,27,0,0,0,27,27,27,27,0,0,0,27-27A27,27,0,0,0-901.87,753.89Zm74.64,0a27,27,0,0,0-27,27,27,27,0,0,0,27,27,27,27,0,0,0,27-27A27,27,0,0,0-827.23,753.89Zm74.63,0a27,27,0,0,0-27,27,27,27,0,0,0,27,27,27,27,0,0,0,27-27A27,27,0,0,0-752.6,753.89Zm74.64,0a27,27,0,0,0-27,27,27,27,0,0,0,27,27,27,27,0,0,0,27-27A27,27,0,0,0-678,753.89Zm74.64,0a27,27,0,0,0-27,27,27,27,0,0,0,27,27,27,27,0,0,0,27-27A27,27,0,0,0-603.32,753.89Zm74.64,0a27,27,0,0,0-27,27,27,27,0,0,0,27,27,27,27,0,0,0,27-27A27,27,0,0,0-528.68,753.89Zm74.64,0a27,27,0,0,0-27,27,27,27,0,0,0,27,27,27,27,0,0,0,27-27A27,27,0,0,0-454,753.89Zm74.63,0a27,27,0,0,0-27,27,27,27,0,0,0,27,27,27,27,0,0,0,27-27A27,27,0,0,0-379.41,753.89Zm74.64,0a27,27,0,0,0-27,27,27,27,0,0,0,27,27,27,27,0,0,0,27-27A27,27,0,0,0-304.77,753.89Zm74.64,0a27,27,0,0,0-27,27,27,27,0,0,0,27,27,27,27,0,0,0,27-27A27,27,0,0,0-230.13,753.89Zm74.65,0a27,27,0,0,0-27,27,27,27,0,0,0,27,27,27,27,0,0,0,27-27A27,27,0,0,0-155.48,753.89Zm74.63,0a27,27,0,0,0-27,27,27,27,0,0,0,27,27,27,27,0,0,0,27-27A27,27,0,0,0-80.85,753.89Zm74.64,0a27,27,0,0,0-27,27,27,27,0,0,0,27,27,27,27,0,0,0,27-27A27,27,0,0,0-6.21,753.89Zm74.64,0a27,27,0,1,0,27,27A27,27,0,0,0,68.43,753.89Zm74.64,0a27,27,0,1,0,27,27A27,27,0,0,0,143.07,753.89Zm74.64,0a27,27,0,1,0,27,27A27,27,0,0,0,217.71,753.89Zm74.63,0a27,27,0,1,0,27,27A27,27,0,0,0,292.34,753.89Zm74.64,0a27,27,0,1,0,27,27A27,27,0,0,0,367,753.89Zm74.64,0a27,27,0,1,0,27,27A27,27,0,0,0,441.62,753.89Zm74.64,0a27,27,0,1,0,27,27A27,27,0,0,0,516.26,753.89Zm74.64,0a27,27,0,1,0,27,27A27,27,0,0,0,590.9,753.89Zm74.63,0a27,27,0,1,0,27,27A27,27,0,0,0,665.53,753.89Zm74.64,0a27,27,0,1,0,27,27A27,27,0,0,0,740.17,753.89Zm74.64,0a27,27,0,1,0,27,27A27,27,0,0,0,814.81,753.89Zm74.64,0a27,27,0,1,0,27,27A27,27,0,0,0,889.45,753.89Zm74.64,0a27,27,0,1,0,27,27A27,27,0,0,0,964.09,753.89Zm74.63,0a27,27,0,1,0,27,27A27,27,0,0,0,1038.72,753.89Zm74.64,0a27,27,0,1,0,27,27A27,27,0,0,0,1113.36,753.89Zm74.64,0a27,27,0,1,0,27,27A27,27,0,0,0,1188,753.89Zm74.64,0a27,27,0,1,0,27,27A27,27,0,0,0,1262.64,753.89Zm74.64,0a27,27,0,1,0,27,27A27,27,0,0,0,1337.28,753.89Zm74.63,0a27,27,0,1,0,27,27A27,27,0,0,0,1411.91,753.89Zm74.64,0a27,27,0,1,0,27,27A27,27,0,0,0,1486.55,753.89Zm74.64,0a27,27,0,1,0,27,27A27,27,0,0,0,1561.19,753.89Zm74.64,0a27,27,0,1,0,27,27A27,27,0,0,0,1635.83,753.89Zm74.64,0a27,27,0,1,0,27,27A27,27,0,0,0,1710.47,753.89Zm149.27,0a27,27,0,1,0,27,27A27,27,0,0,0,1859.74,753.89Zm-74.64,0a27,27,0,1,0,27,27A27,27,0,0,0,1785.1,753.89Z"/><path class="cls-12" d="M-1001.33,392.51c10-7.81,28-10.61,39.93-6.23l25.41,9.33c11.93,4.38,30,1.7,40.13-6l58.8-44.45c10.14-7.67,28.13-10.19,40-5.6,0,0,128,48.38,127.78,48.59,32.37,12,54.38-7.28,54.38-7.28l146-112c10.12-7.68,26.41-11.22,36.2-7.86s142.26,53.25,142.06,53.46c32.36,12,54.39-7.28,54.39-7.28l29-21.41c10.13-7.69,26.42-11.23,36.21-7.86S136.84,392.82,136.63,393c32.37,12,54.39-7.28,54.39-7.28l29-21.41c10.13-7.68,26.41-11.22,36.21-7.86S561,470.17,560.77,470.35c32.37,12,54.39-7.28,54.39-7.28l200.72-139V219.82H-1275V518.27h112Z"/></g><path class="cls-13" d="M1063,417.71v371.7H17.17V387.14c29.06-8.48,61.14-19.37,94.74-30.57,19.37-6.66,39.35-13.32,59.63-19.68,6.05-1.81,12.11-3.93,18.46-5.75-21.79-3.93-35.71-7-35.71-7l3.63-.91a41.42,41.42,0,0,1,4.54-.91c2.12-.6,4.24-.91,7-1.51.61,0,.91,0,1.21-.3,17-3.94,46.31-10.6,81.43-18.16,56-12.11,94.74-17.26,184.64-3.94,89.89,13.62,180.7,21.49,277.56,36.63,90.5,14.22,127.43,36.62,131.67,39.35l.3.3s-19.37,7.57-37.53,11.5c-6.66,1.21-13,2.42-18.16,2.42-2.73,0-7.27-.6-12.72-.91,22.1,3.94,45.1,7.57,69,10.6h.3c38.74,5.15,80.21,8.78,125,10.29A660.39,660.39,0,0,1,1063,417.71Z"/><path class="cls-14" d="M1063,724.33v65.08H758.45c-24.21-10-45.4-15.44-75.37-9.68-50.54,9.68-88.38,10.59-183.43-3.33-95-14.23-122-30.57-203.4-29.06-81.42,1.21-51.16-5.75-137.12-15.13-43.59-4.55-92.93-3.34-142,2.11V618.09C87.09,596,161.25,595.39,192.73,606c41.17,14.23,63.87,13.62,145.59,15.74,81.42,2.12,152.86-2.42,205.23,22.4,52.06,24.52,125.91,27.55,215.21,27.55,89,0,154.67-11.2,228.53,30.26C1015.43,718,1040,721.91,1063,724.33Z"/><path class="cls-15" d="M1063,720.7v68.71H767.84C739.69,777,717,769.13,683.08,776.1c-50.54,9.68-88.38,10.29-183.43-3.64-95-14.22-122-30.57-203.4-29.06-81.42,1.21-51.16-5.45-137.12-14.83-43.59-4.84-92.93-3.33-142,1.82V614.16c69.92-22.1,144.08-22.71,175.56-12.11,41.17,14.22,63.87,13.62,145.59,15.74,81.42,2.12,152.86-2.12,205.23,22.39C595.61,665,669.46,668,758.76,668c89,0,154.67-11.51,228.53,30.26C1015.43,714,1040,718,1063,720.7Z"/><path class="cls-16" d="M1063,715v74.46H780.25c-34.51-15.44-58.42-26.63-97.17-18.77C632.54,780,594.7,780.94,499.65,767c-95-14.22-122-30.57-203.4-29.06-81.42,1.22-51.16-5.44-137.12-15.13-43.59-4.54-92.93-3-142,2.12V608.71C87.09,586.61,161.25,586,192.73,596.6c41.17,14.23,63.87,13.62,145.59,15.74,81.42,2.12,152.86-2.42,205.23,22.4,52.06,24.52,125.91,27.85,215.21,27.85,89,0,154.67-11.51,228.53,30C1015.43,708.59,1040,712.53,1063,715Z"/><path class="cls-17" d="M1063,704.36v85H804.46c-49.34-20.28-74.16-38.74-121.38-29.36-50.54,9.38-88.38,10.29-183.43-3.63-95-14.23-122-30.57-203.4-29.06-81.42,1.21-51.16-5.45-137.12-15.13-43.59-4.54-92.93-3-142,2.12V598.11C87.09,576,161.25,575.41,192.73,586c41.17,14.23,63.87,13.63,145.59,15.75,81.42,2.11,152.86-2.43,205.23,22.4C595.61,648.66,669.46,652,758.76,652c89,0,154.67-11.5,228.53,30C1015.43,698,1040,701.93,1063,704.36Z"/><path class="cls-18" d="M1063,702.54v86.87H809.61c-52.67-21.19-77.79-41.16-126.53-31.48-50.54,9.69-88.38,10.29-183.43-3.63-95-14.22-122-30.57-203.4-29.06s-51.16-5.45-137.12-14.83c-43.59-4.54-92.93-3.33-142,1.82V596.3c69.92-22.1,144.08-23,175.56-12.41,41.17,14.22,63.87,13.92,145.59,15.74,81.42,2.12,152.86-2.12,205.23,22.39,52.06,24.83,125.91,27.85,215.21,27.85,89,0,154.67-11.5,228.53,30.27C1015.43,695.88,1040,699.82,1063,702.54Z"/><path class="cls-19" d="M758.76,649.82c-89.3,0-163.15-3.05-215.21-27.71-52.37-24.67-123.81-20.34-205.23-22.38-81.72-2-104.42-1.52-145.59-15.76-31.48-10.68-105.64-9.91-175.56,12.2v26.45c81-28,139.37-10.86,199.63,14.57,68.74,29,126.21,3,226.48,3s126,33.54,245.84,34.18S780.56,658,919.29,699c62.08,18.34,109.25,26,143.67,28.8V702.45c-23-2.54-47.53-6.61-75.67-22.37C913.43,638.38,847.75,649.82,758.76,649.82Z"/><path class="cls-20" d="M17.17,572.24s74.77-24,144.77-20.18,69.37,29,161.44,27.11,189.81-5.67,245.3,18.29,53,29.64,172.15,29.64,164-12.61,231.43,13.87,90.7,27.12,90.7,27.12v34.37s-57.91-1-114-23-152-24-252.24-24S599,645.3,517.6,627.05s-148.19-12.56-232.69-18.24S173.11,582.33,121,583,17.17,599.35,17.17,599.35Z"/><path class="cls-21" d="M972.26,641C904.79,614.49,860,627.1,740.83,627.1s-116.66-5.67-172.15-29.64-153.24-20.18-245.3-18.29-91.44-23.33-161.44-27.11S17.17,572.24,17.17,572.24v9.49s74.78-24,144.77-20.17S231.32,591,323.38,588.67c92.31-2.34,191-7.74,245.3,18.29,54.51,26.11,53,29.64,172.15,29.64s164-12.62,231.43,13.87,90.7,27.11,90.7,27.11v-9.49S1039.74,667.46,972.26,641Z"/><path class="cls-22" d="M1063,580c-27.79-13.18-64.3-29.59-88.81-37.45-43.51-13.95-157.65-10.64-204.94-1s-75,19.35-152.6-1.54-157-34.61-228.28-21.7S312,511.07,276.08,498.46s-70.63-20.18-121.93-20.18-117.07,16.4-119,16.4c-.75,0-8.71,3.7-18,8.16v7.47c10.78-2.87,24.54-6.63,43-11.85,60.33-17,125.7-2.53,186.87,22.7s63.69,19.55,136.21,14.5,94.59-.63,194.86,21.44,104,19.55,179.72,10.09,143.77,1.26,221.34,22.73c44.78,12.4,68.46,15.77,83.76,14.45Z"/><path class="cls-20" d="M17,503.71s91.72-31.11,176.64-17.65S266,534.82,392.11,528.94,618.5,536,666.63,557.1C725.7,583,789.81,538.18,900,546.59s163,48.78,163,48.78V564.25S990,522.35,909,517.17c-101.94-2.32-165.63,21-214.82,18.49s-158.7-43.3-253.71-34.89S311,507.92,262.21,482.27,112.12,469.66,87.74,472.6s-70.57,17.66-70.57,17.66Z"/><path class="cls-21" d="M909,517.17c-101.94-2.32-165.63,21-214.82,18.49s-158.7-43.3-253.71-34.89S311,507.92,262.21,482.27,112.12,469.66,87.74,472.6s-70.57,17.66-70.57,17.66L17,503.71h.06l.07-7.77s46.19-14.71,70.57-17.65,125.7-16,174.47,9.67,83.24,26.9,178.25,18.49S645,538.81,694.17,541.34,807.05,520.53,909,522.84c81,5.19,153.94,47.09,153.94,47.09v-5.68S990,522.35,909,517.17Z"/><path class="cls-23" d="M909,517.17c-101.94-2.32-165.63,21-214.82,18.49s-158.7-43.3-253.71-34.89S311,507.92,262.21,482.27,112.12,469.66,87.74,472.6s-70.57,17.66-70.57,17.66L17,503.71h0l.12-12.5s46.19-14.72,70.57-17.66,125.7-16,174.47,9.67,83.24,26.91,178.25,18.5S645,534.09,694.17,536.61,807.05,515.8,909,518.12c81,5.18,153.94,47.08,153.94,47.08v-1S990,522.35,909,517.17Z"/><path class="cls-22" d="M1063,454.94v23.61c-24.52-3-82-8.78-124.71-1.21C882.86,487,816,501,710.63,483.39c-105.34-17.85-115.32-33-191.91-27.84-76.28,5.14-170.71,7-200.37,2.12C288.68,453.12,281.72,430.42,216,421c-65.38-9.69-159.22,5.45-198.87,11.2V412.57C29.58,410.75,48,408.93,75,408.33c68.11-1.82,135.61-19.38,174.65-7,39.05,12.71,74.47,31.47,119.26,32.08s133.49-10,184-8.17,93.23,24.52,162.54,30.87c69.62,6.36,112.9,10.29,154.68.61C910.71,447.68,1035.72,452.22,1063,454.94Z"/><path class="cls-20" d="M17.17,422.15s119.55-17,195.22-17,78.82,45.4,182.24,42.25,162.07-15.13,251,8.2,165.22,12.61,256,5,161.3,3.15,161.3,3.15V445.49s-62.92-12-160-2.52-197.38,1.26-269.27-18.92-188.55-4.42-242.78,1.89S291.21,388.1,214.91,381.8,17.17,402,17.17,402Z"/><path class="cls-22" d="M846.84,398.34l-.61.3S750.88,421,674,397.43c-76.88-23.31-135.6-25.73-199.77-17.56-64.47,8.18-138.94-8.17-235.49-16.64-57.51-5.15-101.1-6.66-126.83-6.66,19.37-6.66,39.35-13.32,59.63-19.68,49.94,1.82,111.39.31,150.44,13.32,45.7,15.14,88.08,14.83,150.43,10.6s141.66-9.39,156.8-.61c15.13,8.48,76.88,23.61,139.53,25.43,13.32.3,27.24.6,40,.6-6.66,1.21-13,2.42-18.16,2.42-2.73,0-7.27-.6-12.72-.91C799.92,391.68,822.92,395.31,846.84,398.34Z"/><path class="cls-21" d="M902.9,443c-97.12,9.46-197.38,1.27-269.27-18.91s-188.55-4.42-242.78,1.89-99.64-37.84-175.94-44.15S17.17,402,17.17,402v5.22S138.61,380.71,214.91,387s121.71,50.45,175.94,44.14,170.89-22.07,242.78-1.89,172.15,28.38,269.27,18.92,160,2.52,160,2.52v-5.22S1000,433.51,902.9,443Z"/><path class="cls-24" d="M902.9,443c-97.12,9.46-197.38,1.27-269.27-18.91s-188.55-4.42-242.78,1.89-99.64-37.84-175.94-44.15S17.17,402,17.17,402v1.32s121.44-26.48,197.74-20.18,121.71,50.45,175.94,44.14,170.89-22.07,242.78-1.89,172.15,28.38,269.27,18.92,160,2.52,160,2.52v-1.32S1000,433.51,902.9,443Z"/><path class="cls-20" d="M154.15,342.25V324.2s50.15-1.85,85.35,1.26c64.33,9.25,128.89,31.13,214.8,20.22,85.69-10.88,132.46-6.34,185.85,8.37s86.18,19.34,139.57,20.6,66.42,0,66.42,0v24s-20.6,10.47-130.32-8.86-171.11-32-235.84-21.45-137.06-2.1-213.15-15.55S154.15,342.25,154.15,342.25Z"/><path class="cls-21" d="M779.72,374.65c-53.39-1.26-86.18-5.89-139.57-20.6S540,334.8,454.3,345.68c-85.91,10.91-150.47-11-214.8-20.22-35.2-3.11-85.35-1.26-85.35-1.26v4.59s50.15-1.85,85.35,1.26c64.33,9.25,128.89,31.14,214.8,20.22,85.69-10.88,132.46-6.34,185.85,8.37s86.18,19.34,139.57,20.6,66.42,0,66.42,0v-4.59S833.11,375.91,779.72,374.65Z"/><path class="cls-25" d="M767.53,349.69c-71.74-14-171.11-22.9-172.79-22.9s73.57,20.18,111,31.11,106.36,8,106.36,8A165.45,165.45,0,0,0,767.53,349.69Z"/><path class="cls-26" d="M413.13,301.08c-119.36-20.51-170,24.92-170,24.92s104.41,17.54,169.57,17.54,123.6-14.71,129.06-14.71S440,305.7,413.13,301.08Z"/><path class="cls-26" d="M979.41,419.21C802,407,728,431.82,728,431.82s53.39,7.57,149.66,5.47,163.54-2.52,166.48-1.68S979.41,419.21,979.41,419.21Z"/><path class="cls-27" d="M1063,417.71v4.54c-23.91-2.42-60.54-5.15-104.13-6.36-77.49-2.11-112.6-17.25-112.6-17.25l.61-.3h.3c38.74,5.15,80.21,8.78,125,10.29A660.39,660.39,0,0,1,1063,417.71Z"/><path class="cls-27" d="M845.93,374.43c-9.08-2.73-154.37-46.92-236.4-49.34-85-2.42-130.76-20.58-206.74-28.45-63-6.66-189.48,16-232.16,23.91,17-3.94,46.31-10.6,81.43-18.16,56-12.11,94.74-17.26,184.64-3.94,89.89,13.62,180.7,21.49,277.56,36.63C804.76,349.3,841.69,371.7,845.93,374.43Z"/></g></g></svg>