<svg width="100" height="100" viewBox="0 0 100 100" fill="none" xmlns="http://www.w3.org/2000/svg">
<g clip-path="url(#clip0_4111_969)">
<path d="M23.3126 9.17846C25.4874 9.24282 27.3344 9.95673 28.8054 11.4651C30.4961 13.1989 32.3858 13.5755 34.5688 12.5387C34.8185 12.4177 35.0779 12.3176 35.3442 12.2396C37.983 11.4916 39.2144 9.78015 39.3762 7.00953C39.6048 3.09196 42.9157 0.0969022 46.8531 0.0287467C49.3852 -0.0149692 51.9187 -0.00154366 54.4511 0.0211749C58.7758 0.0593833 62.1817 3.28645 62.2281 7.60365C62.2564 10.2297 63.377 11.8599 65.7948 12.7105C66.2833 12.8826 66.7457 13.1287 67.2225 13.3346C69.0605 14.129 70.7227 13.8578 72.2488 12.5573C76.0609 9.31029 80.1746 9.48585 83.7213 13.0272C85.2681 14.5717 86.8228 16.1083 88.3565 17.6655C91.5902 20.9487 91.6691 25.5306 88.476 28.8338C86.8579 30.5063 86.44 32.3066 87.4067 34.4253C87.5412 34.7067 87.6542 34.998 87.7447 35.2965C88.508 37.9814 90.251 39.1989 93.0647 39.3645C96.924 39.5917 99.8913 42.9099 99.9656 46.8055C100.015 49.3723 100.002 51.9409 99.9718 54.5081C99.9208 58.7626 96.6744 62.1687 92.4185 62.2086C89.7443 62.2334 88.1007 63.379 87.2604 65.8487C87.1047 66.3059 86.8662 66.7344 86.672 67.1788C85.8705 69.0104 86.0316 70.7587 87.4314 72.1951C90.461 75.3076 90.64 80.3748 86.915 83.7757C85.328 85.2245 83.8724 86.8166 82.339 88.3253C79.013 91.5971 74.4552 91.6494 71.0941 88.4034C69.4502 86.8162 67.6594 86.4414 65.5858 87.3811C65.3965 87.4671 65.2088 87.5666 65.0098 87.6179C62.0491 88.3776 60.7433 90.2498 60.5839 93.3319C60.3991 96.8812 57.0596 99.8232 53.4179 99.9351C50.645 100.02 47.8698 100.02 45.0925 99.9351C41.0989 99.8098 37.8284 96.5084 37.794 92.4205C37.7702 89.7503 36.6372 88.0929 34.1678 87.2503C33.8745 87.1437 33.5892 87.0165 33.314 86.8696C31.1399 85.7601 29.2258 86.0713 27.4001 87.7229C25.224 89.6915 22.6216 90.2632 19.8534 89.2812C18.7173 88.8777 17.627 88.1377 16.7205 87.3226C14.9437 85.7233 13.2947 83.9795 11.6209 82.2684C8.404 78.9797 8.37164 74.4202 11.5833 71.1005C13.167 69.4617 13.5657 67.6731 12.6299 65.593C12.559 65.435 12.4802 65.277 12.4375 65.1111C11.6601 62.0819 9.74736 60.7357 6.5849 60.556C3.07886 60.3567 0.176657 57.0157 0.067179 53.4255C-0.0188884 50.618 -0.0295742 47.8027 0.0706082 44.9959C0.21107 41.0539 3.51537 37.8096 7.55124 37.7745C10.2118 37.7511 11.889 36.6486 12.7408 34.1733C12.864 33.8143 13.0296 33.4676 13.1986 33.1265C14.2284 31.0492 13.9161 29.2024 12.3597 27.4841C10.3594 25.2756 9.7298 22.6739 10.712 19.8589C11.1093 18.7199 11.8446 17.626 12.6592 16.7213C14.2817 14.9187 16.0644 13.2595 17.7829 11.5436C19.3304 9.99976 21.204 9.22768 23.3126 9.17846ZM96.6506 50.7723C96.6506 49.8009 96.6506 48.8294 96.6506 47.8577C96.6506 44.336 95.2353 42.8438 91.7052 42.5327C88.5968 42.2573 86.4207 40.6312 85.1555 37.7907C84.8315 37.064 84.586 36.3026 84.279 35.5677C82.8674 32.1882 83.4727 29.2086 86.0158 26.5922C87.9847 24.5661 87.9864 22.0464 86.0158 20.0372C84.46 18.4538 82.8802 16.8921 81.3083 15.3235C79.1049 13.1232 76.7353 13.0423 74.416 15.0877C72.8368 16.48 70.9847 17.3289 68.8991 17.0477C67.3547 16.8411 65.8475 16.2339 64.3681 15.6852C60.7423 14.34 58.9356 11.7226 58.9239 7.81672C58.916 5.16967 56.9959 3.36802 54.3247 3.35116C52.0694 3.33704 49.8148 3.34599 47.5588 3.3484C44.4742 3.35184 42.8186 4.88431 42.5879 7.98952C42.3294 11.4661 40.5485 13.7872 37.3282 15.046C36.7477 15.2729 36.1611 15.4859 35.5858 15.7248C32.2065 17.1289 29.2261 16.5245 26.6104 13.98C24.5871 12.0121 22.066 12.0179 20.0575 13.9913C18.4498 15.5748 16.8624 17.1757 15.2722 18.7739C13.1057 20.9501 13.043 23.2708 15.088 25.5609C16.4912 27.133 17.3506 28.9835 17.0724 31.0684C16.8617 32.6467 16.2485 34.1888 15.6832 35.6978C14.3406 39.2805 11.7321 41.0635 7.87729 41.0777C5.22401 41.0873 3.398 42.9843 3.37734 45.6437C3.36048 47.7948 3.3732 49.9465 3.37355 52.0975C3.37355 55.6364 4.77817 57.139 8.29213 57.4443C11.4487 57.7197 13.6342 59.3757 14.8993 62.2606C15.1913 62.926 15.4099 63.6234 15.696 64.2915C17.1712 67.7378 16.5701 70.7728 13.955 73.4477C12.0347 75.4125 12.0536 77.9508 13.9895 79.9242C15.5927 81.5593 17.2201 83.1709 18.8437 84.7846C20.9664 86.893 23.3254 86.9532 25.5569 84.943C27.0063 83.6377 28.6815 82.943 30.64 82.8697C32.3741 82.805 33.8586 83.5441 35.4126 84.1433C39.169 85.5911 41.1203 88.1931 41.11 92.2945C41.1034 94.7759 43.0379 96.5848 45.5166 96.6279C47.1123 96.6557 48.7087 96.6344 50.3047 96.6347C50.9988 96.6347 51.6927 96.6347 52.3865 96.6347C55.5559 96.6313 57.1966 95.1202 57.4387 91.9644C57.7048 88.4926 59.4843 86.1687 62.7235 84.9368C63.2744 84.7275 63.8252 84.5199 64.3674 84.2893C67.7785 82.8367 70.7857 83.4425 73.4324 86.02C75.4443 87.979 77.9699 87.959 79.9859 85.9743C81.618 84.3679 83.2381 82.7501 84.8463 81.1208C86.9023 79.0448 86.9553 76.6662 84.9882 74.4801C83.6586 73.0023 82.9594 71.2943 82.8881 69.2989C82.8255 67.5602 83.5915 66.0838 84.1939 64.5342C85.6354 60.8262 88.2219 58.889 92.2774 58.8972C94.8088 58.902 96.6107 56.9613 96.6496 54.4186C96.6641 53.2014 96.6486 51.9867 96.6506 50.7723Z" fill="#20665C"/>
<path d="M29.8162 72.3538C29.3827 72.854 28.9985 73.3486 28.5613 73.791C27.5953 74.7685 26.5824 74.8732 25.845 74.1094C25.1358 73.3748 25.2491 72.392 26.1769 71.4682C26.6186 71.0286 27.0971 70.6259 27.6125 70.1577C25.3145 67.511 23.5053 64.7005 22.2074 61.5729C20.9095 58.4453 20.1559 55.1852 19.9318 51.6559C19.5242 51.6559 19.1589 51.6559 18.7937 51.6559C16.6544 51.6521 15.8842 51.2212 15.8639 50.0171C15.8433 48.7824 16.6375 48.3304 18.8415 48.3245C19.1789 48.3245 19.5159 48.3245 19.9204 48.3245C20.4097 41.2904 22.9345 35.187 27.6569 29.7773C27.0916 29.2868 26.5101 28.8479 26.0068 28.3316C25.2528 27.5584 25.227 26.597 25.8722 25.9179C26.5483 25.2057 27.5443 25.2188 28.363 25.9964C28.8646 26.4728 29.3132 27.0056 29.8512 27.5836C35.1764 22.9314 41.2996 20.3859 48.3458 19.8999C48.3458 19.0686 48.3206 18.312 48.3519 17.5592C48.396 16.508 49.0987 15.8212 50.0513 15.8464C50.9619 15.8701 51.6191 16.5348 51.6642 17.543C51.6986 18.2986 51.6707 19.0576 51.6707 19.9016C55.1237 20.1329 58.3895 20.8544 61.5134 22.1518C64.6463 23.4519 67.4858 25.2274 70.1442 27.5846C70.6606 27.0401 71.1302 26.4962 71.649 26.0012C72.4673 25.2222 73.4613 25.2043 74.1395 25.9138C74.7867 26.5908 74.7654 27.5564 74.0149 28.3288C73.5122 28.8451 72.9301 29.2864 72.3596 29.7825C74.7444 32.4977 76.5363 35.3268 77.8355 38.4602C79.1321 41.5871 79.8612 44.8503 80.0936 48.3263C80.8114 48.3263 81.461 48.3204 82.1103 48.3263C83.4213 48.34 84.1711 48.9641 84.1529 50.0178C84.1357 51.0305 83.4017 51.6356 82.1582 51.6549C81.5041 51.6638 80.8476 51.6549 80.0957 51.6549C79.6161 58.6425 77.0981 64.7486 72.4205 70.1068C72.9745 70.6376 73.5363 71.1363 74.0513 71.6795C74.7839 72.4523 74.817 73.4292 74.177 74.1008C73.504 74.8071 72.4939 74.7937 71.6845 74.015C71.1612 73.5118 70.6978 72.948 70.1697 72.3666C64.8315 77.0373 58.7399 79.5866 51.6741 80.0713C51.6741 80.8316 51.6883 81.5486 51.6711 82.2646C51.6432 83.4153 51.0008 84.1303 50.0165 84.1358C49.0322 84.1413 48.3826 83.4257 48.3458 82.2815C48.3347 81.9349 48.3437 81.5875 48.3437 81.2406C48.3437 80.8936 48.3437 80.5521 48.3437 80.0864C41.3523 79.5945 35.2109 77.0807 29.8162 72.3538ZM49.8839 76.7481C64.3832 76.9567 77.1711 64.9758 76.78 49.2605C76.4223 34.8721 64.524 22.8227 49.2474 23.2185C34.6559 23.5972 22.9029 35.6683 23.2168 50.7744C23.5126 65.0003 35.7627 76.9612 49.8839 76.7481Z" fill="#20665C"/>
<path d="M56.7579 50.8807C58.1436 52.0456 59.6126 53.0576 60.8069 54.3281C63.8657 57.5817 64.892 61.5805 64.5446 65.9469C64.5026 66.4729 63.9552 67.2122 63.4636 67.4115C54.5763 71.0114 45.6577 71.5735 36.7232 67.5241C35.8143 67.111 35.4438 66.5028 35.4087 65.5139C35.1843 59.1881 37.6644 54.3546 43.2054 51.1737C43.2581 51.1434 43.2835 51.0663 43.37 50.9413C39.6811 48.3975 37.6489 44.9027 37.6396 40.3779C37.6324 36.8765 38.9478 33.8794 41.4868 31.4647C46.634 26.5709 54.7598 27.0063 59.4064 32.3731C63.8633 37.5198 63.6041 46.1942 56.7579 50.8807ZM50.0447 49.4422C55.0469 49.4422 59.0559 45.4603 59.0611 40.4836C59.0662 35.4087 55.0139 31.3852 49.9176 31.4051C44.9553 31.4244 40.9525 35.4669 40.9563 40.4512C40.9594 45.4813 44.9619 49.4409 50.044 49.4422H50.0447ZM61.1969 64.7531C61.7478 58.7943 56.687 53.167 50.8475 52.8624C43.79 52.4944 38.6514 58.1114 38.7867 64.1835C38.7936 64.4933 39.1936 64.9459 39.5124 65.0695C42.8763 66.3727 46.3816 66.9668 49.9824 66.9541C53.8643 66.9403 57.6193 66.2395 61.1963 64.7531H61.1969Z" fill="#20665C"/>
<path d="M68.6562 49.5262C69.7314 49.5262 70.8068 49.5041 71.8813 49.5306C72.9647 49.5575 73.6664 50.2105 73.6812 51.1454C73.6956 52.0617 72.9871 52.8138 71.9295 52.8321C69.7107 52.874 67.4884 52.8771 65.2713 52.8272C64.2365 52.8038 63.5297 51.997 63.5786 51.0886C63.6271 50.1936 64.3046 49.5599 65.3268 49.5324C66.4357 49.5041 67.5463 49.5272 68.6562 49.5262Z" fill="#20665C"/>
<path d="M31.805 49.5261C32.8794 49.5261 33.9546 49.5033 35.0284 49.5323C36.0705 49.5601 36.7173 50.1656 36.7614 51.084C36.8072 52.0478 36.1651 52.8051 35.0989 52.8282C32.8472 52.8784 30.5946 52.877 28.3412 52.824C27.3477 52.8006 26.6888 52.0427 26.6964 51.1542C26.7046 50.2197 27.4035 49.5588 28.4776 49.5323C29.5872 49.5051 30.6957 49.5261 31.805 49.5261Z" fill="#20665C"/>
</g>
<defs>
<clipPath id="clip0_4111_969">
<rect width="100" height="100" fill="white"/>
</clipPath>
</defs>
</svg>
