<svg id="Icons" enable-background="new 0 0 32 32" viewBox="0 0 32 32" xmlns="http://www.w3.org/2000/svg" width="300" height="300" version="1.1" xmlns:xlink="http://www.w3.org/1999/xlink" xmlns:svgjs="http://svgjs.dev/svgjs"><g transform="matrix(1,0,0,1,0,0)"><path d="m23 0h-14c-5 0-9 4-9 9v14c0 5 4 9 9 9h7v-12h-4c-.6 0-1-.4-1-1v-3c0-.6.4-1 1-1h4v-3c0-3.3 1.7-6 5-6h4c.6 0 1 .4 1 1v3c0 .6-.4 1-1 1h-3.8c-.1 0-.2.1-.2.2v3.8h5c.3 0 .6.2.8.4s.2.6.1.9l-2 3c-.1.5-.5.7-.9.7h-3v12h2c5 0 9-4 9-9v-14c0-5-4-9-9-9z" fill="#7a9685" fill-opacity="1" data-original-color="#000000ff" stroke="none" stroke-opacity="1"/></g></svg>