<svg id="Layer_1" height="300" viewBox="0 0 512 512" width="300" xmlns="http://www.w3.org/2000/svg" data-name="Layer 1" version="1.1" xmlns:xlink="http://www.w3.org/1999/xlink" xmlns:svgjs="http://svgjs.dev/svgjs"><g transform="matrix(1,0,0,1,0,0)"><g fill-rule="evenodd"><path d="m90.329 28.506 35.3 1.156 36.594 75.1a27.631 27.631 0 0 1 -7.711 34.149l-11.681 9.32-2.307-4.092c-19.732-35-36.353-71.924-48.49-110.247z" fill="#7a9685" fill-opacity="1" data-original-color="#7ed63eff" stroke="none" stroke-opacity="1"/><path d="m407.233 349.774 75.106 36.6 1.144 35.043-5.425-1.771a616.786 616.786 0 0 1 -110.184-48.193l-4.113-2.305 9.325-11.663a27.638 27.638 0 0 1 34.147-7.711z" fill="#7a9685" fill-opacity="1" data-original-color="#7ed63eff" stroke="none" stroke-opacity="1"/><path d="m512 242.7a16 16 0 0 1 -16 16h-124.762a16 16 0 0 1 0-32h124.762a16 16 0 0 1 16 16zm-242.712-242.7a16 16 0 0 1 16 16v124.75a16 16 0 1 1 -32 0v-124.75a16 16 0 0 1 16-16zm171.622 71.081a16 16 0 0 1 0 22.629l-88.22 88.219a16 16 0 1 1 -22.62-22.629l88.22-88.22a16 16 0 0 1 22.62 0zm-55.19 408.908c36.19-.2 64.421-11.489 84.089-33.579a644.063 644.063 0 0 1 -120.23-53.121 30.948 30.948 0 0 1 -36.52 8.35c-95.219-43.08-159.628-107.49-202.7-202.7a30.962 30.962 0 0 1 8.351-36.528c-22.75-39.651-40.65-79.941-53.35-120.021-21.942 19.659-33.152 47.819-33.36 83.889 24.489 190.54 163.179 329.231 353.72 353.71zm-227.09-373.47a23.582 23.582 0 0 1 -6.61 29.271l-8.01 6.389c-20.461-36.29-36.611-73.021-48.16-109.49l27.24.891zm246.851 246.85 72.938 35.54.88 26.93a612.678 612.678 0 0 1 -109.469-47.88l6.38-7.98a23.578 23.578 0 0 1 29.271-6.61zm104.908 33.9a30.54 30.54 0 0 0 -17.41-26.87l-73.49-35.8a55.694 55.694 0 0 0 -68.29 15.41l-25.661 32.15c-88.268-40.1-145.6-97.43-185.7-185.7l32.142-25.659a55.677 55.677 0 0 0 15.409-68.3l-35.8-73.479a30.522 30.522 0 0 0 -26.858-17.413l-38.582-1.248a49.859 49.859 0 0 0 -31.61 9.689c-35.681 25.88-54.539 66.42-54.539 117.22a15.035 15.035 0 0 0 .128 2.009c12.742 100.952 55.582 190.412 123.881 258.711s157.75 111.131 258.71 123.88a16.462 16.462 0 0 0 2 .131c50.811 0 91.341-18.86 117.23-54.551a49.935 49.935 0 0 0 9.691-31.6z" fill="#7a9685" fill-opacity="1" data-original-color="#000000ff" stroke="none" stroke-opacity="1"/></g></g></svg>