<svg id="Layer_1" height="512" viewBox="0 0 256 256" width="512" xmlns="http://www.w3.org/2000/svg"><g><path d="m85.346 46.764h7.78l-9.9 34.65c-.57 1.99-2.64 3.14-4.62 2.57-1.99-.57-3.14-2.64-2.57-4.62z" fill="#87796f"/><path d="m79.642 85.631c-.485 0-.972-.068-1.451-.206-1.349-.387-2.466-1.275-3.146-2.502-.677-1.222-.837-2.634-.451-3.975l9.309-32.597c.184-.644.772-1.088 1.442-1.088h7.78c.471 0 .914.221 1.198.597.283.376.374.863.245 1.315l-9.9 34.649c-.387 1.352-1.276 2.47-2.503 3.149-.786.436-1.65.658-2.523.658zm6.835-37.367-8.999 31.512c-.165.573-.097 1.174.192 1.694.29.525.77.905 1.349 1.071.571.167 1.171.097 1.693-.191.525-.291.906-.771 1.072-1.35l9.353-32.736z" fill="#3a312a"/><path d="m174.783 61.112-4.098-14.348h-7.78l9.9 34.65c.57 1.99 2.64 3.14 4.62 2.57 1.99-.57 3.14-2.64 2.57-4.62l-1.815-6.354z" fill="#87796f"/><path d="m176.391 85.631c-.873 0-1.737-.222-2.524-.656-1.227-.68-2.115-1.798-2.503-3.148l-9.899-34.65c-.129-.452-.039-.939.245-1.315.283-.376.726-.597 1.197-.597h7.779c.67 0 1.259.444 1.442 1.088l4.098 14.348c.227.797-.233 1.627-1.03 1.854-.798.223-1.627-.233-1.855-1.03l-3.787-13.26h-4.659l9.354 32.737c.166.578.547 1.058 1.072 1.349.52.288 1.12.357 1.69.192.58-.166 1.058-.546 1.349-1.068.29-.521.359-1.124.195-1.696l-1.816-6.356c-.228-.797.233-1.627 1.03-1.854.794-.229 1.626.232 1.854 1.03l1.815 6.354c.386 1.342.224 2.756-.457 3.979-.68 1.223-1.796 2.108-3.143 2.495-.477.136-.963.204-1.447.204z" fill="#3a312a"/><path d="m151.041 59.209h-46.05l5.805 9.558h34.44z" fill="#8ac6dd"/><path d="m145.236 70.268h-34.44c-.524 0-1.01-.273-1.282-.722l-5.805-9.559c-.281-.463-.291-1.042-.025-1.514.266-.473.765-.765 1.307-.765h46.05c.542 0 1.042.292 1.308.765.266.472.256 1.051-.025 1.514l-5.805 9.559c-.273.448-.758.722-1.283.722zm-33.596-3h32.752l3.982-6.559h-40.718z" fill="#3a312a"/><path d="m104.991 46.761h46.049v12.449h-46.049z" fill="#8ac6dd"/><path d="m151.041 60.709h-46.05c-.829 0-1.5-.672-1.5-1.5v-12.448c0-.828.671-1.5 1.5-1.5h46.05c.828 0 1.5.672 1.5 1.5v12.448c0 .828-.672 1.5-1.5 1.5zm-44.55-3h43.05v-9.448h-43.05z" fill="#3a312a"/><path d="m116.211 68.766h5.096v15.575h-5.096z" fill="#f16c7a"/><path d="m121.307 85.841h-5.096c-.829 0-1.5-.672-1.5-1.5v-15.574c0-.828.671-1.5 1.5-1.5h5.096c.829 0 1.5.672 1.5 1.5v15.574c0 .828-.671 1.5-1.5 1.5zm-3.596-3h2.096v-12.574h-2.096z" fill="#3a312a"/><path d="m134.725 68.766h5.096v15.575h-5.096z" fill="#f16c7a"/><path d="m139.82 85.841h-5.096c-.828 0-1.5-.672-1.5-1.5v-15.574c0-.828.672-1.5 1.5-1.5h5.096c.828 0 1.5.672 1.5 1.5v15.574c0 .828-.672 1.5-1.5 1.5zm-3.595-3h2.096v-12.574h-2.096z" fill="#3a312a"/><path d="m97.628 23.152h5.61v8.883h-5.61z" fill="#d7e057"/><path d="m103.238 33.534h-5.61c-.829 0-1.5-.672-1.5-1.5v-8.883c0-.828.671-1.5 1.5-1.5h5.61c.829 0 1.5.672 1.5 1.5v8.883c0 .828-.671 1.5-1.5 1.5zm-4.11-3h2.61v-5.883h-2.61z" fill="#3a312a"/><path d="m106.511 35.003v2.408h-12.156v-2.408c0-1.641 1.328-2.969 2.969-2.969h6.218c1.641 0 2.969 1.328 2.969 2.969z" fill="#d7e057"/><path d="m106.511 38.91h-12.156c-.829 0-1.5-.672-1.5-1.5v-2.407c0-2.464 2.005-4.469 4.469-4.469h6.218c2.464 0 4.469 2.005 4.469 4.469v2.407c0 .828-.672 1.5-1.5 1.5zm-10.656-3h9.155v-.907c0-.809-.659-1.469-1.469-1.469h-6.218c-.81 0-1.469.659-1.469 1.469v.907z" fill="#3a312a"/><path d="m75.889 22.917c0-1.775.987-3.214 5.997-3.214s12.236 1.439 12.236 3.214-7.226 3.214-12.236 3.214-5.997-1.439-5.997-3.214z" fill="#d7e057"/><path d="m81.886 27.631c-2.05 0-7.496 0-7.496-4.714 0-4.715 5.446-4.715 7.496-4.715.137 0 13.736.277 13.736 4.715 0 4.437-13.599 4.714-13.736 4.714zm0-6.429c-4.496 0-4.496 1.115-4.496 1.715 0 .599 0 1.714 4.496 1.714 4.123 0 8.507-.93 10.207-1.714-1.7-.784-6.084-1.715-10.207-1.715z" fill="#3a312a"/><path d="m124.977 22.917c0-1.775-.987-3.214-5.997-3.214s-12.236 1.439-12.236 3.214 7.226 3.214 12.236 3.214 5.997-1.439 5.997-3.214z" fill="#d7e057"/><path d="m118.98 27.631c-.137 0-13.736-.277-13.736-4.714 0-4.438 13.599-4.715 13.736-4.715 2.05 0 7.497 0 7.497 4.715 0 4.714-5.446 4.714-7.497 4.714zm-10.207-4.714c1.7.784 6.084 1.714 10.207 1.714 4.497 0 4.497-1.115 4.497-1.714 0-.6 0-1.715-4.497-1.715-4.123 0-8.507.931-10.207 1.715z" fill="#3a312a"/><path d="m106.744 22.918c0 3.486-2.826 3.039-6.311 3.039-3.486 0-6.311.447-6.311-3.039s2.826-6.311 6.311-6.311c3.486 0 6.311 2.825 6.311 6.311z" fill="#d7e057"/><path d="m102.439 27.476c-.315 0-.634-.005-.956-.009-.683-.01-1.418-.01-2.101 0-2.186.024-4.247.058-5.591-1.269-.777-.766-1.17-1.869-1.17-3.28 0-4.308 3.504-7.812 7.812-7.812 4.307 0 7.811 3.504 7.811 7.812 0 1.411-.393 2.515-1.17 3.28-1.146 1.131-2.815 1.278-4.635 1.278zm-2.006-3.019c.372 0 .736.005 1.091.01 1.472.019 2.992.042 3.443-.404.229-.226.277-.747.277-1.145 0-2.653-2.158-4.812-4.811-4.812s-4.812 2.158-4.812 4.812c0 .397.048.919.277 1.145.452.446 1.974.424 3.443.404.355-.005.72-.01 1.092-.01z" fill="#3a312a"/><path d="m152.794 23.152h5.61v8.883h-5.61z" fill="#d7e057"/><path d="m158.403 33.534h-5.609c-.828 0-1.5-.672-1.5-1.5v-8.883c0-.828.672-1.5 1.5-1.5h5.609c.828 0 1.5.672 1.5 1.5v8.883c0 .828-.672 1.5-1.5 1.5zm-4.109-3h2.609v-5.883h-2.609z" fill="#3a312a"/><path d="m161.676 35.003v2.408h-12.155v-2.408c0-1.641 1.328-2.969 2.969-2.969h6.218c1.641 0 2.968 1.328 2.968 2.969z" fill="#d7e057"/><path d="m161.677 38.91h-12.155c-.828 0-1.5-.672-1.5-1.5v-2.407c0-2.464 2.005-4.469 4.469-4.469h6.218c2.464 0 4.469 2.005 4.469 4.469v2.407c-.001.828-.673 1.5-1.501 1.5zm-10.656-3h9.155v-.907c0-.809-.659-1.469-1.469-1.469h-6.218c-.81 0-1.469.659-1.469 1.469v.907z" fill="#3a312a"/><path d="m131.055 22.917c0-1.775.987-3.214 5.997-3.214s12.236 1.439 12.236 3.214-7.226 3.214-12.236 3.214-5.997-1.439-5.997-3.214z" fill="#d7e057"/><path d="m137.052 27.631c-2.051 0-7.497 0-7.497-4.714 0-4.715 5.446-4.715 7.497-4.715.138 0 13.735.277 13.735 4.715 0 4.437-13.598 4.714-13.735 4.714zm0-6.429c-4.497 0-4.497 1.115-4.497 1.715 0 .599 0 1.714 4.497 1.714 4.122 0 8.507-.93 10.206-1.714-1.699-.784-6.083-1.715-10.206-1.715z" fill="#3a312a"/><path d="m180.143 22.917c0-1.775-.987-3.214-5.997-3.214s-12.236 1.439-12.236 3.214 7.226 3.214 12.236 3.214 5.997-1.439 5.997-3.214z" fill="#d7e057"/><path d="m174.146 27.631c-.138 0-13.736-.277-13.736-4.714 0-4.438 13.599-4.715 13.736-4.715 2.05 0 7.496 0 7.496 4.715.001 4.714-5.446 4.714-7.496 4.714zm-10.207-4.714c1.699.784 6.084 1.714 10.207 1.714 4.496 0 4.496-1.115 4.496-1.714 0-.6 0-1.715-4.496-1.715-4.123 0-8.507.931-10.207 1.715z" fill="#3a312a"/><path d="m161.91 22.918c0 3.486-2.826 3.039-6.311 3.039-3.486 0-6.311.447-6.311-3.039s2.826-6.311 6.311-6.311 6.311 2.825 6.311 6.311z" fill="#d7e057"/><path d="m157.604 27.476c-.314 0-.634-.005-.956-.009-.682-.01-1.418-.01-2.1 0-2.188.028-4.247.059-5.592-1.269-.776-.766-1.17-1.869-1.17-3.28 0-4.308 3.504-7.812 7.812-7.812s7.812 3.504 7.812 7.812c0 1.411-.394 2.515-1.17 3.28-1.146 1.131-2.815 1.278-4.636 1.278zm-2.005-3.019c.372 0 .736.005 1.091.01 1.471.018 2.992.042 3.443-.404.23-.226.277-.747.277-1.145 0-2.653-2.158-4.812-4.812-4.812-2.653 0-4.812 2.158-4.812 4.812 0 .397.048.919.277 1.145.451.446 1.974.426 3.443.404.356-.005.721-.01 1.093-.01z" fill="#3a312a"/><path d="m120.564 37.41h-40c-2.582 0-4.675 2.093-4.675 4.675s2.093 4.675 4.675 4.675h94.904c2.582 0 4.675-2.093 4.675-4.675s-2.093-4.675-4.675-4.675h-43z" fill="#87796f"/><path d="m175.468 48.261h-94.904c-3.405 0-6.175-2.77-6.175-6.175s2.77-6.176 6.175-6.176h40c.829 0 1.5.672 1.5 1.5s-.671 1.5-1.5 1.5h-40c-1.751 0-3.175 1.425-3.175 3.176s1.424 3.175 3.175 3.175h94.904c1.751 0 3.175-1.424 3.175-3.175s-1.424-3.176-3.175-3.176h-43c-.828 0-1.5-.672-1.5-1.5s.672-1.5 1.5-1.5h43c3.405 0 6.175 2.771 6.175 6.176s-2.77 6.175-6.175 6.175z" fill="#3a312a"/><circle cx="128.016" cy="91.598" fill="#87796f" r="14.054"/><path d="m128.016 107.152c-8.577 0-15.554-6.978-15.554-15.554 0-8.577 6.978-15.555 15.554-15.555s15.553 6.978 15.553 15.555-6.977 15.554-15.553 15.554zm0-28.108c-6.922 0-12.554 5.632-12.554 12.555 0 6.922 5.632 12.554 12.554 12.554 6.921 0 12.553-5.632 12.553-12.554 0-6.923-5.632-12.555-12.553-12.555z" fill="#3a312a"/><circle cx="128.016" cy="91.598" fill="#f16c7a" r="7.73"/><path d="m128.016 100.828c-5.09 0-9.23-4.141-9.23-9.229 0-5.09 4.141-9.23 9.23-9.23s9.23 4.141 9.23 9.23-4.141 9.229-9.23 9.229zm0-15.46c-3.436 0-6.23 2.795-6.23 6.23s2.795 6.229 6.23 6.229 6.23-2.795 6.23-6.229c0-3.435-2.795-6.23-6.23-6.23z" fill="#3a312a"/><path d="m167.016 220.182c-.828 0-1.5-.672-1.5-1.5v-61.035c0-.828.672-1.5 1.5-1.5s1.5.672 1.5 1.5v61.035c0 .828-.672 1.5-1.5 1.5z" fill="#3a312a"/><path d="m174.58 168.617c0 7.342-3.387 11.002-7.564 11.002-4.178 0-7.564-3.66-7.564-11.002s5.96-15.587 7.564-15.587c1.604.001 7.564 8.245 7.564 15.587z" fill="#d7e057"/><path d="m167.016 181.119c-4.182 0-9.064-3.274-9.064-12.502 0-4.646 2.115-9.065 3.376-11.287.989-1.744 3.525-5.8 5.688-5.8s4.699 4.056 5.689 5.8c1.261 2.222 3.376 6.642 3.376 11.287-.001 9.228-4.884 12.502-9.065 12.502zm0-26.447c-1.647 1.315-6.064 7.931-6.064 13.945 0 5.861 2.324 9.502 6.064 9.502s6.064-3.641 6.064-9.502c0-6.015-4.417-12.63-6.064-13.945z" fill="#3a312a"/><path d="m167.016 206.111c-.384 0-.768-.146-1.061-.439l-22.066-22.066c-.586-.586-.586-1.535 0-2.121s1.535-.586 2.121 0l22.066 22.066c.586.586.586 1.535 0 2.121-.293.293-.677.439-1.06.439z" fill="#3a312a"/><path d="m145.964 194.008c5.192 5.192 10.175 5.385 13.129 2.431s2.76-7.937-2.431-13.129c-5.192-5.192-15.236-6.807-16.37-5.673-1.135 1.135.481 11.179 5.672 16.371z" fill="#d7e057"/><path d="m154.41 199.856c-2.743 0-6.016-1.298-9.506-4.788-3.285-3.284-4.915-7.906-5.595-10.368-.533-1.933-1.608-6.593-.078-8.123 1.527-1.53 6.188-.456 8.123.078 2.462.68 7.084 2.309 10.368 5.595 2.677 2.677 4.3 5.529 4.694 8.249.386 2.669-.418 5.155-2.264 7.001-1.374 1.375-3.357 2.356-5.742 2.356zm-12.957-21.057c-.235 2.094 1.318 9.895 5.572 14.148 4.144 4.144 8.361 5.077 11.007 2.432 2.646-2.646 1.714-6.863-2.431-11.008-4.251-4.252-12.056-5.81-14.148-5.572z" fill="#3a312a"/><path d="m167.016 206.111c-.384 0-.768-.146-1.061-.439-.586-.586-.586-1.535 0-2.121l22.066-22.066c.586-.586 1.535-.586 2.121 0s.586 1.535 0 2.121l-22.066 22.066c-.293.293-.677.439-1.06.439z" fill="#3a312a"/><path d="m188.067 194.008c-5.192 5.192-10.175 5.385-13.128 2.431-2.954-2.954-2.761-7.937 2.431-13.129s15.235-6.807 16.37-5.673c1.134 1.135-.481 11.179-5.673 16.371z" fill="#d7e057"/><path d="m179.621 199.856c-2.385 0-4.368-.981-5.743-2.356-1.846-1.846-2.649-4.332-2.263-7.001.394-2.72 2.018-5.572 4.694-8.249 3.284-3.285 7.905-4.915 10.368-5.595 1.934-.531 6.595-1.607 8.123-.078 1.529 1.53.454 6.19-.079 8.123-.68 2.462-2.31 7.084-5.594 10.368-3.489 3.49-6.764 4.788-9.506 4.788zm12.483-21.081c-2.612 0-9.695 1.616-13.674 5.596-2.216 2.216-3.546 4.483-3.847 6.558-.251 1.734.238 3.273 1.415 4.45 2.646 2.644 6.863 1.712 11.008-2.432 4.252-4.253 5.807-12.054 5.572-14.148-.134-.016-.293-.024-.474-.024zm-4.037 15.233h.01z" fill="#3a312a"/><path d="m89.016 220.182c-.829 0-1.5-.672-1.5-1.5v-61.035c0-.828.671-1.5 1.5-1.5s1.5.672 1.5 1.5v61.035c0 .828-.671 1.5-1.5 1.5z" fill="#3a312a"/><path d="m96.58 168.617c0 7.342-3.387 11.002-7.564 11.002-4.178 0-7.564-3.66-7.564-11.002s5.96-15.587 7.564-15.587c1.604.001 7.564 8.245 7.564 15.587z" fill="#d7e057"/><path d="m89.016 181.119c-4.182 0-9.064-3.274-9.064-12.502 0-4.646 2.115-9.065 3.376-11.287.989-1.744 3.524-5.8 5.688-5.8s4.699 4.056 5.688 5.8c1.26 2.222 3.376 6.642 3.376 11.287 0 9.228-4.883 12.502-9.064 12.502zm0-26.447c-1.647 1.315-6.064 7.93-6.064 13.945 0 5.861 2.324 9.502 6.064 9.502s6.064-3.641 6.064-9.502c0-6.015-4.417-12.63-6.064-13.945z" fill="#3a312a"/><path d="m89.016 206.111c-.384 0-.768-.146-1.061-.439l-22.067-22.066c-.586-.586-.586-1.535 0-2.121s1.535-.586 2.121 0l22.067 22.066c.586.586.586 1.535 0 2.121-.292.293-.676.439-1.06.439z" fill="#3a312a"/><path d="m67.964 194.008c5.192 5.192 10.175 5.385 13.129 2.431s2.76-7.937-2.431-13.129c-5.192-5.192-15.236-6.807-16.37-5.673-1.135 1.135.481 11.179 5.672 16.371z" fill="#d7e057"/><path d="m76.41 199.856c-2.743 0-6.016-1.298-9.506-4.788-3.285-3.284-4.915-7.906-5.594-10.368-.533-1.933-1.608-6.593-.079-8.123 1.53-1.53 6.19-.455 8.124.078 2.462.68 7.084 2.309 10.369 5.595 6.525 6.524 5.388 12.293 2.431 15.25-1.376 1.375-3.36 2.356-5.745 2.356zm-7.385-6.909c4.145 4.145 8.363 5.075 11.008 2.432 2.645-2.646 1.713-6.863-2.431-11.008-4.254-4.253-12.05-5.811-14.149-5.572-.235 2.095 1.319 9.894 5.572 14.148zm-5.502-14.489" fill="#3a312a"/><path d="m89.016 206.111c-.384 0-.768-.146-1.061-.439-.586-.586-.586-1.535 0-2.121l22.066-22.066c.586-.586 1.535-.586 2.121 0s.586 1.535 0 2.121l-22.066 22.066c-.292.293-.676.439-1.06.439z" fill="#3a312a"/><path d="m110.067 194.008c-5.192 5.192-10.175 5.385-13.129 2.431s-2.761-7.937 2.431-13.129 15.236-6.807 16.37-5.673c1.135 1.135-.48 11.179-5.672 16.371z" fill="#d7e057"/><path d="m101.622 199.856c-2.385 0-4.368-.981-5.744-2.356-1.846-1.846-2.65-4.332-2.263-7.001.395-2.72 2.018-5.572 4.695-8.249 3.284-3.285 7.905-4.915 10.368-5.595 1.932-.533 6.593-1.608 8.124-.078 1.53 1.53.454 6.19-.079 8.123-.679 2.462-2.31 7.083-5.594 10.368-3.491 3.491-6.765 4.788-9.507 4.788zm12.482-21.081c-2.612 0-9.695 1.616-13.674 5.596-2.216 2.216-3.546 4.483-3.847 6.558-.252 1.734.238 3.273 1.415 4.45 2.644 2.642 6.862 1.712 11.007-2.432 4.253-4.254 5.807-12.055 5.572-14.148-.133-.016-.292-.024-.473-.024zm-4.037 15.233h.01z" fill="#3a312a"/><path d="m76.927 97.926c0 2.028 1.644 3.672 3.672 3.672s3.672-1.644 3.672-3.672-1.644-3.672-3.672-3.672-3.672 1.644-3.672 3.672z" fill="#8ac5dc"/><path d="m80.599 103.099c-2.852 0-5.172-2.32-5.172-5.173 0-2.852 2.32-5.172 5.172-5.172s5.172 2.32 5.172 5.172-2.32 5.173-5.172 5.173zm0-7.345c-1.198 0-2.172.975-2.172 2.172 0 1.198.975 2.173 2.172 2.173 1.198 0 2.172-.975 2.172-2.173 0-1.197-.974-2.172-2.172-2.172z" fill="#3a312a"/><path d="m62.67 97.926c0 2.028 1.644 3.672 3.672 3.672s3.672-1.644 3.672-3.672-1.644-3.672-3.672-3.672-3.672 1.644-3.672 3.672z" fill="#8ac5dc"/><path d="m66.342 103.099c-2.852 0-5.172-2.32-5.172-5.173 0-2.852 2.32-5.172 5.172-5.172s5.172 2.32 5.172 5.172-2.32 5.173-5.172 5.173zm0-7.345c-1.198 0-2.172.975-2.172 2.172 0 1.198.975 2.173 2.172 2.173 1.198 0 2.172-.975 2.172-2.173 0-1.197-.974-2.172-2.172-2.172z" fill="#3a312a"/><circle cx="52.085" cy="97.926" fill="#8ac5dc" r="3.672"/><path d="m52.085 103.099c-2.852 0-5.172-2.32-5.172-5.173 0-2.852 2.32-5.172 5.172-5.172s5.172 2.32 5.172 5.172-2.32 5.173-5.172 5.173zm0-7.345c-1.198 0-2.172.975-2.172 2.172 0 1.198.975 2.173 2.172 2.173 1.198 0 2.172-.975 2.172-2.173 0-1.197-.974-2.172-2.172-2.172z" fill="#3a312a"/><circle cx="37.828" cy="97.926" fill="#8ac5dc" r="3.672"/><path d="m37.829 103.099c-2.852 0-5.172-2.32-5.172-5.173 0-2.852 2.32-5.172 5.172-5.172s5.172 2.32 5.172 5.172c-.001 2.852-2.321 5.173-5.172 5.173zm0-7.345c-1.198 0-2.172.975-2.172 2.172 0 1.198.975 2.173 2.172 2.173 1.198 0 2.172-.975 2.172-2.173-.001-1.197-.975-2.172-2.172-2.172z" fill="#3a312a"/><circle cx="23.571" cy="97.926" fill="#8ac5dc" r="3.672"/><path d="m23.571 103.099c-2.852 0-5.172-2.32-5.172-5.173 0-2.852 2.32-5.172 5.172-5.172s5.172 2.32 5.172 5.172c.001 2.852-2.32 5.173-5.172 5.173zm0-7.345c-1.198 0-2.172.975-2.172 2.172 0 1.198.974 2.173 2.172 2.173s2.172-.975 2.172-2.173c.001-1.197-.974-2.172-2.172-2.172z" fill="#3a312a"/><path d="m128.016 172.94c2.028 0 3.672 1.644 3.672 3.672s-1.644 3.672-3.672 3.672-3.672-1.644-3.672-3.672 1.644-3.672 3.672-3.672z" fill="#8ac5dc"/><path d="m128.016 181.784c-2.852 0-5.172-2.32-5.172-5.173 0-2.852 2.32-5.172 5.172-5.172s5.172 2.32 5.172 5.172c0 2.853-2.32 5.173-5.172 5.173zm0-7.345c-1.198 0-2.172.975-2.172 2.172 0 1.198.975 2.173 2.172 2.173 1.198 0 2.172-.975 2.172-2.173 0-1.197-.974-2.172-2.172-2.172z" fill="#3a312a"/><path d="m128.016 158.683c2.028 0 3.672 1.644 3.672 3.672s-1.644 3.672-3.672 3.672-3.672-1.644-3.672-3.672 1.644-3.672 3.672-3.672z" fill="#8ac5dc"/><path d="m128.016 167.527c-2.852 0-5.172-2.32-5.172-5.172 0-2.853 2.32-5.173 5.172-5.173s5.172 2.32 5.172 5.173c0 2.852-2.32 5.172-5.172 5.172zm0-7.344c-1.198 0-2.172.975-2.172 2.173 0 1.197.975 2.172 2.172 2.172 1.198 0 2.172-.975 2.172-2.172 0-1.199-.974-2.173-2.172-2.173z" fill="#3a312a"/><path d="m128.016 144.426c2.028 0 3.672 1.644 3.672 3.672s-1.644 3.672-3.672 3.672-3.672-1.644-3.672-3.672 1.644-3.672 3.672-3.672z" fill="#8ac5dc"/><path d="m128.016 153.27c-2.852 0-5.172-2.32-5.172-5.173 0-2.852 2.32-5.172 5.172-5.172s5.172 2.32 5.172 5.172c0 2.853-2.32 5.173-5.172 5.173zm0-7.344c-1.198 0-2.172.975-2.172 2.172 0 1.198.975 2.173 2.172 2.173 1.198 0 2.172-.975 2.172-2.173s-.974-2.172-2.172-2.172z" fill="#3a312a"/><path d="m128.016 130.169c2.028 0 3.672 1.644 3.672 3.672s-1.644 3.672-3.672 3.672-3.672-1.644-3.672-3.672 1.644-3.672 3.672-3.672z" fill="#8ac5dc"/><path d="m128.016 139.014c-2.852 0-5.172-2.32-5.172-5.173 0-2.852 2.32-5.172 5.172-5.172s5.172 2.32 5.172 5.172-2.32 5.173-5.172 5.173zm0-7.345c-1.198 0-2.172.975-2.172 2.172 0 1.198.975 2.173 2.172 2.173 1.198 0 2.172-.975 2.172-2.173 0-1.197-.974-2.172-2.172-2.172z" fill="#3a312a"/><path d="m48.231 169.207c1.434 1.434 1.434 3.759 0 5.193s-3.759 1.434-5.193 0-1.434-3.759 0-5.193 3.759-1.434 5.193 0z" fill="#8ac5dc"/><path d="m45.634 176.974c-1.325 0-2.649-.505-3.657-1.513-.977-.977-1.516-2.276-1.516-3.657 0-1.382.539-2.681 1.516-3.657.976-.978 2.274-1.516 3.656-1.516 1.381 0 2.68.538 3.657 1.516h.001c.977.977 1.515 2.275 1.515 3.657 0 1.381-.538 2.68-1.515 3.657-1.008 1.008-2.333 1.513-3.657 1.513zm0-7.343c-.58 0-1.125.227-1.535.637-.411.41-.637.956-.637 1.536s.227 1.126.637 1.536c.847.846 2.225.846 3.072 0 .41-.41.636-.956.636-1.536s-.226-1.126-.636-1.536c-.411-.411-.957-.637-1.537-.637z" fill="#3a312a"/><path d="m58.312 159.126c1.434 1.434 1.434 3.759 0 5.193s-3.759 1.434-5.193 0-1.434-3.759 0-5.193 3.759-1.434 5.193 0z" fill="#8ac5dc"/><path d="m55.715 166.892c-1.324 0-2.648-.504-3.657-1.512-2.017-2.018-2.017-5.299 0-7.314.977-.977 2.276-1.516 3.657-1.516s2.68.538 3.657 1.516c.977.977 1.515 2.275 1.515 3.657 0 1.381-.538 2.68-1.515 3.657-1.007 1.008-2.332 1.512-3.657 1.512zm0-7.342c-.58 0-1.125.227-1.536.637-.847.847-.846 2.225 0 3.072.847.846 2.225.846 3.072 0 .41-.41.636-.956.636-1.536s-.226-1.126-.636-1.536c-.41-.411-.956-.637-1.536-.637z" fill="#3a312a"/><circle cx="65.797" cy="151.641" fill="#8ac5dc" r="3.672"/><path d="m65.796 156.811c-1.324 0-2.649-.504-3.657-1.512-.977-.977-1.515-2.276-1.515-3.657 0-1.382.538-2.681 1.515-3.657.977-.978 2.275-1.516 3.657-1.516 1.381 0 2.68.538 3.657 1.516h.001c.977.977 1.515 2.275 1.515 3.657 0 1.381-.538 2.68-1.515 3.657-1.009 1.008-2.333 1.512-3.658 1.512zm.001-7.342c-.58 0-1.125.227-1.536.637s-.637.956-.637 1.536.226 1.126.637 1.536c.846.846 2.225.846 3.071 0 .41-.41.636-.956.636-1.536s-.226-1.126-.636-1.536c-.41-.411-.956-.637-1.535-.637z" fill="#3a312a"/><circle cx="75.878" cy="141.56" fill="#8ac5dc" r="3.672"/><path d="m75.878 146.732c-1.382 0-2.681-.538-3.658-1.516-.977-.977-1.515-2.275-1.515-3.657 0-1.381.538-2.68 1.515-3.656.977-.978 2.275-1.516 3.657-1.516 1.381 0 2.68.538 3.657 1.516.977.977 1.515 2.275 1.515 3.656 0 1.382-.538 2.681-1.515 3.657-.975.978-2.274 1.516-3.656 1.516zm0-7.344c-.58 0-1.126.227-1.536.637-.411.41-.637.956-.637 1.535 0 .58.226 1.126.636 1.536.821.82 2.252.82 3.072 0 .411-.41.637-.956.637-1.536 0-.579-.226-1.125-.636-1.535 0 0 0 0-.001 0-.41-.411-.955-.637-1.535-.637z" fill="#3a312a"/><path d="m88.556 128.882c1.434 1.434 1.434 3.759 0 5.193s-3.759 1.434-5.193 0-1.434-3.759 0-5.193c1.433-1.434 3.758-1.434 5.193 0z" fill="#8ac5dc"/><path d="m85.959 136.651c-1.382 0-2.681-.538-3.658-1.516-.977-.977-1.515-2.275-1.515-3.657 0-1.381.538-2.68 1.515-3.657 2.018-2.017 5.299-2.015 7.315 0h.001c.977.978 1.515 2.276 1.515 3.657 0 1.382-.538 2.681-1.515 3.657-.977.978-2.276 1.516-3.658 1.516zm0-7.343c-.556 0-1.113.212-1.536.635-.41.41-.636.956-.636 1.536s.226 1.126.636 1.536c.821.82 2.251.82 3.072 0 .411-.41.637-.956.637-1.536s-.226-1.126-.636-1.536c-.425-.423-.981-.635-1.537-.635z" fill="#3a312a"/><circle cx="96.04" cy="121.398" fill="#8ac5dc" r="3.672"/><path d="m96.04 126.57c-1.382 0-2.681-.538-3.658-1.516-.977-.977-1.515-2.275-1.515-3.657 0-1.381.538-2.68 1.515-3.657 2.018-2.017 5.299-2.015 7.315 0h.001c.977.978 1.515 2.276 1.515 3.657 0 1.382-.538 2.681-1.515 3.657-.977.978-2.276 1.516-3.658 1.516zm0-7.343c-.556 0-1.113.212-1.536.635-.41.41-.636.956-.636 1.536s.226 1.126.636 1.536c.821.82 2.252.82 3.072 0 .411-.41.637-.956.637-1.536s-.226-1.126-.636-1.536c-.425-.424-.981-.635-1.537-.635z" fill="#3a312a"/><path d="m207.8 169.207c-1.434 1.434-1.434 3.759 0 5.193s3.759 1.434 5.193 0 1.434-3.759 0-5.193c-1.433-1.434-3.758-1.434-5.193 0z" fill="#8ac5dc"/><path d="m210.396 176.973c-1.324 0-2.648-.504-3.656-1.512-.977-.977-1.516-2.276-1.516-3.657 0-1.382.538-2.681 1.516-3.657.977-.978 2.275-1.516 3.657-1.516 1.381 0 2.681.538 3.657 1.516 2.016 2.016 2.017 5.297 0 7.314-1.008 1.008-2.332 1.512-3.658 1.512zm.001-7.342c-.58 0-1.126.227-1.536.637-.41.41-.637.956-.637 1.536s.227 1.126.637 1.536c.847.846 2.224.846 3.072 0 .847-.848.847-2.225 0-3.072-.41-.411-.956-.637-1.536-.637zm-2.596-.424h.01z" fill="#3a312a"/><path d="m197.719 159.126c-1.434 1.434-1.434 3.759 0 5.193s3.759 1.434 5.193 0 1.434-3.759 0-5.193c-1.433-1.434-3.759-1.434-5.193 0z" fill="#8ac5dc"/><path d="m200.315 166.892c-1.324 0-2.648-.504-3.656-1.512-.978-.977-1.516-2.276-1.516-3.657 0-1.382.538-2.681 1.516-3.657.977-.977 2.275-1.516 3.657-1.516 1.381 0 2.681.538 3.657 1.516 2.016 2.016 2.017 5.297 0 7.314-1.008 1.008-2.332 1.512-3.658 1.512zm.001-7.342c-.58 0-1.126.227-1.536.637-.41.41-.637.956-.637 1.536s.227 1.126.637 1.536c.848.845 2.225.847 3.072 0 .847-.848.847-2.226 0-3.072-.41-.411-.956-.637-1.536-.637zm-2.596-.424h.01z" fill="#3a312a"/><circle cx="190.235" cy="151.641" fill="#8ac5dc" r="3.672"/><path d="m190.235 156.811c-1.325 0-2.65-.504-3.657-1.513-.977-.977-1.516-2.276-1.516-3.657 0-1.382.538-2.681 1.516-3.657.977-.978 2.275-1.516 3.657-1.516 1.381 0 2.68.538 3.656 1.516.977.977 1.516 2.275 1.516 3.657 0 1.381-.538 2.681-1.516 3.657-1.007 1.01-2.331 1.513-3.656 1.513zm0-7.342c-.58 0-1.126.227-1.536.637-.41.41-.637.956-.637 1.536s.227 1.126.637 1.536c.848.847 2.224.845 3.071 0 .41-.41.637-.956.637-1.536s-.227-1.126-.637-1.536c-.41-.411-.956-.637-1.535-.637zm-2.596-.424h.01z" fill="#3a312a"/><circle cx="180.154" cy="141.56" fill="#8ac5dc" r="3.672"/><path d="m180.153 146.732c-1.381 0-2.681-.538-3.657-1.516-2.017-2.017-2.017-5.297 0-7.313.977-.978 2.276-1.516 3.657-1.516 1.382 0 2.681.538 3.657 1.516.978.977 1.516 2.275 1.516 3.656 0 1.382-.538 2.681-1.516 3.657-.976.978-2.275 1.516-3.657 1.516zm0-7.344c-.58 0-1.126.227-1.536.637-.847.847-.847 2.225 0 3.071.82.82 2.252.82 3.072 0 .41-.41.637-.956.637-1.536 0-.579-.227-1.125-.637-1.535-.41-.411-.956-.637-1.536-.637z" fill="#3a312a"/><path d="m167.476 128.882c-1.434 1.434-1.434 3.759 0 5.193s3.759 1.434 5.193 0 1.434-3.759 0-5.193-3.759-1.434-5.193 0z" fill="#8ac5dc"/><path d="m170.072 136.651c-1.381 0-2.681-.538-3.657-1.516-2.016-2.016-2.017-5.297 0-7.314 2.019-2.017 5.3-2.015 7.314 0 .978.977 1.516 2.276 1.516 3.657 0 1.382-.538 2.681-1.516 3.657-.976.978-2.275 1.516-3.657 1.516zm-1.536-6.709c-.847.848-.847 2.226 0 3.072.82.82 2.252.82 3.072 0 .41-.41.637-.956.637-1.536s-.227-1.126-.637-1.536c-.847-.844-2.224-.846-3.072 0z" fill="#3a312a"/><path d="m157.395 118.801c-1.434 1.434-1.434 3.759 0 5.193s3.759 1.434 5.193 0 1.434-3.759 0-5.193-3.759-1.434-5.193 0z" fill="#8ac5dc"/><path d="m159.991 126.57c-1.381 0-2.681-.538-3.657-1.516-2.016-2.016-2.017-5.297 0-7.315 2.018-2.017 5.3-2.015 7.314 0 .978.977 1.516 2.276 1.516 3.657 0 1.382-.538 2.681-1.516 3.657-.976.979-2.275 1.517-3.657 1.517zm-1.536-6.709c-.847.848-.847 2.226 0 3.072.82.82 2.252.82 3.072 0 .41-.41.637-.956.637-1.536s-.227-1.126-.637-1.536c-.846-.845-2.223-.845-3.072 0z" fill="#3a312a"/><circle cx="232.46" cy="97.926" fill="#8ac5dc" r="3.672"/><path d="m232.46 103.099c-2.852 0-5.172-2.32-5.172-5.173 0-2.852 2.32-5.172 5.172-5.172 2.851 0 5.172 2.32 5.172 5.172s-2.321 5.173-5.172 5.173zm0-7.345c-1.197 0-2.172.975-2.172 2.172 0 1.198.975 2.173 2.172 2.173s2.172-.975 2.172-2.173c0-1.197-.975-2.172-2.172-2.172z" fill="#3a312a"/><circle cx="218.203" cy="97.926" fill="#8ac5dc" r="3.672"/><path d="m218.203 103.099c-2.852 0-5.172-2.32-5.172-5.173 0-2.852 2.32-5.172 5.172-5.172s5.172 2.32 5.172 5.172-2.32 5.173-5.172 5.173zm0-7.345c-1.197 0-2.172.975-2.172 2.172 0 1.198.975 2.173 2.172 2.173s2.172-.975 2.172-2.173c0-1.197-.975-2.172-2.172-2.172z" fill="#3a312a"/><circle cx="203.946" cy="97.926" fill="#8ac5dc" r="3.672"/><path d="m203.946 103.099c-2.852 0-5.172-2.32-5.172-5.173 0-2.852 2.32-5.172 5.172-5.172s5.172 2.32 5.172 5.172-2.32 5.173-5.172 5.173zm0-7.345c-1.197 0-2.172.975-2.172 2.172 0 1.198.975 2.173 2.172 2.173s2.172-.975 2.172-2.173c0-1.197-.974-2.172-2.172-2.172z" fill="#3a312a"/><path d="m186.017 97.926c0 2.028 1.644 3.672 3.672 3.672s3.672-1.644 3.672-3.672-1.644-3.672-3.672-3.672-3.672 1.644-3.672 3.672z" fill="#8ac5dc"/><path d="m189.689 103.099c-2.852 0-5.172-2.32-5.172-5.173 0-2.852 2.32-5.172 5.172-5.172s5.172 2.32 5.172 5.172-2.32 5.173-5.172 5.173zm0-7.345c-1.197 0-2.172.975-2.172 2.172 0 1.198.975 2.173 2.172 2.173s2.172-.975 2.172-2.173c0-1.197-.974-2.172-2.172-2.172z" fill="#3a312a"/><circle cx="175.433" cy="97.926" fill="#8ac5dc" r="3.672"/><path d="m175.433 103.099c-2.852 0-5.172-2.32-5.172-5.173 0-2.852 2.32-5.172 5.172-5.172s5.172 2.32 5.172 5.172c-.001 2.852-2.321 5.173-5.172 5.173zm0-7.345c-1.197 0-2.172.975-2.172 2.172 0 1.198.975 2.173 2.172 2.173s2.172-.975 2.172-2.173c-.001-1.197-.975-2.172-2.172-2.172z" fill="#3a312a"/><path d="m47.411 26.561s3.41 12.659 13.229 13.246c0 0-13.107 4.525-13.328 14.202 0 0-2.58-13.572-12.932-14.059 0 .001 12.057-1.825 13.031-13.389z" fill="#d4d853"/><path d="m47.311 55.509c-.713 0-1.335-.506-1.472-1.217-.024-.124-2.496-12.418-11.529-12.844-.771-.036-1.388-.65-1.428-1.421-.04-.77.511-1.444 1.273-1.561.441-.068 10.901-1.816 11.761-12.031.061-.726.634-1.301 1.359-1.367.725-.061 1.393.399 1.584 1.102.032.116 3.261 11.626 11.87 12.141.714.042 1.298.583 1.396 1.292.098.708-.319 1.388-.995 1.622-.121.043-12.124 4.311-12.319 12.819-.018.767-.61 1.396-1.374 1.46-.042.003-.085.005-.126.005zm-7.746-15.73c3.88 1.97 6.234 5.747 7.591 8.878 2.027-4.021 5.944-6.788 8.954-8.428-4.137-1.843-6.787-5.653-8.338-8.724-1.794 4.361-5.274 6.869-8.207 8.274z" fill="#3a312a"/><path d="m25.701 43.542s2.412 8.954 9.357 9.369c0 0-9.271 3.201-9.427 10.046 0 0-1.825-9.6-9.147-9.944 0-.001 8.528-1.292 9.217-9.471z" fill="#d4d853"/><path d="m25.629 64.456c-.713 0-1.337-.507-1.472-1.22-.016-.082-1.705-8.442-7.744-8.727-.771-.036-1.388-.65-1.428-1.421-.04-.77.511-1.444 1.273-1.561.296-.047 7.369-1.242 7.947-8.112.061-.726.635-1.303 1.36-1.368.724-.066 1.392.399 1.582 1.101.021.079 2.229 7.919 7.999 8.265.714.043 1.299.584 1.396 1.293.098.709-.32 1.389-.996 1.622-.081.028-8.287 2.953-8.418 8.661-.018.768-.611 1.398-1.376 1.461-.039.004-.081.006-.123.006zm-4.521-11.527c2.108 1.333 3.525 3.395 4.45 5.281 1.377-2.233 3.517-3.873 5.368-4.974-2.289-1.27-3.887-3.351-4.944-5.225-1.174 2.288-3.017 3.877-4.874 4.918z" fill="#3a312a"/><path d="m25.701 16.884s2.412 8.954 9.357 9.37c0 0-9.271 3.201-9.427 10.045 0 0-1.825-9.6-9.147-9.944 0 0 8.528-1.292 9.217-9.471z" fill="#d4d853"/><path d="m25.63 37.799c-.714 0-1.337-.507-1.473-1.22-.016-.082-1.705-8.442-7.744-8.727-.771-.036-1.388-.65-1.428-1.421-.04-.77.511-1.444 1.273-1.561.296-.047 7.369-1.242 7.947-8.113.061-.726.635-1.303 1.36-1.368.724-.063 1.392.399 1.582 1.102.021.079 2.229 7.92 7.999 8.266.714.043 1.299.584 1.396 1.293s-.32 1.389-.997 1.622c-.081.028-8.287 2.952-8.417 8.661-.018.768-.611 1.397-1.376 1.461-.039.003-.081.005-.122.005zm-4.522-11.528c2.108 1.333 3.525 3.395 4.45 5.28 1.377-2.233 3.517-3.872 5.368-4.973-2.289-1.269-3.887-3.352-4.944-5.226-1.174 2.289-3.017 3.878-4.874 4.919z" fill="#3a312a"/><path d="m16.516 215.727h223v23.667h-223z" fill="#87796f"/><path d="m239.516 217.227h-223c-.829 0-1.5-.672-1.5-1.5s.671-1.5 1.5-1.5h222.999c.828 0 1.5.672 1.5 1.5.001.828-.671 1.5-1.499 1.5z" fill="#3a312a"/><path d="m222.516 217.223h17v22.17h-17z" fill="#695b51"/></g></svg>