<svg width="35" height="35" viewBox="0 0 35 35" fill="none" xmlns="http://www.w3.org/2000/svg">
<path fill-rule="evenodd" clip-rule="evenodd" d="M5.83366 16.4993C5.83387 14.2542 6.48191 12.0567 7.70002 10.1707C8.91813 8.28473 10.6546 6.79027 12.701 5.86666C14.7474 4.94305 17.0168 4.62954 19.237 4.96375C21.4571 5.29795 23.5337 6.26567 25.2175 7.7508C26.9013 9.23592 28.1208 11.1754 28.7297 13.3364C29.3386 15.4974 29.3111 17.7882 28.6503 19.934C27.9895 22.0797 26.7237 23.9892 25.0046 25.4334C23.2855 26.8775 21.1862 27.795 18.9587 28.0756V19.416H21.8753C22.2621 19.416 22.633 19.2624 22.9065 18.9889C23.18 18.7154 23.3337 18.3445 23.3337 17.9577C23.3337 17.5709 23.18 17.2 22.9065 16.9265C22.633 16.653 22.2621 16.4993 21.8753 16.4993H18.9587V13.5827C18.9587 13.1959 19.1123 12.825 19.3858 12.5515C19.6593 12.278 20.0302 12.1243 20.417 12.1243H21.1462C21.5329 12.1243 21.9039 11.9707 22.1774 11.6972C22.4508 11.4237 22.6045 11.0528 22.6045 10.666C22.6045 10.2792 22.4508 9.90831 22.1774 9.63482C21.9039 9.36133 21.5329 9.20768 21.1462 9.20768H20.417C19.2567 9.20768 18.1439 9.66862 17.3234 10.4891C16.5029 11.3096 16.042 12.4224 16.042 13.5827V16.4993H13.1253C12.7386 16.4993 12.3676 16.653 12.0941 16.9265C11.8206 17.2 11.667 17.5709 11.667 17.9577C11.667 18.3445 11.8206 18.7154 12.0941 18.9889C12.3676 19.2624 12.7386 19.416 13.1253 19.416H16.042V28.0756C13.2225 27.7204 10.6295 26.3482 8.74997 24.2168C6.87038 22.0854 5.83339 19.3412 5.83366 16.4993ZM17.5003 31.0827C25.5547 31.0827 32.0837 24.5537 32.0837 16.4993C32.0837 8.44497 25.5547 1.91602 17.5003 1.91602C9.44595 1.91602 2.91699 8.44497 2.91699 16.4993C2.91699 24.5537 9.44595 31.0827 17.5003 31.0827Z" fill="#8FB46A"/>
</svg>
