<svg width="35" height="35" viewBox="0 0 35 35" fill="none" xmlns="http://www.w3.org/2000/svg">
<path d="M11.3753 1.91602H23.6253C28.292 1.91602 32.0837 5.70768 32.0837 10.3743V22.6243C32.0837 24.8676 31.1925 27.019 29.6063 28.6053C28.02 30.1915 25.8686 31.0827 23.6253 31.0827H11.3753C6.70866 31.0827 2.91699 27.291 2.91699 22.6243V10.3743C2.91699 8.13106 3.80814 5.97965 5.39438 4.3934C6.98063 2.80716 9.13204 1.91602 11.3753 1.91602ZM11.0837 4.83268C9.69127 4.83268 8.35591 5.38581 7.37135 6.37037C6.38678 7.35494 5.83366 8.6903 5.83366 10.0827V22.916C5.83366 25.8181 8.18158 28.166 11.0837 28.166H23.917C25.3094 28.166 26.6447 27.6129 27.6293 26.6283C28.6139 25.6438 29.167 24.3084 29.167 22.916V10.0827C29.167 7.1806 26.8191 4.83268 23.917 4.83268H11.0837ZM25.1566 7.02018C25.64 7.02018 26.1037 7.21224 26.4456 7.5541C26.7874 7.89597 26.9795 8.35963 26.9795 8.8431C26.9795 9.32657 26.7874 9.79023 26.4456 10.1321C26.1037 10.474 25.64 10.666 25.1566 10.666C24.6731 10.666 24.2094 10.474 23.8676 10.1321C23.5257 9.79023 23.3337 9.32657 23.3337 8.8431C23.3337 8.35963 23.5257 7.89597 23.8676 7.5541C24.2094 7.21224 24.6731 7.02018 25.1566 7.02018ZM17.5003 9.20768C19.4342 9.20768 21.2889 9.97591 22.6563 11.3434C24.0238 12.7108 24.792 14.5655 24.792 16.4993C24.792 18.4332 24.0238 20.2879 22.6563 21.6553C21.2889 23.0228 19.4342 23.791 17.5003 23.791C15.5665 23.791 13.7118 23.0228 12.3443 21.6553C10.9769 20.2879 10.2087 18.4332 10.2087 16.4993C10.2087 14.5655 10.9769 12.7108 12.3443 11.3434C13.7118 9.97591 15.5665 9.20768 17.5003 9.20768ZM17.5003 12.1243C16.34 12.1243 15.2272 12.5853 14.4067 13.4058C13.5863 14.2262 13.1253 15.339 13.1253 16.4993C13.1253 17.6597 13.5863 18.7725 14.4067 19.5929C15.2272 20.4134 16.34 20.8743 17.5003 20.8743C18.6606 20.8743 19.7734 20.4134 20.5939 19.5929C21.4144 18.7725 21.8753 17.6597 21.8753 16.4993C21.8753 15.339 21.4144 14.2262 20.5939 13.4058C19.7734 12.5853 18.6606 12.1243 17.5003 12.1243Z" fill="#8FB46A"/>
</svg>
