<svg width="35" height="35" viewBox="0 0 35 35" fill="none" xmlns="http://www.w3.org/2000/svg">
<path d="M27.7809 6.15984C26.4437 4.80958 24.8512 3.73896 23.096 3.01037C21.3409 2.28178 19.4583 1.9098 17.558 1.91609C9.59551 1.91609 3.10592 8.40568 3.10592 16.3682C3.10592 18.9203 3.77676 21.3994 5.03092 23.5869L2.98926 31.0828L10.6455 29.0703C12.7601 30.2223 15.1372 30.8348 17.558 30.8348C25.5205 30.8348 32.0101 24.3453 32.0101 16.3828C32.0101 12.5182 30.508 8.88693 27.7809 6.15984ZM17.558 28.3848C15.3997 28.3848 13.2851 27.8015 11.433 26.7078L10.9955 26.4453L6.44551 27.6411L7.65592 23.2078L7.36426 22.7557C6.16485 20.841 5.52811 18.6275 5.52676 16.3682C5.52676 9.74734 10.9226 4.35151 17.5434 4.35151C20.7518 4.35151 23.7705 5.60568 26.0309 7.88068C27.1504 8.99465 28.0375 10.3198 28.6408 11.7793C29.2441 13.2388 29.5516 14.8035 29.5455 16.3828C29.5747 23.0036 24.1788 28.3848 17.558 28.3848ZM24.1497 19.4015C23.7851 19.2265 22.0059 18.3515 21.6851 18.2203C21.3497 18.1036 21.1163 18.0453 20.8684 18.3953C20.6205 18.7598 19.9351 19.5765 19.7309 19.8098C19.5268 20.0578 19.308 20.0869 18.9434 19.8973C18.5788 19.7223 17.4122 19.3286 16.0413 18.1036C14.9622 17.1411 14.2476 15.9598 14.0288 15.5953C13.8247 15.2307 13.9997 15.0411 14.1893 14.8515C14.3497 14.6911 14.5538 14.4286 14.7288 14.2244C14.9038 14.0203 14.9768 13.8598 15.0934 13.6265C15.2101 13.3786 15.1518 13.1744 15.0643 12.9994C14.9768 12.8244 14.2476 11.0453 13.9559 10.3161C13.6643 9.61609 13.358 9.70359 13.1393 9.68901H12.4393C12.1913 9.68901 11.8122 9.77651 11.4768 10.1411C11.1559 10.5057 10.2226 11.3807 10.2226 13.1598C10.2226 14.939 11.5205 16.6598 11.6955 16.8932C11.8705 17.1411 14.2476 20.7869 17.8643 22.3473C18.7247 22.7265 19.3955 22.9453 19.9205 23.1057C20.7809 23.3828 21.5684 23.339 22.1955 23.2515C22.8955 23.1494 24.3393 22.3765 24.6309 21.5307C24.9372 20.6848 24.9372 19.9703 24.8351 19.8098C24.733 19.6494 24.5143 19.5765 24.1497 19.4015Z" fill="#8FB46A"/>
</svg>
