<svg width="40" height="40" viewBox="0 0 40 40" fill="none" xmlns="http://www.w3.org/2000/svg">
<path d="M31.75 7.85009C30.2218 6.30693 28.4017 5.08337 26.3959 4.25069C24.39 3.41802 22.2385 2.99289 20.0667 3.00009C10.9667 3.00009 3.55002 10.4168 3.55002 19.5168C3.55002 22.4334 4.31669 25.2668 5.75002 27.7668L3.41669 36.3334L12.1667 34.0334C14.5834 35.3501 17.3 36.0501 20.0667 36.0501C29.1667 36.0501 36.5834 28.6334 36.5834 19.5334C36.5834 15.1168 34.8667 10.9668 31.75 7.85009ZM20.0667 33.2501C17.6 33.2501 15.1834 32.5834 13.0667 31.3334L12.5667 31.0334L7.36669 32.4001L8.75002 27.3334L8.41669 26.8168C7.04593 24.6285 6.31823 22.0989 6.31669 19.5168C6.31669 11.9501 12.4834 5.78342 20.05 5.78342C23.7167 5.78342 27.1667 7.21676 29.75 9.81676C31.0294 11.0899 32.0432 12.6043 32.7327 14.2723C33.4222 15.9403 33.7737 17.7286 33.7667 19.5334C33.8 27.1001 27.6334 33.2501 20.0667 33.2501ZM27.6 22.9834C27.1834 22.7834 25.15 21.7834 24.7834 21.6334C24.4 21.5001 24.1334 21.4334 23.85 21.8334C23.5667 22.2501 22.7834 23.1834 22.55 23.4501C22.3167 23.7334 22.0667 23.7668 21.65 23.5501C21.2334 23.3501 19.9 22.9001 18.3334 21.5001C17.1 20.4001 16.2834 19.0501 16.0334 18.6334C15.8 18.2168 16 18.0001 16.2167 17.7834C16.4 17.6001 16.6334 17.3001 16.8334 17.0668C17.0334 16.8334 17.1167 16.6501 17.25 16.3834C17.3834 16.1001 17.3167 15.8668 17.2167 15.6668C17.1167 15.4668 16.2834 13.4334 15.95 12.6001C15.6167 11.8001 15.2667 11.9001 15.0167 11.8834H14.2167C13.9334 11.8834 13.5 11.9834 13.1167 12.4001C12.75 12.8168 11.6834 13.8168 11.6834 15.8501C11.6834 17.8834 13.1667 19.8501 13.3667 20.1168C13.5667 20.4001 16.2834 24.5668 20.4167 26.3501C21.4 26.7834 22.1667 27.0334 22.7667 27.2168C23.75 27.5334 24.65 27.4834 25.3667 27.3834C26.1667 27.2668 27.8167 26.3834 28.15 25.4168C28.5 24.4501 28.5 23.6334 28.3834 23.4501C28.2667 23.2668 28.0167 23.1834 27.6 22.9834Z" fill="white"/>
</svg>
